<?xml version="1.0" encoding="UTF-8" standalone="no"?>
<!-- Created with Inkscape (http://www.inkscape.org/) -->

<svg
   width="131.87511mm"
   height="158.83165mm"
   viewBox="0 0 131.87511 158.83165"
   version="1.1"
   id="svg1299"
   inkscape:version="1.1.1 (3bf5ae0d25, 2021-09-20)"
   sodipodi:docname="aesculus.svg"
   xmlns:inkscape="http://www.inkscape.org/namespaces/inkscape"
   xmlns:sodipodi="http://sodipodi.sourceforge.net/DTD/sodipodi-0.dtd"
   xmlns="http://www.w3.org/2000/svg"
   xmlns:svg="http://www.w3.org/2000/svg">
  <sodipodi:namedview
     id="namedview1301"
     pagecolor="#ffffff"
     bordercolor="#666666"
     borderopacity="1.0"
     inkscape:pageshadow="2"
     inkscape:pageopacity="0.0"
     inkscape:pagecheckerboard="0"
     inkscape:document-units="mm"
     showgrid="false"
     fit-margin-top="0"
     fit-margin-left="0"
     fit-margin-right="0"
     fit-margin-bottom="0"
     inkscape:zoom="0.50898197"
     inkscape:cx="385.0824"
     inkscape:cy="387.04711"
     inkscape:window-width="1920"
     inkscape:window-height="986"
     inkscape:window-x="-11"
     inkscape:window-y="-11"
     inkscape:window-maximized="1"
     inkscape:current-layer="layer1" />
  <defs
     id="defs1296" />
  <g
     inkscape:label="Layer 1"
     inkscape:groupmode="layer"
     id="layer1"
     transform="translate(-11.988209,-53.646243)">
    <path
       style="fill:#000000;stroke-width:1"
       d="m 87.56052,212.46308 c -0.029,-0.012 -0.25756,-0.0816 -0.5077,-0.1566 -0.48584,-0.146 -0.6942,-0.27456 -0.8106,-0.50022 -0.0516,-0.1 -0.0904,-0.57762 -0.1338,-1.64898 -0.0336,-0.82946 -0.0844,-1.65778 -0.1128,-1.84068 -0.0618,-0.39694 -0.1294,-1.43862 -0.28782,-4.42994 -0.0346,-0.65264 -0.1108,-1.4489 -0.2153,-2.24896 -0.0438,-0.3347 -0.1024,-0.78714 -0.1304,-1.00542 -0.028,-0.21828 -0.0762,-0.53606 -0.1068,-0.7062 -0.0308,-0.1702 -0.0884,-0.57494 -0.128,-0.89958 -0.0396,-0.32464 -0.1088,-0.8403 -0.1538,-1.14588 -0.0894,-0.60818 -0.1596,-1.11442 -0.40338,-2.91042 -0.0888,-0.65484 -0.1974,-1.40494 -0.24094,-1.66688 -0.119,-0.71384 -0.234,-1.75906 -0.2884,-2.61938 -0.0266,-0.422 -0.0732,-0.96968 -0.1034,-1.21708 -0.0302,-0.24738 -0.0776,-0.676 -0.1052,-0.9525 -0.0276,-0.27648 -0.086,-0.6932 -0.1298,-0.92604 -0.1128,-0.60068 -0.45798,-2.95606 -0.56218,-3.83646 -0.0328,-0.27648 -0.1044,-0.74082 -0.1592,-1.03188 -0.0548,-0.29104 -0.1148,-0.64822 -0.133,-0.79374 -0.018,-0.1456 -0.0646,-0.39556 -0.1028,-0.55562 -0.0382,-0.16 -0.108,-0.5887 -0.1548,-0.9525 -0.0468,-0.3638 -0.1072,-0.78052 -0.134,-0.92604 -0.0268,-0.1456 -0.0636,-0.39556 -0.0816,-0.55564 -0.018,-0.16 -0.0656,-0.49344 -0.1058,-0.74082 -0.0402,-0.2474 -0.1346,-0.91414 -0.20994,-1.48168 -0.0752,-0.56752 -0.1834,-1.36524 -0.24042,-1.7727 -0.1118,-0.79968 -0.3676,-2.76886 -0.4984,-3.83646 -0.47974,-3.91556 -0.5227,-4.30904 -0.53148,-4.86834 -0.004,-0.24738 -0.0372,-0.55418 -0.0742,-0.68178 -0.037,-0.1276 -0.0538,-0.2853 -0.0374,-0.35044 0.016,-0.0652 -0.004,-0.187 -0.0434,-0.2707 -0.0402,-0.0838 -0.101,-0.46078 -0.1352,-0.83784 -0.0342,-0.37704 -0.0716,-0.70092 -0.0832,-0.7197 -0.012,-0.018 -0.0694,-0.55562 -0.1284,-1.19298 -0.1706,-1.84276 -0.3137,-3.22922 -0.39824,-3.8576 -0.043,-0.32014 -0.0902,-0.76068 -0.1048,-0.97896 -0.014,-0.21828 -0.05,-0.56356 -0.0786,-0.76728 -0.0286,-0.20374 -0.1014,-0.84668 -0.1618,-1.42876 -0.0604,-0.58208 -0.119,-1.11786 -0.1302,-1.19062 -0.012,-0.0728 -0.047,-0.40614 -0.0794,-0.74084 -0.0324,-0.3347 -0.0934,-0.89428 -0.1356,-1.24354 -0.0422,-0.34924 -0.1026,-0.97958 -0.1342,-1.40074 -0.0316,-0.42116 -0.0676,-0.78222 -0.08,-0.80232 -0.012,-0.0202 -0.0468,-0.34228 -0.0764,-0.71592 -0.0614,-0.77382 -0.28336,-2.39856 -0.64598,-4.72748 -0.0294,-0.1892 -0.0774,-0.37372 -0.1064,-0.4101 -0.0762,-0.0954 -0.27254,-0.0814 -0.52998,0.0376 -0.1234,0.057 -0.42262,0.1762 -0.66502,0.26478 -0.53118,0.194 -0.87188,0.38694 -1.017,0.57588 -0.1878,0.24454 -0.46426,0.65958 -0.6397,0.96054 -0.0934,0.16 -0.25004,0.38162 -0.34826,0.49232 -0.0982,0.1108 -0.20392,0.25692 -0.2349,0.32492 -0.031,0.068 -0.113,0.154 -0.1822,0.191 -0.0692,0.037 -0.1764,0.1716 -0.23808,0.2991 -0.0618,0.1274 -0.25244,0.3733 -0.42388,0.54634 l -0.31168,0.3146 v 0.4024 c 0,0.32226 -0.021,0.42918 -0.1058,0.53694 -0.064,0.0812 -0.1058,0.21468 -0.1058,0.3369 0,0.30028 -0.1498,0.55556 -0.37968,0.64694 -0.1796,0.0714 -0.20324,0.107 -0.30948,0.46676 -0.135,0.45732 -0.25286,0.63002 -0.7739,1.13454 -0.40832,0.3954 -0.54778,0.63726 -0.54778,0.95012 0,0.1492 -0.0402,0.22836 -0.1852,0.36512 -0.1466,0.1382 -0.1852,0.2154 -0.1852,0.3695 0,0.3378 -0.39862,0.9833 -0.60724,0.9833 -0.1698,0 -0.34526,0.23344 -0.34526,0.45956 0,0.20744 -0.1306,0.49256 -0.22624,0.49376 -0.1456,0.002 -0.2155,0.1102 -0.254,0.39394 -0.0224,0.1644 -0.0788,0.35724 -0.1254,0.42838 -0.0736,0.1124 -0.1246,0.1294 -0.38928,0.1294 -0.1876,0 -0.34886,0.031 -0.42,0.081 -0.1402,0.0982 -0.21316,0.42414 -0.1262,0.56346 0.0984,0.1574 -0.1294,0.52072 -0.40604,0.64758 -0.1246,0.0572 -0.23432,0.1494 -0.25172,0.21166 -0.086,0.30776 -0.1652,0.41634 -0.44008,0.6029 -0.164,0.1112 -0.34032,0.21804 -0.39202,0.23736 -0.0518,0.02 -0.1404,0.1434 -0.197,0.27552 -0.1048,0.2443 -0.1192,0.25588 -0.39404,0.3167 -0.0858,0.018 -0.23382,0.1172 -0.32906,0.2181 -0.0952,0.101 -0.25638,0.21836 -0.35812,0.26088 -0.23514,0.0982 -0.30784,0.23624 -0.28574,0.54252 l 0.018,0.24404 -0.20244,0.0424 c -0.27202,0.0568 -0.85094,0.40656 -1.16172,0.70172 -0.146,0.1388 -0.30316,0.24018 -0.37188,0.24018 -0.1714,0 -0.34348,0.138 -0.44826,0.35944 -0.0646,0.1366 -0.1408,0.20678 -0.2619,0.24138 -0.1098,0.0314 -0.286,0.1784 -0.49348,0.4119 -0.31698,0.35668 -0.32736,0.36312 -0.58512,0.36312 -0.27772,0 -0.36562,0.0602 -0.94014,0.6449 -0.23038,0.23442 -0.42372,0.2911 -0.69152,0.20274 -0.25472,-0.084 -0.37642,-0.0228 -0.50008,0.2513 -0.0772,0.1712 -0.40242,0.46004 -0.40242,0.3574 0,-0.074 -0.25404,0.1132 -0.44106,0.32482 -0.1686,0.1908 -0.23574,0.23002 -0.39688,0.2317 -0.1596,0.002 -0.21302,0.0322 -0.30168,0.172 -0.0926,0.1458 -0.134,0.1676 -0.29288,0.1538 -0.116,-0.01 -0.29332,0.0342 -0.47436,0.1186 -0.3626,0.1688 -0.88502,0.19 -1.01946,0.0414 -0.0784,-0.0866 -0.0782,-0.114 0.004,-0.34102 0.0488,-0.1358 0.0722,-0.26346 0.0518,-0.28374 -0.0202,-0.0202 -0.1674,0.0638 -0.32706,0.187 -0.184,0.1418 -0.3645,0.23384 -0.493056,0.25108 -0.17972,0.024 -0.210032,0.012 -0.265646,-0.1106 -0.03452,-0.0758 -0.08526,-0.1378 -0.11274,-0.1378 -0.02748,0 -0.16186,0.131 -0.29861,0.29104 -0.269524,0.3155 -0.484526,0.38952 -0.537956,0.1852 -0.04404,-0.1684 -0.13692,-0.1254 -0.352462,0.1634 -0.16542,0.22156 -0.22245,0.2638 -0.32232,0.23874 -0.0793,-0.02 -0.18494,0.012 -0.3049,0.0942 -0.250344,0.1698 -0.71881,0.22706 -0.936832,0.1144 -0.1905,-0.0986 -0.1888,-0.089 -0.07344,-0.41088 0.04932,-0.1376 0.07744,-0.26238 0.06252,-0.2773 -0.015,-0.014 -0.15216,0.0352 -0.304964,0.1114 -0.19544,0.0974 -0.294438,0.1218 -0.33384,0.0824 -0.05378,-0.0538 -0.249274,0.0504 -0.457328,0.24394 -0.04082,0.038 -0.14862,0.0618 -0.239552,0.053 -0.15292,-0.014 -0.16534,-0.031 -0.16534,-0.21456 0,-0.26218 -0.07698,-0.25438 -0.391398,0.0398 -0.25817,0.24148 -0.40712,0.2976 -0.438162,0.165 -0.013,-0.0554 -0.10606,-0.0304 -0.383778,0.1026 -0.246676,0.1182 -0.393974,0.161 -0.450114,0.131 -0.0459,-0.0246 -0.195,-0.032 -0.331326,-0.016 -0.320782,0.0362 -0.470018,-0.008 -0.587524,-0.1706 -0.09336,-0.1298 -0.09198,-0.1392 0.07082,-0.4803 0.09132,-0.1914 0.15498,-0.35898 0.14146,-0.37252 -0.0136,-0.014 -0.15256,0.024 -0.308954,0.0834 -0.489966,0.1862 -0.73415,0.1306 -0.73415,-0.167 0,-0.1866 -0.03484,-0.1852 -0.406008,0.016 -0.270426,0.1464 -0.309108,0.1548 -0.364214,0.0794 -0.06698,-0.0916 -0.315792,-0.115 -0.365596,-0.0344 -0.04072,0.0658 -0.466568,0.1282 -0.59588,0.087 -0.14002,-0.0444 -0.332052,-0.23086 -0.332052,-0.32234 0,-0.0416 0.0739,-0.1596 0.16424,-0.26252 0.16796,-0.1914 0.15308,-0.24294 -0.0334,-0.116 -0.0574,0.039 -0.21138,0.0976 -0.342158,0.13 -0.19318,0.0478 -0.259932,0.0444 -0.355886,-0.018 -0.1025,-0.0672 -0.11014,-0.0948 -0.0579,-0.20954 0.03312,-0.0726 0.0447,-0.1476 0.02576,-0.1666 -0.019,-0.018 -0.19218,0.0456 -0.384958,0.1434 -0.33673,0.171 -0.353342,0.174 -0.42279,0.079 -0.07044,-0.0964 -0.07782,-0.0964 -0.289464,-9.4e-4 -0.1786,0.0806 -0.23578,0.0864 -0.32195,0.0326 -0.05764,-0.036 -0.1503,-0.051 -0.205936,-0.0334 -0.1403,0.0446 -0.474308,-0.123 -0.474308,-0.23786 0,-0.051 0.09526,-0.21252 0.211666,-0.35872 0.11642,-0.1462 0.211668,-0.27816 0.211668,-0.2932 0,-0.016 -0.13692,0.006 -0.304272,0.0454 -0.550206,0.1314 -0.740108,0.08 -0.643376,-0.1744 0.04358,-0.1146 0.03796,-0.1264 -0.04356,-0.0918 -0.222366,0.0944 -0.48116,0.146 -0.56752,0.1128 -0.07546,-0.029 -0.0864,-0.0724 -0.0573,-0.22754 0.03224,-0.1718 0.026,-0.1874 -0.06036,-0.1496 -0.208164,0.091 -0.496624,0.0912 -0.596932,5.4e-4 -0.0928,-0.084 -0.11018,-0.0814 -0.303656,0.0468 -0.13862,0.0918 -0.273262,0.1344 -0.414862,0.1318 -0.1153,-0.002 -0.287242,0.012 -0.382102,0.033 -0.20704,0.0444 -0.309758,-0.026 -0.35796,-0.24548 -0.02864,-0.1304 -0.05404,-0.1516 -0.14892,-0.1242 -0.06292,0.018 -0.18518,0.0832 -0.271674,0.1446 -0.11298,0.0802 -0.270114,0.12 -0.558002,0.141 -0.246824,0.018 -0.454274,0.0646 -0.540146,0.1208 -0.214958,0.1408 -0.517784,0.17 -0.751396,0.0724 -0.258946,-0.1082 -0.491764,-0.1068 -0.691934,0.004 -0.1552,0.086 -0.46995,0.1394 -1.217082,0.20612 -0.20373,0.018 -0.506386,0.0812 -0.672568,0.14 -0.206306,0.073 -0.357376,0.0954 -0.47625,0.0704 -0.09576,-0.02 -0.409422,-0.0326 -0.697038,-0.028 -0.365352,0.006 -0.580628,-0.016 -0.714374,-0.0718 -0.1053,-0.0442 -0.256922,-0.0944 -0.336958,-0.1118 -0.22921,-0.0494 -0.19024,-0.2108 0.06968,-0.28868 0.11836,-0.0354 0.39333,-0.1582 0.611056,-0.27296 0.217726,-0.1146 0.450114,-0.20848 0.516418,-0.20848 0.0663,0 0.17556,-0.0586 0.242776,-0.13 0.07284,-0.0776 0.23258,-0.1548 0.395404,-0.1912 0.15024,-0.0336 0.379196,-0.112 0.508772,-0.1742 0.19192,-0.092 0.240496,-0.1446 0.26205,-0.2831 0.02278,-0.1464 0.0707,-0.1916 0.343958,-0.3247 0.17462,-0.085 0.380206,-0.169 0.456844,-0.1866 0.07664,-0.018 0.214856,-0.1026 0.307146,-0.1888 0.14746,-0.1378 0.16354,-0.1796 0.13258,-0.3445 -0.02436,-0.1298 -0.0158,-0.1878 0.02794,-0.1878 0.03474,0 0.17904,-0.1152 0.320656,-0.25614 0.14162,-0.1408 0.335624,-0.27856 0.431114,-0.30594 0.249962,-0.0716 0.352246,-0.2742 0.26306,-0.52084 -0.06664,-0.1842 -0.06274,-0.1966 0.13902,-0.43968 0.11416,-0.1376 0.271542,-0.3478 0.349716,-0.46722 0.13366,-0.20416 0.13832,-0.2314 0.07798,-0.45702 -0.0619,-0.23142 -0.05786,-0.24992 0.11446,-0.52372 0.09824,-0.1562 0.245344,-0.36204 0.326872,-0.45764 0.08152,-0.0956 0.14824,-0.20988 0.14824,-0.25398 0,-0.1496 0.15776,-0.38616 0.30409,-0.45606 0.17752,-0.0848 0.22434,-0.29648 0.0877,-0.3964 -0.05198,-0.038 -0.207672,-0.069 -0.34598,-0.069 -0.291984,0 -0.416222,-0.1216 -0.416222,-0.40714 0,-0.22574 0.21388,-0.69708 0.389726,-0.85886 0.0767,-0.0706 0.13944,-0.1686 0.13944,-0.21776 0,-0.1494 0.214576,-0.37334 0.457818,-0.4776 0.19738,-0.0846 0.230098,-0.1208 0.230098,-0.25506 0,-0.1286 0.02658,-0.1622 0.14926,-0.1892 0.223408,-0.049 0.528986,-0.32352 0.548464,-0.4926 0.0124,-0.1078 0.08704,-0.1898 0.294456,-0.32358 0.301508,-0.1944 0.359324,-0.3575 0.19218,-0.54218 -0.0471,-0.052 -0.09766,-0.2014 -0.11238,-0.3319 -0.02432,-0.21574 -0.0112,-0.25144 0.14402,-0.39326 0.1424,-0.13 0.16516,-0.1816 0.13694,-0.30994 -0.02642,-0.1202 0,-0.1998 0.12118,-0.36296 0.262968,-0.35458 0.473926,-0.55422 0.67393,-0.6378 0.1055,-0.044 0.203544,-0.125 0.21788,-0.1798 0.0156,-0.0594 0.09346,-0.114 0.19266,-0.1352 0.235924,-0.0504 0.29889,-0.1172 0.29889,-0.31732 0,-0.20354 0.10522,-0.25998 0.386418,-0.20722 0.216176,0.0406 0.354416,-0.07 0.354416,-0.2834 0,-0.1164 0.0357,-0.1546 0.19844,-0.2116 0.10914,-0.0382 0.324698,-0.0898 0.479008,-0.1146 0.328174,-0.0526 0.421476,-0.1164 0.443892,-0.30364 0.02018,-0.1684 0.278452,-0.2755 0.783436,-0.32476 l 0.34373,-0.0336 0.16918,-0.33974 c 0.09304,-0.1868 0.230604,-0.40116 0.305678,-0.47624 0.12528,-0.1254 0.17544,-0.137 0.61041,-0.1424 0.532776,-0.006 0.659442,-0.0644 0.617182,-0.28204 -0.04486,-0.23104 0.1425,-0.45572 0.534486,-0.64092 0.19384,-0.0916 0.379296,-0.20324 0.412124,-0.24814 0.0661,-0.0904 0.694876,-0.2705 0.961122,-0.27526 0.10962,-0.002 0.232992,-0.0582 0.346836,-0.1582 0.232802,-0.2044 0.409872,-0.24494 0.612404,-0.1402 0.305044,0.1578 0.723964,0.0702 0.782628,-0.1636 0.0245,-0.0976 0.06692,-0.1232 0.203936,-0.1232 0.09516,0 0.258498,0.0358 0.362982,0.0794 0.10448,0.0436 0.285796,0.0794 0.402918,0.0794 0.19406,0 0.221302,-0.018 0.307096,-0.1984 0.08648,-0.1822 0.10986,-0.197 0.286962,-0.1816 0.10604,0.01 0.299218,-0.02 0.42927,-0.0634 0.1953,-0.0662 0.298826,-0.07 0.594816,-0.0208 0.349964,0.058 0.360966,0.0562 0.46919,-0.0714 0.06096,-0.072 0.1763,-0.159 0.256344,-0.1932 0.08004,-0.0344 0.14552,-0.0856 0.14552,-0.114 0,-0.0318 0.325558,-0.0466 0.84946,-0.0388 0.538714,0.008 0.865944,-0.008 0.894514,-0.0422 0.02478,-0.0302 0.05328,-0.1142 0.06336,-0.1866 0.02006,-0.1442 -0.12238,-0.1166 1.68517,-0.3267 0.2866,-0.0334 0.74156,-0.1376 1.05834,-0.24266 0.43874,-0.1454 0.67918,-0.1916 1.1429,-0.2198 0.41796,-0.0254 0.6272,-0.0618 0.72574,-0.1264 0.1124,-0.0736 0.26554,-0.0908 0.81502,-0.091 0.51852,0 0.71362,-0.0202 0.8353,-0.085 0.38196,-0.20386 0.7303,-0.28504 1.2232,-0.28504 0.27074,0 0.66588,-0.023 0.87808,-0.0512 0.21218,-0.0282 0.5763,-0.0764 0.80914,-0.1072 0.23282,-0.0308 0.51858,-0.09 0.635,-0.1318 0.1164,-0.0416 0.33072,-0.0776 0.47624,-0.08 0.1456,-0.002 0.45508,-0.0398 0.68792,-0.0832 0.23284,-0.0434 0.7266,-0.1124 1.09726,-0.1534 0.37068,-0.041 0.6968,-0.0884 0.72474,-0.1058 0.028,-0.018 0.31998,-0.0544 0.64898,-0.0824 0.329,-0.028 0.72916,-0.0782 0.88922,-0.1114 0.40136,-0.0834 5.15744,-0.0804 5.75818,0.004 0.24204,0.0338 0.4742,0.0746 0.51594,0.0906 0.1376,0.0528 0.08,-0.1162 -0.0986,-0.28932 -0.096,-0.093 -0.1948,-0.1692 -0.21942,-0.1692 -0.0246,0 -0.1716,-0.0842 -0.32666,-0.187 -0.155,-0.1028 -0.37174,-0.21936 -0.48172,-0.25888 -0.1762,-0.0632 -1.2372,-0.59098 -1.5229,-0.75736 -0.0582,-0.034 -0.1984,-0.1028 -0.31164,-0.153 -0.1132,-0.0502 -0.3275,-0.183 -0.47624,-0.29502 -0.1488,-0.112 -0.37762,-0.25318 -0.50858,-0.31384 -0.35134,-0.1626 -1.06098,-0.525 -2.56646,-1.3103 -0.1164,-0.0608 -0.30692,-0.1544 -0.42334,-0.20838 -0.1164,-0.0538 -0.41406,-0.2053 -0.66146,-0.3365 -1.18802,-0.62998 -1.49112,-0.78352 -1.5501,-0.78518 -0.0352,-0.001 -0.159,-0.0478 -0.27552,-0.104 -0.1164,-0.0562 -0.27466,-0.103 -0.35164,-0.104 -0.0804,-0.001 -0.193,-0.0592 -0.26458,-0.1366 -0.21762,-0.23526 -1.27264,-0.6766 -1.83274,-0.76668 -0.21056,-0.0338 -0.3326,-0.0852 -0.40094,-0.1686 -0.059,-0.072 -0.2069,-0.1444 -0.37042,-0.1814 -0.1496,-0.0338 -0.42696,-0.0994 -0.61614,-0.1458 -0.1892,-0.0464 -0.59398,-0.1084 -0.89958,-0.1382 -0.3056,-0.0296 -0.72854,-0.101 -0.93986,-0.1588 -0.21134,-0.0578 -0.42204,-0.105 -0.46826,-0.105 -0.0462,0 -0.167,-0.0394 -0.26858,-0.0876 -0.1478,-0.0702 -0.18,-0.1118 -0.1612,-0.20958 0.021,-0.11 -7.4e-4,-0.125 -0.2203,-0.1526 -0.134,-0.016 -0.33888,-0.059 -0.4553,-0.0938 -0.1164,-0.0348 -0.24738,-0.066 -0.29104,-0.0692 -0.099,-0.008 -0.47224,-0.076 -0.5926,-0.109 -0.0504,-0.014 -0.0776,-0.0568 -0.0618,-0.098 0.0392,-0.1022 -0.27776,-0.1548 -0.66728,-0.1108 -0.36182,0.041 -0.5834,-0.001 -0.5834,-0.1118 0,-0.0652 -0.0646,-0.0722 -0.38606,-0.042 -0.31852,0.0298 -0.39828,0.0214 -0.4558,-0.0478 -0.0384,-0.0462 -0.092,-0.0702 -0.119,-0.0534 -0.0272,0.016 -0.3876,-0.052 -0.800974,-0.153 -0.41338,-0.1008 -0.892482,-0.20972 -1.064678,-0.24182 -0.35469,-0.0662 -0.598276,-0.24148 -0.49999,-0.35992 0.048,-0.0578 -0.0034,-0.0708 -0.28112,-0.0708 -0.18692,0 -0.364516,0.0246 -0.394662,0.0548 -0.07994,0.08 -0.623168,0.0736 -0.810742,-0.01 -0.15724,-0.0696 -0.2139,-0.2182 -0.10812,-0.28358 0.0291,-0.018 0.05292,-0.0552 0.05292,-0.0824 0,-0.0744 -0.325648,-0.0602 -0.669994,0.0296 -0.565922,0.1474 -1.020926,0.0666 -0.958966,-0.1704 0.0235,-0.0898 -0.0092,-0.0932 -0.525336,-0.055 -0.567482,0.042 -0.75612,0.006 -0.75612,-0.1468 0,-0.0878 -0.316388,-0.1092 -0.466498,-0.0312 -0.04902,0.0254 -0.311118,0.063 -0.582442,0.0836 -0.470896,0.0358 -0.494624,0.0324 -0.522108,-0.0726 -0.02562,-0.098 -0.06864,-0.11 -0.389584,-0.11 -0.19844,0 -0.526706,-0.0348 -0.729508,-0.0776 -0.444168,-0.0934 -1.165454,-0.118 -1.688714,-0.0574 -0.258388,0.03 -0.383646,0.0264 -0.383646,-0.01 0,-0.1388 -0.202926,-0.109 -0.617866,0.091 -0.243342,0.1172 -0.49557,0.21312 -0.560514,0.21302 -0.16908,-5.4e-4 -0.477578,-0.20048 -0.443956,-0.28812 0.02232,-0.0582 -0.06748,-0.0712 -0.458184,-0.0668 -0.56544,0.006 -0.748172,-0.0596 -0.710406,-0.25722 0.02102,-0.1098 -7.4e-4,-0.1312 -0.16464,-0.162 -0.10388,-0.02 -0.291328,-0.008 -0.41657,0.0254 -0.346352,0.0926 -0.835914,0.0786 -0.941494,-0.027 -0.07984,-0.0798 -0.08018,-0.0922 -0.0038,-0.135 0.245158,-0.1372 -0.0479,-0.20232 -0.30561,-0.068 -0.211512,0.1102 -0.555544,0.0986 -0.81745,-0.028 -0.12188,-0.0588 -0.221604,-0.1192 -0.221604,-0.1342 0,-0.014 0.03846,-0.0858 0.08546,-0.1576 l 0.08546,-0.1304 -0.283898,-0.006 c -0.15614,-0.004 -0.509492,-0.004 -0.785214,-0.002 -0.385912,0.002 -0.522564,-0.016 -0.59361,-0.0802 -0.06492,-0.0588 -0.0782,-0.1098 -0.0448,-0.1722 0.03922,-0.0732 0.009,-0.0996 -0.17368,-0.151 -0.12164,-0.0342 -0.292602,-0.058 -0.379916,-0.0528 -0.418196,0.0248 -0.66399,-0.014 -0.772582,-0.1228 -0.08082,-0.0808 -0.09524,-0.127 -0.05292,-0.1694 0.1118,-0.1118 0.05502,-0.1314 -0.39331,-0.135 -0.472628,-0.004 -0.57702,-0.03 -0.537014,-0.1342 0.0178,-0.0466 -0.16338,-0.0636 -0.697538,-0.0656 -0.841922,-0.004 -1.25749,-0.0958 -1.433352,-0.31936 -0.10136,-0.1288 -0.10338,-0.1474 -0.02554,-0.23344 0.07818,-0.0864 0.07532,-0.0984 -0.03796,-0.159 -0.13788,-0.0738 -0.461966,-0.0816 -0.88686,-0.0212 -0.241036,0.0342 -0.296866,0.026 -0.353552,-0.0514 -0.03702,-0.0506 -0.0545,-0.1254 -0.03884,-0.1662 0.018,-0.047 -0.0076,-0.075 -0.06978,-0.0764 -0.704062,-0.016 -1.28121,-0.0712 -1.377482,-0.133 -0.1803,-0.1156 -0.205286,-0.27672 -0.06592,-0.42506 l 0.12006,-0.1278 -0.23412,-0.004 c -0.371096,-0.006 -0.654552,-0.111 -0.674366,-0.2488 -0.015,-0.105 -0.03874,-0.1142 -0.219468,-0.0852 -0.245162,0.0392 -0.53159,-0.0482 -0.74392,-0.22678 -0.21288,-0.1792 -0.204694,-0.35092 0.0278,-0.58342 0.10186,-0.1018 0.1852,-0.1948 0.1852,-0.20638 0,-0.012 -0.16692,-0.0212 -0.370934,-0.0212 -0.305452,0 -0.386932,-0.018 -0.461552,-0.1058 -0.07352,-0.0858 -0.1561,-0.1058 -0.4375,-0.1058 -0.419702,0 -0.55769,-0.078 -0.550974,-0.31158 0.0026,-0.091 0.0205,-0.181 0.03974,-0.20026 0.1227,-0.1226 -0.19394,-0.1302 -0.714398,-0.016 -0.203268,0.0442 -0.364892,0.0494 -0.50271,0.016 -0.1917,-0.0464 -0.202782,-0.06 -0.19708,-0.24448 0.006,-0.1944 0.005,-0.1954 -0.211666,-0.1962 -0.274736,-0.001 -0.482286,-0.1038 -0.482286,-0.23908 0,-0.0932 -0.04674,-0.1068 -0.449792,-0.1306 -0.443642,-0.026 -0.60904,-0.0724 -0.557448,-0.1558 0.02836,-0.0458 -0.289986,-0.1382 -0.633176,-0.1834 -0.11642,-0.016 -0.248812,-0.0734 -0.294212,-0.1288 -0.0454,-0.0554 -0.1567,-0.1392 -0.24735,-0.1862 -0.432068,-0.22342 -0.708496,-0.74148 -0.424168,-0.79492 0.487088,-0.0916 0.541158,-0.1144 0.588412,-0.24942 0.02648,-0.0756 0.03196,-0.22378 0.0122,-0.32924 -0.03134,-0.167 -0.06334,-0.2 -0.248652,-0.25546 -0.11698,-0.035 -0.26485,-0.1256 -0.328612,-0.20134 -0.06376,-0.0756 -0.19252,-0.1694 -0.286152,-0.20804 -0.213158,-0.0882 -0.264562,-0.1506 -0.28766,-0.34936 -0.016,-0.1374 0.007,-0.17 0.17604,-0.24988 0.346906,-0.164 0.31376,-0.4533 -0.06948,-0.60664 -0.17618,-0.0704 -0.209714,-0.1064 -0.19092,-0.20472 0.02062,-0.1078 -0.0078,-0.1256 -0.299562,-0.1854 -0.38966,-0.0802 -0.507568,-0.1354 -0.507568,-0.23768 0,-0.0426 -0.03202,-0.0776 -0.07118,-0.0776 -0.11164,0 -0.246328,-0.18 -0.246328,-0.32916 0,-0.1006 0.03422,-0.1442 0.1323,-0.1688 0.07276,-0.018 0.1323,-0.0576 0.1323,-0.0876 0,-0.0298 0.0556,-0.11 0.12356,-0.1778 l 0.12354,-0.1236 -0.245778,-0.0292 c -0.13518,-0.016 -0.339602,-0.018 -0.454278,-0.004 -0.15136,0.018 -0.255634,-0.004 -0.380484,-0.0824 -0.21876,-0.1372 -0.22386,-0.2915 -0.0132,-0.40042 0.08732,-0.0452 0.15874,-0.103 0.15874,-0.1284 0,-0.0254 -0.12502,-0.0704 -0.277814,-0.0998 -0.804268,-0.155 -1.071696,-0.2975 -1.017944,-0.54222 0.0278,-0.1266 0.0086,-0.151 -0.1771,-0.22524 -0.19258,-0.077 -0.432134,-0.3064 -0.432134,-0.41372 0,-0.0252 0.04762,-0.0458 0.10584,-0.0458 0.15322,0 0.13322,-0.0498 -0.13258,-0.33052 -0.1308,-0.1382 -0.23783,-0.27312 -0.23783,-0.29994 0,-0.0268 -0.0132,-0.0834 -0.0295,-0.1256 -0.0162,-0.0422 0.005,-0.1114 0.04702,-0.1534 0.06674,-0.0668 0.06342,-0.105 -0.02598,-0.30012 -0.07174,-0.1566 -0.09776,-0.31174 -0.0867,-0.51728 l 0.0158,-0.29368 0.259044,-0.0892 c 0.249002,-0.0858 0.259354,-0.0974 0.267098,-0.29936 0.0094,-0.24634 -0.0769,-0.36982 -0.313076,-0.44778 -0.18522,-0.0612 -0.29244,-0.23374 -0.29244,-0.47082 0,-0.1268 0.03032,-0.157 0.212544,-0.21156 0.1169,-0.035 0.28954,-0.1306 0.383646,-0.21246 0.0941,-0.0818 0.257888,-0.177 0.36396,-0.21156 0.2328,-0.0758 0.293778,-0.23304 0.14718,-0.37964 -0.0761,-0.076 -0.17624,-0.102 -0.395354,-0.102 -0.241006,0 -0.31666,-0.0232 -0.423334,-0.1298 -0.1739,-0.174 -0.16364,-0.31512 0.03306,-0.4552 l 0.16296,-0.116 -0.203178,-0.091 c -0.11174,-0.05 -0.288964,-0.107 -0.393814,-0.1268 -0.237872,-0.0446 -0.405538,-0.21082 -0.318492,-0.31572 0.07256,-0.0874 -0.03378,-0.1936 -0.298802,-0.2986 -0.209826,-0.083 -0.322478,-0.25506 -0.215108,-0.32842 0.05746,-0.0392 0.05092,-0.0614 -0.0331,-0.1124 -0.279488,-0.1692 -0.662046,-0.66846 -0.662388,-0.86438 -1.6e-4,-0.0932 0.04098,-0.1192 0.23465,-0.1482 0.13138,-0.02 0.374422,-0.006 0.551662,0.0302 0.25344,0.0524 0.332854,0.0522 0.397006,-0.001 0.10514,-0.0872 0.0616,-0.198 -0.17922,-0.4557 -0.30049,-0.32156 -0.317696,-0.71436 -0.0313,-0.71436 0.17182,0 0.482214,-0.22154 0.482214,-0.34416 0,-0.068 -0.0947,-0.155 -0.285862,-0.26248 -0.328798,-0.1848 -0.44325,-0.32318 -0.327148,-0.3956 0.05998,-0.0374 0.04062,-0.081 -0.09722,-0.21884 -0.21212,-0.21212 -0.283596,-0.38996 -0.23876,-0.5941 l 0.03434,-0.1564 0.449608,0.0364 c 0.384002,0.0312 0.464246,0.0232 0.549924,-0.0544 0.11284,-0.1022 0.13,-0.32176 0.04046,-0.51826 -0.05242,-0.115 -0.04238,-0.1466 0.08084,-0.25384 l 0.1407,-0.1224 -0.242932,-0.2594 c -0.1751,-0.187 -0.224214,-0.27096 -0.17588,-0.30082 0.05214,-0.0322 0.05338,-0.0686 0.0056,-0.164 -0.09354,-0.1864 -0.18234,-0.5742 -0.15048,-0.65722 0.02016,-0.0526 0.12606,-0.0738 0.366812,-0.0738 0.458106,0 0.61734,-0.1182 0.61734,-0.45868 0,-0.146 -0.03792,-0.29416 -0.09716,-0.37982 -0.17704,-0.25594 -0.1767,-0.26338 0.0166,-0.35508 0.10254,-0.0486 0.18644,-0.106 0.18644,-0.1274 0,-0.0214 -0.07046,-0.1438 -0.15658,-0.27178 -0.1318,-0.196 -0.14524,-0.24426 -0.08488,-0.30484 0.06034,-0.0606 0.0579,-0.0884 -0.0154,-0.175 -0.0479,-0.0566 -0.16448,-0.1512 -0.259072,-0.21016 -0.1444,-0.0898 -0.1716,-0.1382 -0.1696,-0.3012 0.0013,-0.1068 0.0326,-0.26498 0.06954,-0.35158 0.0612,-0.1436 0.0868,-0.156 0.288654,-0.1414 0.213682,0.016 0.221506,0.01 0.221506,-0.1404 0,-0.086 -0.03572,-0.186 -0.07938,-0.2222 -0.04366,-0.0362 -0.07964,-0.0928 -0.07998,-0.1256 -3.18e-4,-0.0328 -0.09518,-0.105 -0.210778,-0.1604 -0.292358,-0.14 -0.381338,-0.25346 -0.36119,-0.46034 0.0148,-0.1526 0.05618,-0.195 0.33445,-0.34402 0.17462,-0.0934 0.345724,-0.22422 0.380222,-0.29056 0.08372,-0.161 2.64e-4,-0.31252 -0.17208,-0.31252 -0.07264,0 -0.14524,-0.0342 -0.1613,-0.0762 -0.016,-0.0418 -0.09272,-0.0906 -0.17032,-0.1084 -0.17146,-0.0392 -0.364562,-0.192 -0.388266,-0.30704 -0.0096,-0.0466 0.02908,-0.1188 0.08592,-0.1608 0.09756,-0.072 0.08794,-0.0828 -0.17198,-0.1946 -0.15142,-0.0652 -0.278946,-0.1452 -0.283378,-0.178 -0.0044,-0.0328 -0.0106,-0.0916 -0.0136,-0.1308 -0.003,-0.0392 -0.10062,-0.1036 -0.216836,-0.1434 -0.19864,-0.0678 -0.44943,-0.28828 -0.44943,-0.39504 0,-0.0264 0.08418,-0.1052 0.18704,-0.1752 l 0.18704,-0.1272 -0.18312,-0.1608 c -0.10072,-0.0884 -0.260804,-0.1778 -0.355756,-0.1986 -0.291006,-0.064 -0.59589,-0.26604 -0.668046,-0.44288 -0.05742,-0.1406 -0.05562,-0.1644 0.0124,-0.1644 0.04374,0 0.07878,-0.0298 0.07786,-0.0662 -0.0024,-0.099 -0.201358,-0.2235 -0.527504,-0.33034 -0.298096,-0.0976 -0.377428,-0.1586 -0.33846,-0.26022 0.02128,-0.0554 -0.034,-0.0866 -0.46426,-0.261 -0.236906,-0.096 -0.347422,-0.26812 -0.248664,-0.38712 0.05606,-0.0676 0.0457,-0.0984 -0.06248,-0.1856 -0.07132,-0.0576 -0.260652,-0.1644 -0.420724,-0.23736 -0.514554,-0.2347 -0.531292,-0.24568 -0.506074,-0.33202 0.017,-0.0584 -0.05644,-0.1228 -0.24572,-0.2153 -0.14854,-0.0726 -0.331846,-0.195 -0.407364,-0.27184 -0.72025,-0.73382 -0.7206,-0.73424 -0.64001,-0.78584 0.223948,-0.1434 1.13862,-0.1012 1.542004,0.0712 0.558922,0.23876 0.618272,0.25586 0.7101,0.20446 0.06862,-0.0384 0.1643,-0.02 0.362538,0.0732 0.14812,0.069 0.300046,0.1256 0.337606,0.126 0.03756,2.6e-4 0.13858,0.0526 0.22451,0.116 0.09554,0.0706 0.277776,0.1298 0.46914,0.1524 0.1721,0.0202 0.38659,0.0754 0.476634,0.1226 0.09004,0.0472 0.238214,0.1248 0.329266,0.1724 0.09106,0.0476 0.269558,0.0984 0.396682,0.1126 0.212774,0.024 0.245114,0.01 0.407066,-0.166 0.09676,-0.1056 0.212616,-0.192 0.257456,-0.192 0.04484,0 0.239078,0.0714 0.431642,0.1588 0.504032,0.22856 0.885134,0.22104 1.384316,-0.0272 0.203728,-0.1014 0.444556,-0.1844 0.535172,-0.1844 0.09062,-4e-5 0.293022,-0.0254 0.449792,-0.0562 0.15678,-0.0308 0.416004,-0.0552 0.576076,-0.0542 0.439212,0.004 0.48214,-0.0212 0.46779,-0.26444 -0.0068,-0.1142 0.0174,-0.2374 0.0536,-0.27366 0.10516,-0.1052 1.492616,-0.0574 1.605402,0.0554 0.03518,0.0352 0.1298,0.064 0.210268,0.064 0.15612,0 0.255862,-0.123 0.255862,-0.31534 0,-0.158 0.214194,-0.22194 0.60768,-0.1816 0.422952,0.0434 0.551326,-0.057 0.566164,-0.44232 0.0164,-0.4251 -0.0012,-0.50922 -0.19374,-0.92586 -0.220522,-0.4773 -0.237152,-0.6489 -0.0673,-0.69442 0.241202,-0.0646 0.41168,-0.0292 0.715964,0.1492 0.17134,0.1004 0.357164,0.181 0.41294,0.1792 0.05578,-0.0019 0.244284,0.0466 0.418908,0.108 0.17462,0.0612 0.386252,0.1248 0.47028,0.1412 0.08402,0.016 0.214346,0.1 0.289596,0.1858 0.07524,0.0858 0.16554,0.156 0.200628,0.156 0.13994,0 0.230122,-0.1684 0.230122,-0.42974 0,-0.35436 0.11724,-0.57546 0.30563,-0.5764 0.241948,-0.0012 0.382286,-0.0594 0.382286,-0.1584 0,-0.0516 0.0437,-0.1478 0.0971,-0.21372 0.08644,-0.1068 0.11572,-0.1134 0.266596,-0.0608 0.12496,0.0436 0.20372,0.0434 0.299772,-2.6e-4 0.16184,-0.0738 0.169,-0.23528 0.02154,-0.48522 -0.09316,-0.1578 -0.09884,-0.20018 -0.03968,-0.29514 0.10418,-0.1672 0.577654,-0.2805 0.654278,-0.1566 0.0198,0.0318 0.1093,0.0472 0.19908,0.034 0.14604,-0.0214 0.39978,0.069 0.789238,0.28122 0.05054,0.0276 0.15582,0.05 0.233958,0.05 0.07814,0 0.18612,0.0398 0.239972,0.0886 0.05486,0.0496 0.205252,0.0946 0.34206,0.1024 0.13428,0.008 0.312882,0.0422 0.396876,0.077 0.12502,0.0518 0.20518,0.0468 0.441914,-0.0278 0.276414,-0.087 0.29852,-0.0866 0.500212,0.006 0.11606,0.0536 0.211632,0.1252 0.212382,0.1594 0.0026,0.121 0.275292,0.3877 0.396466,0.3877 0.16154,0 0.2311,-0.0946 0.286062,-0.38874 0.05308,-0.28408 0.1368,-0.40502 0.280444,-0.40502 0.12672,0 0.372684,0.1244 0.464248,0.23464 0.07852,0.0946 0.431514,0.112 0.58666,0.029 0.0553,-0.0296 0.1247,-0.1426 0.1542,-0.25134 0.04018,-0.148 0.11176,-0.23408 0.285146,-0.34306 0.211218,-0.1328 0.26115,-0.1426 0.56992,-0.1116 0.1943,0.02 0.43965,0.0872 0.576126,0.1588 0.14874,0.078 0.327992,0.1248 0.478916,0.1248 0.213544,0 0.27429,0.0294 0.529588,0.25664 0.1586,0.1412 0.364322,0.2958 0.457142,0.34366 0.09282,0.0478 0.20645,0.1408 0.252508,0.20638 0.07722,0.11 0.12418,0.1194 0.602404,0.1194 0.484218,0 0.531342,0.01 0.709686,0.1456 0.10506,0.08 0.21473,0.1456 0.243698,0.1456 0.0992,0 0.21898,-0.1662 0.221906,-0.30806 0.0019,-0.0922 0.05862,-0.1858 0.16228,-0.26774 0.13546,-0.1072 0.19814,-0.1214 0.418036,-0.0954 0.14228,0.016 0.31332,0.0652 0.380112,0.1078 0.06678,0.0424 0.252402,0.1314 0.412474,0.1978 0.16008,0.0664 0.369264,0.1878 0.464862,0.26968 0.0956,0.082 0.20363,0.149 0.240058,0.149 0.03644,0 0.15666,0.121 0.267166,0.26912 0.19294,0.25844 0.444658,0.4188 0.65741,0.4188 0.11946,0 0.26363,0.1554 0.453844,0.48894 0.10038,0.176 0.18582,0.25982 0.286602,0.28098 0.24013,0.0504 0.276188,0.088 0.504916,0.52656 0.245786,0.47128 0.358256,0.5366 0.598498,0.34764 0.07658,-0.0602 0.18022,-0.1096 0.230278,-0.1096 0.05006,0 0.23887,0.1428 0.41956,0.3175 0.1807,0.1746 0.368692,0.32024 0.417772,0.32358 0.17128,0.012 0.301698,-0.016 0.41041,-0.0848 0.272796,-0.1744 0.885974,0.1082 1.44671,0.6667 0.15742,0.1568 0.359824,0.3209 0.449792,0.3647 0.13376,0.0652 0.18794,0.1494 0.297254,0.4624 0.10032,0.28732 0.19602,0.44608 0.383646,0.63658 0.13748,0.1396 0.249974,0.27828 0.249974,0.30822 0,0.078 0.261556,0.31186 0.461454,0.41268 0.18444,0.093 0.279378,0.22774 0.279378,0.3964 0,0.1888 0.1199,0.37798 0.260424,0.41094 0.07504,0.018 0.202464,0.0934 0.283152,0.1686 0.14012,0.1304 0.1762,0.21784 0.306018,0.74186 l 0.05712,0.23054 0.280724,-0.035 0.280722,-0.035 0.16776,0.22786 c 0.09226,0.1254 0.20403,0.35882 0.248374,0.5189 0.12734,0.45968 0.17804,0.56342 0.309726,0.6339 0.17242,0.0922 0.356512,0.35672 0.403692,0.57988 0.06538,0.3092 0.19104,0.607 0.279764,0.66296 0.05616,0.0354 0.13644,0.0324 0.247132,-0.01 0.09018,-0.034 0.19324,-0.0506 0.229044,-0.037 0.08894,0.0342 0.244698,0.30668 0.244698,0.42816 0,0.0546 0.03132,0.146 0.06958,0.2035 0.03826,0.0574 0.11426,0.25584 0.1689,0.44094 0.07404,0.25092 0.14388,0.37212 0.274378,0.47626 0.16864,0.1346 0.17506,0.1534 0.17506,0.51618 0,0.30604 0.02146,0.4038 0.11464,0.52226 0.10406,0.1322 0.13778,0.143 0.364648,0.1162 0.296704,-0.0352 0.323412,-0.018 0.675408,0.44028 0.14538,0.1892 0.323442,0.4035 0.39569,0.47626 0.07224,0.0728 0.18506,0.23944 0.250682,0.37042 0.06562,0.131 0.222938,0.34036 0.349568,0.4653 0.32992,0.32552 0.40986,0.50692 0.55288,1.25448 0.09,0.47074 0.1008,0.49882 0.21252,0.55864 0.0906,0.0486 0.1322,0.0384 0.23422,-0.0576 l 0.124,-0.1166 0.0862,0.29652 c 0.0474,0.163 0.0718,0.31992 0.054,0.34854 -0.018,0.0286 0.004,0.123 0.0494,0.20974 0.0448,0.0868 0.0816,0.28454 0.0816,0.43958 0,0.37772 0.1038,0.52568 0.35494,0.50564 0.1752,-0.014 0.193,-0.001 0.26666,0.1966 0.0434,0.1164 0.1072,0.33072 0.1416,0.47624 0.0508,0.21456 0.0928,0.2781 0.22208,0.3361 0.136,0.061 0.1696,0.1178 0.22946,0.38728 0.0838,0.37756 0.1762,0.48802 0.37546,0.44818 0.1878,-0.0376 0.31478,0.1004 0.31478,0.3422 0,0.117 0.038,0.21502 0.1058,0.27314 0.0676,0.0578 0.1058,0.156 0.1058,0.27204 0,0.14 0.0432,0.22172 0.1892,0.3577 0.104,0.097 0.25056,0.28344 0.3255,0.4144 0.32564,0.5691 0.46718,0.75808 0.65798,0.87854 0.1118,0.0704 0.2031,0.1554 0.2031,0.1886 0,0.0648 0.21102,0.55056 0.35246,0.81142 0.1794,0.3309 0.22512,0.43058 0.31188,0.67998 0.0492,0.1412 0.1578,0.31774 0.24164,0.3924 0.0838,0.0746 0.1524,0.1854 0.1526,0.24606 7.4e-4,0.28202 0.1106,0.50788 0.28176,0.5794 0.1606,0.067 0.1752,0.0958 0.23786,0.4692 0.0552,0.32864 0.094,0.42196 0.22326,0.53712 0.0864,0.077 0.1564,0.1932 0.1564,0.25948 0,0.1896 0.1444,0.3474 0.37476,0.40942 0.23906,0.0644 0.41846,0.29696 0.41878,0.54298 0,0.153 0.21638,0.63072 0.3584,0.79198 0.0448,0.051 0.1268,0.0926 0.1822,0.0926 0.1646,0 0.40288,0.30968 0.46566,0.60526 0.0894,0.4215 0.3175,0.83872 0.5021,0.91884 0.0874,0.038 0.1944,0.0876 0.23814,0.1106 0.1012,0.0532 0.23498,0.33118 0.44866,0.93174 0.0932,0.26194 0.23154,0.56706 0.30744,0.67804 0.076,0.111 0.1544,0.31062 0.1742,0.44364 0.0324,0.21656 0.1362,0.39002 0.26686,0.44598 0.0506,0.0216 0.29708,0.56034 0.37178,0.81248 0.0256,0.0868 0.104,0.1862 0.174,0.2211 0.0746,0.0372 0.21754,0.23468 0.34542,0.47738 0.3282,0.62288 0.56,0.9256 0.76046,0.99308 0.1808,0.0608 0.40326,0.36016 0.5892,0.79262 0.051,0.1186 0.1756,0.31462 0.27684,0.43556 0.1098,0.1312 0.21994,0.3476 0.27292,0.53642 0.074,0.26408 0.1152,0.32748 0.24818,0.38256 0.124,0.0514 0.20018,0.1544 0.3432,0.46386 0.1012,0.21882 0.2992,0.59066 0.44022,0.82632 0.141,0.23566 0.27184,0.49212 0.29072,0.56992 0.018,0.0778 0.0906,0.20876 0.1592,0.29104 0.0686,0.0822 0.1616,0.22104 0.20666,0.30834 0.045,0.0874 0.1436,0.21648 0.2191,0.28704 0.0756,0.0706 0.1374,0.1586 0.1374,0.1956 0,0.037 0.1148,0.20556 0.25494,0.37442 0.1402,0.1688 0.46514,0.61658 0.72206,0.99492 0.25692,0.37836 0.5086,0.73554 0.5593,0.79376 0.0508,0.0582 0.17,0.2487 0.26516,0.42334 0.22494,0.41282 0.48298,0.81662 0.79462,1.24354 0.138,0.1892 0.32812,0.48682 0.42224,0.66146 0.0942,0.1746 0.21618,0.36734 0.2712,0.42828 0.055,0.061 0.153,0.20874 0.21766,0.32848 0.2339,0.43296 0.51998,0.86972 0.7975,1.21754 0.1556,0.195 0.32182,0.42972 0.3692,0.52136 0.0474,0.0916 0.1186,0.1992 0.1586,0.23894 0.0398,0.0398 0.1364,0.1738 0.2147,0.29784 0.0784,0.124 0.23172,0.31488 0.34094,0.4241 0.1092,0.1092 0.2505,0.2826 0.31398,0.38532 0.0634,0.1028 0.1632,0.22992 0.22142,0.28268 0.153,0.1386 0.47814,0.7894 0.60932,1.22004 0.0724,0.23756 0.1406,0.37042 0.19,0.37042 0.0638,0 0.0758,-0.1136 0.069,-0.66146 -0.016,-1.2785 -0.1238,-3.68634 -0.20238,-4.49792 -0.1486,-1.53626 -0.191,-2.61454 -0.1616,-4.10104 0.016,-0.81492 0.032,-1.61264 0.035,-1.77272 0.004,-0.16 -0.0482,-0.49014 -0.1138,-0.73346 -0.1092,-0.40416 -0.1138,-0.47284 -0.0536,-0.79376 0.0392,-0.2083 0.0556,-0.56672 0.0404,-0.88048 -0.0238,-0.49502 -0.26676,-2.2849 -0.3339,-2.46062 -0.016,-0.0436 -0.0502,-0.3056 -0.0744,-0.5821 -0.0242,-0.27648 -0.0748,-0.63842 -0.1122,-0.8043 -0.0562,-0.24924 -0.0558,-0.32462 0.002,-0.43404 0.0514,-0.096 0.0596,-0.21672 0.0296,-0.43922 -0.0226,-0.1688 -0.044,-0.80686 -0.0472,-1.41806 -0.004,-0.61118 -0.0242,-1.13924 -0.0464,-1.17346 -0.0966,-0.1488 -0.24362,-0.88394 -0.195,-0.9749 0.0758,-0.1414 0.0602,-0.53508 -0.0314,-0.79464 -0.0932,-0.2643 -0.1012,-0.38248 -0.0802,-1.1807 0.012,-0.47886 8.4e-4,-0.58884 -0.0686,-0.63964 -0.0462,-0.0338 -0.159,-0.22594 -0.25104,-0.42712 -0.1282,-0.28064 -0.1702,-0.45202 -0.1804,-0.7362 -0.018,-0.4918 -0.1904,-1.14482 -0.36318,-1.37136 -0.167,-0.21892 -0.182,-0.45502 -0.035,-0.5469 0.1316,-0.0822 0.098,-0.1798 -0.1666,-0.48368 -0.2229,-0.25594 -0.24474,-0.34746 -0.1166,-0.48896 0.0974,-0.1076 0.062,-0.36348 -0.0504,-0.36348 -0.0904,0 -0.31878,-0.24746 -0.4279,-0.46368 -0.0856,-0.1698 -0.085,-0.1734 0.0418,-0.22164 0.1408,-0.0536 0.135,-0.0916 -0.0904,-0.5962 -0.105,-0.23502 -0.109,-0.29014 -0.0228,-0.31886 0.0868,-0.029 -0.0422,-0.31132 -0.47224,-1.03424 -0.1836,-0.30852 -0.33368,-0.602 -0.33368,-0.65216 0,-0.1612 0.0616,-0.25864 0.1636,-0.25864 0.088,0 0.0962,-0.0316 0.0718,-0.2778 -0.0394,-0.39784 -0.1296,-0.68128 -0.26502,-0.83344 -0.0648,-0.0728 -0.1774,-0.25136 -0.25038,-0.39688 -0.073,-0.1456 -0.20646,-0.35716 -0.29672,-0.4703 -0.1634,-0.20492 -0.20604,-0.41332 -0.1142,-0.55856 0.0392,-0.0618 0.0742,-0.0646 0.1844,-0.014 0.1772,0.0806 0.1794,-10e-4 0.006,-0.20746 -0.0716,-0.085 -0.1466,-0.24208 -0.1666,-0.34888 -0.02,-0.1068 -0.1254,-0.36206 -0.23412,-0.56728 -0.24972,-0.47134 -0.2885,-0.63096 -0.1798,-0.73974 0.0458,-0.0458 0.1252,-0.0832 0.1764,-0.0832 0.1312,0 0.1732,-0.0572 0.1034,-0.1412 -0.0328,-0.0394 -0.098,-0.1416 -0.145,-0.227 -0.047,-0.0854 -0.179,-0.26526 -0.29318,-0.39962 -0.1706,-0.20072 -0.2117,-0.29362 -0.23054,-0.5208 -0.016,-0.20602 -0.002,-0.2938 0.059,-0.34442 0.1082,-0.0898 0.061,-0.20154 -0.188,-0.44578 -0.26722,-0.26218 -0.33822,-0.44356 -0.22332,-0.57054 0.0796,-0.088 0.0714,-0.1236 -0.1168,-0.50436 -0.14,-0.28312 -0.1822,-0.41646 -0.137,-0.43154 0.036,-0.012 0.0654,-0.0654 0.0654,-0.1188 0,-0.1202 -0.245,-0.62394 -0.37308,-0.76724 -0.1384,-0.1548 -0.1848,-0.4659 -0.0822,-0.55106 0.0724,-0.0602 0.051,-0.127 -0.186,-0.57728 -0.229,-0.43514 -0.26338,-0.53824 -0.23618,-0.70838 0.0278,-0.1742 0.01,-0.22402 -0.1472,-0.39828 -0.24308,-0.27052 -0.4489,-0.68064 -0.48924,-0.97484 -0.028,-0.20454 -0.016,-0.2615 0.0788,-0.3557 0.0616,-0.0616 0.1122,-0.1244 0.1122,-0.1394 0,-0.014 -0.0862,-0.1572 -0.1916,-0.31594 -0.1442,-0.21704 -0.1846,-0.32518 -0.1634,-0.43576 0.0216,-0.112 -0.0212,-0.2212 -0.1788,-0.45736 -0.1816,-0.27218 -0.207,-0.3482 -0.207,-0.61882 0,-0.24392 0.025,-0.33732 0.119,-0.44604 0.1092,-0.126 0.1336,-0.1324 0.29374,-0.0762 0.096,0.0338 0.1878,0.0482 0.20372,0.0324 0.0626,-0.0626 -0.1032,-0.4097 -0.30534,-0.6393 -0.117,-0.133 -0.1976,-0.2663 -0.1788,-0.29642 0.018,-0.03 -0.0636,-0.1654 -0.1828,-0.30078 -0.23736,-0.26962 -0.28354,-0.3875 -0.25774,-0.65762 0.016,-0.1652 0.0316,-0.1796 0.20234,-0.1842 0.22252,-0.006 0.22428,-0.093 0.006,-0.28616 -0.1894,-0.1674 -0.2722,-0.32514 -0.23878,-0.45446 0.018,-0.0682 -0.0596,-0.2023 -0.23714,-0.412 -0.3085,-0.3642 -0.40154,-0.56124 -0.35416,-0.75002 0.0252,-0.1002 0.0658,-0.1344 0.1516,-0.1274 0.0644,0.006 0.1436,0.006 0.176,0.004 0.0776,-0.008 0.0516,-0.20454 -0.0534,-0.40272 -0.0462,-0.0874 -0.0842,-0.1838 -0.0844,-0.21454 0,-0.0306 -0.0744,-0.1726 -0.1648,-0.3152 -0.0904,-0.1426 -0.1726,-0.3438 -0.1826,-0.44694 -0.01,-0.1032 -0.0334,-0.27386 -0.0522,-0.3794 -0.029,-0.1628 -0.016,-0.20516 0.0898,-0.27884 l 0.124,-0.087 -0.1514,-0.27982 c -0.1714,-0.3167 -0.1688,-0.47736 0.008,-0.50254 0.112,-0.016 0.1176,-0.0348 0.0858,-0.29104 -0.0506,-0.40614 -0.1086,-0.6764 -0.1872,-0.8704 -0.0574,-0.142 -0.0578,-0.1928 -0.0014,-0.28292 0.0598,-0.0958 0.0498,-0.1378 -0.0784,-0.3296 -0.1732,-0.25892 -0.21286,-0.656 -0.0758,-0.7579 0.0726,-0.054 0.074,-0.0844 0.012,-0.23812 -0.20744,-0.50956 -0.22682,-0.59242 -0.1654,-0.70726 0.0468,-0.0874 0.0436,-0.1542 -0.014,-0.2938 -0.24762,-0.60026 -0.23294,-1.09884 0.041,-1.39448 0.1288,-0.1388 0.1402,-0.1414 0.26488,-0.0598 0.1216,0.0798 0.1302,0.0792 0.1286,-0.008 -9e-4,-0.0516 -0.0366,-0.14 -0.0794,-0.1966 -0.1076,-0.1422 -0.1034,-0.6302 0.006,-0.72104 0.0664,-0.055 0.105,-0.0562 0.1866,-0.006 0.0948,0.0592 0.1,0.0528 0.0664,-0.0826 -0.02,-0.0808 -0.0682,-0.22344 -0.1072,-0.31708 -0.0802,-0.1934 -0.095,-0.5441 -0.0228,-0.5441 0.0264,0 0.0352,-0.1406 0.02,-0.31298 -0.026,-0.28758 -0.016,-0.32444 0.1132,-0.45454 0.0778,-0.0778 0.1702,-0.1296 0.20538,-0.1152 0.035,0.014 0.153,0.0646 0.26222,0.1114 0.1784,0.0762 0.1984,0.0766 0.1984,0.002 0,-0.0452 -0.0708,-0.2182 -0.1572,-0.38436 -0.1118,-0.2148 -0.1558,-0.3719 -0.1522,-0.54374 0.002,-0.1328 -0.0252,-0.28972 -0.0618,-0.3485 -0.0438,-0.0702 -0.0546,-0.1872 -0.0314,-0.34044 0.0562,-0.37166 0.0784,-0.38766 0.40478,-0.29076 0.155,0.046 0.29084,0.0836 0.30208,0.0836 0.0614,0 -0.1736,-0.5502 -0.31404,-0.73474 -0.1148,-0.151 -0.1378,-0.69004 -0.0298,-0.70028 0.1014,-0.01 0.1108,-0.008 0.23812,0.0302 0.101,0.0306 0.119,0.016 0.119,-0.0936 0,-0.0714 -0.0388,-0.24978 -0.0862,-0.39644 -0.0996,-0.3085 -0.065,-0.56794 0.069,-0.51654 0.0904,0.0348 0.09,0.0268 -0.0374,-0.57834 -0.0672,-0.3198 -0.026,-0.60854 0.0868,-0.60854 0.0652,0 0.079,-0.0724 0.0732,-0.38364 -0.01,-0.54712 -0.008,-0.56886 0.074,-0.56886 0.0404,0 0.1102,-0.0914 0.1548,-0.20296 0.184,-0.46002 0.51794,-0.67246 0.68408,-0.43526 0.0694,0.099 0.0788,0.0964 0.26758,-0.0766 0.1362,-0.1246 0.1958,-0.22442 0.196,-0.3275 5.4e-4,-0.2199 0.095,-0.52026 0.20732,-0.65906 0.0982,-0.1214 0.101,-0.1216 0.29626,-0.0284 0.1428,0.0682 0.26446,0.0854 0.44194,0.0624 0.42084,-0.0544 0.45456,-0.0702 0.53094,-0.24866 0.1968,-0.46 0.37978,-0.56274 0.63992,-0.35926 0.15,0.1174 0.52642,0.1454 0.53374,0.0398 0.0248,-0.35896 0.0418,-0.81808 0.0412,-1.1146 -5.4e-4,-0.24624 0.0268,-0.40258 0.0862,-0.49318 0.0828,-0.1264 0.093,-0.1286 0.2161,-0.048 0.0944,0.0618 0.1558,0.0704 0.22792,0.0318 0.0884,-0.0474 0.096,-0.1024 0.0716,-0.52828 -0.0216,-0.3775 -0.008,-0.51408 0.062,-0.6631 0.087,-0.1836 0.20346,-0.24128 0.26984,-0.1338 0.0808,0.1306 0.141,-0.0394 0.1292,-0.36434 -0.018,-0.4764 -0.008,-0.55342 0.0728,-0.665 0.0566,-0.0774 0.0914,-0.0848 0.1786,-0.0382 0.1324,0.0708 0.1984,0.004 0.40854,-0.41494 0.1546,-0.3082 0.27768,-0.44034 0.3617,-0.3884 0.028,0.018 0.0668,0.01 0.086,-0.014 0.1268,-0.169 0.4446,-0.40664 0.56076,-0.41938 0.0762,-0.008 0.171,-0.0422 0.2108,-0.0752 0.0398,-0.033 0.1748,-0.0648 0.29978,-0.0706 0.19,-0.008 0.23068,0.006 0.24724,0.0954 0.01,0.0582 0.0858,0.1896 0.1664,0.2918 0.0806,0.1024 0.1634,0.23924 0.1842,0.30434 0.0206,0.065 0.083,0.1426 0.1386,0.1724 0.0838,0.0448 0.1052,0.0336 0.1256,-0.0662 0.1194,-0.58042 0.1596,-0.6907 0.3051,-0.83618 0.0864,-0.0864 0.1772,-0.1572 0.20154,-0.1572 0.0244,0 0.126,0.0892 0.22596,0.1984 0.0998,0.1092 0.29458,0.32232 0.43268,0.47374 0.23636,0.2591 0.67148,0.50282 0.75272,0.42158 0.018,-0.018 0.0282,-0.22094 0.0226,-0.45092 -0.01,-0.38836 0.0016,-0.43552 0.154,-0.66142 0.21512,-0.31876 0.24578,-0.33256 0.4323,-0.1946 0.0868,0.0642 0.1644,0.1086 0.1724,0.0988 0.0578,-0.0716 0.136,-0.41624 0.136,-0.59968 0,-0.26582 0.1564,-0.45592 0.2865,-0.34802 0.0622,0.0516 0.0916,0.0404 0.1546,-0.0588 0.0428,-0.0674 0.0948,-0.20594 0.1158,-0.30782 0.0778,-0.3789 0.28786,-0.65956 0.4542,-0.60676 0.1732,0.055 0.30994,-0.0276 0.54858,-0.33174 0.22792,-0.29038 0.26858,-0.31532 0.86042,-0.52766 0.24426,-0.0876 0.47728,-0.0584 0.52496,0.0658 0.016,0.043 -0.008,0.159 -0.0552,0.25778 -0.1612,0.33958 -0.1106,0.38622 0.3818,0.35186 0.108,-0.008 0.21564,0.0236 0.2786,0.0806 0.0992,0.0898 0.1114,0.0836 0.36212,-0.1806 0.32258,-0.34002 0.51744,-0.3712 0.63432,-0.1016 0.1966,0.45382 0.9268,1.3626 1.0947,1.3626 0.0582,0 0.0736,-0.1146 0.0736,-0.54504 0,-0.59222 0.0324,-0.67204 0.27268,-0.67204 0.1232,0 0.1542,-0.0306 0.20078,-0.1984 0.0304,-0.1092 0.0552,-0.21864 0.0554,-0.24336 7e-4,-0.1074 0.1774,-0.40486 0.24038,-0.40486 0.0698,0 0.33714,-0.2436 0.46058,-0.41974 0.1056,-0.1506 0.47008,-0.3211 0.68662,-0.3211 0.20982,0 0.2096,-3.2e-4 0.27082,0.39284 0.014,0.085 -0.012,0.27558 -0.056,0.42332 -0.1886,0.63334 -0.21628,0.78848 -0.1618,0.9079 0.0758,0.1666 0.2859,0.1952 0.40162,0.0548 0.1648,-0.1998 0.43196,-0.35748 0.57684,-0.34024 0.111,0.014 0.1504,0.058 0.1966,0.22396 0.0318,0.114 0.085,0.21642 0.118,0.22744 0.033,0.012 0.117,-0.1298 0.187,-0.31326 0.115,-0.30196 0.1424,-0.3348 0.29204,-0.34952 0.1276,-0.012 0.1842,-0.0564 0.24908,-0.1932 0.0462,-0.0974 0.084,-0.198 0.084,-0.22388 0,-0.0258 0.0654,-0.1246 0.1456,-0.21952 0.1204,-0.1428 0.1866,-0.1744 0.38364,-0.1832 l 0.23814,-0.01 0.016,0.40942 c 0.014,0.34548 0.032,0.41824 0.1208,0.46584 0.0914,0.049 0.1128,0.035 0.1618,-0.1052 0.031,-0.0888 0.088,-0.1616 0.127,-0.1616 0.0388,0 0.0846,-0.0438 0.1016,-0.0974 0.049,-0.1542 0.2711,-0.33462 0.45926,-0.3731 0.1376,-0.0282 0.1814,-0.0698 0.21664,-0.2057 0.0314,-0.1214 0.075,-0.1704 0.1514,-0.1704 0.076,0 0.1376,-0.0684 0.2112,-0.23488 0.1,-0.22606 0.25314,-0.33782 0.36672,-0.26762 0.0298,0.018 0.0928,0.1212 0.14,0.22832 l 0.0858,0.1948 0.0438,-0.1588 c 0.024,-0.0874 0.1022,-0.38174 0.1734,-0.65428 0.1382,-0.5281 0.1602,-0.56852 0.32244,-0.59776 0.0736,-0.014 0.117,-0.081 0.1476,-0.23004 0.068,-0.3309 0.30058,-0.63128 0.50434,-0.65116 l 0.1698,-0.016 5.4e-4,-0.45968 c 5.2e-4,-0.56312 0.0716,-0.85654 0.20808,-0.85654 0.083,0 0.1022,-0.0574 0.1286,-0.38364 0.0566,-0.69868 0.0912,-0.85568 0.20886,-0.94826 0.1,-0.0786 0.1136,-0.1478 0.1228,-0.63046 0.008,-0.43184 0.0276,-0.55162 0.0942,-0.58894 0.049,-0.0274 0.0838,-0.117 0.084,-0.21622 5.4e-4,-0.1838 0.0768,-0.50624 0.1756,-0.73998 0.0884,-0.2093 0.2319,-0.165 0.39156,0.1208 0.0732,0.131 0.1778,0.30132 0.23256,0.37858 0.0548,0.0772 0.0996,0.1874 0.0996,0.24488 0,0.0574 0.0356,0.134 0.0794,0.1702 0.0436,0.0362 0.0794,0.137 0.0794,0.22374 0,0.0928 0.0566,0.22518 0.1372,0.32096 0.1268,0.1508 0.136,0.1954 0.1206,0.58972 -0.012,0.28374 0.006,0.4688 0.0536,0.55256 0.0566,0.1016 0.058,0.1878 0.008,0.44612 -0.0584,0.2973 -0.0554,0.32616 0.0418,0.40324 0.1626,0.129 0.1768,0.2678 0.0682,0.66668 -0.0552,0.20288 -0.1168,0.47602 -0.1366,0.60698 -0.02,0.131 -0.0614,0.32652 -0.0924,0.43454 -0.0532,0.1856 -0.0466,0.20536 0.117,0.35828 0.158,0.1476 0.1708,0.183 0.1464,0.40104 -0.014,0.1316 -0.0654,0.28178 -0.1126,0.33382 -0.0472,0.052 -0.0856,0.1372 -0.0856,0.1894 0,0.052 -0.0714,0.176 -0.1588,0.27548 -0.1956,0.2228 -0.20454,0.33588 -0.0264,0.33588 0.1918,0 0.34396,0.1764 0.34396,0.39854 0,0.1172 0.0296,0.1982 0.0794,0.21732 0.1102,0.0424 0.0994,0.28108 -0.0252,0.55576 -0.1354,0.2984 -0.1342,0.41866 0.004,0.45492 0.0956,0.025 0.107,0.0568 0.0804,0.22304 -0.018,0.1066 -0.067,0.26608 -0.111,0.35426 -0.044,0.0882 -0.095,0.2356 -0.1134,0.32762 -0.0264,0.132 -0.016,0.1672 0.0514,0.1672 0.1518,0 0.25272,0.23188 0.23982,0.55056 -0.006,0.1626 0.002,0.31008 0.02,0.3277 0.042,0.042 0.39952,-0.23176 0.4667,-0.3573 0.0796,-0.1488 0.29498,-0.123 0.40078,0.0478 0.0496,0.08 0.145,0.1996 0.21194,0.26586 0.109,0.1078 0.1184,0.1532 0.0892,0.43318 l -0.0328,0.31286 0.1792,0.0464 c 0.1976,0.0512 0.30944,0.21522 0.31068,0.45558 6.8e-4,0.134 0.016,0.1476 0.1308,0.1186 0.35098,-0.088 0.424,-0.1486 0.64482,-0.5347 0.162,-0.28304 0.60106,0.1022 0.60106,0.52718 0,0.0678 0.0356,0.1368 0.0794,0.1536 0.1132,0.0434 0.0986,0.20008 -0.0528,0.57312 -0.0728,0.179 -0.1322,0.34378 -0.1322,0.36604 0,0.0222 0.0794,0.0276 0.1766,0.012 0.161,-0.0262 0.1844,-0.012 0.26458,0.1568 0.0484,0.102 0.088,0.2327 0.088,0.29038 0,0.059 0.0446,0.1166 0.1016,0.1314 0.0824,0.0216 0.1448,-0.0538 0.33072,-0.39964 0.26252,-0.48816 0.34928,-0.5651 0.52936,-0.46952 0.32526,0.1726 0.39086,0.22868 0.49446,0.42238 0.0612,0.1146 0.1782,0.28774 0.26,0.38488 0.139,0.1652 0.1468,0.20014 0.1224,0.54214 -0.0234,0.32778 -0.016,0.3683 0.0752,0.39208 0.0558,0.014 0.1376,0.0964 0.1818,0.1818 0.0726,0.1406 0.0716,0.179 -0.01,0.40338 -0.0502,0.1364 -0.135,0.29716 -0.1884,0.35724 -0.1174,0.1322 -0.1252,0.23472 -0.018,0.23472 0.157,0 1.14986,-0.5581 1.47928,-0.83154 0.1854,-0.1538 0.3761,-0.27972 0.4239,-0.27972 0.051,0 0.1194,0.0818 0.166,0.1984 0.0434,0.1092 0.1014,0.24606 0.1284,0.30428 0.0272,0.0582 0.0558,0.2249 0.0638,0.37042 l 0.014,0.26458 0.3014,0.016 c 0.31372,0.016 0.40988,0.0766 0.71688,0.44884 0.2007,0.2433 0.2896,0.1928 0.62976,-0.35708 0.1704,-0.27556 0.34244,-0.50178 0.38226,-0.50272 0.1098,-0.002 0.44816,0.3145 0.52292,0.4901 0.0364,0.0854 0.0666,0.25382 0.067,0.37418 5.4e-4,0.1204 0.0352,0.27834 0.0774,0.3511 0.042,0.0728 0.0932,0.1654 0.1136,0.20576 0.0204,0.0404 -0.006,0.2071 -0.0584,0.37042 -0.20074,0.62474 -0.30904,0.90982 -0.35682,0.93936 -0.0272,0.016 0.0282,0.0956 0.1232,0.1748 l 0.1728,0.1442 -0.1266,0.20716 c -0.0696,0.114 -0.21684,0.30026 -0.32722,0.41404 -0.1104,0.1138 -0.20066,0.22386 -0.20066,0.24462 0,0.0208 0.1236,0.0496 0.27446,0.0642 0.42778,0.0412 0.56428,0.28536 0.39108,0.69984 -0.0414,0.0992 -0.062,0.2307 -0.046,0.2924 0.0202,0.0776 -0.016,0.1602 -0.1198,0.2679 -0.132,0.1378 -0.1374,0.1556 -0.0466,0.1552 0.0564,-2.6e-4 0.2299,-0.0598 0.38558,-0.1322 0.1556,-0.0724 0.3275,-0.1318 0.38178,-0.1318 0.1126,0 0.20828,0.1486 0.20828,0.3235 0,0.0654 0.0278,0.1954 0.0616,0.289 0.0506,0.14 0.046,0.20314 -0.0264,0.35572 -0.1296,0.27312 -0.115,0.30178 0.1536,0.30178 0.27358,0 0.44632,0.0726 0.44632,0.1876 0,0.0652 0.02,0.0672 0.119,0.012 0.0654,-0.0366 0.1834,-0.1236 0.26222,-0.1932 0.1368,-0.1212 0.149,-0.1228 0.27708,-0.039 0.1926,0.1262 0.28556,0.29116 0.34712,0.61578 0.0298,0.1568 0.1048,0.33918 0.1668,0.40518 0.101,0.1076 0.109,0.157 0.0762,0.479 -0.02,0.1974 -0.0498,0.4126 -0.0662,0.47808 -0.0208,0.0838 -0.006,0.119 0.0498,0.119 0.0984,0 0.152,0.1278 0.1054,0.25136 -0.02,0.051 -0.1104,0.22358 -0.20264,0.38364 -0.22498,0.3904 -0.26422,0.56834 -0.1526,0.69174 0.0734,0.0812 0.078,0.1258 0.0276,0.27008 -0.0332,0.0952 -0.123,0.23844 -0.1998,0.31854 l -0.1396,0.1456 0.1408,0.1408 c 0.0774,0.0774 0.1408,0.1746 0.1408,0.21566 0,0.1404 -0.1584,0.38142 -0.3439,0.52286 -0.20672,0.1576 -0.2415,0.2875 -0.077,0.2875 0.27904,0 0.46296,0.42558 0.28544,0.66044 -0.0496,0.0656 -0.0674,0.159 -0.0474,0.24952 0.0238,0.1088 -0.008,0.2034 -0.1308,0.38098 -0.0894,0.13 -0.1626,0.2489 -0.1626,0.26438 0,0.016 0.0962,0.054 0.214,0.0858 0.26248,0.0706 0.33726,0.22848 0.28576,0.603 -0.02,0.144 -0.04,0.36042 -0.0448,0.48086 -0.006,0.1354 -0.0534,0.27588 -0.126,0.36814 -0.1448,0.1842 -0.15,0.29364 -0.014,0.29364 0.28468,0 0.47874,0.2169 0.47874,0.53512 0,0.1862 -0.0616,0.3143 -0.286,0.59428 l -0.163,0.20338 0.148,0.1274 c 0.0814,0.07 0.1948,0.1274 0.25172,0.1274 0.1664,0 0.31336,0.29864 0.31358,0.63764 0,0.1616 0.0272,0.32068 0.0602,0.35368 0.0612,0.0612 -0.043,0.26626 -0.3552,0.69912 -0.0768,0.1066 -0.1174,0.21652 -0.0974,0.26458 0.0946,0.22804 0.0772,0.26934 -0.26978,0.63882 -0.26154,0.27848 -0.33976,0.39396 -0.2963,0.43742 0.149,0.1492 -0.0592,0.4788 -0.3969,0.62816 -0.27054,0.1196 -0.31026,0.1694 -0.20492,0.25688 0.1728,0.1434 0.0524,0.3243 -0.43714,0.65548 -0.1236,0.0838 -0.2249,0.1696 -0.2249,0.1908 0,0.0212 0.0476,0.0992 0.1058,0.1732 0.0582,0.074 0.1058,0.165 0.1058,0.2023 0,0.1216 -0.2337,0.41232 -0.35612,0.44304 -0.0658,0.016 -0.26104,0.1272 -0.434,0.24582 l -0.31448,0.21582 0.1818,0.1818 c 0.1464,0.1464 0.182,0.22308 0.182,0.39268 0,0.182 -0.034,0.24328 -0.24712,0.44758 -0.136,0.1302 -0.31312,0.266 -0.39378,0.3017 -0.1108,0.049 -0.1328,0.0816 -0.0902,0.1328 0.0424,0.051 0.006,0.1138 -0.1452,0.2526 -0.111,0.1016 -0.24482,0.1984 -0.2976,0.21514 -0.1366,0.0434 -0.1188,0.1068 0.0496,0.177 0.1656,0.069 0.2778,0.2709 0.2778,0.50018 0,0.1128 -0.0572,0.21084 -0.2056,0.35196 -0.113,0.1076 -0.22106,0.24434 -0.23996,0.30392 -0.0214,0.0676 -0.1432,0.1526 -0.32358,0.2257 -0.159,0.0646 -0.28918,0.1504 -0.28918,0.1906 0,0.0402 0.0238,0.0732 0.0528,0.0732 0.0292,0 0.053,0.0554 0.053,0.123 0,0.139 -0.1536,0.298 -0.41618,0.43088 -0.131,0.0662 -0.1624,0.1056 -0.119,0.149 0.1608,0.1608 -0.0564,0.75028 -0.37496,1.01684 -0.096,0.0804 -0.1916,0.1904 -0.21244,0.24468 -0.0208,0.0542 -0.1126,0.144 -0.20374,0.1994 -0.20656,0.1256 -0.36872,0.38428 -0.33112,0.52812 0.021,0.0802 -0.0558,0.20348 -0.29294,0.47036 -0.25138,0.28284 -0.31888,0.39448 -0.30994,0.51256 0.01,0.1238 -0.0378,0.1914 -0.26242,0.37626 -0.1506,0.124 -0.3173,0.24998 -0.37042,0.28014 -0.082,0.0466 -0.0866,0.0712 -0.0304,0.1628 0.0364,0.0594 0.0662,0.142 0.0662,0.1834 0,0.0832 -0.29194,0.34938 -0.38316,0.34938 -0.0316,0 -0.25494,0.1108 -0.4962,0.24622 -0.37514,0.21056 -0.43132,0.25984 -0.38818,0.34046 0.1298,0.24236 -0.0392,0.39324 -0.53916,0.48128 -0.1936,0.034 -0.3745,0.1042 -0.46004,0.1782 -0.1348,0.1166 -0.1364,0.1236 -0.0352,0.1602 0.38036,0.1372 0.4498,0.1812 0.4498,0.28628 0,0.0956 -0.014,0.1024 -0.1104,0.0514 -0.0608,-0.0324 -0.116,-0.0512 -0.123,-0.0416 -0.006,0.01 -0.0656,0.0942 -0.1304,0.1882 -0.0814,0.1178 -0.1866,0.1884 -0.34004,0.228 -0.35088,0.0906 -0.568,0.20758 -0.78666,0.42406 -0.22776,0.2255 -0.23712,0.25184 -0.12,0.33754 0.0512,0.0374 0.0866,0.1526 0.0922,0.30142 0.012,0.29738 -0.1518,0.53456 -0.5395,0.78332 -0.1612,0.1034 -0.27074,0.21442 -0.28078,0.2844 -0.01,0.0632 -0.0944,0.1628 -0.1898,0.22144 -0.1664,0.1024 -0.1722,0.1172 -0.1452,0.37126 0.035,0.32794 -0.0442,0.49496 -0.29048,0.61296 -0.1016,0.0486 -0.29952,0.1436 -0.4397,0.21094 -0.1882,0.0904 -0.24858,0.1464 -0.2308,0.21444 0.0316,0.121 -0.1418,0.27806 -0.45446,0.41178 l -0.25222,0.108 0.0342,0.21368 c 0.0288,0.1804 0.01,0.24858 -0.1176,0.43808 -0.34252,0.50634 -0.68748,0.93026 -1.0062,1.23656 -0.22302,0.21432 -0.34868,0.38042 -0.37056,0.48988 -0.035,0.1748 -0.31058,0.45468 -0.52968,0.53798 -0.159,0.0604 -0.21378,0.1924 -0.1334,0.32104 0.1148,0.1838 0.0738,0.35806 -0.1108,0.47054 -0.0946,0.0576 -0.23902,0.105 -0.32098,0.105 -0.31014,5.4e-4 -0.43888,0.1828 -0.29348,0.41556 0.084,0.1346 -0.008,0.38868 -0.1702,0.46658 -0.0704,0.034 -0.2352,0.1032 -0.36618,0.1538 -0.46414,0.1792 -0.62414,0.54726 -0.30426,0.69986 0.28582,0.1364 0.1382,0.38922 -0.38352,0.65736 -0.23866,0.1226 -0.34388,0.20716 -0.34396,0.2763 0,0.0578 -0.1,0.17 -0.23826,0.26738 -0.143,0.1008 -0.25622,0.2294 -0.28346,0.32216 -0.0932,0.31742 -0.2302,0.53204 -0.62782,0.98388 -0.4683,0.53212 -0.67622,0.83972 -0.67622,1.00038 0,0.0988 -0.1706,0.2963 -0.4463,0.51664 -0.1332,0.1064 -0.0858,0.33746 0.086,0.41942 l 0.1424,0.068 -0.1612,0.2594 c -0.0964,0.1552 -0.2867,0.34742 -0.47318,0.47822 -0.29728,0.20854 -0.3898,0.36934 -0.259,0.45016 0.1284,0.0794 0.0356,0.29284 -0.295,0.67868 -0.1914,0.22336 -0.3805,0.40612 -0.42038,0.40612 -0.0398,0 -0.139,0.0572 -0.22008,0.127 l -0.1476,0.127 0.0978,0.2717 0.0978,0.27168 -0.1514,0.21876 c -0.0834,0.1204 -0.24806,0.32786 -0.3661,0.46122 -0.27586,0.31168 -0.38752,0.47626 -0.63128,0.9304 -0.1094,0.20374 -0.25548,0.43774 -0.3247,0.52 -0.0692,0.0822 -0.1258,0.2117 -0.1258,0.28762 0,0.1012 -0.0868,0.21842 -0.325,0.4388 -0.34542,0.31964 -0.33208,0.27784 -0.22544,0.7064 0.024,0.0964 -0.038,0.2339 -0.25672,0.56886 -0.1586,0.24292 -0.35224,0.58318 -0.43028,0.75616 -0.078,0.173 -0.2101,0.42534 -0.29344,0.56078 -0.0834,0.1354 -0.22818,0.42256 -0.32184,0.638 -0.25266,0.5811 -1.48562,3.056 -1.6242,3.26022 -0.066,0.0972 -0.1698,0.28922 -0.231,0.42678 -0.0612,0.1376 -0.1568,0.34018 -0.21244,0.4502 -0.0558,0.11 -0.1014,0.234 -0.1014,0.27548 0,0.0414 -0.0596,0.1632 -0.1322,0.27032 -0.0728,0.1072 -0.1324,0.22952 -0.1324,0.27176 0,0.0422 -0.0816,0.1722 -0.1814,0.28866 -0.28172,0.32914 -0.76002,1.39244 -0.6985,1.5528 0.016,0.039 -0.0434,0.1596 -0.1298,0.26828 -0.0864,0.1086 -0.1704,0.25902 -0.187,0.33424 -0.0636,0.28966 -0.1462,0.5205 -0.31384,0.87756 -0.0958,0.20374 -0.2269,0.53518 -0.29158,0.73656 -0.0646,0.20138 -0.1948,0.52286 -0.28922,0.71438 -0.0944,0.1916 -0.26014,0.56254 -0.36828,0.82448 -0.1082,0.26194 -0.26576,0.61562 -0.35024,0.78596 -0.22966,0.46308 -0.191,0.61634 0.1558,0.61634 0.1424,0 0.24164,-0.0534 0.45244,-0.24356 0.60492,-0.54556 0.83834,-0.78354 1.0493,-1.0698 0.1218,-0.1654 0.31916,-0.40776 0.43846,-0.53872 0.1194,-0.131 0.37334,-0.44054 0.56448,-0.68792 0.1912,-0.24738 0.4781,-0.59568 0.63766,-0.77396 0.1596,-0.1782 0.36904,-0.46406 0.4655,-0.635 0.20382,-0.36118 0.39728,-0.62312 0.75056,-1.01624 0.1394,-0.1552 0.25348,-0.3241 0.25348,-0.37546 0,-0.0514 0.046,-0.135 0.102,-0.1858 0.0562,-0.0508 0.1432,-0.1796 0.1932,-0.28602 0.0502,-0.1064 0.1896,-0.3246 0.31008,-0.48466 0.39062,-0.51932 0.65206,-0.9725 0.73988,-1.28254 0.0672,-0.23702 0.1196,-0.32094 0.23932,-0.38284 0.0844,-0.0436 0.20784,-0.157 0.27448,-0.25206 0.0666,-0.095 0.1852,-0.23376 0.26364,-0.30828 0.0784,-0.0746 0.173,-0.23742 0.2103,-0.36198 0.0434,-0.1448 0.1312,-0.27484 0.2437,-0.3606 0.1818,-0.1386 0.60722,-0.8013 0.80236,-1.24968 0.0612,-0.1406 0.1692,-0.3246 0.24016,-0.40884 0.0708,-0.0842 0.1454,-0.23112 0.1656,-0.3264 0.0584,-0.27576 0.40328,-0.89338 0.5315,-0.9518 0.126,-0.0574 0.1464,-0.0922 0.37496,-0.64208 0.103,-0.24762 0.1944,-0.38504 0.28878,-0.43412 0.0954,-0.0496 0.1752,-0.171 0.2578,-0.39176 0.0658,-0.176 0.1414,-0.31994 0.168,-0.31994 0.0266,0 0.092,-0.1012 0.1454,-0.2249 0.0534,-0.1238 0.23146,-0.50246 0.3956,-0.8417 0.24838,-0.51336 0.3243,-0.62582 0.45266,-0.67056 0.20286,-0.0708 0.31194,-0.24684 0.40508,-0.65402 0.0776,-0.33908 0.21222,-0.51924 0.38806,-0.51924 0.1018,0 0.2057,-0.1952 0.43652,-0.8198 0.1878,-0.50838 0.26994,-0.60896 0.49688,-0.60896 0.1718,0 0.1724,-7.4e-4 0.23422,-0.36748 0.0638,-0.37808 0.109,-0.45368 0.29154,-0.48726 0.081,-0.014 0.1198,-0.0876 0.1658,-0.30996 0.0802,-0.38844 0.1166,-0.46584 0.23684,-0.504 0.1208,-0.0384 0.22898,-0.2764 0.27998,-0.61648 0.0376,-0.25118 0.126,-0.37626 0.24688,-0.34928 0.041,0.01 0.0962,-0.0886 0.1404,-0.2495 0.1126,-0.4082 0.2325,-0.65624 0.33282,-0.68808 0.056,-0.018 0.1234,-0.142 0.1744,-0.32076 0.0472,-0.1658 0.1474,-0.35636 0.23188,-0.44128 0.0818,-0.0822 0.24024,-0.26034 0.35188,-0.3958 0.22864,-0.27738 0.4682,-0.42386 0.6163,-0.37686 0.0796,0.0252 0.1212,-0.018 0.20696,-0.21096 0.0766,-0.1734 0.1516,-0.25806 0.26282,-0.29682 0.167,-0.0582 0.21718,-0.1688 0.21832,-0.48068 10e-4,-0.27776 0.0832,-0.4581 0.24172,-0.5303 0.1068,-0.0486 0.1606,-0.048 0.2425,0.004 0.1652,0.1032 0.29522,0.0242 0.39654,-0.24104 0.0512,-0.1342 0.1522,-0.31416 0.22458,-0.4001 0.0724,-0.086 0.1688,-0.23024 0.21458,-0.3207 0.0456,-0.0904 0.158,-0.20774 0.24962,-0.26058 0.1554,-0.0896 0.1724,-0.0902 0.25476,-0.008 0.1066,0.1066 0.1496,0.0644 0.23334,-0.23024 0.0352,-0.1236 0.0982,-0.25458 0.1402,-0.29104 0.042,-0.0364 0.1258,-0.22846 0.1862,-0.42668 0.104,-0.3408 0.25044,-0.56566 0.36824,-0.56566 0.029,0 0.1006,0.0476 0.1588,0.1058 0.0582,0.0582 0.1144,0.1058 0.125,0.1058 0.0358,0 0.2367,-0.71394 0.2699,-0.95962 0.0378,-0.27942 0.1784,-0.44296 0.3373,-0.3925 0.0878,0.0278 0.119,-0.008 0.1934,-0.22014 0.0488,-0.1394 0.145,-0.3486 0.21394,-0.46502 0.0688,-0.1164 0.1672,-0.29502 0.21836,-0.39688 0.1398,-0.27794 0.23268,-0.37042 0.37204,-0.37042 0.0976,0 0.1744,-0.0774 0.34166,-0.34396 0.133,-0.21196 0.2515,-0.34396 0.30908,-0.34396 0.0612,0 0.1314,-0.0886 0.20416,-0.25744 0.0608,-0.1416 0.1676,-0.29476 0.2373,-0.34038 0.0828,-0.0542 0.138,-0.1538 0.1594,-0.288 0.0404,-0.25294 0.25856,-0.48392 0.36978,-0.39162 0.0588,0.0488 0.1006,0.021 0.20792,-0.1378 0.074,-0.1094 0.1516,-0.2583 0.1726,-0.33106 0.0516,-0.1782 0.1266,-0.26458 0.23018,-0.26462 0.0474,0 0.26036,-0.1906 0.47328,-0.42332 0.3502,-0.3829 0.40576,-0.42326 0.5821,-0.42288 0.169,5.2e-4 0.23146,-0.039 0.46944,-0.29598 0.24226,-0.26156 0.29228,-0.2925 0.42564,-0.2632 0.1702,0.0374 0.24824,-0.0296 0.54074,-0.4639 0.26624,-0.3953 0.67984,-0.58384 0.84478,-0.3851 0.0846,0.1018 0.22542,0.0536 0.46376,-0.1584 0.1112,-0.099 0.24218,-0.18 0.291,-0.18 0.0572,-2e-5 0.1462,-0.1216 0.25042,-0.34216 0.1798,-0.38062 0.35672,-0.53394 0.5578,-0.48346 0.0726,0.018 0.22256,-0.004 0.33806,-0.0504 0.175,-0.07 0.2351,-0.1386 0.38256,-0.43702 0.1884,-0.38108 0.39692,-0.645 0.50968,-0.645 0.0386,0 0.1154,0.0282 0.1706,0.0628 0.084,0.0524 0.131,0.0394 0.28694,-0.0794 0.1026,-0.0782 0.21658,-0.22552 0.2534,-0.32732 0.0368,-0.1018 0.084,-0.1852 0.1048,-0.1852 0.0208,0 0.1262,-0.1206 0.2344,-0.26786 0.1658,-0.22586 0.22002,-0.26538 0.34586,-0.25218 0.1774,0.018 0.39254,-0.1672 0.63984,-0.55252 0.156,-0.24314 0.42166,-0.44346 0.5131,-0.38694 0.068,0.042 0.39904,-0.1562 0.64994,-0.38924 0.1366,-0.1268 0.2824,-0.21396 0.35866,-0.21436 0.1196,-6.2e-4 0.3614,-0.0648 0.6123,-0.1624 0.1714,-0.0666 0.59188,-0.1558 0.73486,-0.1558 0.0728,0 0.198,0.0564 0.27808,0.1254 0.1306,0.1124 0.1466,0.163 0.1544,0.48948 0.012,0.53768 0.012,0.53502 0.1622,0.5727 0.0764,0.02 0.3144,0.008 0.52904,-0.0244 0.45556,-0.069 0.58986,-0.04 0.63426,0.1368 0.0378,0.1506 0.1396,0.1622 0.41578,0.0468 0.1162,-0.0486 0.30754,-0.0756 0.4695,-0.0662 l 0.27326,0.016 -0.004,0.3572 c -0.004,0.39626 0.0618,0.45992 0.22662,0.2172 0.1846,-0.27186 0.65664,-0.71578 0.80686,-0.75886 0.165,-0.0474 0.37302,0.053 0.37302,0.1802 0,0.1432 0.2668,0.018 0.41126,-0.1928 0.3279,-0.47868 0.41728,-0.5529 0.74312,-0.617 0.3086,-0.0608 0.59174,-0.22436 0.73018,-0.42204 0.1228,-0.1754 0.4263,-0.33002 0.6896,-0.35148 0.143,-0.012 0.38396,-0.0906 0.56366,-0.1848 0.1726,-0.0906 0.3268,-0.1516 0.34264,-0.1358 0.016,0.016 0.0594,0.004 0.097,-0.0278 0.0374,-0.0312 0.20636,-0.0896 0.37528,-0.13 0.96936,-0.23162 1.37676,0.1222 0.82306,0.71494 -0.0654,0.07 -0.1192,0.1646 -0.1194,0.21006 0,0.0454 -0.0382,0.154 -0.0846,0.24138 -0.1266,0.23892 -0.1604,0.72654 -0.0562,0.813 0.1332,0.1106 0.70546,0.20796 0.95276,0.1622 0.37002,-0.0686 0.46684,0.016 0.54306,0.46974 0.0356,0.21258 0.078,0.42094 0.0942,0.46302 0.0326,0.0848 0.3258,0.1058 0.37458,0.027 0.045,-0.0728 0.34726,-0.215 0.45686,-0.215 0.052,0 0.1094,0.0238 0.1272,0.0528 0.0658,0.1064 0.21906,0.0474 0.52938,-0.20394 0.34014,-0.27536 0.53508,-0.35504 0.64514,-0.26372 0.0508,0.0422 0.143,0.02 0.3538,-0.0872 0.20046,-0.1014 0.33004,-0.135 0.43668,-0.113 0.0834,0.018 0.29426,0.01 0.46854,-0.014 0.1916,-0.0272 0.37986,-0.0248 0.47624,0.006 0.33696,0.108 0.60696,0.25498 0.664,0.36156 0.0522,0.0974 0.0248,0.149 -0.2226,0.41944 -0.1552,0.1696 -0.33598,0.32512 -0.40192,0.34554 -0.21162,0.0654 -0.3299,0.27542 -0.3299,0.58556 v 0.28152 l 0.1984,0.0318 c 0.1092,0.018 0.27852,0.0672 0.37638,0.1102 l 0.178,0.0784 -0.036,0.3366 c -0.044,0.41 0.01,0.46216 0.27854,0.27312 0.1074,-0.0754 0.28448,-0.1998 0.39338,-0.27646 0.1448,-0.1018 0.21606,-0.1242 0.2653,-0.0834 0.0482,0.04 0.1498,0.0274 0.35764,-0.0444 0.49088,-0.1694 1.18722,-0.1224 1.44126,0.0972 0.1436,0.1242 0.1122,0.26718 -0.1416,0.64548 -0.1786,0.26636 -0.4534,0.83408 -0.45364,0.93758 -2e-5,0.006 0.1542,-0.004 0.34266,-0.0208 0.39488,-0.0368 0.53066,0.0284 0.47992,0.2305 -0.0372,0.1484 0.051,0.1618 0.23188,0.035 0.1622,-0.1136 0.48832,-0.1908 0.83466,-0.1976 0.3712,-0.008 0.41398,0.0488 0.26004,0.34042 -0.0686,0.13 -0.1412,0.28984 -0.1616,0.35532 -0.0348,0.1122 -0.022,0.119 0.21952,0.119 0.26906,0 0.49158,0.1092 0.49158,0.24112 0,0.1028 0.0236,0.0986 0.35776,-0.065 0.23606,-0.1154 0.30712,-0.13 0.3882,-0.0794 0.0546,0.0342 0.1702,0.062 0.25688,0.062 0.253,0 0.30378,0.1658 0.1168,0.3812 -0.1632,0.1878 -0.29652,0.41256 -0.24482,0.41256 0.0746,0 0.28066,-0.138 0.52664,-0.35228 0.145,-0.1264 0.31412,-0.2298 0.37576,-0.2298 0.0616,0 0.1874,-0.0262 0.27966,-0.0584 0.24284,-0.0846 0.43028,-0.0242 0.43028,0.1388 0,0.0722 0.016,0.1312 0.0342,0.1312 0.0512,0 0.59124,-0.36508 0.62804,-0.42462 0.042,-0.068 0.32306,-0.0662 0.45248,0.004 0.0658,0.0352 0.1024,0.1108 0.1024,0.21166 0,0.1478 0.012,0.1568 0.21178,0.1568 0.1794,0 0.24298,-0.0332 0.41652,-0.21738 0.1596,-0.1696 0.22956,-0.20952 0.31744,-0.1816 0.0744,0.0236 0.1648,-10e-4 0.26632,-0.0736 0.1656,-0.118 0.37688,-0.1408 0.53246,-0.0574 0.095,0.0508 0.33268,0.004 0.53762,-0.1046 0.1596,-0.085 0.45734,-0.1162 0.56414,-0.0592 0.083,0.0444 0.133,0.0352 0.23232,-0.043 0.0696,-0.0548 0.2329,-0.128 0.36284,-0.1628 0.13,-0.0348 0.26122,-0.0836 0.29172,-0.1086 0.0998,-0.0816 1.22568,-0.0758 1.32522,0.006 0.1742,0.1446 -0.2075,0.68748 -0.67088,0.95422 -0.1714,0.0988 -0.31202,0.20362 -0.31234,0.23314 -5.4e-4,0.052 -0.37224,0.23738 -0.47596,0.23738 -0.0282,0 -0.0898,0.0586 -0.1366,0.1302 -0.047,0.0716 -0.1368,0.1456 -0.1996,0.1642 -0.28746,0.0854 -0.55972,0.25668 -0.57472,0.36138 -0.012,0.089 -0.1114,0.1412 -0.50534,0.26766 -0.4819,0.1548 -0.48948,0.1598 -0.48948,0.32552 0,0.1772 -0.0698,0.23264 -0.29224,0.23264 -0.0686,0 -0.1378,0.0212 -0.1538,0.047 -0.016,0.0258 -0.1084,0.0618 -0.20554,0.08 -0.1318,0.0248 -0.1956,0.0758 -0.25194,0.20176 -0.0796,0.1778 -0.1518,0.21082 -0.68394,0.312 -0.16,0.0304 -0.34996,0.0932 -0.42194,0.1396 l -0.1308,0.0842 0.1788,0.0602 c 0.0992,0.0334 0.1978,0.1112 0.22128,0.1748 0.0598,0.1616 -0.1666,0.41704 -0.43328,0.48886 -0.1142,0.0308 -0.2078,0.087 -0.2078,0.125 0,0.1124 -0.1702,0.2282 -0.39442,0.26846 -0.2458,0.0442 -0.611,0.22012 -0.611,0.2944 0,0.0286 0.0654,0.0522 0.1456,0.0526 0.30248,0.001 0.38364,0.0524 0.38364,0.24046 0,0.0968 -0.0238,0.1906 -0.053,0.2086 -0.0292,0.018 -0.053,0.0758 -0.053,0.1284 0,0.0648 -0.0852,0.131 -0.26458,0.20562 -0.25706,0.1068 -0.3203,0.181 -0.21166,0.24812 0.0842,0.052 0.0648,0.0992 -0.1358,0.33374 -0.1824,0.21312 -0.20014,0.32772 -0.0506,0.32772 0.0396,0 0.181,0.0468 0.31438,0.104 0.1726,0.074 0.2425,0.1344 0.2425,0.20984 0,0.1432 -0.27604,0.44822 -0.50302,0.55594 -0.1128,0.0534 -0.1848,0.1258 -0.1848,0.1854 0,0.0778 -0.0696,0.1114 -0.34396,0.166 -0.1892,0.0376 -0.34396,0.0842 -0.34396,0.1034 0,0.02 0.0476,0.0782 0.1058,0.1308 0.0582,0.0526 0.1058,0.1364 0.1058,0.1862 0,0.1164 -0.1982,0.36934 -0.28922,0.36934 -0.0768,0 -0.1454,0.1298 -0.0952,0.18 0.018,0.018 0.0824,0.0316 0.1446,0.0316 0.062,0 0.1392,0.0262 0.1712,0.0584 0.0658,0.0658 0.41722,0.0404 0.85684,-0.062 0.2611,-0.0608 0.29164,-0.058 0.3572,0.0316 0.0942,0.1288 0.0906,0.38424 -0.008,0.57332 -0.0434,0.0834 -0.079,0.20328 -0.079,0.26648 0,0.078 -0.1176,0.2109 -0.36628,0.41414 -0.2894,0.23642 -0.3603,0.32212 -0.3378,0.4082 0.0206,0.0788 0.004,0.109 -0.0622,0.109 -0.0498,0 -0.1538,0.035 -0.23106,0.0778 -0.0772,0.0428 -0.23098,0.1134 -0.3416,0.1572 -0.1708,0.0674 -0.1932,0.0942 -0.149,0.177 0.0358,0.0668 0.032,0.138 -0.012,0.22646 -0.0612,0.1234 -0.1936,0.20596 -0.63032,0.3929 -0.1092,0.0468 -0.1974,0.1136 -0.1964,0.1486 0.002,0.0946 0.44142,0.40838 0.86718,0.62096 0.32806,0.1638 0.37626,0.20662 0.39012,0.34678 0.01,0.1044 -0.0258,0.21286 -0.1042,0.3125 -0.0752,0.0956 -0.1142,0.2082 -0.1044,0.30156 0.01,0.0974 -0.014,0.16 -0.0678,0.181 -0.0458,0.018 -0.0834,0.0682 -0.0834,0.1126 0,0.0674 0.0544,0.0748 0.33072,0.045 0.1818,-0.02 0.40766,-0.06 0.50168,-0.09 0.23994,-0.0764 0.29584,-0.0226 0.2646,0.25448 -0.018,0.1558 -0.0818,0.30358 -0.1914,0.4398 -0.0906,0.1128 -0.1648,0.25244 -0.1648,0.31024 0,0.1086 -0.132,0.23072 -0.4218,0.39024 -0.1266,0.0696 -0.1596,0.1172 -0.1352,0.1942 0.04,0.126 -0.1164,0.2834 -0.45168,0.45486 -0.24056,0.123 -0.42868,0.29048 -0.32632,0.29048 0.0296,0 0.0678,0.0366 0.085,0.0814 0.06,0.1562 -0.093,0.29006 -0.45436,0.39788 -0.1952,0.0582 -0.36734,0.1258 -0.38234,0.1502 -0.014,0.0242 0.1626,0.22252 0.39474,0.44054 0.24774,0.23272 0.42202,0.43904 0.42202,0.49966 0,0.0624 -0.155,0.23788 -0.39268,0.4442 l -0.39268,0.34096 0.4853,0.0264 c 0.2669,0.014 0.51768,0.0474 0.55728,0.073 0.1168,0.0754 0.0546,0.61172 -0.0954,0.82238 -0.0952,0.1336 -0.1082,0.1838 -0.0562,0.21586 0.0492,0.0304 -10e-4,0.1154 -0.1838,0.31082 -0.1452,0.1552 -0.23948,0.30046 -0.22298,0.34346 0.0402,0.105 -0.21512,0.33272 -0.47638,0.4249 -0.1212,0.0428 -0.28056,0.1172 -0.35406,0.1654 -0.1128,0.074 -0.124,0.103 -0.0718,0.1866 0.0884,0.1414 -0.1148,0.3454 -0.38752,0.38898 -0.24238,0.0388 -0.26336,0.1206 -0.076,0.29664 0.0728,0.0684 0.1322,0.1632 0.1322,0.21092 0,0.1314 -0.20016,0.3186 -0.3786,0.35428 -0.1008,0.0202 -0.1762,0.0774 -0.20632,0.1566 -0.0438,0.1152 -0.077,0.125 -0.43242,0.1256 -0.56434,10e-4 -0.5856,0.0348 -0.25924,0.41002 0.24194,0.27816 0.2682,0.3309 0.22342,0.44868 -0.0574,0.1508 -0.27204,0.31742 -0.50788,0.39412 -0.1198,0.039 -0.1594,0.0844 -0.1612,0.1856 -0.001,0.0738 -0.043,0.1746 -0.0926,0.22428 -0.1338,0.1338 -0.112,0.1756 0.111,0.2132 0.1106,0.018 0.26562,0.0862 0.3444,0.1502 0.131,0.1064 0.1386,0.1322 0.0898,0.3059 -0.0468,0.1662 -0.25892,0.42114 -0.6089,0.73168 -0.0582,0.0516 -0.2249,0.136 -0.37042,0.1872 -0.1456,0.0514 -0.3278,0.1166 -0.40506,0.145 -0.0772,0.0284 -0.1524,0.0972 -0.167,0.153 -0.0218,0.0832 -0.0748,0.1014 -0.29348,0.1014 -0.1468,0 -0.38458,0.0252 -0.52834,0.056 -0.22578,0.0484 -0.25756,0.0708 -0.23314,0.1642 0.0442,0.1686 -0.0724,0.20142 -0.72018,0.20228 -0.55174,7.6e-4 -0.59778,0.008 -0.56206,0.0934 0.1096,0.2605 0.094,0.31732 -0.1046,0.38284 -0.1454,0.048 -0.27474,0.0494 -0.52534,0.006 -0.1828,-0.0318 -0.34814,-0.0578 -0.36734,-0.0578 -0.02,0 0.004,0.0988 0.053,0.21976 0.0864,0.21572 0.0856,0.22158 -0.0328,0.3175 -0.076,0.0616 -0.2059,0.0978 -0.3511,0.0978 -0.1776,0 -0.2436,0.0246 -0.28808,0.1078 -0.053,0.099 -0.0898,0.1048 -0.45164,0.072 -0.22634,-0.0204 -0.39398,-0.016 -0.39398,0.012 0,0.0264 0.0596,0.1356 0.1322,0.24262 0.0728,0.107 0.1322,0.2156 0.1322,0.24118 0,0.0846 -0.24314,0.27662 -0.35048,0.27662 -0.058,0 -0.1518,0.035 -0.20826,0.0776 -0.0592,0.0448 -0.22062,0.0784 -0.38052,0.0794 -0.27354,0.002 -0.27782,0.004 -0.27782,0.1618 0,0.1264 -0.0306,0.1712 -0.1456,0.21308 -0.20322,0.074 -0.49304,0.2272 -0.52488,0.27742 -0.014,0.023 0.014,0.1028 0.0618,0.177 0.115,0.1756 0.0678,0.35268 -0.1178,0.4423 -0.0808,0.039 -0.40492,0.0856 -0.72044,0.1036 -0.4585,0.0262 -0.5836,0.0504 -0.6232,0.1212 -0.0414,0.074 -0.1052,0.0834 -0.38746,0.057 -0.32632,-0.0304 -0.3385,-0.0272 -0.35574,0.0948 -0.018,0.1252 -0.0228,0.1262 -0.5779,0.1106 l -0.56002,-0.016 0.0224,0.1526 c 0.02,0.1304 -0.002,0.1628 -0.1432,0.22126 -0.138,0.0572 -0.1982,0.0558 -0.36196,-0.008 -0.108,-0.0418 -0.31532,-0.083 -0.4606,-0.0914 -0.1452,-0.008 -0.28566,-0.0286 -0.31198,-0.0448 -0.027,-0.016 -0.0328,0.0302 -0.014,0.1074 0.0658,0.26228 -0.32516,0.39274 -0.65924,0.22 -0.0874,-0.0452 -0.20122,-0.0686 -0.25312,-0.0522 -0.052,0.016 -0.1966,-0.006 -0.32152,-0.0502 -0.125,-0.044 -0.2697,-0.0802 -0.32172,-0.0802 -0.0832,0 -0.0874,0.02 -0.0346,0.1588 0.088,0.23338 -0.071,0.3736 -0.48896,0.43074 -0.2662,0.0364 -0.36636,0.026 -0.5875,-0.0612 -0.28614,-0.1128 -0.5802,-0.1388 -0.5802,-0.0514 0,0.0294 0.0298,0.1024 0.0662,0.162 0.0582,0.0952 0.0472,0.125 -0.0898,0.24382 -0.1416,0.123 -0.1868,0.1328 -0.49434,0.1082 -0.1862,-0.014 -0.36482,-0.0536 -0.39706,-0.0858 -0.0826,-0.0826 -0.2244,-0.0728 -0.30204,0.0208 -0.084,0.1012 -0.3011,0.101 -0.49552,-5.4e-4 -0.0834,-0.0434 -0.22074,-0.079 -0.3053,-0.079 -0.1392,0 -0.1504,0.014 -0.119,0.138 0.023,0.0914 0.01,0.1536 -0.0388,0.1844 -0.1306,0.0826 -0.48384,0.0508 -0.72358,-0.0652 -0.184,-0.089 -0.2429,-0.0986 -0.27604,-0.045 -0.0338,0.0546 -0.0864,0.0504 -0.26464,-0.0208 -0.1224,-0.049 -0.25846,-0.125 -0.3024,-0.169 -0.058,-0.058 -0.1398,-0.071 -0.2989,-0.047 -0.1218,0.018 -0.43022,-0.004 -0.69504,-0.0502 -0.30262,-0.0528 -0.48246,-0.064 -0.49366,-0.0306 -0.0258,0.0766 -0.1802,0.0644 -0.30688,-0.0244 -0.24168,-0.1692 -0.8188,-0.24786 -1.58798,-0.21618 -0.6537,0.027 -1.0601,0.029 -1.65882,0.008 -0.1514,-0.006 -0.1848,0.012 -0.1852,0.0996 -5.2e-4,0.0766 -0.0418,0.1106 -0.1492,0.1228 -0.0818,0.01 -0.177,-0.006 -0.21166,-0.0336 -0.0734,-0.059 -0.56436,-0.1688 -0.75448,-0.1688 -0.1128,0 -0.1262,0.018 -0.0976,0.1318 0.0242,0.096 0.008,0.1412 -0.0572,0.1664 -0.108,0.0414 -0.97228,-0.0854 -1.0112,-0.1484 -0.014,-0.0242 -0.101,-0.044 -0.191,-0.044 -0.1556,0 -0.1594,0.004 -0.0758,0.0972 0.0824,0.091 0.0812,0.1034 -0.018,0.1926 -0.0866,0.0784 -0.158,0.0892 -0.40044,0.0606 -0.1622,-0.02 -0.34724,-0.0688 -0.411,-0.1106 -0.0638,-0.0418 -0.22308,-0.092 -0.35406,-0.1118 -0.1968,-0.0296 -0.22664,-0.0236 -0.172,0.0344 0.0958,0.1018 0.0812,0.23064 -0.0382,0.3388 -0.085,0.0768 -0.1564,0.0878 -0.38364,0.059 -0.34458,-0.0436 -0.60428,-0.054 -1.03756,-0.0412 l -0.33492,0.01 0.0348,0.1588 c 0.0324,0.1472 0.024,0.1588 -0.1148,0.1584 -0.0824,0 -0.22116,-0.0398 -0.30848,-0.0882 -0.0902,-0.05 -0.30732,-0.0944 -0.5027,-0.1028 -0.1892,-0.008 -0.44534,-0.0304 -0.56924,-0.0496 -0.1542,-0.0238 -0.29222,-0.008 -0.43762,0.0502 -0.1168,0.0468 -0.36072,0.0854 -0.54202,0.086 -0.1814,5.8e-4 -0.48444,0.0282 -0.67362,0.0616 -0.1892,0.0332 -0.48952,0.0562 -0.66742,0.051 -0.2337,-0.006 -0.34196,0.012 -0.39012,0.0708 -0.0456,0.0548 -0.1634,0.0804 -0.37152,0.0804 -0.26596,0 -0.30858,0.014 -0.33414,0.112 -0.0256,0.098 -0.0546,0.1076 -0.23106,0.0762 -0.41568,-0.0738 -0.73268,-0.0842 -0.81032,-0.027 -0.0598,0.0442 -0.0632,0.0652 -0.014,0.0854 0.1102,0.0448 0.0742,0.1754 -0.066,0.23924 -0.099,0.0452 -0.1834,0.0448 -0.33686,-0.001 -0.3961,-0.1186 -1.06488,-0.0424 -1.56828,0.1788 -0.0874,0.0384 -0.37308,0.0982 -0.635,0.1328 -0.26194,0.0346 -0.5783,0.096 -0.703,0.136 -0.1248,0.0402 -0.3422,0.073 -0.48332,0.073 -0.20596,0 -0.26164,0.02 -0.2824,0.0988 -0.018,0.0724 -0.0946,0.1082 -0.28398,0.1344 -0.4602,0.0632 -0.53802,0.089 -0.5633,0.1856 -0.018,0.0668 -0.094,0.104 -0.25674,0.125 -1.07074,0.138 -1.43366,0.2097 -1.77544,0.35046 -0.20868,0.086 -0.56428,0.2081 -0.7902,0.2715 -0.22594,0.0634 -0.54336,0.1846 -0.70538,0.2693 -0.1676,0.0876 -0.44284,0.1748 -0.63854,0.20216 -0.40816,0.0572 -0.9099,0.2019 -1.37922,0.39798 -0.1874,0.0782 -0.45004,0.1732 -0.58386,0.21082 -0.1338,0.0378 -0.47908,0.1524 -0.76728,0.25468 -0.2882,0.1024 -0.72132,0.23932 -0.96248,0.30428 -0.3611,0.0972 -0.45138,0.143 -0.5116,0.25952 -0.0528,0.1024 -0.1544,0.167 -0.3667,0.23396 -0.1614,0.0508 -0.3077,0.1154 -0.32498,0.1434 -0.018,0.028 -0.1192,0.0516 -0.2267,0.0528 -0.1074,10e-4 -0.32628,0.0666 -0.48634,0.1456 -0.23466,0.1158 -0.2943,0.1718 -0.3078,0.28902 -0.0216,0.1876 0.0548,0.2152 0.84228,0.30364 0.41068,0.0462 0.74344,0.054 1.0054,0.0238 0.21536,-0.0248 1.49886,-0.0458 2.8522,-0.0468 2.14948,-0.002 2.49742,0.01 2.75166,0.0866 0.16,0.0486 0.6006,0.1274 0.97896,0.1752 0.7522,0.095 1.65522,0.27144 1.905,0.37222 0.0874,0.0352 0.55716,0.0802 1.0441,0.0998 1.07522,0.0434 1.80166,0.1518 1.9858,0.29672 0.115,0.0904 0.21552,0.1046 0.74414,0.1046 0.55478,0 0.62254,0.01 0.73374,0.115 0.1216,0.1142 0.1716,0.121 0.69498,0.094 0.1576,-0.008 0.27266,0.0204 0.37042,0.0916 0.2508,0.1828 0.31012,0.1928 1.96744,0.32864 0.31064,0.0254 0.5733,0.0778 0.68744,0.1372 0.1604,0.0834 0.22318,0.0882 0.47626,0.037 0.1604,-0.0326 0.44966,-0.0748 0.64292,-0.094 0.31134,-0.031 0.38378,-0.02 0.635,0.1024 0.25098,0.1214 0.35666,0.1386 0.9186,0.1486 0.55518,0.01 0.6623,0.0268 0.85216,0.1346 0.2077,0.118 0.23498,0.1204 0.62574,0.0598 0.32986,-0.0512 0.44094,-0.0502 0.57658,0.006 0.0924,0.0382 0.28708,0.0886 0.4326,0.1118 0.81216,0.1296 0.97808,0.161 1.24184,0.23448 0.1592,0.0444 0.42108,0.0822 0.58208,0.0838 0.38188,0.004 0.79734,0.0736 0.84058,0.1406 0.0526,0.0816 0.32234,0.20742 0.64742,0.30192 0.24916,0.0724 0.30802,0.1144 0.38396,0.27362 0.1278,0.26812 0.69496,0.52348 1.27342,0.5734 0.49624,0.0428 0.68814,0.1294 0.76302,0.34422 0.0386,0.1104 0.1004,0.168 0.20418,0.19 0.0818,0.018 0.22664,0.0656 0.32162,0.1072 0.095,0.0416 0.2668,0.0906 0.3818,0.109 0.1376,0.022 0.23728,0.0764 0.29154,0.1592 0.0708,0.108 0.1256,0.126 0.3855,0.127 0.55616,0.002 0.9005,0.1456 0.82466,0.34328 -0.018,0.0488 0.0634,0.0884 0.27346,0.132 0.23998,0.0498 0.31738,0.0922 0.38588,0.21162 0.0684,0.1192 0.1444,0.161 0.3784,0.2077 0.3355,0.067 0.36904,0.0858 0.48868,0.27404 0.0576,0.0906 0.1516,0.1484 0.27396,0.1682 0.29812,0.0484 0.7967,0.41894 0.92766,0.68946 0.1002,0.20716 0.1068,0.27078 0.0614,0.59248 -0.028,0.1982 -0.0878,0.3971 -0.1326,0.44194 -0.0734,0.0734 -0.0514,0.0976 0.22212,0.2428 0.2532,0.1344 0.30662,0.1876 0.32156,0.32002 0.0234,0.20706 0.0974,0.29104 0.25662,0.29104 0.18,0 0.3477,0.0996 0.3143,0.1868 -0.018,0.0468 0.1198,0.1764 0.3849,0.36204 0.22704,0.159 0.48698,0.38292 0.57764,0.49736 0.1628,0.20544 0.1644,0.21344 0.127,0.6257 -0.0372,0.40896 -0.0416,0.41936 -0.2172,0.50218 l -0.1794,0.0846 0.23224,0.1556 c 0.1886,0.1264 0.23554,0.19 0.24978,0.33894 0.0222,0.23088 0.0666,0.2834 0.36198,0.42634 0.1996,0.0966 0.2348,0.1358 0.21502,0.23916 -0.012,0.068 -0.006,0.1126 0.016,0.0992 0.045,-0.0278 0.42146,0.3723 0.42146,0.448 0,0.0272 -0.0252,0.0652 -0.0558,0.0842 -0.037,0.0228 -0.028,0.0768 0.0268,0.1606 0.122,0.186 0.148,0.72808 0.0474,0.97986 -0.0456,0.114 -0.1046,0.20708 -0.1312,0.20708 -0.0634,0 0.1106,0.2712 0.23094,0.36018 0.1006,0.0744 0.1276,0.2219 0.0406,0.2219 -0.0292,0 -0.053,0.02 -0.053,0.0422 0,0.0508 0.32678,0.4204 0.67134,0.75938 0.21284,0.2094 0.23992,0.25826 0.182,0.32816 -0.0554,0.0666 -0.0556,0.1172 -9.6e-4,0.26808 0.037,0.1022 0.1024,0.1994 0.1452,0.21586 0.1226,0.047 0.80116,0.50706 0.80636,0.54668 0.002,0.02 0.014,0.1546 0.0242,0.3002 0.014,0.1846 0.048,0.28058 0.114,0.3175 0.052,0.0292 0.166,0.1244 0.2536,0.21194 0.0876,0.0874 0.22284,0.2 0.30068,0.24996 0.0778,0.05 0.1564,0.1378 0.1746,0.1952 0.018,0.0574 0.145,0.1768 0.28182,0.26526 0.51768,0.335 0.60094,0.4062 0.71582,0.61218 0.068,0.1218 0.22976,0.28416 0.3811,0.38236 0.7137,0.46308 1.40076,1.23658 1.40076,1.57698 0,0.1278 -0.0648,0.1616 -0.26458,0.1384 -0.0436,-0.006 -0.21636,-0.018 -0.38378,-0.0266 -0.2659,-0.016 -0.49262,-0.0888 -0.7804,-0.25352 -0.40918,-0.23424 -0.53568,-0.2787 -0.5816,-0.2044 -0.0396,0.064 -0.0662,0.0596 -0.1692,-0.0278 -0.0672,-0.057 -0.1342,-0.1172 -0.1488,-0.1336 -0.014,-0.016 -0.1336,-0.1026 -0.26458,-0.1914 -0.1878,-0.1272 -0.25704,-0.1494 -0.32756,-0.1046 -0.0684,0.0434 -0.1458,0.0286 -0.32996,-0.0632 -0.1322,-0.066 -0.25874,-0.1512 -0.28098,-0.1892 -0.0416,-0.071 -0.44746,-0.2946 -0.53488,-0.2946 -0.0268,0 -0.0622,0.0508 -0.0784,0.1126 -0.0266,0.1016 -0.0578,0.1102 -0.32048,0.0886 -0.1964,-0.016 -0.36014,-0.0698 -0.50334,-0.1646 -0.1228,-0.0812 -0.22586,-0.1186 -0.24444,-0.0886 -0.0604,0.0976 -0.24996,0.052 -0.55504,-0.1332 -0.1676,-0.1018 -0.32008,-0.1852 -0.33866,-0.1852 -0.018,0 -0.018,0.0592 -8e-4,0.1314 0.0264,0.1054 0.008,0.1408 -0.0916,0.1788 -0.1954,0.0742 -0.70662,0.0368 -0.8585,-0.0628 -0.1676,-0.1098 -0.24506,-0.1128 -0.24506,-0.01 0,0.1014 -0.151,0.1014 -0.35374,5.2e-4 -0.087,-0.0434 -0.23956,-0.0946 -0.33886,-0.114 -0.1766,-0.0342 -0.1786,-0.0326 -0.088,0.07 0.051,0.0576 0.0926,0.1298 0.0926,0.1604 0,0.22308 -0.57814,0.27442 -0.9982,0.0886 -0.1568,-0.0692 -0.29234,-0.126 -0.30134,-0.126 -0.01,0 -0.0238,0.0654 -0.033,0.1456 -0.018,0.1582 -0.0794,0.1698 -0.4794,0.0914 l -0.198,-0.039 0.0608,0.1744 c 0.0546,0.1566 0.0486,0.1842 -0.0592,0.27144 -0.136,0.11 -0.40922,0.1264 -0.60684,0.0364 -0.096,-0.0438 -0.1526,-0.0446 -0.20238,-0.004 -0.0516,0.0428 -0.1324,0.018 -0.31892,-0.098 -0.1374,-0.0856 -0.27362,-0.1554 -0.30282,-0.1554 -0.0292,0 -0.053,0.0806 -0.053,0.179 0,0.141 -0.0254,0.1858 -0.119,0.21094 -0.1852,0.0496 -0.4101,0.039 -0.4101,-0.02 0,-0.029 -0.0256,-0.053 -0.057,-0.053 -0.0314,0 0.052,0.1246 0.1852,0.27692 0.23918,0.27342 0.31736,0.51684 0.166,0.51684 -0.1314,0 -0.1382,0.088 -0.018,0.24014 l 0.1154,0.1468 -0.1802,0.1506 c -0.1568,0.1308 -0.22902,0.1518 -0.55272,0.1606 -0.54344,0.014 -0.56592,0.014 -0.77742,-0.0218 -0.1642,-0.028 -0.1976,-0.016 -0.22118,0.0734 -0.0346,0.1326 -0.1716,0.0988 -0.5062,-0.125 -0.23264,-0.1556 -0.31966,-0.142 -0.322,0.0498 -10e-4,0.0996 -0.1068,0.0806 -0.38966,-0.07 -0.36328,-0.1934 -0.4161,-0.156 -0.373,0.2646 0.0348,0.33896 0.0338,0.34258 -0.107,0.37792 -0.0912,0.0228 -0.24892,-0.004 -0.44032,-0.0742 -0.28922,-0.1066 -0.30024,-0.1068 -0.36682,-0.012 -0.0558,0.0798 -0.1032,0.0902 -0.25464,0.056 -0.1108,-0.025 -0.186,-0.0218 -0.186,0.008 0,0.0274 0.0834,0.1802 0.1852,0.33942 0.21644,0.33836 0.2285,0.4253 0.0662,0.47696 -0.1638,0.052 -0.61188,0.0322 -0.82226,-0.0364 -0.1276,-0.0416 -0.1936,-0.0406 -0.24756,0.004 -0.0824,0.0682 -0.2927,-0.018 -0.59354,-0.24292 -0.197,-0.1474 -0.22842,-0.1538 -0.22842,-0.0466 0,0.1504 -0.146,0.0786 -0.42566,-0.20916 -0.1542,-0.1586 -0.29746,-0.27804 -0.31826,-0.26518 -0.0208,0.012 -0.0536,0.113 -0.0732,0.2224 -0.0796,0.44922 -0.1636,0.50898 -0.4299,0.30586 -0.0962,-0.0734 -0.20244,-0.1332 -0.2363,-0.1332 -0.0338,0 -0.1698,-0.0952 -0.30202,-0.21166 -0.27862,-0.24524 -0.35624,-0.26488 -0.3094,-0.0782 0.0376,0.1498 -0.0318,0.31498 -0.1516,0.36094 -0.1068,0.041 -0.46008,-0.111 -0.54728,-0.23562 -0.0386,-0.055 -0.127,-0.1 -0.1968,-0.1 -0.0698,0 -0.1876,-0.0276 -0.2618,-0.0614 -0.1776,-0.081 -0.21686,-0.0314 -0.1338,0.1692 0.0892,0.21536 -0.006,0.31746 -0.3326,0.3542 -0.1928,0.0218 -0.28286,0 -0.48304,-0.1176 -0.142,-0.0832 -0.29036,-0.1326 -0.35072,-0.1168 -0.077,0.0202 -0.1604,-0.0378 -0.31526,-0.21908 -0.1876,-0.2194 -0.22214,-0.23926 -0.31532,-0.1812 -0.1372,0.0856 -0.2085,0.0502 -0.39984,-0.1982 -0.1866,-0.24222 -0.2669,-0.26154 -0.31362,-0.0754 -0.027,0.1076 -0.0618,0.1322 -0.1682,0.119 -0.1404,-0.018 -0.25706,-0.1768 -0.30828,-0.4214 -0.0204,-0.097 -0.0808,-0.1582 -0.1964,-0.1984 -0.0918,-0.032 -0.1724,-0.0582 -0.179,-0.0582 -0.006,0 -0.0264,0.072 -0.044,0.16 -0.018,0.088 -0.0686,0.174 -0.1134,0.1912 -0.1408,0.054 -0.40114,-0.0952 -0.53454,-0.30664 -0.0912,-0.1446 -0.1654,-0.20334 -0.25656,-0.20334 -0.0892,0 -0.1736,-0.064 -0.27716,-0.21054 -0.153,-0.21628 -0.28124,-0.27592 -0.28124,-0.1308 0,0.045 -0.0354,0.1506 -0.079,0.23456 -0.0716,0.1386 -0.094,0.1482 -0.24462,0.105 -0.24664,-0.0708 -0.40156,-0.1884 -0.55674,-0.4229 -0.0946,-0.143 -0.1778,-0.21038 -0.25978,-0.21038 -0.112,0 -0.27864,-0.1566 -0.42882,-0.40302 -0.057,-0.0936 -0.064,-0.0912 -0.1158,0.0408 -0.0798,0.20372 -0.129,0.21644 -0.482,0.125 -0.39154,-0.1014 -0.63708,-0.23904 -0.98658,-0.55278 -0.55554,-0.49872 -0.72262,-0.63862 -0.76274,-0.63862 -0.0228,0 -0.0772,-0.0892 -0.1212,-0.1984 -0.0922,-0.22904 -0.26524,-0.40558 -0.47554,-0.48526 -0.0976,-0.037 -0.18,-0.1316 -0.24498,-0.28134 -0.1494,-0.3442 -0.3269,-0.48456 -0.55814,-0.44118 -0.24112,0.0452 -0.3766,-0.0464 -0.55906,-0.3779 -0.1352,-0.24566 -0.1424,-0.25028 -0.3691,-0.23392 -0.22644,0.016 -0.23914,0.008 -0.61598,-0.38858 -0.21164,-0.2229 -0.39938,-0.45126 -0.41722,-0.50746 -0.0236,-0.0742 -0.081,-0.1022 -0.21004,-0.1022 -0.135,0 -0.20724,-0.0382 -0.30072,-0.1592 -0.0678,-0.0876 -0.20048,-0.25648 -0.29506,-0.37542 -0.0946,-0.119 -0.172,-0.24974 -0.172,-0.29064 0,-0.041 -0.0242,-0.0744 -0.0536,-0.0744 -0.0294,0 -0.1062,-0.1084 -0.1706,-0.24078 -0.1142,-0.23494 -0.1218,-0.23996 -0.31462,-0.20738 -0.26242,0.0444 -0.45666,-0.0738 -0.76332,-0.46412 -0.1318,-0.1676 -0.26766,-0.30572 -0.30212,-0.30684 -0.0344,-0.001 -0.1106,-0.0784 -0.1692,-0.1716 -0.0604,-0.096 -0.2145,-0.22074 -0.35504,-0.28746 -0.1432,-0.068 -0.28074,-0.1802 -0.32486,-0.26498 -0.1024,-0.1966 -0.29396,-0.36406 -0.46234,-0.40372 -0.1318,-0.031 -0.25328,-0.21594 -0.40888,-0.62216 -0.0358,-0.0934 -0.1056,-0.1486 -0.21606,-0.1706 -0.125,-0.025 -0.1912,-0.087 -0.28238,-0.26478 -0.41134,-0.80118 -0.5201,-0.93472 -0.76124,-0.93472 -0.1294,0 -0.3897,-0.27652 -0.39002,-0.41416 0,-0.0488 -0.0478,-0.1666 -0.1058,-0.2618 -0.0582,-0.0952 -0.1056,-0.2172 -0.1056,-0.2709 0,-0.0538 -0.0922,-0.21386 -0.20496,-0.3559 -0.1128,-0.142 -0.22228,-0.3379 -0.24342,-0.4352 -0.0212,-0.0974 -0.0954,-0.22648 -0.165,-0.28706 -0.0696,-0.0606 -0.1754,-0.24056 -0.23512,-0.39998 -0.0596,-0.1594 -0.20014,-0.42316 -0.31224,-0.58608 -0.112,-0.163 -0.21906,-0.38422 -0.23772,-0.49182 -0.018,-0.1076 -0.1246,-0.31632 -0.2355,-0.46386 -0.124,-0.165 -0.22598,-0.37736 -0.26496,-0.55156 -0.041,-0.1832 -0.1278,-0.35846 -0.24542,-0.49594 -0.1002,-0.117 -0.20598,-0.27572 -0.2353,-0.3528 -0.0292,-0.077 -0.1644,-0.31022 -0.30002,-0.51812 -0.1358,-0.20788 -0.27934,-0.48632 -0.31918,-0.61876 -0.0398,-0.1324 -0.152,-0.3246 -0.2491,-0.42706 -0.0972,-0.1024 -0.27972,-0.32916 -0.40574,-0.50378 -0.2571,-0.35628 -0.89524,-1.03028 -0.97642,-1.03128 -0.029,-5.2e-4 -0.1554,-0.1196 -0.28076,-0.2652 -0.24724,-0.2871 -0.31922,-0.31438 -0.44952,-0.1704 -0.0716,0.0792 -0.0774,0.1486 -0.0358,0.43658 0.0272,0.1884 0.05,0.48122 0.0506,0.6509 6e-4,0.1696 0.037,0.5864 0.081,0.92604 0.044,0.33966 0.1038,0.9271 0.133,1.30546 0.0292,0.37836 0.0756,0.8546 0.1034,1.05834 0.0278,0.20372 0.075,0.60854 0.105,0.89958 0.03,0.29104 0.091,0.86254 0.1354,1.27 0.0444,0.40746 0.1054,1.15754 0.1356,1.66688 0.1104,1.86808 0.1392,2.26116 0.1702,2.31106 0.018,0.028 0.0578,0.3708 0.09,0.76172 0.0322,0.39092 0.0824,0.82982 0.1114,0.97534 0.029,0.1456 0.0736,0.62176 0.0992,1.05834 0.0254,0.43656 0.0838,0.93566 0.1296,1.10912 0.0458,0.1734 0.0846,0.47114 0.0864,0.66146 0.0018,0.1904 0.025,0.46514 0.0516,0.61066 0.0626,0.34128 0.2528,1.81358 0.31748,2.4573 0.0276,0.27466 0.061,0.53658 0.0742,0.58208 0.014,0.0454 0.0622,0.49942 0.1086,1.00874 0.0466,0.50932 0.1064,1.0094 0.1332,1.11126 0.0448,0.1706 0.129,0.86974 0.42028,3.4925 0.0598,0.53842 0.1566,1.33614 0.21514,1.7727 0.0586,0.43656 0.129,0.98426 0.1566,1.21708 0.1356,1.1464 0.21552,1.7341 0.24128,1.77576 0.016,0.0252 0.0516,0.31468 0.0798,0.6432 0.0282,0.32852 0.0866,0.76398 0.1298,0.96772 0.0432,0.20372 0.1144,0.65616 0.1584,1.00542 0.044,0.34924 0.1158,0.8374 0.1592,1.08478 0.0436,0.24738 0.0792,0.6062 0.0794,0.79738 4e-5,0.1912 0.036,0.46882 0.08,0.61698 0.044,0.1482 0.1148,0.50372 0.1574,0.79012 0.1592,1.07132 0.1992,1.32952 0.29828,1.92302 0.0558,0.3347 0.1594,0.96574 0.23008,1.4023 0.0706,0.43656 0.23484,1.43668 0.36486,2.2225 0.5565,3.36342 0.73218,4.64992 0.83106,6.08542 0.026,0.37834 0.0826,0.91412 0.1254,1.19062 0.043,0.27648 0.1022,0.70512 0.1318,0.9525 0.0296,0.24738 0.0892,0.6641 0.1326,0.92604 0.0434,0.26194 0.1164,0.762 0.1622,1.11124 0.0456,0.34926 0.129,0.93266 0.185,1.29646 0.1976,1.28204 0.25892,1.7235 0.29024,2.09022 0.018,0.20372 0.0664,0.54306 0.1088,0.75406 0.0424,0.211 0.112,0.55628 0.1546,0.7673 0.0426,0.211 0.1132,0.63366 0.1568,0.93926 0.0438,0.3056 0.1168,0.74612 0.1624,0.97896 0.0456,0.23284 0.1064,0.68204 0.135,0.99826 0.0286,0.3162 0.0746,0.67338 0.102,0.79374 0.0276,0.1204 0.0992,0.5403 0.1592,0.9332 0.1966,1.28558 0.32964,1.97828 0.45254,2.35486 0.0664,0.20376 0.1488,0.52524 0.1828,0.71438 0.034,0.1892 0.0974,0.47048 0.1408,0.6252 0.1388,0.49412 0.21808,0.82354 0.25706,1.06806 0.0208,0.131 0.1166,0.40482 0.21272,0.60854 0.40096,0.84986 0.4696,1.08074 0.461,1.55076 -0.01,0.55888 -0.1384,0.82058 -0.48896,0.99866 -0.21664,0.11 -0.74324,0.20252 -0.87312,0.1534 z m 3.04272,-69.56296 c 0,-0.029 -0.0238,-0.053 -0.053,-0.053 -0.029,0 -0.053,0.0238 -0.053,0.053 0,0.0292 0.0238,0.053 0.053,0.053 0.029,0 0.053,-0.0238 0.053,-0.053 z m 10.51364,-12.02202 c -0.016,-0.0422 -0.0294,-0.0296 -0.032,0.032 -0.002,0.0558 0.01,0.087 0.0278,0.0694 0.018,-0.018 0.02,-0.0632 0.004,-0.1014 z M 87.37532,67.94932 c 0,-0.012 -0.0358,-0.0344 -0.0794,-0.0512 -0.0436,-0.016 -0.0794,-0.008 -0.0794,0.0208 0,0.0282 0.0358,0.0512 0.0794,0.0512 0.0436,0 0.0794,-0.01 0.0794,-0.0208 z"
       id="path1196" />
  </g>
</svg>
