<?xml version="1.0" encoding="UTF-8" standalone="no"?>
<!-- Created with Inkscape (http://www.inkscape.org/) -->

<svg
   width="108.92526mm"
   height="143.5686mm"
   viewBox="0 0 108.92526 143.5686"
   version="1.1"
   id="svg1299"
   inkscape:version="1.1.1 (3bf5ae0d25, 2021-09-20)"
   sodipodi:docname="betula.svg"
   xmlns:inkscape="http://www.inkscape.org/namespaces/inkscape"
   xmlns:sodipodi="http://sodipodi.sourceforge.net/DTD/sodipodi-0.dtd"
   xmlns="http://www.w3.org/2000/svg"
   xmlns:svg="http://www.w3.org/2000/svg">
  <sodipodi:namedview
     id="namedview1301"
     pagecolor="#ffffff"
     bordercolor="#666666"
     borderopacity="1.0"
     inkscape:pageshadow="2"
     inkscape:pageopacity="0.0"
     inkscape:pagecheckerboard="0"
     inkscape:document-units="mm"
     showgrid="false"
     fit-margin-top="0"
     fit-margin-left="0"
     fit-margin-right="0"
     fit-margin-bottom="0"
     inkscape:zoom="0.50898197"
     inkscape:cx="316.31769"
     inkscape:cy="84.482364"
     inkscape:window-width="1920"
     inkscape:window-height="986"
     inkscape:window-x="-11"
     inkscape:window-y="-11"
     inkscape:window-maximized="1"
     inkscape:current-layer="layer1" />
  <defs
     id="defs1296" />
  <g
     inkscape:label="Layer 1"
     inkscape:groupmode="layer"
     id="layer1"
     transform="translate(-30.335028,-134.11379)">
    <path
       style="fill:#000000;stroke-width:1"
       d="m 84.262,277.54359 c -1.2622,-0.91432 -3.89662,-5.59448 -5.4566,-9.6939 -0.61952,-1.628 -1.30034,-3.7995 -1.65078,-5.26522 -0.73606,-3.07858 -0.81598,-3.35574 -1.15588,-4.00842 -0.1024,-0.1964 -0.27492,-0.45838 -0.3836,-0.58208 -0.1086,-0.1238 -0.21372,-0.27608 -0.23344,-0.33862 -0.0596,-0.1892 -0.28284,-0.37262 -0.9534,-0.78366 -0.8714,-0.53418 -1.44244,-0.7778 -2.6506,-1.13082 -2.82884,-0.82658 -3.2234,-0.98432 -6.0504,-2.41896 -2.07202,-1.0515 -2.73588,-1.35328 -3.63832,-1.65384 -0.68394,-0.22778 -0.8342,-0.27382 -2.45566,-0.75232 -0.59662,-0.176 -1.18004,-0.35312 -1.29646,-0.39344 -0.2647,-0.0916 -1.64716,-0.51986 -2.03728,-0.631 -0.16,-0.0456 -0.52918,-0.1524 -0.82022,-0.23754 -0.29104,-0.085 -0.57678,-0.1664 -0.635,-0.1808 -0.0582,-0.014 -0.29632,-0.0788 -0.52916,-0.1432 -0.23284,-0.0644 -0.63764,-0.1722 -0.89958,-0.23964 -2.78194,-0.7158 -3.81756,-1.00264 -3.91652,-1.08478 -0.0334,-0.0276 -0.0508,-0.118 -0.0386,-0.20072 0.054,-0.36738 -0.20678,-0.65714 -0.75448,-0.8386 -0.5363,-0.1776 -3.71348,-1.56644 -4.16162,-1.81908 -1.89784,-1.06984 -3.9803,-2.89274 -5.05912,-4.4285 -0.0654,-0.0932 -0.119,-0.1884 -0.1186,-0.21132 2.2e-4,-0.023 0.0816,-0.0972 0.181,-0.1648 0.21202,-0.1444 0.34772,-0.40122 0.34772,-0.6581 0,-0.2173 -0.1586,-0.46898 -0.5749,-0.9122 -0.164,-0.1746 -0.402,-0.43656 -0.52884,-0.58208 -0.4709,-0.54022 -1.27702,-1.34554 -2.11872,-2.11666 -1.15768,-1.0606 -1.51954,-1.36116 -2.16186,-1.79556 -0.29828,-0.20174 -0.54234,-0.38396 -0.54234,-0.40492 0,-0.021 0.0774,-0.065 0.172,-0.098 0.61798,-0.21522 0.93334,-0.77144 0.69674,-1.22896 -0.046,-0.089 -0.22828,-0.29628 -0.4049,-0.4604 -0.1766,-0.1642 -0.46142,-0.46094 -0.6329,-0.6596 -0.24882,-0.28828 -0.30416,-0.38444 -0.27412,-0.47626 0.084,-0.25664 0.0354,-0.61542 -0.1142,-0.84406 -0.1596,-0.24376 -0.58678,-0.80142 -0.84236,-1.09946 -0.0888,-0.1034 -0.3617,-0.44414 -0.60662,-0.7571 -0.24494,-0.31294 -0.6306,-0.776 -0.85704,-1.029 -0.22642,-0.253 -0.39404,-0.47776 -0.37244,-0.49946 0.0216,-0.0218 0.22702,-0.0886 0.45654,-0.1488 0.46562,-0.122 0.67916,-0.24938 0.79572,-0.47478 0.111,-0.21456 0.0982,-0.51156 -0.0534,-1.24148 -0.0726,-0.34954 -0.20452,-1.0165 -0.29322,-1.48218 -0.23536,-1.23588 -0.36792,-1.62724 -0.93636,-2.76448 -0.22174,-0.4436 -0.38616,-0.82358 -0.36538,-0.84436 0.0208,-0.0208 0.21598,-0.0548 0.43378,-0.0756 0.45314,-0.0432 0.681,-0.1542 0.86084,-0.41944 0.1084,-0.1598 0.1212,-0.23152 0.1038,-0.57922 -0.016,-0.33994 -0.07,-0.52216 -0.36898,-1.27 -0.43412,-1.0856 -0.5316,-1.38592 -0.51014,-1.57136 0.014,-0.1256 0.0472,-0.1512 0.23352,-0.1828 0.37178,-0.063 0.58886,-0.1838 0.73958,-0.41156 0.1364,-0.20608 0.1416,-0.23868 0.1142,-0.7053 -0.0318,-0.54044 -0.191,-1.09054 -0.56174,-1.94012 -0.1196,-0.27412 -0.20682,-0.50902 -0.1938,-0.52202 0.014,-0.012 0.1974,0.0472 0.41002,0.1338 0.73536,0.29958 1.392,0.39814 2.14972,0.32266 1.16408,-0.116 2.5818,-0.75198 3.2435,-1.45512 0.2556,-0.27162 0.3113,-0.4656 0.3113,-1.08444 v -0.52126 h 0.23022 c 0.30264,0 0.5552,-0.0882 0.74022,-0.25856 0.29984,-0.27604 0.31432,-0.34892 0.3479,-1.75122 l 0.031,-1.2954 0.42334,-0.0992 c 0.23284,-0.0546 0.66146,-0.1702 0.9525,-0.25706 0.29104,-0.0868 0.56664,-0.168 0.61246,-0.1804 0.0458,-0.012 0.153,-0.0952 0.23812,-0.184 0.1466,-0.153 0.1552,-0.1872 0.1626,-0.64762 0.004,-0.26734 0.0344,-1.12902 0.0672,-1.91484 0.0328,-0.7858 0.0652,-1.77908 0.0724,-2.2073 0.008,-0.4282 0.0364,-0.80094 0.065,-0.82832 0.0326,-0.031 0.1516,-0.0308 0.31682,9e-4 0.1456,0.0278 0.49524,0.064 0.77714,0.0802 0.46912,0.0272 0.52634,0.02 0.67548,-0.0864 0.3869,-0.2755 0.42898,-0.7858 0.1278,-1.5508 -0.33314,-0.84644 -0.5999,-1.87916 -0.60114,-2.3272 -3.6e-4,-0.1348 0.016,-0.1456 0.2139,-0.1456 0.21732,0 0.47284,-0.1012 0.65102,-0.2576 0.21538,-0.1892 0.2589,-0.3758 0.30348,-1.30122 0.0634,-1.31666 0.30474,-3.47438 0.40946,-3.66154 0.0364,-0.065 0.0974,-0.0204 0.30518,0.2231 0.36736,0.43054 1.06894,0.94582 1.46774,1.07798 0.32352,0.1072 1.52012,0.26654 2.00926,0.26752 0.1396,5.4e-4 0.32934,0.0394 0.42144,0.0872 0.35144,0.1818 0.78468,0.0504 0.96146,-0.29142 0.0408,-0.079 0.1144,-0.3807 0.1634,-0.67052 0.049,-0.28982 0.098,-0.53626 0.1088,-0.54764 0.01,-0.012 0.181,0.018 0.37814,0.0662 0.1972,0.0478 0.49446,0.087 0.66058,0.0868 0.2774,0 0.31868,-0.016 0.50608,-0.1986 0.182,-0.177 0.23614,-0.29848 0.50132,-1.12448 0.1634,-0.50932 0.34906,-1.10048 0.41236,-1.31368 l 0.115,-0.38762 0.378,0.0332 c 0.2079,0.018 0.62956,0.038 0.93702,0.0436 0.52778,0.01 0.57114,0.002 0.77614,-0.133 0.1834,-0.1212 0.2304,-0.191 0.30244,-0.44978 0.078,-0.2802 0.5568,-1.81912 0.6633,-2.13204 0.0248,-0.0728 0.0952,-0.34662 0.1562,-0.60854 0.0612,-0.26194 0.1324,-0.5596 0.158,-0.66146 0.0258,-0.1018 0.0902,-0.43128 0.1432,-0.73202 l 0.0964,-0.54678 0.1866,0.0318 c 0.5511,0.0938 0.76692,0.0898 0.93802,-0.018 0.27946,-0.1756 0.33742,-0.35898 0.41802,-1.32328 0.081,-0.96884 0.1874,-1.53508 0.36416,-1.93636 0.135,-0.30652 0.58408,-1.09346 1.05706,-1.85208 0.38626,-0.61956 0.60078,-1.12962 0.76782,-1.82562 0.157,-0.6542 0.30704,-1.1722 0.36592,-1.26334 0.0706,-0.1094 0.35892,0.077 0.3945,0.25498 0.041,0.2048 0.43652,0.77186 0.74424,1.06692 0.1478,0.1418 0.41558,0.32788 0.5949,0.41354 0.2555,0.122 0.3886,0.23382 0.61506,0.51652 0.159,0.1984 0.3396,0.4059 0.40144,0.46106 0.1366,0.1218 0.58078,0.1746 0.7422,0.0882 0.094,-0.0504 0.1412,-0.0432 0.25906,0.0388 0.1772,0.1234 0.45996,0.22238 0.63536,0.22238 0.46288,0 0.94594,-0.35742 1.08468,-0.8026 0.40056,-1.28522 0.57764,-1.82776 0.61766,-1.89234 0.0516,-0.0832 0.2213,-0.0402 0.87678,0.22186 0.1752,0.0702 0.49074,0.1696 0.70102,0.22114 l 0.38234,0.0938 0.24874,-0.1248 c 0.43326,-0.21728 0.48478,-0.35832 0.62534,-1.71222 0.21982,-2.11744 0.37962,-3.44938 0.42206,-3.51804 0.049,-0.0792 0.23522,0.0292 0.4239,0.24648 0.1956,0.22516 0.5004,0.28748 0.7571,0.1548 0.22648,-0.1172 0.26914,-0.21728 0.35824,-0.84118 0.20822,-1.45804 0.42374,-2.61906 0.50192,-2.70384 0.0248,-0.027 0.25536,0.063 0.53606,0.20898 1.3232,0.68838 1.68914,0.8156 2.3446,0.81516 0.47062,-5.4e-4 0.7261,-0.1132 1.02648,-0.45336 0.25616,-0.29014 0.77048,-1.13272 0.96342,-1.57834 0.0698,-0.161 0.1456,-0.29316 0.1686,-0.29366 0.023,-4.8e-4 0.0934,0.0472 0.1564,0.1058 0.063,0.0588 0.2069,0.1316 0.31972,0.162 0.4226,0.1138 0.79184,-0.0898 1.01372,-0.55878 0.168,-0.35534 0.37828,-1.33376 0.4549,-2.11766 0.0578,-0.5912 0.20106,-1.62332 0.22926,-1.65152 0.008,-0.008 0.1724,0.0232 0.36424,0.0706 0.39968,0.0986 0.6483,0.0706 0.86142,-0.097 0.1556,-0.1224 0.43614,-0.68826 0.57336,-1.1566 0.0858,-0.29286 0.48282,-2.31526 0.53946,-2.74818 0.037,-0.28214 0.1874,-1.02278 0.21402,-1.05294 0.01,-0.012 0.27974,0.23126 0.59898,0.53966 0.69484,0.67132 0.81928,0.74502 1.20404,0.7131 0.50474,-0.0418 0.70804,-0.32622 1.1454,-1.6021 0.40952,-1.19464 0.5163,-1.46184 0.91372,-2.28656 0.33368,-0.69248 0.86794,-2.01808 0.86794,-2.1536 0,-0.0346 0.0274,-0.0906 0.061,-0.1242 0.0462,-0.0462 0.1234,-0.004 0.31646,0.1686 0.3666,0.32962 0.71396,0.36966 1.0668,0.123 0.1972,-0.1378 1.21896,-1.68324 1.5914,-2.40686 0.0858,-0.1668 0.7288,-1.7235 0.94024,-2.2765 0.0584,-0.1528 0.1152,-0.2778 0.1264,-0.2778 0.012,0 0.182,0.1132 0.37968,0.25136 0.31428,0.2197 0.39342,0.25134 0.62842,0.25134 0.33584,0 0.62102,-0.1972 0.76244,-0.52708 0.1094,-0.25526 0.40962,-1.1593 0.60992,-1.83678 l 0.1356,-0.45884 0.22296,0.1274 c 0.2726,0.1558 0.45422,0.1614 0.72702,0.0222 0.40316,-0.20568 0.35182,0.095 0.65038,-3.80932 l 0.0628,-0.82022 0.32958,0.018 c 0.40076,0.0224 0.76416,-0.129 0.91862,-0.3829 0.0552,-0.0906 0.186,-0.4386 0.2909,-0.7733 0.1048,-0.3347 0.24742,-0.7692 0.31676,-0.96558 0.3335,-0.94454 0.403,-1.86152 0.1844,-2.43354 -0.1204,-0.31542 -0.42244,-0.79826 -0.67052,-1.07234 -0.079,-0.0874 -0.20528,-0.2274 -0.28052,-0.31132 l -0.1368,-0.1526 0.45914,0.0306 c 0.52114,0.0348 0.76586,0.1358 1.29724,0.53524 0.6248,0.46966 1.16146,1.16174 1.5333,1.97732 0.4348,0.95366 0.51182,1.39694 0.5766,3.31818 0.0382,1.13038 0.0674,1.26226 0.31732,1.42598 l 0.1408,0.0924 -0.1912,0.1576 c -0.1736,0.143 -0.1912,0.182 -0.1912,0.42522 0,0.23842 0.0206,0.28722 0.189,0.44592 0.1202,0.1134 0.26464,0.1902 0.39686,0.21144 0.1908,0.0304 0.20784,0.0468 0.20692,0.1984 -0.001,0.20008 -0.1878,1.29166 -0.45328,2.6523 -0.018,0.0874 -0.0912,0.45642 -0.1648,0.82022 -0.34496,1.70598 -0.49208,2.79424 -0.49216,3.64064 0,0.653 0.0516,0.82788 0.2912,0.98484 0.20914,0.137 0.7523,0.29576 1.01208,0.29576 h 0.23124 l -10e-4,0.8599 c -0.002,1.25894 -0.048,1.52234 -0.50692,2.87074 -0.1288,0.37834 -0.23374,0.77126 -0.23328,0.87312 0.002,0.37928 0.33468,0.68792 0.74224,0.68792 h 0.1632 l -0.138,0.1808 c -0.1928,0.25282 -0.25822,0.92888 -0.21714,2.24508 0.0366,1.17406 0.0824,1.34354 0.3985,1.47706 0.23766,0.1004 0.62784,0.0318 1.14886,-0.20198 0.1936,-0.087 0.35842,-0.1514 0.3661,-0.1436 0.018,0.018 0.1272,0.5612 0.1846,0.91402 0.0236,0.1456 0.0448,0.91462 0.047,1.7091 0.004,1.5318 0.079,2.4671 0.276,3.45028 0.0612,0.30558 0.1394,0.7253 0.1738,0.93268 0.0706,0.42594 0.1718,0.61218 0.41682,0.76616 0.1426,0.0896 0.22424,0.1012 0.52148,0.0742 0.1938,-0.018 0.36494,-0.012 0.38028,0.012 0.016,0.0248 0.0544,0.30586 0.087,0.6245 0.0764,0.74976 0.24768,1.88714 0.3316,2.20284 0.1018,0.38276 0.35202,0.69526 0.6888,0.86002 0.73666,0.36042 1.53446,0.1612 2.42246,-0.60506 0.26636,-0.22984 0.32232,-0.25522 0.60002,-0.27222 l 0.30626,-0.018 -0.0296,0.1852 c -0.1264,0.78996 -0.0768,2.40066 0.0958,3.1045 0.0932,0.38014 0.27066,1.08028 0.40418,1.59464 0.1826,0.70338 0.26734,1.39972 0.3072,2.524 0.0424,1.1962 0.0774,1.35066 0.34612,1.52672 0.0764,0.05 0.24116,0.0874 0.38636,0.0878 0.1392,5.2e-4 0.33798,0.014 0.44156,0.0318 l 0.1884,0.0312 -0.004,0.77524 -0.004,0.77522 0.1628,0.2646 c 0.0896,0.1456 0.24434,0.32046 0.34396,0.38876 0.1608,0.1102 0.21678,0.12 0.49864,0.0862 0.60816,-0.0728 0.56308,-0.0926 0.6595,0.2923 0.1056,0.42154 0.1638,0.5308 0.38054,0.71312 0.1674,0.1408 0.1756,0.142 0.7288,0.1076 0.55232,-0.0344 0.81714,-0.0774 1.80304,-0.29216 0.27648,-0.0602 0.76464,-0.1576 1.0848,-0.21638 1.6531,-0.30346 3.07834,-0.64666 3.5834,-0.86292 0.35606,-0.1524 0.35722,-0.1482 0.1804,0.6566 -0.38062,1.7331 -0.49454,2.85506 -0.3299,3.2491 0.078,0.1866 0.34372,0.41682 0.55546,0.48132 l 0.1264,0.0386 -0.029,0.6423 c -0.016,0.35326 -0.0588,0.8447 -0.0952,1.09208 -0.0624,0.42524 -0.0598,0.4618 0.0464,0.66936 0.2641,0.51548 0.74448,0.5683 1.69924,0.1868 0.30338,-0.1212 0.56532,-0.2067 0.5821,-0.19 0.113,0.1128 0.0274,3.50576 -0.1068,4.23126 -0.0294,0.1586 -0.058,0.53408 -0.0638,0.83444 -0.01,0.51922 -0.004,0.5553 0.132,0.7334 0.22942,0.30148 0.41736,0.36108 1.13544,0.36002 0.34848,-5.2e-4 0.79156,-0.0358 0.9974,-0.0794 0.40146,-0.085 0.71348,-0.102 0.71598,-0.0388 8.4e-4,0.0218 0.036,0.37306 0.0782,0.78052 0.0422,0.40746 0.0772,0.93854 0.0778,1.18018 5.8e-4,0.24164 0.0398,0.61074 0.087,0.8202 0.1918,0.85004 0.46014,1.09232 1.34336,1.2126 0.34412,0.0468 0.49858,0.091 0.53114,0.152 0.0252,0.0472 0.072,0.25 0.1038,0.45066 0.1564,0.9857 0.34554,1.25508 1.05782,1.50704 l 0.44978,0.159 1.98438,-0.0324 c 2.11292,-0.0344 2.81382,-0.0774 3.50822,-0.215 0.47088,-0.0932 1.03406,-0.24134 1.27096,-0.33412 0.082,-0.032 0.1728,-0.0584 0.20194,-0.0584 0.0898,0 -0.91204,1.78712 -1.81868,3.24406 -1.02698,1.65032 -1.71604,2.81762 -1.85004,3.13404 -0.0744,0.1756 -0.1518,0.48518 -0.1722,0.68812 -0.0344,0.34256 -0.0282,0.3772 0.086,0.4843 0.2675,0.2506 0.71288,0.29182 1.53282,0.1418 0.2598,-0.0476 0.4839,-0.075 0.49798,-0.0608 0.014,0.014 -0.0434,0.178 -0.1278,0.36424 -0.0844,0.1862 -0.25474,0.60056 -0.3785,0.92072 -0.49496,1.28026 -0.91916,2.0396 -1.57934,2.82712 -0.1812,0.21612 -0.37004,0.44822 -0.41966,0.51578 -0.0586,0.0796 -0.20178,0.1518 -0.40774,0.20504 -0.39542,0.1024 -0.5211,0.1832 -0.60686,0.39024 -0.0548,0.1324 -0.0546,0.1938 0.001,0.32812 0.0944,0.2277 0.34012,0.3207 0.80766,0.30554 0.37112,-0.012 0.37484,-0.01 0.42392,0.1422 0.1074,0.33462 0.2989,0.42914 0.9353,0.46172 0.21828,0.012 0.3926,0.0418 0.38736,0.0682 -0.006,0.0262 -0.47766,1.00032 -1.04982,2.16448 -1.12452,2.28806 -1.16244,2.36922 -1.27316,2.7252 -0.1794,0.57662 0.016,0.94886 0.49872,0.95134 0.1264,6.2e-4 0.35272,0.0346 0.50272,0.0756 0.15,0.041 0.49894,0.125 0.77542,0.1866 0.6314,0.141 1.32292,0.37484 1.32292,0.44754 0,0.0304 -0.0462,0.24654 -0.1026,0.48032 -0.1382,0.57194 -0.2456,1.07188 -0.501,2.33004 -0.0414,0.20372 -0.1052,0.6239 -0.142,0.93372 -0.08,0.67512 -0.0248,0.89696 0.27122,1.08788 0.1872,0.1208 0.37028,0.24506 0.66864,0.45388 0.0924,0.0646 0.3066,0.23172 0.47624,0.3714 0.41018,0.33774 0.89192,0.60488 1.41728,0.78598 0.41746,0.144 0.47428,0.1494 1.80084,0.177 0.75338,0.016 1.38004,0.0388 1.39258,0.0514 0.012,0.012 -0.1298,0.23234 -0.31632,0.48846 -1.06884,1.46768 -1.6638,2.63074 -2.39544,4.68264 -0.33036,0.92648 -0.35196,1.15746 -0.1488,1.59156 0.0918,0.1962 0.22596,0.38728 0.3179,0.45276 0.1788,0.1274 0.87666,0.41752 1.12216,0.46662 0.0886,0.018 0.1606,0.047 0.1604,0.0652 -5.4e-4,0.018 -0.0896,0.1284 -0.1986,0.24474 -2.36398,2.52618 -3.97546,4.87182 -3.98084,5.79438 -5.2e-4,0.0728 -0.0524,0.21564 -0.1154,0.3175 -0.1574,0.25432 -0.1546,0.6083 0.006,0.86958 0.1254,0.20274 1.04398,1.01984 1.6014,1.42428 0.1666,0.1208 0.30342,0.23686 0.30426,0.25784 8.4e-4,0.021 -0.195,0.1316 -0.43502,0.24562 -0.2401,0.1142 -0.74612,0.35566 -1.12448,0.5368 -1.8201,0.87134 -3.34922,1.57082 -3.93086,1.79812 -0.4059,0.1586 -0.5509,0.59196 -0.35716,1.06724 0.0362,0.089 -0.31944,0.35154 -0.95682,0.70638 -1.33336,0.74234 -1.83196,1.04986 -2.0961,1.29278 -0.2262,0.20804 -0.26654,0.2759 -0.29052,0.4889 -0.0242,0.215 -0.01,0.26504 0.1076,0.38284 0.1094,0.1094 0.13,0.1702 0.1064,0.31456 -0.0414,0.25466 0.1046,0.5256 0.43806,0.8135 0.1546,0.1336 0.26692,0.266 0.2494,0.29434 -0.0618,0.1 -2.00842,1.3495 -2.55702,1.64138 -0.90836,0.48328 -2.56028,1.09822 -3.37568,1.25664 -0.46786,0.091 -0.64598,0.26276 -0.64598,0.62332 0,0.20766 -0.0204,0.27238 -0.0926,0.29412 -0.43614,0.1312 -1.38428,0.35222 -1.70656,0.39768 -0.78316,0.1104 -1.06268,0.25206 -1.22586,0.62096 -0.0954,0.21576 -0.1,0.26896 -0.0416,0.47774 0.0646,0.2309 0.56504,1.03368 0.89024,1.4282 0.091,0.1104 0.1656,0.2173 0.1656,0.23738 0,0.033 -0.69572,0.27698 -1.16416,0.40838 -0.1018,0.0286 -0.3638,0.1038 -0.58208,0.167 -1.26174,0.36574 -1.634,0.41674 -3.33376,0.45676 -1.51022,0.0356 -1.59708,0.0514 -1.80168,0.32808 l -0.1102,0.149 -0.48602,-0.073 c -0.5455,-0.082 -3.47876,-0.1564 -3.86714,-0.0982 -0.1616,0.0242 -0.30976,0.0914 -0.42488,0.1924 -0.21472,0.1886 -0.2648,0.1896 -1.06352,0.0228 -1.39184,-0.29066 -3.84138,-0.52182 -8.14798,-0.76892 -1.10986,-0.0636 -1.79734,-0.1196 -2.91042,-0.23674 -0.40746,-0.0428 -1.15756,-0.1136 -1.66688,-0.1574 -1.90618,-0.1634 -2.1544,-0.1862 -2.61938,-0.24188 -0.5454,-0.0652 -1.7782,-0.24488 -2.16958,-0.31614 -0.1456,-0.0264 -0.4908,-0.0726 -0.7673,-0.1026 -1.49576,-0.162 -1.38082,-0.1414 -2.7252,-0.48566 -0.43656,-0.1118 -0.85328,-0.21842 -0.92604,-0.23704 -0.0728,-0.018 -0.3347,-0.0926 -0.58208,-0.1642 -0.24738,-0.0718 -0.56886,-0.1612 -0.71438,-0.199 -0.2514,-0.0652 -0.59154,-0.17 -1.79916,-0.555 -1.55578,-0.49588 -1.9113,-0.5203 -2.2208,-0.1526 -0.0738,0.0876 -0.1486,0.217 -0.1662,0.28752 -0.018,0.0706 -0.0548,0.1282 -0.0824,0.1282 -0.0276,0 -0.099,0.1104 -0.1588,0.2455 -0.0952,0.21516 -0.1042,0.30834 -0.0734,0.75406 0.065,0.93842 0.1274,1.41478 0.37818,2.88982 0.0742,0.43656 0.155,0.9128 0.1794,1.05832 0.1972,1.17376 0.61094,2.96212 0.8538,3.69138 0.29304,0.87988 0.86152,1.99174 1.71104,3.34654 0.1826,0.29104 0.5535,0.88636 0.82446,1.32292 1.1704,1.88574 1.73436,2.70312 2.48244,3.59798 0.61016,0.72988 0.75458,1.02364 0.7518,1.52932 -0.002,0.45742 -0.1136,0.95504 -0.28154,1.2601 -0.1156,0.21006 -0.143,0.22836 -0.36436,0.24286 -0.195,0.012 -0.27862,-0.012 -0.45118,-0.1378 z"
       id="path1018" />
  </g>
</svg>
