<?xml version="1.0" standalone="no"?>
<!DOCTYPE svg PUBLIC "-//W3C//DTD SVG 20010904//EN"
 "http://www.w3.org/TR/2001/REC-SVG-20010904/DTD/svg10.dtd">
<svg version="1.0" xmlns="http://www.w3.org/2000/svg"
 width="873.000000pt" height="1570.000000pt" viewBox="0 0 873.000000 1570.000000"
 preserveAspectRatio="xMidYMid meet">
<metadata>
Created by potrace 1.16, written by Peter Selinger 2001-2019
</metadata>
<g transform="translate(0.000000,1570.000000) scale(0.100000,-0.100000)"
fill="#000000" stroke="none">
<path d="M4836 15671 c-7 -10 -3 -32 16 -107 8 -35 7 -46 -8 -69 -15 -23 -16
-34 -5 -91 14 -77 7 -95 -22 -57 -29 38 -39 44 -54 31 -14 -11 5 -54 63 -142
18 -28 34 -60 36 -71 3 -18 -2 -20 -39 -17 -35 3 -44 -1 -58 -21 -18 -28 -12
-50 29 -109 19 -29 22 -38 11 -38 -8 0 -24 -8 -34 -17 -11 -10 -27 -24 -35
-31 -23 -19 -19 -62 9 -104 34 -50 43 -76 66 -187 24 -118 24 -124 -3 -136
-16 -7 -24 -20 -26 -41 -2 -21 -10 -34 -22 -37 -10 -2 -26 -17 -35 -31 -31
-47 1 -114 102 -219 39 -41 48 -58 64 -125 24 -99 24 -102 -3 -93 -105 32
-129 46 -138 82 -5 19 -21 46 -35 59 -14 13 -25 31 -25 41 0 9 -8 27 -18 39
-16 20 -27 22 -98 22 -99 0 -170 -11 -185 -28 -16 -19 -2 -50 32 -75 16 -11
43 -46 58 -77 29 -57 55 -85 122 -135 30 -21 59 -67 43 -67 -18 0 -84 44 -98
65 -11 17 -24 25 -38 23 -38 -5 -42 -30 -17 -83 20 -42 24 -63 22 -128 -2 -54
2 -87 12 -108 19 -37 3 -39 -39 -6 -25 20 -27 26 -17 44 17 33 14 108 -5 124
-19 16 -82 39 -106 39 -10 0 -25 -11 -33 -24 l-16 -23 -60 59 c-44 43 -64 71
-74 106 -8 26 -28 68 -44 95 -25 39 -36 47 -61 47 -55 0 -53 -66 6 -190 l35
-75 -33 31 c-47 44 -63 47 -95 20 l-28 -24 24 -144 c12 -78 34 -192 47 -252
13 -60 24 -112 24 -117 0 -4 -10 -9 -22 -11 -21 -3 -23 -8 -23 -68 l0 -65 -59
-3 c-33 -2 -68 -9 -79 -17 -18 -12 -25 -7 -88 64 -66 75 -80 85 -144 111 -16
7 -48 35 -70 63 -43 54 -82 71 -111 46 -27 -22 -16 -69 37 -153 66 -103 84
-123 139 -151 46 -24 90 -72 90 -100 0 -9 9 -34 20 -55 l20 -40 -24 0 c-28 0
-38 9 -66 58 -20 33 -47 41 -68 20 -17 -17 -15 -64 4 -93 16 -24 16 -24 -18
-19 -25 4 -38 1 -48 -11 -12 -15 -12 -26 3 -83 18 -67 39 -102 63 -102 22 0
44 -30 44 -61 0 -20 -5 -29 -16 -29 -9 0 -34 -10 -55 -22 -36 -20 -42 -20 -93
-8 -84 20 -90 14 -82 -75 8 -87 -3 -115 -46 -115 -21 0 -29 -6 -34 -24 -9 -37
4 -64 54 -118 50 -54 49 -57 -9 -28 -64 33 -91 13 -91 -66 0 -35 27 -87 60
-118 11 -9 57 -29 103 -44 76 -25 86 -31 106 -67 13 -22 21 -44 20 -49 -5 -16
-90 -36 -127 -30 -60 9 -124 44 -155 85 -47 62 -55 69 -70 63 -26 -10 -18 -67
15 -112 17 -23 34 -42 40 -42 5 0 25 -16 44 -35 22 -22 45 -35 61 -35 18 0 25
-5 25 -19 0 -11 -4 -23 -10 -26 -16 -10 -11 -41 11 -70 18 -22 28 -26 53 -22
17 2 40 0 50 -5 27 -14 46 14 39 55 -4 30 -2 33 36 45 78 23 91 15 91 -56 0
-35 21 -115 41 -154 8 -16 2 -78 -8 -78 -2 0 -21 9 -43 20 -22 11 -53 20 -69
20 -17 0 -46 8 -66 17 -72 34 -126 -20 -92 -92 17 -35 52 -58 108 -69 16 -4
37 -22 54 -47 22 -35 24 -41 9 -34 -97 42 -157 52 -199 36 -32 -13 -90 22
-117 71 -24 45 -57 60 -83 38 -8 -6 -19 -9 -25 -5 -18 11 -59 -4 -70 -26 -14
-25 8 -64 40 -74 11 -4 27 -20 35 -36 12 -21 23 -29 43 -29 31 0 54 -15 70
-45 9 -17 6 -21 -26 -32 -34 -11 -38 -11 -57 11 -31 38 -60 41 -90 12 -28 -28
-32 -61 -11 -111 18 -43 50 -63 117 -75 30 -5 68 -16 85 -24 52 -27 104 6 104
63 0 13 6 21 18 21 13 0 76 -27 111 -47 8 -5 -34 -88 -55 -111 -43 -44 -39
-128 7 -152 12 -7 36 -9 56 -5 34 6 35 5 29 -17 -3 -13 -6 -26 -6 -31 0 -4
-18 2 -40 13 -47 24 -83 26 -104 4 -25 -24 -19 -59 14 -91 21 -19 30 -37 30
-59 0 -17 15 -56 35 -89 31 -50 34 -62 26 -89 -5 -17 -12 -49 -16 -71 -4 -26
-18 -54 -40 -78 l-34 -37 -36 16 c-30 12 -46 13 -90 4 -64 -13 -86 -3 -150 68
-36 39 -47 45 -93 50 l-52 5 0 83 c0 73 -3 86 -25 112 -14 17 -25 38 -25 47 0
20 -25 113 -46 173 -16 43 -53 72 -91 72 -34 0 -65 -32 -94 -96 l-28 -62 -52
19 c-28 11 -72 24 -98 30 -35 7 -51 17 -63 37 -23 38 -54 65 -122 106 -136 82
-180 19 -117 -165 40 -120 53 -140 126 -205 36 -32 65 -63 65 -71 0 -14 -21
-20 -98 -26 -70 -5 -106 -32 -110 -80 -5 -63 53 -117 127 -117 21 0 31 -5 31
-15 0 -8 -5 -15 -10 -15 -17 0 -50 -63 -50 -96 0 -18 9 -42 19 -55 17 -21 28
-24 92 -24 l73 0 30 -49 c27 -42 30 -58 32 -129 1 -72 3 -82 25 -99 16 -14 32
-18 51 -14 45 9 67 -35 108 -217 18 -76 18 -78 -2 -88 -10 -6 -31 -9 -45 -7
-23 3 -29 11 -41 53 -7 28 -15 72 -16 99 -2 38 -8 53 -26 68 -23 18 -34 19
-130 13 -121 -8 -159 -21 -191 -64 -32 -43 -62 -40 -133 14 -63 47 -94 55
-120 29 -31 -30 -20 -73 32 -125 l49 -49 -24 -15 c-24 -16 -31 -57 -13 -85 5
-8 47 -33 92 -55 46 -23 83 -46 82 -53 -1 -7 -2 -25 -2 -41 -2 -24 -8 -31 -33
-36 -57 -13 -65 -90 -13 -114 15 -6 56 -11 90 -10 l64 2 72 -60 c40 -32 96
-88 125 -123 l51 -64 4 -91 c5 -95 -15 -203 -38 -212 -7 -2 -26 3 -43 11 -46
25 -97 21 -128 -10 -21 -22 -24 -31 -19 -64 l6 -39 -37 -3 c-21 -2 -51 3 -66
10 -43 20 -78 12 -103 -25 l-21 -32 -64 44 c-69 49 -115 58 -141 28 -27 -31
-29 -58 -9 -122 l20 -63 -35 7 c-26 4 -44 1 -67 -13 -18 -10 -44 -22 -58 -25
-26 -7 -49 -43 -49 -77 0 -17 -7 -20 -52 -20 -39 0 -64 -7 -93 -25 -27 -16
-55 -24 -87 -25 -38 0 -50 -5 -67 -26 -30 -38 -26 -71 10 -104 l30 -29 -43
-11 c-67 -16 -93 -33 -96 -62 -5 -42 28 -68 88 -68 81 0 147 19 189 54 36 30
49 34 142 45 56 6 103 10 103 9 1 -2 6 -16 12 -33 6 -20 28 -43 64 -67 30 -20
55 -42 55 -49 0 -7 -22 -18 -49 -25 -93 -24 -122 -77 -113 -208 3 -56 12 -96
27 -128 22 -45 23 -48 6 -73 -9 -14 -33 -72 -52 -128 -41 -116 -48 -127 -79
-127 -58 0 -76 -27 -95 -140 -9 -55 -18 -80 -35 -95 -32 -29 -95 -235 -95
-312 0 -58 23 -159 41 -177 13 -14 11 -26 -4 -26 -8 0 -36 -11 -63 -25 -27
-14 -50 -25 -51 -25 -2 0 -3 16 -3 35 0 64 -47 125 -119 155 -23 9 -40 29 -61
69 -40 77 -56 99 -127 175 -67 70 -96 81 -126 48 -24 -26 -21 -69 9 -142 22
-56 24 -64 10 -72 -30 -17 -66 -93 -66 -140 0 -52 40 -120 95 -163 19 -14 35
-34 35 -44 0 -10 18 -52 40 -93 l39 -75 -61 -7 c-68 -7 -105 -25 -117 -59 -21
-56 -31 -96 -31 -126 0 -26 -6 -35 -31 -49 -17 -9 -54 -32 -82 -51 -87 -58
-112 -65 -229 -66 l-107 0 -34 -33 c-33 -32 -34 -32 -86 -22 -154 29 -241 4
-241 -68 0 -42 47 -132 82 -156 31 -22 81 -20 128 4 22 11 41 20 43 20 3 0 7
-19 10 -42 6 -44 42 -88 73 -88 9 0 14 -11 14 -36 0 -43 24 -88 58 -106 16 -8
51 -12 95 -10 39 1 86 -3 105 -9 30 -10 33 -14 27 -38 -14 -51 -17 -129 -6
-167 16 -59 -2 -79 -78 -87 -89 -10 -176 -59 -206 -117 -21 -40 -19 -54 11
-89 l26 -31 -31 -35 c-17 -19 -52 -68 -79 -108 -101 -149 -113 -197 -62 -240
31 -27 36 -42 21 -66 -7 -11 -19 -10 -67 9 -33 12 -88 37 -123 57 -75 42 -128
48 -162 18 -62 -56 -67 -188 -8 -251 18 -19 18 -22 3 -53 -12 -24 -15 -47 -11
-83 10 -84 45 -118 123 -118 19 0 34 -3 34 -7 0 -3 -25 -29 -55 -58 -49 -45
-55 -55 -55 -91 0 -44 24 -78 67 -95 35 -13 65 -11 144 8 50 12 73 13 80 6 8
-8 -14 -21 -77 -45 -71 -26 -101 -44 -151 -91 -79 -74 -123 -140 -123 -184 0
-35 29 -73 55 -73 18 0 18 1 -1 -45 -19 -46 -11 -88 23 -115 35 -27 88 -26
170 6 60 23 78 25 148 20 65 -5 83 -10 102 -29 l23 -23 -35 -39 c-19 -22 -53
-67 -75 -99 -44 -66 -45 -87 -3 -122 l25 -21 -73 -28 c-84 -33 -139 -78 -168
-140 -28 -60 -27 -91 7 -124 23 -23 45 -32 125 -46 90 -16 133 -16 194 1 20 6
17 -2 -22 -61 -26 -39 -45 -78 -45 -94 0 -58 57 -75 154 -46 44 13 156 21 156
11 0 -2 -11 -28 -25 -58 -29 -61 -31 -95 -10 -125 25 -36 78 -44 177 -29 84
12 91 12 155 -11 118 -41 156 -64 176 -107 15 -31 16 -44 8 -63 -16 -34 -14
-69 5 -87 28 -29 67 -19 133 34 l63 50 25 -20 c37 -29 72 -25 148 15 50 27 70
33 84 25 10 -5 49 -18 87 -28 l69 -19 1 -70 0 -71 -64 -37 c-92 -53 -152 -110
-152 -146 0 -31 23 -59 49 -59 10 0 89 34 175 76 136 65 166 84 215 135 55 57
83 71 96 49 9 -15 43 -12 92 6 24 9 46 14 49 11 13 -13 -8 -58 -46 -102 -41
-47 -48 -72 -30 -106 13 -23 56 -25 107 -4 50 21 65 19 61 -7 -5 -34 -40 -46
-193 -63 -149 -17 -204 -34 -206 -62 -4 -55 17 -77 87 -98 46 -13 54 -19 54
-39 0 -31 49 -72 103 -87 60 -16 145 1 279 55 l112 46 28 -34 c34 -42 100 -70
144 -61 18 3 89 44 159 91 l126 85 52 -25 c78 -40 128 -35 233 19 70 36 90 42
106 34 11 -6 61 -13 111 -16 81 -4 96 -2 125 16 43 28 72 77 72 125 0 32 3 37
18 33 9 -2 45 -13 80 -22 66 -19 70 -25 47 -65 -19 -33 -19 -85 1 -115 21 -32
84 -55 177 -65 43 -4 83 -12 88 -17 18 -18 32 -147 26 -237 -4 -60 -1 -116 10
-172 13 -71 13 -106 4 -222 -6 -75 -17 -162 -26 -192 -8 -30 -15 -76 -15 -102
0 -39 3 -48 18 -48 43 0 608 41 621 46 10 3 12 16 7 52 -3 26 -10 130 -16 232
-6 102 -19 232 -30 290 -10 58 -26 142 -34 187 -10 54 -13 101 -8 139 l7 57
60 1 c47 1 76 9 135 37 l75 36 20 -31 c37 -56 77 -71 195 -71 117 0 144 -10
183 -62 13 -18 53 -64 90 -103 56 -60 70 -70 100 -70 70 0 83 50 42 177 -13
42 -22 79 -20 82 6 5 7 4 28 -41 20 -45 55 -58 93 -34 13 10 29 29 35 43 7 18
14 23 27 18 67 -28 108 -27 163 1 24 12 29 10 76 -34 35 -33 52 -58 57 -83 3
-20 16 -45 29 -56 28 -26 147 -86 214 -108 28 -9 75 -32 104 -51 78 -50 107
-52 172 -15 55 31 67 46 67 82 0 11 14 26 38 38 50 26 101 80 116 126 7 20 24
42 37 49 36 18 46 58 25 102 l-17 37 39 41 c70 73 96 151 68 207 -9 18 -16 34
-16 36 0 2 21 13 47 25 45 20 83 23 188 16 34 -3 41 1 52 24 17 34 98 55 149
38 53 -18 94 10 94 64 0 22 -16 43 -77 102 -43 40 -73 74 -66 74 16 0 82 -38
113 -65 41 -37 65 -45 131 -45 70 0 131 25 175 71 l27 28 46 -27 c25 -15 68
-41 95 -59 54 -37 72 -40 104 -17 16 11 22 25 22 50 0 74 -52 130 -130 140
-47 6 -48 8 -60 50 -7 24 -30 64 -51 88 -21 24 -47 64 -58 89 -11 25 -24 48
-30 51 -16 10 -13 36 3 36 8 0 25 -13 38 -29 44 -55 69 -63 191 -67 86 -2 117
0 134 12 33 21 30 76 -8 144 -29 52 -59 157 -59 207 0 16 10 27 35 37 26 11
37 23 41 45 6 29 7 29 90 36 101 9 134 28 134 80 0 49 -37 75 -107 75 l-55 0
7 28 c4 20 0 36 -15 55 -25 32 -72 36 -140 12 -46 -16 -75 -13 -83 9 -10 25
38 120 81 162 37 37 42 47 42 88 l0 46 60 0 c66 0 122 19 157 52 48 45 17 106
-57 114 -70 8 -91 14 -85 24 3 5 48 41 100 80 87 66 95 74 95 105 0 45 -35 70
-82 61 -79 -16 -83 -15 -88 34 -3 25 -9 51 -13 57 -5 7 -4 13 2 13 6 0 26 14
46 31 45 40 46 72 3 116 l-32 33 31 0 c43 0 54 18 65 112 6 57 14 86 25 93 99
63 133 111 101 144 -11 10 -9 14 6 23 34 19 97 81 127 125 32 46 89 241 89
304 0 56 -39 79 -73 41 -20 -22 -57 -126 -57 -160 0 -18 -4 -23 -16 -18 -69
26 -97 14 -129 -58 -34 -76 -297 -327 -320 -305 -2 3 5 73 17 156 19 130 20
154 8 168 -10 12 -24 15 -45 12 -28 -5 -33 -1 -53 36 -29 55 -28 63 9 82 82
43 189 179 189 241 0 29 4 34 28 39 86 18 126 63 143 163 9 51 15 61 35 66 35
9 52 42 70 136 17 93 10 130 -26 130 -13 0 -25 12 -35 36 -19 47 -19 48 9 64
14 7 38 31 54 54 17 22 55 67 86 100 60 63 72 95 63 173 -3 25 -1 59 4 75 4
16 4 40 -1 53 -6 17 -5 27 6 35 21 18 17 55 -9 86 -30 34 -63 26 -83 -22 -9
-21 -23 -36 -39 -40 -14 -3 -40 -24 -59 -45 l-33 -40 -31 18 c-29 17 -32 17
-64 0 -97 -52 -110 -64 -164 -157 -24 -41 -53 -85 -63 -97 -18 -22 -20 -22
-60 -6 -22 9 -41 19 -41 23 0 3 27 49 61 101 61 93 130 229 142 281 4 15 9 69
12 120 2 51 7 136 11 188 5 89 4 97 -16 115 -12 11 -35 19 -57 19 -29 0 -42
-7 -67 -36 -33 -39 -150 -290 -162 -348 -9 -49 -53 -132 -65 -124 -24 14 -59
-8 -89 -58 -50 -83 -68 -98 -97 -87 -40 15 -60 11 -96 -21 -19 -16 -39 -30
-43 -30 -5 0 -26 37 -46 83 -35 78 -37 86 -32 166 5 90 -9 131 -44 131 -14 0
-21 18 -36 93 -11 50 -21 111 -23 134 -3 24 -13 49 -24 59 -18 16 -22 17 -55
1 -45 -22 -51 -21 -58 6 -5 22 -116 136 -163 168 l-22 15 21 43 c20 40 23 42
54 36 19 -3 69 -10 111 -15 65 -7 91 -16 157 -54 43 -25 91 -57 106 -71 30
-29 61 -32 84 -9 24 24 29 59 13 90 -14 26 -13 29 18 58 37 36 55 100 55 201
0 74 -11 110 -47 147 l-26 27 29 36 c57 71 92 137 109 203 14 60 20 70 52 87
58 32 74 62 80 152 5 76 4 82 -16 92 -33 18 -54 6 -105 -60 -26 -33 -68 -73
-94 -90 l-47 -30 -3 30 c-5 45 42 111 79 111 42 0 73 34 65 72 -5 27 -4 30 14
25 13 -3 31 4 49 18 36 31 115 207 108 243 -3 17 3 38 19 61 28 41 31 73 9 91
-23 19 -59 -1 -91 -52 -15 -24 -35 -54 -44 -68 -9 -14 -19 -36 -23 -50 -6 -24
-9 -25 -68 -22 -56 4 -64 2 -93 -26 -17 -16 -46 -37 -63 -46 -29 -14 -33 -21
-33 -56 0 -39 -1 -40 -35 -40 -28 0 -35 4 -35 20 0 27 20 111 31 130 35 59 49
95 68 163 26 97 27 123 1 137 -24 13 -49 2 -77 -34 -10 -13 -30 -27 -43 -31
-34 -10 -67 -42 -96 -91 -22 -37 -100 -105 -121 -104 -13 1 -60 82 -68 119 -4
21 -14 35 -26 38 -10 3 -19 7 -19 10 0 2 16 23 36 47 27 33 41 42 59 39 32 -7
82 22 100 57 19 37 19 68 0 113 -8 20 -15 61 -15 91 l0 55 60 32 c60 32 170
136 170 161 0 8 14 27 31 44 41 38 64 86 79 159 16 84 39 159 62 212 17 39 18
47 6 66 -12 18 -12 29 -2 62 17 55 17 81 -2 99 -37 37 -62 6 -115 -144 -60
-172 -95 -207 -119 -122 -16 59 -12 95 17 137 19 29 28 56 31 97 5 72 -8 92
-55 85 -31 -5 -33 -4 -33 23 0 15 9 50 21 77 11 26 21 67 22 91 2 35 -3 47
-23 62 -55 43 -91 17 -110 -80 -15 -74 -27 -103 -49 -117 -16 -10 -17 -7 -13
41 4 56 -12 86 -46 86 -27 0 -162 -137 -162 -165 0 -33 -10 -54 -30 -65 -16
-9 -16 -5 -4 48 11 49 54 379 54 418 0 7 -9 18 -20 24 -28 15 -54 -1 -70 -42
-7 -18 -28 -64 -45 -103 -52 -111 -139 -453 -140 -548 0 -78 -1 -79 -38 -113
-33 -31 -42 -34 -97 -34 -58 0 -120 -20 -120 -39 0 -5 -16 -21 -35 -36 l-36
-26 -50 16 c-31 11 -67 15 -90 12 -21 -3 -39 -2 -39 1 1 19 21 30 74 40 80 16
160 58 245 128 55 45 71 64 71 84 0 34 -17 50 -52 50 -24 0 -28 4 -28 30 0 24
-9 36 -42 60 -22 16 -50 30 -60 30 -28 0 -58 18 -58 35 0 9 25 42 55 75 30 33
55 64 55 69 0 4 17 28 39 52 91 104 106 146 75 208 -16 31 -15 34 24 116 26
53 52 91 72 107 42 30 140 146 140 164 0 16 -35 54 -50 54 -17 0 -155 -127
-197 -181 -40 -53 -124 -232 -137 -296 -4 -17 -13 -36 -20 -42 -11 -9 -11 -1
0 46 7 32 18 96 23 142 6 47 20 103 31 126 18 37 28 45 83 65 43 16 75 36 105
67 39 40 42 48 41 91 -1 26 4 60 12 75 25 47 123 157 141 157 20 0 48 37 48
62 0 23 -27 48 -53 48 -14 0 -63 -43 -145 -125 -67 -69 -127 -125 -132 -125
-4 0 -11 14 -15 30 -4 17 -17 38 -30 46 -35 23 -28 93 18 176 20 34 45 89 57
121 15 39 42 81 84 128 67 74 109 148 125 221 16 70 44 127 99 201 38 51 54
83 62 125 6 31 16 73 22 93 14 51 8 73 -23 77 -33 4 -53 -26 -74 -104 -15 -60
-39 -104 -55 -104 -5 0 -13 -12 -16 -27 -4 -16 -17 -41 -29 -58 -12 -16 -41
-64 -64 -105 -60 -106 -67 -110 -113 -59 -25 27 -38 51 -38 70 0 30 -19 54
-51 64 -14 5 -18 12 -14 23 3 10 13 49 21 87 8 39 26 102 39 142 14 39 25 84
25 100 0 15 10 48 21 73 13 29 20 64 19 100 0 30 2 69 6 87 5 28 3 34 -21 45
-18 8 -32 9 -43 2 -16 -10 -116 -148 -164 -226 -16 -26 -30 -38 -45 -38 -13 0
-23 1 -23 3 0 1 7 24 15 51 9 28 15 88 15 142 l0 94 38 15 c20 9 51 29 68 46
26 25 35 28 56 20 15 -5 28 -20 32 -36 4 -14 17 -31 31 -37 36 -16 69 10 94
77 12 31 30 74 41 95 27 53 26 86 -4 105 -29 20 -49 12 -111 -44 l-40 -36 -6
63 c-7 78 -30 106 -83 104 -32 -1 -36 1 -36 24 0 18 18 44 63 87 34 34 75 87
92 118 28 55 28 57 12 82 -10 15 -17 46 -17 72 0 40 -3 47 -32 65 -46 28 -94
25 -140 -6 -21 -15 -40 -25 -41 -23 -2 2 -13 20 -25 40 -22 36 -22 37 -4 91
10 30 48 104 84 164 109 183 114 198 78 234 -18 18 -19 23 -6 48 8 15 19 46
25 69 16 58 2 83 -44 83 -49 0 -88 -43 -179 -195 -42 -71 -97 -157 -122 -191
l-45 -61 -55 21 -55 21 3 122 c1 89 -1 125 -11 137 -22 26 -50 19 -72 -19 -16
-26 -28 -35 -48 -35 -57 0 -110 -90 -141 -243 -10 -49 -24 -95 -31 -103 -6 -8
-26 -14 -45 -14 -18 0 -61 -6 -96 -14 -88 -20 -257 -41 -264 -33 -3 3 22 40
56 81 l61 76 54 0 c55 0 67 7 168 95 26 23 24 138 -3 165 -31 31 -92 23 -202
-25 -24 -10 -23 15 2 65 24 46 26 103 5 120 -10 8 -31 10 -64 6 -70 -9 -80 6
-58 89 27 102 20 135 -30 135 -13 0 -23 4 -23 8 0 5 22 65 49 133 55 143 65
186 51 223 -8 21 -6 35 10 66 23 45 25 78 9 129 -24 77 -27 81 -57 81 -34 0
-51 -17 -87 -90 -59 -119 -85 -134 -136 -79 -24 25 -35 30 -58 26 -105 -21 -3
235 127 321 65 43 81 81 42 102 -26 14 -119 -38 -162 -91 -17 -22 -33 -37 -35
-35 -2 2 2 28 10 58 15 59 59 133 126 213 43 52 49 73 29 93 -17 17 -38 15
-60 -5 -17 -15 -18 -15 -18 4 0 67 -49 113 -86 82 -14 -11 -16 -27 -11 -91 3
-42 2 -93 -3 -112 -10 -47 -57 -88 -90 -80 -14 3 -36 6 -49 6 -20 0 -22 4 -17
29 6 34 51 102 90 138 27 25 35 74 15 86 -7 5 -8 29 -4 70 7 60 6 63 -25 99
-18 20 -43 39 -56 42 -44 11 -41 74 8 182 12 26 25 55 30 65 12 28 -25 59 -57
47 -29 -11 -28 -12 -14 64 6 32 8 70 4 84 -5 22 -10 24 -40 19 -38 -6 -40 -5
-25 23 15 28 -30 154 -57 158 -12 2 -24 -1 -27 -7z m1715 -7586 c19 -8 47 -23
64 -34 24 -16 45 -20 110 -20 45 0 94 7 114 15 27 12 40 12 67 2 25 -9 49 -9
96 -1 35 6 64 10 65 9 1 -1 -17 -31 -40 -66 -41 -63 -43 -65 -89 -68 -50 -3
-74 -25 -98 -87 l-11 -28 -22 22 c-29 26 -78 27 -134 2 -23 -11 -44 -17 -47
-13 -3 3 -6 27 -6 53 0 40 -4 51 -24 64 -29 19 -58 8 -89 -32 l-19 -24 -39 36
c-21 19 -48 35 -58 35 -33 0 -33 17 1 56 25 29 111 94 124 94 1 0 17 -7 35
-15z m1362 -3892 c-12 -38 -45 -103 -51 -103 -4 0 -13 4 -21 9 -12 8 -7 19 24
60 40 52 59 65 48 34z m-229 -2159 c31 -12 15 -24 -31 -24 -44 1 -47 2 -29 15
21 16 36 18 60 9z m-832 -259 c16 -18 41 -38 58 -45 24 -10 30 -19 30 -42 0
-25 -3 -29 -17 -23 -45 17 -190 56 -248 66 -44 7 -65 16 -65 25 0 10 14 14 49
14 39 0 58 7 97 34 43 30 50 32 59 19 6 -9 22 -31 37 -48z"/>
</g>
</svg>
