<svg xmlns="http://www.w3.org/2000/svg" width="2048" height="2048" viewBox="0 0 2048 2048" version="1.1">
	<path d="M 649.736 16.250 C 682.302 57.778, 690.548 69.855, 705.681 98.191 C 718.978 123.089, 724.881 135.388, 735.829 161 C 741.354 173.925, 748.428 190.125, 751.549 197 C 764.087 224.619, 780.780 269.119, 788.875 296.500 C 795.686 319.538, 810.854 364.128, 816.258 377 C 823.716 394.763, 841.596 427.637, 853.514 445.500 C 865.220 463.045, 887.380 490.599, 900.830 504.332 C 910.771 514.484, 927.881 529.585, 935.500 534.933 C 939.497 537.738, 940.665 538.956, 939 538.580 C 937.625 538.269, 933.350 537.537, 929.500 536.952 C 925.650 536.367, 915.750 534.355, 907.500 532.482 C 899.250 530.608, 887.818 528.373, 882.096 527.514 C 864.303 524.843, 829.452 515.227, 811.500 508.036 C 792.402 500.386, 769.933 490.424, 763 486.532 C 758.875 484.216, 749.200 479.014, 741.500 474.970 C 727.097 467.407, 710.598 457.662, 687 442.777 C 674.369 434.811, 656.300 424.112, 622.200 404.410 C 604.841 394.380, 584.866 386.396, 565 381.546 C 557.025 379.599, 549.614 378.005, 548.531 378.003 C 547.449 378.001, 544.299 375.812, 541.531 373.138 C 532.387 364.302, 519.762 353.978, 517.364 353.377 C 513.992 352.530, 512.001 353.583, 511.991 356.219 C 511.984 357.810, 515.265 361.702, 522.840 369.088 C 535.902 381.826, 541.072 388.207, 545.577 397.154 C 552.724 411.345, 584.948 461.357, 597.024 477 C 599.784 480.575, 609.076 493.175, 617.673 505 C 648.071 546.814, 658.813 559.732, 673.595 572.253 C 678.226 576.176, 681.674 579.668, 681.257 580.014 C 680.841 580.360, 671.474 582.514, 660.443 584.801 C 649.411 587.088, 630.286 591.900, 617.943 595.493 C 605.599 599.087, 585.600 604.889, 573.500 608.386 C 520.611 623.674, 483.360 635.977, 459.463 646.050 C 450.133 649.982, 431.925 657.381, 419 662.493 C 394.803 672.062, 351.809 692.914, 326 707.597 C 318.575 711.821, 309.125 716.726, 305 718.496 C 293.189 723.564, 285.909 727.460, 277.396 733.269 C 267.238 740.200, 257.012 746.211, 244.500 752.605 C 239 755.416, 234.500 758.342, 234.500 759.108 C 234.500 760.114, 236.024 760.533, 240 760.618 C 243.407 760.692, 250.446 762.314, 258.500 764.882 C 266.084 767.300, 275.250 769.450, 280.500 770.040 C 285.450 770.597, 296.025 772.385, 304.001 774.012 C 326.045 778.510, 336.704 779.336, 352.859 777.798 C 360.362 777.084, 376.625 776.581, 389 776.680 C 497.350 777.548, 480.783 778.509, 547.500 767.485 C 572.250 763.395, 597.900 759.352, 604.500 758.501 C 611.100 757.650, 619.200 756.525, 622.500 756.002 C 633.906 754.195, 687.105 748.772, 687.691 749.357 C 688.182 749.849, 673.183 767.326, 660.534 781 C 655.701 786.225, 647.422 795.675, 642.137 802 C 636.853 808.325, 625.533 820.700, 616.984 829.500 C 608.434 838.300, 598.767 848.650, 595.501 852.500 C 592.236 856.350, 582.557 866.700, 573.992 875.500 C 530.347 920.347, 497.810 957.048, 477.803 984 C 457.159 1011.809, 424.086 1062.645, 419.567 1073.513 C 418.655 1075.706, 416.122 1080.465, 413.937 1084.089 C 411.753 1087.713, 407.806 1095.588, 405.168 1101.589 C 402.530 1107.590, 397.085 1117.900, 393.068 1124.500 C 374.527 1154.968, 353.049 1192.245, 350.448 1198.470 C 348.248 1203.735, 340.281 1215.390, 330.915 1227.046 C 322.708 1237.258, 319.010 1242.733, 319.004 1244.679 C 318.999 1246.285, 321.832 1249, 323.513 1249 C 324.267 1249, 327.497 1246.703, 330.692 1243.895 C 333.886 1241.087, 338.525 1237.397, 341 1235.695 C 343.475 1233.992, 348.650 1230.001, 352.500 1226.824 C 362.386 1218.667, 379.842 1207.528, 391 1202.256 C 401.275 1197.400, 444.972 1176.157, 451.500 1172.844 C 482.232 1157.246, 495.064 1150.397, 503 1145.357 C 508.225 1142.039, 522.844 1133.100, 535.487 1125.494 C 557.954 1111.977, 582.371 1095.779, 592.623 1087.591 C 595.441 1085.341, 603.027 1079.450, 609.482 1074.500 C 615.937 1069.550, 636.132 1053.553, 654.359 1038.951 C 717.780 988.144, 754.633 960.192, 770 951.239 C 775.225 948.195, 785.492 942.126, 792.816 937.751 C 800.139 933.377, 806.254 929.956, 806.404 930.149 C 812.748 938.327, 815.498 944.666, 818.571 958.190 C 821.390 970.599, 821.727 982.747, 819.582 994.640 C 818.802 998.963, 817.891 1012.175, 817.558 1024 C 817.224 1035.825, 816.496 1050.675, 815.939 1057 C 815.260 1064.725, 815.255 1077.036, 815.926 1094.500 C 818.324 1156.916, 820.458 1192, 823.983 1227 C 826.491 1251.905, 827.436 1257.822, 831.477 1273.910 C 834.020 1284.035, 837.670 1300.235, 839.588 1309.910 C 854.098 1383.106, 866.421 1423.645, 895.545 1494 C 910.456 1530.018, 919.141 1551.645, 923.455 1563.500 C 929.846 1581.058, 937.467 1609.144, 940.958 1628 C 942.668 1637.236, 944.959 1646.386, 946.163 1648.783 C 948.221 1652.884, 948.286 1653.910, 947.660 1672.783 C 947.301 1683.628, 946.581 1695.425, 946.061 1699 C 945.540 1702.575, 944.607 1711.125, 943.985 1718 C 942.764 1731.517, 935.109 1773.757, 929.437 1798.277 C 924.952 1817.667, 921.125 1829.012, 914.934 1841.271 C 912.220 1846.645, 910 1852.187, 910 1853.586 C 910 1857.838, 911.748 1860, 915.185 1860 C 917.751 1860, 919.641 1858.632, 925.900 1852.246 C 930.080 1847.981, 934.983 1843.198, 936.795 1841.618 C 940.108 1838.729, 949.844 1825.514, 958.245 1812.500 C 964.564 1802.712, 992.179 1751.962, 999.055 1737.500 C 1015.619 1702.662, 1022.360 1686.482, 1035.090 1651 C 1040.122 1636.975, 1047.358 1617.433, 1051.170 1607.574 C 1073.359 1550.189, 1095.315 1483.641, 1113.506 1418.635 C 1126.378 1372.639, 1137.297 1310.404, 1142.479 1253.500 C 1143.330 1244.150, 1144.910 1227.091, 1145.990 1215.591 C 1149.603 1177.105, 1150.278 1156.936, 1149.677 1105.500 C 1149.362 1078.550, 1148.639 1051.550, 1148.072 1045.500 C 1147.076 1034.895, 1145.824 1017.869, 1144.027 990.500 C 1143.285 979.210, 1143.394 977.040, 1144.855 974 C 1145.780 972.075, 1147.035 970.594, 1147.643 970.708 C 1155.095 972.111, 1173.722 976.672, 1182 979.120 L 1192.500 982.226 1204 999.599 C 1211.306 1010.637, 1219.090 1020.898, 1225.345 1027.736 C 1230.760 1033.656, 1240.791 1045.700, 1247.638 1054.500 C 1254.484 1063.300, 1269.629 1080.797, 1281.293 1093.383 C 1316.242 1131.095, 1344.301 1153.541, 1386.429 1177.490 C 1396.840 1183.408, 1408.540 1190.587, 1412.429 1193.443 C 1416.318 1196.299, 1423.775 1201.246, 1429 1204.437 C 1434.225 1207.628, 1443.675 1213.952, 1450 1218.491 C 1472.251 1234.458, 1477.079 1237.144, 1508 1250.757 C 1515.425 1254.026, 1523.750 1257.502, 1526.500 1258.483 C 1539.106 1262.976, 1566.980 1279.764, 1576.639 1288.680 C 1582.294 1293.899, 1599.286 1312.788, 1612.460 1328.500 C 1618.455 1335.650, 1627.891 1346.230, 1633.430 1352.010 C 1638.968 1357.791, 1646.632 1365.826, 1650.460 1369.865 C 1654.288 1373.904, 1658.451 1377.601, 1659.710 1378.080 C 1664.149 1379.767, 1669 1376.134, 1669 1371.123 C 1669 1367.189, 1662.110 1348.179, 1653.547 1328.491 C 1643.911 1306.333, 1627.612 1265.691, 1622.469 1251 C 1613.247 1224.653, 1589.786 1168.356, 1574.717 1136.415 C 1570.024 1126.469, 1564.119 1113.286, 1561.594 1107.121 C 1559.068 1100.956, 1553.355 1088.169, 1548.897 1078.706 C 1544.439 1069.242, 1539.448 1058.651, 1537.806 1055.170 C 1533.457 1045.945, 1522.958 1030.787, 1507.814 1011.866 C 1500.380 1002.578, 1490.634 988.887, 1485.746 980.866 C 1466.995 950.093, 1439.268 908.117, 1424.428 888.036 C 1409.484 867.814, 1368.495 822.646, 1330.461 784.489 C 1307.731 761.685, 1286.070 737.969, 1283.588 733.170 C 1282.128 730.348, 1282.182 729.926, 1284.539 725.710 C 1285.912 723.252, 1287.753 718.824, 1288.630 715.871 C 1291.826 705.099, 1295.617 702.405, 1313.285 698.349 C 1324.191 695.846, 1325.175 695.791, 1349 696.362 C 1362.475 696.685, 1396.450 698.351, 1424.500 700.065 C 1497.444 704.521, 1520.184 703.784, 1551.155 695.958 C 1565.185 692.413, 1607 683.715, 1620.500 681.534 C 1650.321 676.716, 1653.438 676.534, 1706.500 676.517 C 1754.081 676.501, 1767.243 675.945, 1780.784 673.378 C 1783.911 672.785, 1785.670 668.765, 1784.207 665.554 C 1782.943 662.782, 1782.595 662.667, 1759.500 657.425 C 1730.370 650.812, 1703.268 643.032, 1635.500 621.829 C 1578.275 603.925, 1556.722 595.669, 1533 582.566 C 1503.612 566.333, 1488.434 558.658, 1466.214 548.793 C 1433.521 534.278, 1431.021 533.299, 1399 522.484 C 1368.500 512.182, 1344.939 506.518, 1316 502.530 C 1309.675 501.658, 1300.225 500.259, 1295 499.420 C 1288.552 498.385, 1277.067 497.831, 1259.250 497.697 C 1244.813 497.589, 1233 497.196, 1233 496.825 C 1233 496.453, 1236.819 485.485, 1241.486 472.450 C 1252.594 441.431, 1265.019 416.125, 1298.171 357 C 1313.862 329.016, 1324.464 305.898, 1342.426 260.500 C 1351.617 237.272, 1357.392 219.679, 1359.578 208.256 C 1361.502 198.199, 1360.590 176.779, 1357.481 159 C 1356.182 151.575, 1354.815 143.475, 1354.442 141 C 1354.070 138.525, 1352.301 131.775, 1350.511 126 C 1348.721 120.225, 1346.940 113.250, 1346.553 110.500 C 1346.166 107.750, 1344.478 99.687, 1342.802 92.582 C 1339.468 78.450, 1337.401 75, 1332.268 75 C 1325.422 75, 1323.020 80.605, 1322.969 96.693 C 1322.905 117.338, 1321.373 129.669, 1317.054 144.313 C 1306.865 178.858, 1286.633 218.743, 1261.522 253.786 C 1244.863 277.036, 1236.607 286.961, 1211.040 314.479 C 1188.391 338.855, 1168.904 357.926, 1122.500 401.127 C 1103.813 418.523, 1095.067 426.415, 1065.009 453 C 1036.142 478.532, 1030.989 483.272, 1022.482 492.120 C 1013.838 501.112, 979.595 533.174, 977.963 533.804 C 977.159 534.115, 958.086 518.874, 945.500 507.864 C 890.037 459.345, 858.921 422.397, 840.657 383.372 C 827.089 354.382, 819.779 334.523, 806.517 290.618 C 800.598 271.021, 796.016 258.176, 785.786 232.500 C 784.034 228.100, 777.471 212.800, 771.204 198.500 C 764.936 184.200, 756.085 163.725, 751.533 153 C 729.208 100.389, 724.470 91.500, 693.169 43.500 C 687.072 34.150, 678.204 20.538, 673.463 13.250 L 664.842 0 650.918 0 L 636.993 -0 649.736 16.250" stroke="none" fill="black" fill-rule="evenodd"/>
</svg>