<?xml version="1.0" standalone="no"?>
<!DOCTYPE svg PUBLIC "-//W3C//DTD SVG 20010904//EN"
 "http://www.w3.org/TR/2001/REC-SVG-20010904/DTD/svg10.dtd">
<svg version="1.0" xmlns="http://www.w3.org/2000/svg"
 width="517.000000pt" height="408.000000pt" viewBox="0 0 517.000000 408.000000"
 preserveAspectRatio="xMidYMid meet">
<metadata>
Created by potrace 1.16, written by Peter Selinger 2001-2019
</metadata>
<g transform="translate(0.000000,408.000000) scale(0.100000,-0.100000)"
fill="#000000" stroke="none">
<path d="M2402 4072 c-7 -5 25 -6 71 -4 106 5 161 -10 325 -89 161 -78 191
-108 261 -264 30 -66 68 -142 84 -168 26 -43 28 -51 17 -72 -7 -13 -21 -26
-31 -28 -10 -3 -21 -13 -24 -24 -4 -10 -15 -36 -26 -58 -10 -22 -19 -45 -19
-51 0 -7 -7 -14 -15 -18 -8 -3 -15 -14 -15 -24 0 -10 -5 -23 -11 -29 -5 -5
-12 -45 -14 -87 -1 -43 -6 -80 -9 -83 -14 -14 -5 -179 13 -230 10 -29 16 -53
13 -53 -3 0 -46 31 -96 68 -129 97 -215 150 -315 191 -254 106 -348 191 -428
386 -49 120 -55 213 -23 335 34 127 52 159 123 213 114 87 105 80 77 66 -41
-20 -125 -85 -153 -119 -32 -38 -75 -174 -84 -263 -8 -90 10 -174 62 -284 61
-130 141 -210 287 -288 l59 -32 -63 -13 c-62 -13 -138 -46 -138 -61 0 -5 17
-11 38 -14 80 -13 292 -58 384 -81 53 -13 104 -24 113 -24 9 0 29 -9 43 -21
l27 -21 -145 7 c-172 8 -304 29 -380 60 -30 12 -80 32 -110 44 -39 15 -78 43
-135 98 -61 57 -102 87 -169 119 -96 47 -143 54 -186 28 -17 -11 -19 -13 -5
-9 59 20 81 16 173 -29 81 -40 107 -60 210 -162 146 -145 208 -193 313 -244
77 -37 89 -40 170 -40 59 0 108 6 151 20 127 40 234 36 257 -9 10 -18 0 -51
-20 -68 -8 -6 -111 -41 -229 -78 -194 -62 -225 -68 -320 -73 -116 -5 -280 10
-374 34 -89 22 -213 86 -274 140 -52 46 -148 177 -191 262 -12 23 -45 68 -74
100 l-51 57 56 7 c31 4 80 19 107 33 70 35 64 40 -6 7 -61 -28 -140 -35 -196
-18 -24 7 -20 1 28 -49 l56 -57 -58 -37 c-143 -93 -220 -231 -244 -439 l-11
-94 43 -45 c54 -55 261 -193 309 -205 62 -16 67 -21 30 -29 -19 -4 -73 -16
-120 -28 -47 -12 -137 -34 -200 -49 -63 -16 -137 -38 -165 -49 -50 -20 -50
-20 -140 -1 -134 29 -213 21 -350 -32 -60 -23 -137 -49 -170 -57 -33 -9 -114
-29 -180 -45 -66 -16 -139 -41 -163 -54 -46 -27 -115 -107 -137 -161 -25 -58
-38 -155 -26 -186 14 -37 42 -32 53 10 5 20 33 55 79 97 66 61 79 68 178 100
241 77 430 107 732 113 164 4 224 1 290 -11 46 -9 148 -19 227 -23 78 -3 145
-10 148 -14 7 -12 -77 -70 -132 -91 -24 -10 -88 -25 -141 -34 -232 -38 -530
-131 -738 -229 -218 -102 -218 -102 -277 -169 -52 -57 -60 -72 -74 -139 l-17
-75 26 -43 c14 -24 39 -70 56 -102 43 -83 70 -117 90 -117 23 0 59 40 113 125
137 215 303 363 468 416 55 18 101 23 305 29 233 7 244 8 378 44 75 20 168 48
206 61 38 14 75 25 83 25 42 0 146 69 246 162 93 87 219 188 235 188 3 0 10
-30 17 -67 21 -127 79 -219 169 -270 25 -15 51 -30 57 -35 23 -17 -106 -254
-333 -611 -28 -45 -50 -84 -47 -88 2 -4 30 -15 61 -24 76 -22 100 -11 135 63
15 31 63 107 106 167 105 149 212 355 212 406 0 10 4 19 8 19 19 0 142 -112
183 -166 41 -54 51 -61 118 -83 l73 -25 179 92 178 92 38 -26 c60 -41 123 -71
214 -100 76 -24 186 -74 294 -132 63 -34 243 -112 320 -138 38 -14 117 -53
175 -88 58 -35 119 -71 136 -79 39 -20 112 -91 194 -190 78 -93 102 -100 119
-33 18 72 14 224 -8 271 -23 53 -147 264 -206 353 -40 62 -58 78 -148 135 -56
36 -136 82 -177 102 -96 48 -152 86 -220 149 -30 29 -68 61 -83 72 l-28 20 78
39 c57 30 85 51 108 83 27 40 30 52 35 147 l5 103 65 -38 c68 -40 136 -108
230 -229 77 -100 115 -95 159 23 11 30 34 81 51 112 l30 57 0 176 c0 164 -2
179 -24 226 -45 96 -100 124 -301 155 -77 12 -176 28 -221 37 l-81 15 -11 46
c-16 71 -79 198 -108 221 -33 26 -111 28 -157 5 -17 -9 -68 -52 -113 -95 -44
-43 -103 -91 -129 -108 -27 -17 -44 -31 -39 -31 21 0 130 83 186 141 32 32 72
68 90 79 45 27 107 26 143 -2 35 -27 91 -148 117 -253 25 -99 67 -184 119
-240 l39 -43 -35 -31 c-41 -36 -75 -54 -159 -87 -67 -25 -64 -33 4 -9 49 17
52 15 92 -65 20 -39 23 -60 23 -162 0 -115 0 -117 -31 -155 -17 -21 -55 -51
-85 -68 -51 -28 -61 -30 -191 -33 -159 -4 -224 8 -413 83 -200 78 -233 104
-370 290 -114 155 -135 190 -135 222 0 26 -6 36 -29 47 -15 8 -34 29 -41 45
-7 17 -18 35 -26 42 -11 9 -9 16 10 43 32 42 66 111 66 133 0 11 3 14 8 7 4
-6 41 -34 83 -62 93 -62 149 -125 190 -212 73 -155 72 -154 124 -180 40 -20
69 -26 145 -29 102 -4 449 17 490 30 27 8 10 7 -230 -12 -209 -17 -322 -10
-385 21 -47 24 -53 31 -105 136 -70 141 -113 194 -216 260 -73 47 -84 58 -90
89 -10 53 6 98 39 109 41 15 126 -17 200 -74 88 -67 157 -100 210 -100 53 0
153 28 141 40 -5 4 -37 22 -70 39 -56 28 -70 31 -157 31 -90 0 -97 2 -152 35
-32 19 -73 38 -92 41 -35 7 -45 32 -20 51 26 21 142 44 256 52 177 12 188 20
282 203 111 213 199 297 419 397 142 64 371 115 450 101 106 -19 210 -129 210
-221 0 -18 -33 -95 -79 -187 -76 -150 -84 -161 -169 -242 -110 -105 -213 -196
-264 -232 -42 -31 -47 -45 -20 -55 9 -3 50 -18 89 -34 40 -16 79 -26 86 -23
28 11 61 69 61 107 1 32 -6 45 -38 74 l-39 36 44 35 c24 20 78 70 120 112 70
69 83 89 153 232 45 93 76 169 76 188 0 63 -73 160 -154 203 -111 59 -410 -12
-664 -157 -119 -68 -190 -138 -259 -257 -41 -70 -49 -79 -75 -79 l-30 0 42 48
c119 134 177 352 146 545 -21 127 -72 211 -167 274 -40 26 -49 28 -153 28
-105 0 -114 -2 -161 -29 -27 -16 -81 -61 -118 -100 -53 -56 -79 -93 -117 -173
-27 -57 -53 -103 -59 -103 -17 0 -57 70 -121 211 -33 71 -67 141 -76 155 -36
54 -244 169 -375 209 -55 16 -215 21 -237 7z m1355 -197 c195 -58 281 -365
176 -630 -19 -49 -46 -108 -59 -131 -33 -58 -220 -245 -276 -276 -40 -22 -115
-41 -168 -43 -8 0 -22 -4 -30 -9 -11 -7 -10 -4 2 10 30 34 58 108 58 155 0 34
-8 59 -34 102 l-35 57 35 15 c37 15 45 43 19 65 -11 9 -12 16 -2 31 10 17 9
22 -6 30 -12 7 -15 17 -11 35 5 19 1 29 -15 40 -11 8 -21 21 -21 28 0 8 -7 16
-15 20 -8 3 -15 12 -15 20 0 7 -9 16 -20 19 -34 9 -22 39 46 114 73 81 129
169 145 226 9 33 13 37 32 31 86 -25 203 -129 243 -216 27 -60 29 -70 29 -198
0 -160 -14 -213 -81 -307 -57 -80 -134 -148 -241 -211 -84 -50 -105 -69 -40
-36 86 45 208 137 256 194 103 124 131 204 131 383 0 108 -22 182 -76 252 -55
73 -214 175 -251 161 -7 -3 -13 -14 -13 -25 0 -40 -81 -177 -148 -249 l-68
-73 -24 21 c-12 11 -27 20 -32 20 -4 0 3 21 17 48 13 26 34 70 46 97 15 32 52
80 104 132 64 64 91 84 130 96 65 20 149 21 212 2z m-2101 -963 c129 -232 256
-342 454 -397 l55 -15 -131 3 c-154 2 -164 -2 -164 -70 0 -51 9 -62 147 -180
l72 -61 -32 -12 c-63 -24 -213 -24 -327 0 -97 20 -113 26 -218 93 -62 40 -136
95 -164 124 l-52 52 12 89 c12 88 44 199 77 262 24 47 111 137 164 171 53 34
56 32 107 -59z m819 -53 c40 -12 131 -24 215 -29 218 -14 254 -20 291 -43 l34
-21 -61 -7 c-33 -4 -93 -17 -133 -29 -58 -18 -89 -21 -154 -18 -71 4 -92 10
-162 46 -86 43 -114 63 -190 130 l-49 43 69 -26 c39 -15 102 -36 140 -46z
m692 -209 l45 0 -3 -82 c-4 -85 -19 -123 -80 -199 -19 -24 -20 -30 -8 -55 8
-17 32 -37 57 -50 24 -11 47 -26 52 -34 12 -19 -15 -118 -40 -145 -63 -67
-317 -155 -445 -155 -78 0 -232 23 -313 46 -57 17 -248 149 -337 233 -27 26
-79 72 -115 102 -87 72 -103 99 -93 153 l5 26 172 0 c108 0 212 -6 277 -16
235 -36 496 7 607 101 17 14 51 33 76 41 25 9 50 22 57 30 7 8 19 12 26 9 8
-3 35 -5 60 -5z m586 -75 c65 -33 60 -43 -27 -52 -48 -5 -61 -2 -125 32 -39
21 -71 42 -71 47 0 6 33 9 83 6 67 -3 93 -9 140 -33z m-827 -4 c-37 -41 -209
-92 -304 -90 -37 0 -36 0 13 14 28 8 106 32 175 54 69 22 127 40 129 40 2 1
-4 -8 -13 -18z m234 -275 c0 -12 -5 -7 -19 24 -11 24 -11 24 3 6 9 -11 16 -24
16 -30z m124 -197 c19 -32 19 -32 0 -24 -10 4 -29 10 -41 12 -19 4 -20 8 -11
34 12 34 22 29 52 -22z"/>
</g>
</svg>
