<?xml version="1.0" encoding="UTF-8" standalone="no"?>
<!-- Created with Inkscape (http://www.inkscape.org/) -->

<svg
   xmlns:svg="http://www.w3.org/2000/svg"
   xmlns="http://www.w3.org/2000/svg"
   version="1.1"
   width="100%"
   height="100%"
   viewBox="0 0 315 280"
   id="Layer_1"
   xml:space="preserve"><defs
   id="defs30" />
<g
   id="YeUrTX_1_">
	<g
   id="g4">
		<path
   d="M 0,19 C 0,18.7 0,18.3 0,18 5.5,17.3 10.9,16.5 16.4,15.9 24.4,15 32.5,14.3 41.3,13.4 36.8,6.7 44.4,5.8 46.7,2.5 49.3,-1.2 54,1.3 55,6.2 c 0.9,4.2 -0.2,9.5 6.3,10.5 3.3,0.5 6.4,2.1 9.6,3.2 9.8,3.6 15.8,11.3 21.3,19.6 1.3,2 2.9,4 4.8,5.2 7.4,4.7 13.2,10.6 17.1,18.7 2,4.1 5.2,8 8.7,11 9.8,8.2 19.9,16 30,23.8 1.9,1.4 4.5,2.3 6.9,2.7 5.2,0.9 10.5,1.1 15.6,2.2 6.7,1.5 8.9,6.3 5.5,12.3 -1.8,3.3 -4.9,5.9 -7.4,8.9 2.2,0.8 4.6,0.9 6.5,-0.1 11.6,-5.7 22.6,-12.8 34.6,-17.3 11.4,-4.2 21.9,-8.6 28.8,-19.2 0.6,-0.9 1.9,-1.7 2.9,-1.7 9.4,-0.1 15.7,-4.8 20.1,-12.9 1.5,-2.8 4.3,-3.5 7.6,-1.8 4.2,2.1 9.1,3.2 10.7,8.6 0.3,0.9 1.8,1.3 2.7,2 5.9,5.2 11.8,10.4 17.5,15.7 1.8,1.7 3.4,3.7 4.6,5.8 1.3,2.3 2.6,4.9 3.1,7.5 0.7,3.8 0.7,7.8 0.9,11.7 0.2,2.7 1.2,7.1 0.1,7.8 -5.2,3.3 -5.1,8.2 -5.6,13.2 -0.1,0.8 -1,1.6 -1.6,2.3 -1,1.1 -2.1,2 -2.9,2.8 -4.5,-1.9 -9,-3.8 -13.5,-5.8 -0.8,-0.4 -1.5,-1.2 -2.1,-1.9 -3.5,-4.2 -5.1,-9 -2.8,-15.9 -3.6,1.4 -5.8,2.3 -8.1,3.1 -3.5,1.3 -7.1,4 -10.4,3.6 -7.6,-0.8 -14.7,-3.6 -19.8,-9.9 -2.9,-3.6 -5.4,-7.7 -8.9,-10.5 -5.8,-4.6 -12.6,-4 -19.4,-2 -12.6,3.7 -23.2,11.1 -34.4,17.5 -0.9,0.5 -1.3,1.9 -1.9,2.9 1.2,0.6 3,2.1 3.6,1.7 4.6,-2.8 10.5,-3.4 13.5,-8.8 2.6,-4.7 9.2,-6.3 15.5,-3.9 -1.7,2.3 -3.2,4.4 -4.4,6.1 5,5.4 10.1,10.8 15.2,16.2 3.8,4 7.3,8.1 11.4,11.7 5.7,5 11.7,9.6 17.7,14.2 2,1.5 4.3,3.3 6.6,3.6 3.7,0.4 6.2,1.8 9.3,4.1 8.9,6.5 13.4,15.4 17.2,25.2 1.5,3.9 3.3,7.8 5.4,11.4 7,11.8 7.9,24.2 3.6,36.8 -2.8,8.2 -7.6,15.7 -5,25 0.5,2 -0.5,4.5 -0.9,6.8 -0.7,0 -1.3,0 -2,0 -2.5,-7.9 -7.4,-14 -15.4,-16.3 -13.2,-3.8 -18.2,-14 -21.4,-25.7 -0.8,-3.1 -1.9,-4.8 -4.8,-6 -3.1,-1.3 -6.4,-2.8 -8.7,-5.2 -2.8,-2.9 -4.3,-1.6 -6.4,0.5 -3.7,3.7 -7.6,7.1 -11.4,10.7 -2.2,2.1 -4.2,4.3 -6.5,6.3 -1.3,1.1 -2.8,2.3 -4.4,2.6 -1.9,0.3 -4,-0.5 -6,-0.4 -4.2,0.4 -8.4,1 -12.5,1.7 -1.4,0.2 -3.4,0.3 -4.1,1.2 -4.8,7 -10.8,12.4 -18.7,15.7 -6,2.6 -11.6,6.2 -17.7,8.3 -10,3.5 -20.6,3.8 -30.4,-0.4 C 104.5,266 99.2,252.2 97.6,236 c -1.5,-15.6 15.9,-36.8 28.7,-41.1 1.7,-0.6 3.8,-2.2 4.3,-3.8 2.1,-7.5 3.4,-15.2 5.4,-22.7 1.8,-7.2 4,-13.2 -2.6,-20.4 -6.3,-6.8 -13.1,-8.6 -21.6,-9.6 4.1,11.8 8.8,23.1 13.5,34.4 0.7,1.7 1.6,3.4 1.9,5.1 0.8,5 -1.8,6.8 -6.8,5.5 -7.4,-1.9 -11.1,-6.8 -13.6,-13.7 -5.8,-16.1 -12.1,-32.1 -18.3,-48.1 -2.2,-5.6 -3.5,-5.9 -9.4,-4.1 -3.3,1 -7.1,2.1 -10.2,1.3 -5.8,-1.5 -11.4,-4 -16.7,-6.7 C 47.9,109.9 43.4,108.5 39,106.9 33.1,104.7 28.7,98.3 23.8,93.7 22.2,92 21,89.6 19,88.4 c -5.1,-3.1 -6.7,-6 -4.7,-9.7 6,0.9 11.8,2.8 17.4,-1.9 2.6,-2.2 6.3,-3.9 9.7,-4.4 8.3,-1.3 9.4,-2 10.3,-9.8 0.1,-0.8 0,-1.7 0.2,-2.5 C 52.6,56 51,53.6 47.1,52.2 44.8,51.3 42.5,50 40.5,48.5 35,44.2 33.6,35.7 25.4,34.2 25.1,34.2 25,33.7 24.7,33.5 21.4,30.7 19.5,25 13.3,27.8 13,27.9 12.4,27.4 12,27.1 8.1,24.4 4,21.7 0,19 z m 249.1,148.3 c -3.1,-2.6 -5.1,-4.7 -7.5,-6.2 -9,-5.6 -16.6,-12.6 -23.5,-20.6 -3.1,-3.6 -7,-6.5 -10.9,-9.3 -1.3,-1 -4.6,-1.4 -5.2,-0.6 -1.3,1.5 -4.4,3.6 -1.2,6.5 0.4,0.4 -0.3,3 -1.1,3.7 -2.4,1.8 -1.6,2.9 -0.1,5 6.6,9.7 16.7,14.9 25.8,21.4 0.9,0.6 2.5,0.6 3.7,0.3 5.7,-1.5 11.3,-1.9 17,0.3 0.3,0 1,-0.3 3,-0.5 z m -137,-43.9 c 2.2,1.1 4.4,2.9 6.7,3.3 10.2,1.8 20.5,3.2 30.8,4.6 1,0.1 2.3,-0.3 3.3,-0.9 7.4,-4.6 8.9,-10.5 5.1,-18.1 -4.2,-8.7 -9.4,-7.1 -14.6,-2.8 -9.1,7.4 -18.9,12.7 -31.3,13.9 z m 33.3,30.1 c -2.5,13.1 -9.3,24.5 -8.8,38 4.6,-1.3 8.7,-2.4 12.7,-3.6 0.8,-0.2 1.4,-1.2 2,-1.9 4.2,-5.7 8.5,-11.3 12.5,-17.1 0.6,-0.9 0.9,-3.3 0.3,-3.7 -5.7,-4.4 -10.8,-9.9 -18.7,-11.7 z m 14.1,2 c 3,2.2 5.5,3.8 7.8,5.7 1.9,1.6 3.2,2.1 5.9,0.9 8.7,-3.8 17.6,-7.3 27.5,-6.2 0.7,0.1 1.4,-0.3 2.1,-0.4 -0.1,-0.7 -0.1,-1.1 -0.3,-1.3 -2,-2.2 -4.1,-4.3 -6.1,-6.5 -5.3,-6.1 -6.9,-6.4 -14.1,-3.1 0.3,1.3 0.6,2.7 1.1,5 -2.1,-0.6 -3.6,-1 -5,-1.5 -4.5,-1.6 -8.9,-3.6 -13.5,-4.9 -1.5,-0.4 -3.4,0.6 -5.2,1 2.8,2.4 5.3,3.3 7.5,4.6 1.1,0.7 1.8,2.1 2.7,3.2 -1.1,0.8 -2.2,1.9 -3.4,2.3 -1.8,0.5 -4,0.7 -7,1.2 z M 133.4,89.2 c 0.3,-0.5 0.6,-1 0.8,-1.4 C 133,86.7 132,85.5 130.7,84.6 119.1,76.5 106.1,71.9 92.4,68.9 88.5,68.1 84.9,66 81.2,64.4 78,63 74.8,61.5 70.9,59.6 c 1.3,6 3.8,8.4 9,8.7 3.2,0.2 6.3,1.5 9.5,2.4 8.4,2.6 14.7,10.1 24.2,10.3 0.9,0 1.7,0.9 2.7,1.3 5.7,2.3 11.4,4.6 17.1,6.9 z m 25.2,16.8 c 2.8,4.2 5.1,7.6 6.8,10.2 3.3,0.2 5.9,0.3 9.9,0.5 0.5,-1.6 2.7,-4.9 1.8,-6.7 -1,-2 -4.5,-3.3 -7.2,-3.8 -3.3,-0.7 -6.8,-0.2 -11.3,-0.2 z m -3.4,35.3 c -4.3,-0.4 -8.1,-0.8 -12.6,-1.3 3.6,5.7 7.4,5.9 12.6,1.3 z m 16.8,-11 c -0.3,-0.7 -0.6,-1.5 -0.9,-2.2 -2.4,1.2 -4.8,2.2 -7.1,3.6 -0.4,0.2 -0.5,1.6 -0.1,2.1 0.3,0.5 1.6,0.8 2,0.5 2.1,-1.2 4.1,-2.7 6.1,-4 z"
   id="path6" />
		<path
   d="m 291,280 c 0.3,-2.3 1.4,-4.7 0.9,-6.8 -2.5,-9.3 2.2,-16.8 5,-25 4.3,-12.6 3.4,-25 -3.6,-36.8 -2.1,-3.6 -3.9,-7.5 -5.4,-11.4 -3.8,-9.8 -8.3,-18.7 -17.2,-25.2 -3.1,-2.2 -5.6,-3.7 -9.3,-4.1 -2.3,-0.3 -4.6,-2.1 -6.6,-3.6 -6,-4.6 -12,-9.3 -17.7,-14.2 -4.1,-3.6 -7.7,-7.7 -11.4,-11.7 -5.1,-5.4 -10.1,-10.8 -15.2,-16.2 1.2,-1.7 2.7,-3.8 4.4,-6.1 -6.3,-2.3 -12.9,-0.8 -15.5,3.9 -3.1,5.5 -8.9,6.1 -13.5,8.8 -0.6,0.4 -2.4,-1.1 -3.6,-1.7 0.6,-1 1,-2.4 1.9,-2.9 11.1,-6.4 21.8,-13.8 34.4,-17.5 6.9,-2 13.6,-2.6 19.4,2 3.5,2.8 6,6.9 8.9,10.5 5.1,6.3 12.2,9.2 19.8,9.9 3.3,0.3 6.9,-2.3 10.4,-3.6 2.3,-0.9 4.6,-1.8 8.1,-3.1 -2.4,6.9 -0.7,11.6 2.8,15.9 0.6,0.7 1.3,1.6 2.1,1.9 4.4,2 8.9,3.9 13.5,5.8 0.8,-0.7 1.9,-1.7 2.9,-2.8 0.6,-0.7 1.5,-1.5 1.6,-2.3 0.6,-4.9 0.4,-9.9 5.6,-13.2 1.2,-0.7 0.1,-5.1 -0.1,-7.8 -0.2,-3.9 -0.2,-7.9 -0.9,-11.7 -0.5,-2.6 -1.7,-5.2 -3.1,-7.5 -1.2,-2.1 -2.8,-4.1 -4.6,-5.8 -5.7,-5.3 -11.6,-10.5 -17.5,-15.7 -0.8,-0.7 -2.4,-1.1 -2.7,-2 -1.6,-5.4 -6.5,-6.5 -10.7,-8.6 -3.3,-1.7 -6.1,-1 -7.6,1.8 -4.4,8.1 -10.7,12.8 -20.1,12.9 -1,0 -2.3,0.9 -2.9,1.7 -6.8,10.6 -17.4,15 -28.8,19.2 -12,4.5 -23,11.6 -34.6,17.3 -1.9,0.9 -4.3,0.9 -6.5,0.1 2.5,-2.9 5.6,-5.5 7.4,-8.9 3.3,-6 1.2,-10.7 -5.5,-12.3 -5.1,-1.2 -10.5,-1.3 -15.6,-2.2 -2.4,-0.4 -5,-1.3 -6.9,-2.7 -10.2,-7.7 -20.3,-15.5 -30,-23.8 -3.5,-3 -6.8,-6.8 -8.7,-11 C 110.4,55.4 104.6,49.6 97.2,44.8 95.3,43.6 93.7,41.6 92.4,39.6 86.8,31.3 80.8,23.6 71,20 67.8,18.8 64.7,17.3 61.4,16.8 54.8,15.7 55.9,10.4 55.1,6.3 54.1,1.4 49.4,-1.1 46.8,2.6 44.4,5.9 36.9,6.8 41.4,13.5 32.6,14.4 24.5,15.1 16.5,16 10.9,16.5 5.5,17.3 0,18 0,12 0,6 0,0 c 105,0 210,0 315,0 0,93.3 0,186.7 0,280 -8,0 -16,0 -24,0 z"
   id="path8"
   style="fill:none" />
		<path
   d="m 0,19 c 4,2.7 8.1,5.4 12.1,8.1 0.4,0.3 1,0.8 1.3,0.7 6.2,-2.8 8.1,2.8 11.4,5.7 0.3,0.2 0.4,0.7 0.7,0.7 8.2,1.5 9.6,10 15.1,14.3 2,1.5 4.2,2.8 6.6,3.7 3.9,1.4 5.5,3.8 4.8,7.9 -0.1,0.8 -0.1,1.7 -0.2,2.5 -0.9,7.8 -2.1,8.5 -10.3,9.8 -3.4,0.5 -7,2.2 -9.7,4.4 -5.6,4.7 -11.4,2.8 -17.4,1.9 -2,3.7 -0.4,6.6 4.7,9.7 2,1.2 3.2,3.6 4.9,5.3 4.9,4.7 9.3,11.1 15.2,13.2 4.4,1.6 8.9,3 13.2,5.2 5.3,2.7 10.9,5.2 16.7,6.7 3.1,0.8 6.9,-0.3 10.2,-1.3 5.9,-1.8 7.2,-1.5 9.4,4.1 6.2,16 12.5,31.9 18.3,48.1 2.5,6.9 6.2,11.8 13.6,13.7 5,1.3 7.6,-0.5 6.8,-5.5 -0.3,-1.8 -1.2,-3.4 -1.9,-5.1 -4.7,-11.3 -9.4,-22.6 -13.5,-34.4 8.5,1 15.3,2.8 21.6,9.6 6.6,7.2 4.5,13.2 2.6,20.4 -1.9,7.5 -3.3,15.2 -5.4,22.7 -0.4,1.6 -2.6,3.2 -4.3,3.8 -12.9,4.3 -30.3,25.6 -28.7,41.1 1.6,16.2 6.9,30.1 22.8,36.9 9.8,4.2 20.3,3.9 30.4,0.4 6.1,-2.1 11.7,-5.8 17.7,-8.3 7.9,-3.4 13.9,-8.7 18.7,-15.7 0.6,-0.9 2.7,-1 4.1,-1.2 4.2,-0.7 8.3,-1.3 12.5,-1.7 2,-0.2 4.1,0.7 6,0.4 1.6,-0.3 3.1,-1.5 4.4,-2.6 2.3,-2 4.3,-4.2 6.5,-6.3 3.8,-3.6 7.7,-7 11.4,-10.7 2.1,-2.1 3.6,-3.4 6.4,-0.5 2.3,2.3 5.6,3.9 8.7,5.2 2.9,1.2 3.9,2.9 4.8,6 3.2,11.7 8.3,21.9 21.4,25.7 7.9,2.3 12.8,8.4 15.4,16.3 -96.3,0 -192.7,0 -289,0 C 0,193 0,106 0,19 z"
   id="path10"
   style="fill:none" />
		<path
   d="m 249.1,167.3 c -2.1,0.3 -2.7,0.6 -3.2,0.4 -5.6,-2.2 -11.2,-1.8 -17,-0.3 -1.1,0.3 -2.8,0.3 -3.7,-0.3 -9.1,-6.5 -19.3,-11.7 -25.8,-21.4 -1.4,-2.1 -2.3,-3.1 0.1,-5 0.9,-0.7 1.6,-3.3 1.1,-3.7 -3.1,-2.9 -0.1,-5 1.2,-6.5 0.7,-0.8 3.9,-0.3 5.2,0.6 3.9,2.8 7.8,5.7 10.9,9.3 6.9,8 14.5,15 23.5,20.6 2.6,1.6 4.7,3.7 7.7,6.3 z"
   id="path12"
   style="fill:none" />
		<path
   d="m 112.1,123.4 c 12.5,-1.3 22.3,-6.6 31.3,-14.1 5.1,-4.3 10.3,-5.9 14.6,2.8 3.7,7.7 2.3,13.6 -5.1,18.1 -0.9,0.6 -2.2,1.1 -3.3,0.9 -10.3,-1.4 -20.5,-2.8 -30.8,-4.6 -2.4,-0.2 -4.5,-2 -6.7,-3.1 z"
   id="path14"
   style="fill:none" />
		<path
   d="m 145.4,153.5 c 8,1.8 13,7.3 18.7,11.6 0.6,0.4 0.3,2.8 -0.3,3.7 -4,5.8 -8.3,11.4 -12.5,17.1 -0.5,0.7 -1.2,1.6 -2,1.9 -4,1.3 -8.1,2.3 -12.7,3.6 -0.6,-13.5 6.3,-24.8 8.8,-37.9 z"
   id="path16"
   style="fill:none" />
		<path
   d="m 159.5,155.5 c 3,-0.6 5.2,-0.8 7.2,-1.4 1.3,-0.4 2.3,-1.5 3.4,-2.3 -0.9,-1.1 -1.6,-2.5 -2.7,-3.2 -2.2,-1.3 -4.7,-2.3 -7.5,-4.6 1.7,-0.4 3.7,-1.4 5.2,-1 4.6,1.3 9,3.3 13.5,4.9 1.4,0.5 2.9,0.9 5,1.5 -0.5,-2.3 -0.8,-3.7 -1.1,-5 7.2,-3.3 8.8,-2.9 14.1,3.1 2,2.2 4.1,4.3 6.1,6.5 0.2,0.2 0.1,0.6 0.3,1.3 -0.7,0.2 -1.4,0.5 -2.1,0.4 -9.9,-1.1 -18.8,2.4 -27.5,6.2 -2.7,1.2 -4,0.7 -5.9,-0.9 -2.4,-1.7 -4.9,-3.3 -8,-5.5 z"
   id="path18"
   style="fill:none" />
		<path
   d="M 133.4,89.2 C 127.7,86.9 121.9,84.6 116.2,82.3 115.3,81.9 114.4,81 113.5,81 104,80.8 97.7,73.4 89.3,70.7 c -3.1,-1 -6.3,-2.3 -9.5,-2.4 -5.2,-0.2 -7.7,-2.7 -9,-8.7 4,1.9 7.1,3.4 10.3,4.8 3.7,1.6 7.3,3.7 11.2,4.5 13.7,3 26.7,7.6 38.3,15.7 1.3,0.9 2.3,2.1 3.5,3.2 -0.1,0.4 -0.4,0.9 -0.7,1.4 z"
   id="path20"
   style="fill:none" />
		<path
   d="m 158.6,106 c 4.4,0 8,-0.5 11.3,0.2 2.7,0.5 6.2,1.8 7.2,3.8 0.9,1.8 -1.3,5.1 -1.8,6.7 -4.1,-0.2 -6.6,-0.3 -9.9,-0.5 -1.7,-2.5 -4,-5.9 -6.8,-10.2 z"
   id="path22"
   style="fill:none" />
		<path
   d="m 155.2,141.3 c -5.2,4.6 -9,4.4 -12.6,-1.3 4.5,0.5 8.3,0.9 12.6,1.3 z"
   id="path24"
   style="fill:none" />
		<path
   d="m 172,130.3 c -2,1.4 -4,2.8 -6.1,4 -0.5,0.3 -1.7,-0.1 -2,-0.5 -0.3,-0.5 -0.2,-1.9 0.1,-2.1 2.3,-1.3 4.7,-2.4 7.1,-3.6 0.3,0.7 0.6,1.4 0.9,2.2 z"
   id="path26"
   style="fill:none" />
	</g>
</g>
</svg>