<?xml version="1.0" encoding="utf-8"?>
<!-- Generator: Adobe Illustrator 27.4.1, SVG Export Plug-In . SVG Version: 6.00 Build 0)  -->
<svg version="1.1" baseProfile="tiny" id="Layer_1" xmlns="http://www.w3.org/2000/svg" xmlns:xlink="http://www.w3.org/1999/xlink"
	 x="0px" y="0px" viewBox="0 0 1207 1112" overflow="visible" xml:space="preserve">
<g id="_x33_V5G1B_00000161621429956757117910000013211848000074573741_">
	<g>
		<path fill="#FFFFFF" d="M0,1112C0,741.3,0,370.7,0,0c402.3,0,804.7,0,1207,0c0,370.7,0,741.3,0,1112C804.7,1112,402.3,1112,0,1112
			z M805.1,721.3c3,1.1,5.9,1.9,8.6,3c11.6,4.7,21.5,11.8,29.8,21.3c2.5,2.8,5.4,5.4,9.9,3.9c0.7-0.2,2.2,0.9,3,1.8
			c9.9,10,20.4,18.5,35.9,17.6c3.3-0.2,5-0.5,5.5-3.8c0.9-5.4,4.3-6,8.8-4.7c1.6,0.5,3.1,1.3,4.7,1.6c9.6,1.5,19.5,4.7,27.8-3.4
			c1.1-1,2.1-3,1.9-4.3c-1.1-5.2-2.3-10.4-4.1-15.3c-1.4-3.8,0.1-5.1,3.4-5.2c3.5-0.1,7-0.1,10.4,0.5c10.3,1.8,17.7-2.7,23.7-10.3
			c0.6-0.7,0.4-2.6-0.2-3.5c-2.3-3.6-5-6.9-7.5-10.4c7-4.6,14.1-9.1,21.1-13.8c7.1-4.8,14-9.7,21.6-15c-2.8-4.6-4.7-8.3-7-11.6
			c-2-2.8-4.5-5.3-6.8-7.9c-2.4-2.7-2.5-5.3,0.3-7.8c1.4-1.2,2.8-2.3,4.3-3.4c10.7-8.7,21.3-17.5,26.8-30.9c1.7-4,0.6-5.9-2.2-7.7
			c-2.1-1.3-4.5-2-6.8-2.9c-1.4-0.6-2.9-1.1-5.5-2.1c3.1-3.1,5.3-5.5,7.8-7.6c2.6-2.3,5.7-4.1,8.1-6.5c5.7-5.5,11.1-11.4,16.7-16.9
			c1.1-1.1,2.7-1.9,4.2-2.4c20.1-7.1,40-14.5,60.3-21c10.9-3.5,21.3-8.7,33.7-7.3c18.3,2,36.5-0.1,54.1-6c2.3-0.8,4.5-1.9,6.8-2.9
			c-0.1-0.6-0.3-1.2-0.4-1.8c-2.2-0.1-4.4-0.5-6.6-0.4c-15.1,0.6-30.2,2-45.3,1.7c-11.9-0.3-22.9,1.9-34,5.8
			c-12.3,4.3-25,7.7-37.5,11.4c-1.2,0.4-2.6,0.2-3.9,0.3c-2.8,0-5.7-0.6-8.3,0.2c-8.1,2.4-15.9,3.1-23.7-0.7
			c-7.5-3.6-15.2-6.9-22.3-11.1c-6-3.5-6-8.9-1.5-13.8c3.4-3.6,6.3-7.6,9.7-11.8c-6.3-6.1-13.6-9.2-21.7-9.4
			c-12.8-0.4-25.6,0-38.4,0c-3.9,0-6.5-1-5.3-5.9c0.5-2,0.7-4.6-0.1-6.4c-1.4-3.1-3.2-7.9-5.6-8.4c-5-1.1-10.5-0.4-15.7,0.4
			c-5.7,1-11.2,3.2-16.8,4.6c-1.8,0.4-3.7,0.1-7.1,0.1c2.1-2.8,3.7-4.4,4.6-6.4c0.7-1.6,0.9-3.6,0.7-5.4c-0.1-0.5-2.5-0.6-3.9-1
			c-1.4-0.3-2.9-0.6-4.2-1.1c-16.2-5.6-32.2-6-48.2,0.7c-5,2.1-10.2,4.8-15.5,5.2c-7.2,0.6-13,3.6-19,7c-4.9,2.8-9.7,5.8-14.7,8.5
			c-2.5,1.3-5.3,2.1-8.6,3.4c1.2-5.2,2.4-9.1,3.1-13.1c0.7-4.1-1.3-6.3-5.5-4.9c-4.8,1.6-9.5,3.7-14.2,5.8
			c-10.9,4.9-21.6,9.9-32.5,14.8c-1.1,0.5-2.4,0.8-3.6,1.1c-2.1-6.9-3.2-7.8-9.7-5.2c-5,2.1-9.5,5.3-14.3,7.9
			c-4.9,2.7-9.8,7.3-14.9,7.6c-8.8,0.5-16.1,3.8-23.3,7.8c-2.8,1.6-4.9,1.8-7.6-0.4c-1.2-1-4-1.3-5.5-0.6c-4.7,2.3-9.3,5-13.6,8
			c-3.8,2.6-6.9,6.6-10.9,8.6c-5.4,2.7-11.4,5.8-17.1,5.6c-7.4-0.3-12.8,2.2-18.3,6.1c-8.3,6-16.6,12.1-25.3,17.6
			c-4.6,2.9-10.1,4.3-14.8,7c-15.5,8.9-30.9,18.1-46.3,27.3c-1.7,1-3.3,2.3-4.7,3.6c-10.6,10-21.3,20-31.8,30.2
			c-2.2,2.1-4,4.8-5.5,7.5c-4.5,8.3-8.8,16.8-13.3,25.3c-5.1-2.5-7.4-5.5-8.4-10.2c-1.6-8.4-5-10.5-13.6-10.8
			c-3.8-0.1-7.6-0.8-11.3-1.5c-1.3-0.3-3-1.4-3.4-2.5c-3-7.9-8.6-11-16.8-11.4c-6.5-0.3-7.3-2.3-5.3-8.5c0.7-2.2,1.4-4.4,2.1-6.7
			c9.6-32.5,19-65.1,28.8-97.6c1.9-6.3,5.2-12.2,8.1-18.2c1.8-3.8,4.7-7.3,5.5-11.3c0.9-4.4,2.7-6.2,7-6.4c2.5-0.1,5.1-0.5,7.3-1.6
			c5.9-3,12.1-3.1,18.5-2.7c2.6,0.2,5.5,0.2,7.8-0.7c2-0.8,4.5-2.9,4.8-4.8c0.9-5.5,3.9-7.7,9.1-8c2-0.1,3.9-0.7,5.9-1.1
			c7.5-1.7,9.3-4.5,7.8-11.8c4.7-2.1,4.8-2.1,5.7-7.6c0.5-3.3,2.6-3.9,5.3-3.9c8.2-0.2,16.3-0.9,24.5-0.6c11.3,0.5,22.6,1.7,31.1,11
			c2.9,3.2,6.2,2.6,8.8-0.9c3.1-4.2,6.6-6.8,12.5-6c6.6,0.9,13.3,0.7,19.9,0.8c9.2,0.2,18.3-0.5,26.8-4.6c2.3-1.1,4.4-2.9,6.6-4.3
			c-0.2-0.5-0.4-1.1-0.6-1.6c-1.7-0.1-3.4-0.6-5-0.3c-18.2,2.7-36.1-0.3-54-3.1c-1.4-0.2-2.7-1.5-3.9-2.5c-1.9-1.5-3.6-3.3-5.6-4.6
			c-6.7-4.3-14.6-3.7-22-5.1c-5.8-1.1-12.1-2-14.7-9.1c-1.4-3.8-4.5-5.9-9-5.6c-2.6,0.2-5.3-0.9-8-1.3c-0.2-0.6-0.4-1.1-0.6-1.7
			c2.7-2.5,5-5.6,8.1-7.4c5.8-3.5,7.8-5.6,4.9-11.8c-3.1-6.6-0.6-10.1,4.2-13.6c1.2-0.9,2.7-2,2.9-3.3c0.5-3.1,1.7-7.3,0.2-9.2
			c-3.9-5-2.4-7.9,1.9-10.9c1.1-0.8,2.1-1.7,3-2.6c3.2-3.1,2.8-6.8-1.2-8.9c-2.3-1.2-4.9-1.9-7.4-2.8c6.5-7.7,5.4-10.9-4.5-14
			c-1.8-0.5-3.6-1.2-5.4-1.8c3-7.8,1.4-11.6-6.1-15.4c-6.7-3.4-7.6-4.7-6.4-12.1c1-5.9,3.1-11.6,3.9-17.5c0.6-4.4,1.6-10.4-0.7-13.3
			c-2.8-3.6-8.5-1.4-13,0.3c-3.2,1.2-6.9,1.3-10.4,1.9c0.1-3.7-0.4-7.6,0.4-11.1c2.2-8.9,5.5-17.5,7.5-26.4c0.8-3.8-0.1-8.1-1-12
			c-0.3-1.1-3.7-2.7-4.9-2.1c-4.6,2.1-9.2,4.6-13.2,7.6c-5.3,3.9-10.6,7.3-18.3,8.9c2.8-4.1,8.2-7.1,3.4-10.8
			c-2.7-2.1-7.4-1.6-11.6-2.4c0.4-1.9,1-3.8,1.3-5.8c0.3-2,0.6-3.9,0.6-5.9c0.1-6.7-3.1-9.4-9.7-8.4c-2.9,0.5-5.7,1-9.2,1.6
			c0.3-2.4,0.4-4,0.6-5.6c1.1-9.3-0.4-11.5-9.1-14.7c-1.2-0.4-2.4-2.5-2.6-3.9c-0.8-7.2-5.1-12.1-11.9-10.5
			c-9.4,2.1-14-1.4-16.4-9.8c-0.1-0.5-0.4-0.9-0.7-1.3c-5.9-8.3-8.7-10.6-18.6-6.6c-0.7,0.3-1.6,0.2-2.7,0.4c-1-2.8-2-5.4-2.8-8.1
			c-2.4-8.9-6.5-11.2-15.1-7.9c-2.7,1-4.1,0.4-5-2c-1.5-3.9-2.8-7.9-4.8-11.5c-4-7.4-9-8-15.1-2.1c-2.6,2.6-5,5.3-7.6,7.9
			c-0.8,0.8-2,1.2-3.3,2c0-4.6,0.1-8.4,0-12.2c-0.1-3.7-0.9-6.8-5.2-8c-1.1-0.3-2.4-1.7-2.8-2.9c-1-3.5-2.8-5.6-6.6-5.5
			c-2.9,0-4-1.5-4-4.4c0-3.6-0.2-7.3-0.9-10.9c-2-10.1-4.2-20.2-6.6-30.2c-3.5-14.6-7.3-29.2-11-44c-5.1,1.4-6.8,4.7-6.5,8.8
			c0.4,8,0.7,16,2.2,23.8c4.3,21.8,5.4,43.9,6,66c0.2,5.8,0.5,12.3-4.3,16.9c-6.7,6.4-10,13.8-8.2,23.1c0.4,1.8-0.4,3.8-0.6,5.9
			c-1.4-0.1-2.2-0.2-3-0.3c-11-1.6-15.4,2-16.3,13.1c-0.2,1.8-0.5,3.6-1,5.4c-1.1,3.8-3.5,5.5-7.6,4.2c-1.9-0.6-3.9-0.8-5.9-0.8
			c-7.3,0.1-9,1.7-9.2,9c-0.1,3.5-1.6,5.7-4.9,6.6c-1.6,0.5-3.2,1-4.7,1.6c-5.1,1.9-7.4,5.7-6.2,11c1.3,5.4,2.6,10.9,4.6,16.1
			c1.2,3.2,0.4,4.6-2.4,5.6c-3.1,1.1-6.4,2-9.3,3.5c-4.6,2.3-6,7.4-2.3,10.1c5.8,4.3,5.7,8.4,1.8,13.6c-0.4,0.5-0.6,1.1-1,2
			c-30-21.2-56.2-45.8-79.2-74.5c-0.5,2.7-0.5,5.1,0.6,6.7c4.6,6.9,9.2,13.9,14.5,20.2c5.6,6.6,12.4,12.1,17.9,18.7
			c5.5,6.7,10.1,14.1,15.1,21.3c-0.4,0.4-0.8,0.8-1.2,1.2c-7-0.9-13.4-5.9-21-3.2c0,6.6,3.6,11.1,7.6,15.4c1.2,1.3,2.9,3.1,2.7,4.4
			c-0.9,5,2,7.7,4.9,10.7c1.3,1.4,2.4,3,3.6,4.5c-9.8,6.8-9.6,10,0.4,16.2c2.5,1.5,4.7,3.7,6.5,6c0.8,0.9,0.8,3.1,0.2,4.3
			c-2.1,4.2-1.5,7.4,2.2,10.4c1.5,1.2,2.9,2.4,4.9,4c-6.4,2.7-6,6.8-3.8,11.3c0.5,1,1.2,2,1.9,2.9c5.2,6.6,10.4,13.2,15.8,20
			c-0.7,0.6-1.4,1.5-2.2,1.9c-6.7,3.1-6.4,7.9-2.8,13.6c1.6,2.6,4.3,4.6,6.9,6.3c3,2,6.6,3.2,9.8,5c5,2.9,9.9,5.9,12.4,11.8
			c-1,0.6-1.7,1-2.4,1.4c-7.2,3.6-7.9,7.8-2.1,13.4c1.7,1.7,4.1,2.8,6.3,3.9c2.7,1.3,5.6,2.2,8.2,3.6c2.7,1.5,5.6,3.2,1.8,6.7
			c-0.6,0.6-0.7,2.8-0.1,3.6c2.3,3.3,4.6,6.9,7.7,9.4c3.4,2.8,7.8,4.4,11.5,7c1.2,0.8,2.2,3.5,1.7,4.7c-2.1,5.4-1.4,8.2,3.8,10.6
			c3,1.4,6.2,2.4,9.4,3.1c4,1,7.3,2.2,9.6,6.3c1.1,2.1,4.2,3.8,6.7,4.5c13.3,3.7,26.7,7,40,10.6c14.6,3.9,19,8.9,20.3,22.4
			c0.2,1.8,0.3,3.7,0.3,5.5c0.5,12.6,1.2,25.3,1.3,37.9c0.2,22.6,0.2,45.3,0.1,67.9c0,2.7-0.6,5.4-1,9.3c-3.7-2.5-6.5-4.1-9.1-6.1
			c-4.7-3.7-9-8-13.9-11.3c-3.4-2.4-8.3-5.8-11.4-4.9c-7.2,2-13.6,1.2-20.6-0.4c-4-0.9-7.1-1.6-10.2-4.7c-6.6-6.6-13.7-7.3-19.6-1
			c-2.8,3-6.1,5.7-9.1,8.5c-2.5,2.4-4.9,2.7-7.1-0.4c-2.2-3.1-4.2-6.5-6.8-9.3c-3.7-3.9-7.4-8.4-12-10.7c-3.8-1.9-8-2.3-10.2-6.6
			c-0.6-1.2-2.7-1.6-4.1-2.4c-2.9-1.6-6.3-2.8-8.6-5c-5-4.8-10.6-8.8-17.6-7.7c-8.5,1.3-12.7-2.6-16.8-9.1c-2.8-4.4-6-10.1-12.3-9.7
			c-7.2,0.4-11.3-3-13.9-9c-3.4-7.8-6.5-15.7-9.8-23.5c-0.7-1.6-2-2.9-3-4.4c-1.7-2.4-3.7-4.7-5.1-7.3c-1.6-2.9-2.5-6.1-3.9-9.1
			c-1.5-3.1-3.3-6-4.9-9.1c-1.5-3-2.6-6.1-4.3-9c-4.6-7.7-10.1-7.5-14.5,0.3c-0.4,0.7-0.8,1.4-1.2,2.2c-1.9,4.1-4.1,3.3-6.2,0.4
			c-1.9-2.5-3.6-5.2-5.1-8c-5.8-10.4-9.4-11.3-19.1-4.6c-0.2,0.2-0.6,0-1,0c-2.1-2.5-3.8-5.9-6.5-7.3c-7.1-3.8-10.4-10.2-12-17.3
			c-0.8-3.7,0.4-8.2,1.8-11.9c3.8-10.1,2.1-19.7-5-24.3c-1-0.6-2.7-1.3-3.6-0.8c-0.8,0.4-1.4,2.3-1.2,3.4c1.6,7.6-1.2,14.1-4.9,20.4
			c-6.4,10.7-6.4,22.1-4.1,33.8c1.4,7.5,3.5,14.8,4.6,22.3c0.9,6.7-0.6,7.7-7.3,6c-12.6-3.2-18,1.1-17.6,14.1c0,1.3,0.3,2.7,0.1,4
			c-0.1,1.3-0.8,2.4-1,3.7c-0.5,3.4-1.1,6.9-1.1,10.3c0,2.5,0.8,5,1.5,8.5c-8.6-1.6-16-2.8-23.4-4.3c-6.9-1.4-9.1,1-7.8,8
			c0.6,3.6,0.1,7.4,0.1,11.3c-4.1-0.8-7-1.4-11.4-2.2c1.4,2.2,1.8,3.2,2.5,3.7c5.4,3.8,11,7.5,16.4,11.4c3.3,2.4,7.4,4.6,9.3,7.9
			c9,15.7,20.1,29.7,32.2,43.1c5.6,6.2,11.3,12.2,16.5,18.7c6,7.5,10.9,15.9,17.2,23c15,16.8,32.7,31,47.3,48.4
			c9.9,11.9,23.4,20.8,34.3,31.8c9.2,9.3,18.1,18.5,29.4,25.2c4.4,2.6,8.7,5.6,12.5,9c6.6,5.8,12.1,13.1,19.2,18
			c19.8,13.7,39.9,26.9,60.3,39.7c11.5,7.2,23.8,13.2,33.3,23.3c1,1.1,2.3,2,2.9,3.3c5.5,11.9,11.5,23.6,16.2,35.9
			c5.8,15.2,10.5,30.8,15.7,46.3c4.3,12.8,8.6,25.5,12.8,38.3c1.3,4,3.5,8.2-1.1,11.9c-0.8,0.6-0.4,3.1,0,4.6
			c1.2,5.3,2.5,10.6,4,15.9c0.9,3.5,2.1,6.9,3.2,10.3c0.9,2.7,2.1,5.3,2.7,8c2.2,9.7,5,19.1,13.5,25.3c4.3,3.1,7.3,6.5,5,12.3
			c-0.3,0.7,0,1.7,0.1,2.5c1.1,5.3,1.8,10.7,3.3,15.9c1.9,6.3,4.7,12.3,6.7,18.6c2.2,7,3.8,14.1,6,21.1c0.4,1.4,2.1,3.5,3.2,3.5
			c8.8,0.3,17.6,0.2,26.7,0.2c-0.5-2.5-1-4.5-1.3-6.4c-0.7-6.7-3-13.3,1.6-19.8c1-1.5,0.7-4.7-0.2-6.6c-2.6-5.3-2.2-10.5-1.1-16
			c0.5-2.7,0.2-5.5,0.2-8.3c0.1-3.6-1-7.8,0.5-10.8c3.1-6.4,3.3-13.2,5.2-19.7c2.5-8.8,0.3-16.8-2-24.8c-1.5-5.6-5.2-10.5-7.1-16
			c-1.6-4.7-2.8-9.1-10.2-6.8c0.7-3.9,1.1-6.7,1.7-9.7c-3.3,0.8-6,1.1-6-3.6c-0.2-20-0.7-39.9-0.7-59.9c0-6.9,0.8-14.1,7.9-18.3
			c0.9-0.5,1.2-1.9,1.8-2.9c5.9-10.9,11.8-21.9,17.8-32.8c1.2-2.2,3.2-4.2,3.9-6.5c1-3.4,2.6-4.9,6.2-5.1c1.8-0.1,3.7-1.4,5.4-2.6
			c2.1-1.4,3.7-3.7,5.9-4.6c4.1-1.8,8.4-3.1,12.7-4.4c7.8-2.5,8.6-5.3,3.5-11.7c-2.7-3.4-2.3-5.5,1.6-7.4c3.4-1.6,7.1-2.9,10.7-4.2
			c7-2.5,8.3-6.8,3.3-12.4c-2.7-3-5.3-5.5-1.6-9.6c0.8-0.9,0-2.9,0.3-4.4c0.5-2.6,0.5-5.7,2-7.5c3.7-4.4,7.6-9,12.3-12
			c8.8-5.6,18.1-10.4,27.5-15c3.3-1.6,7.5-1.6,11.3-2.2c2.3-0.4,5.1,0.2,6.8-1c6.4-4.2,12.8-2.8,19-0.6c11.4,4.1,18,2.1,24.7-8.2
			c1.4-2.2,3.1-4.8,5.3-5.6c8.6-3.1,17.2-6.2,26.1-7.9c7.5-1.4,15.6-2,23.1-0.9c9.3,1.4,18.3,4.7,27.4,7.4
			c9.2,2.7,18.4,5.7,27.6,8.3c4.2,1.2,8.6,2.1,12.9,2.9c6.3,1.2,12.9,1.5,19,3.5c10.8,3.6,21.4,8.3,32,12.4c1.4,0.5,3,1,4.4,0.7
			c3-0.5,5.9-1.4,8.9-2.1c-1.6-2.5-2.9-5.3-4.8-7.5c-1.8-2-2.7-3.5-1.1-6C800.2,730.3,802.4,726,805.1,721.3z"/>
		<path d="M805.1,721.3c-2.7,4.7-4.9,9-7.4,13.1c-1.6,2.6-0.7,4,1.1,6c2,2.2,3.2,5,4.8,7.5c-3,0.7-5.9,1.6-8.9,2.1
			c-1.4,0.2-3-0.2-4.4-0.7c-10.7-4.1-21.2-8.8-32-12.4c-6-2-12.7-2.3-19-3.5c-4.3-0.8-8.7-1.7-12.9-2.9c-9.2-2.7-18.4-5.6-27.6-8.3
			c-9.1-2.7-18.1-6-27.4-7.4c-7.5-1.1-15.6-0.5-23.1,0.9c-8.9,1.7-17.5,4.8-26.1,7.9c-2.2,0.8-3.9,3.5-5.3,5.6
			c-6.7,10.2-13.2,12.3-24.7,8.2c-6.2-2.3-12.7-3.6-19,0.6c-1.7,1.1-4.5,0.6-6.8,1c-3.8,0.6-8,0.6-11.3,2.2
			c-9.4,4.6-18.7,9.4-27.5,15c-4.8,3-8.7,7.6-12.3,12c-1.5,1.8-1.5,4.9-2,7.5c-0.3,1.4,0.4,3.5-0.3,4.4c-3.7,4.1-1.1,6.6,1.6,9.6
			c5.1,5.6,3.8,9.9-3.3,12.4c-3.6,1.3-7.2,2.6-10.7,4.2c-4,1.9-4.3,4-1.6,7.4c5.1,6.4,4.3,9.2-3.5,11.7c-4.3,1.4-8.6,2.6-12.7,4.4
			c-2.2,1-3.8,3.2-5.9,4.6c-1.6,1.1-3.5,2.5-5.4,2.6c-3.6,0.2-5.3,1.7-6.2,5.1c-0.7,2.4-2.6,4.3-3.9,6.5
			c-6,10.9-11.9,21.9-17.8,32.8c-0.5,1-0.9,2.4-1.8,2.9c-7.2,4.2-7.9,11.4-7.9,18.3c0,19.9,0.5,39.9,0.7,59.9c0,4.7,2.8,4.4,6,3.6
			c-0.5,3.1-1,5.8-1.7,9.7c7.4-2.2,8.5,2.1,10.2,6.8c1.9,5.5,5.6,10.5,7.1,16c2.2,8,4.5,16,2,24.8c-1.9,6.5-2.1,13.4-5.2,19.7
			c-1.4,3-0.4,7.2-0.5,10.8c0,2.8,0.3,5.6-0.2,8.3c-1.1,5.5-1.5,10.7,1.1,16c0.9,1.9,1.3,5.1,0.2,6.6c-4.6,6.4-2.3,13.1-1.6,19.8
			c0.2,2,0.8,3.9,1.3,6.4c-9.2,0-18,0.1-26.7-0.2c-1.1,0-2.8-2.1-3.2-3.5c-2.2-7-3.8-14.2-6-21.1c-2-6.3-4.8-12.3-6.7-18.6
			c-1.5-5.2-2.3-10.6-3.3-15.9c-0.2-0.8-0.4-1.8-0.1-2.5c2.3-5.8-0.7-9.2-5-12.3c-8.6-6.2-11.4-15.5-13.5-25.3
			c-0.6-2.7-1.8-5.3-2.7-8c-1.1-3.4-2.3-6.8-3.2-10.3c-1.4-5.3-2.8-10.5-4-15.9c-0.3-1.5-0.7-4,0-4.6c4.6-3.7,2.4-7.9,1.1-11.9
			c-4.1-12.8-8.5-25.5-12.8-38.3c-5.2-15.4-9.9-31.1-15.7-46.3c-4.7-12.2-10.7-24-16.2-35.9c-0.6-1.3-1.9-2.3-2.9-3.3
			c-9.5-10.1-21.7-16.1-33.3-23.3c-20.4-12.8-40.6-26-60.3-39.7c-7.1-5-12.6-12.2-19.2-18c-3.8-3.4-8.1-6.4-12.5-9
			c-11.3-6.7-20.2-16-29.4-25.2c-11-11.1-24.4-20-34.3-31.8c-14.6-17.4-32.3-31.6-47.3-48.4c-6.4-7.1-11.2-15.5-17.2-23
			c-5.2-6.5-10.9-12.5-16.5-18.7c-12.1-13.4-23.2-27.4-32.2-43.1c-1.9-3.3-6-5.5-9.3-7.9c-5.4-3.9-11-7.5-16.4-11.4
			c-0.7-0.5-1.1-1.5-2.5-3.7c4.3,0.9,7.2,1.4,11.4,2.2c0-3.9,0.5-7.7-0.1-11.3c-1.3-7.1,0.9-9.4,7.8-8c7.4,1.5,14.9,2.7,23.4,4.3
			c-0.6-3.5-1.5-6-1.5-8.5c0-3.4,0.6-6.9,1.1-10.3c0.2-1.3,0.9-2.4,1-3.7c0.1-1.3-0.1-2.7-0.1-4c-0.4-13,5-17.3,17.6-14.1
			c6.6,1.7,8.2,0.7,7.3-6c-1-7.5-3.1-14.9-4.6-22.3c-2.3-11.7-2.3-23.1,4.1-33.8c3.7-6.2,6.5-12.8,4.9-20.4c-0.2-1.1,0.4-3,1.2-3.4
			c0.9-0.4,2.5,0.2,3.6,0.8c7.2,4.6,8.8,14.2,5,24.3c-1.4,3.7-2.7,8.2-1.8,11.9c1.6,7.1,4.9,13.5,12,17.3c2.7,1.4,4.3,4.8,6.5,7.3
			c0.4,0,0.8,0.1,1,0c9.7-6.7,13.3-5.8,19.1,4.6c1.5,2.8,3.2,5.4,5.1,8c2.1,2.9,4.4,3.7,6.2-0.4c0.3-0.8,0.8-1.5,1.2-2.2
			c4.5-7.8,9.9-8,14.5-0.3c1.7,2.8,2.8,6,4.3,9c1.6,3.1,3.4,6,4.9,9.1c1.4,3,2.4,6.2,3.9,9.1c1.4,2.6,3.4,4.9,5.1,7.3
			c1,1.4,2.3,2.8,3,4.4c3.4,7.8,6.4,15.7,9.8,23.5c2.6,6,6.7,9.4,13.9,9c6.4-0.3,9.5,5.3,12.3,9.7c4.1,6.5,8.4,10.4,16.8,9.1
			c7-1.1,12.6,2.9,17.6,7.7c2.3,2.2,5.7,3.4,8.6,5c1.4,0.8,3.5,1.2,4.1,2.4c2.3,4.3,6.5,4.7,10.2,6.6c4.6,2.3,8.3,6.8,12,10.7
			c2.6,2.8,4.6,6.1,6.8,9.3c2.2,3.2,4.5,2.8,7.1,0.4c3-2.8,6.3-5.5,9.1-8.5c5.9-6.3,13-5.6,19.6,1c3.1,3.1,6.2,3.8,10.2,4.7
			c7,1.6,13.3,2.4,20.6,0.4c3.1-0.9,8,2.5,11.4,4.9c4.9,3.4,9.2,7.6,13.9,11.3c2.5,2,5.4,3.7,9.1,6.1c0.4-3.9,1-6.6,1-9.3
			c0-22.6,0.1-45.3-0.1-67.9c-0.1-12.6-0.9-25.3-1.3-37.9c-0.1-1.8-0.2-3.7-0.3-5.5c-1.4-13.5-5.7-18.5-20.3-22.4
			c-13.3-3.6-26.8-6.8-40-10.6c-2.5-0.7-5.5-2.4-6.7-4.5c-2.2-4.1-5.6-5.3-9.6-6.3c-3.2-0.8-6.4-1.8-9.4-3.1
			c-5.2-2.4-5.9-5.3-3.8-10.6c0.5-1.2-0.5-3.9-1.7-4.7c-3.6-2.6-8.1-4.2-11.5-7c-3.1-2.5-5.4-6.1-7.7-9.4c-0.6-0.8-0.5-3,0.1-3.6
			c3.8-3.6,0.9-5.2-1.8-6.7c-2.6-1.4-5.5-2.3-8.2-3.6c-2.2-1.1-4.6-2.2-6.3-3.9c-5.8-5.6-5-9.8,2.1-13.4c0.7-0.4,1.4-0.8,2.4-1.4
			c-2.5-5.9-7.4-8.9-12.4-11.8c-3.2-1.8-6.7-3-9.8-5c-2.6-1.7-5.3-3.7-6.9-6.3c-3.6-5.7-3.9-10.5,2.8-13.6c0.8-0.4,1.5-1.2,2.2-1.9
			c-5.4-6.8-10.6-13.4-15.8-20c-0.7-0.9-1.4-1.9-1.9-2.9c-2.2-4.5-2.6-8.6,3.8-11.3c-2-1.7-3.4-2.9-4.9-4c-3.7-2.9-4.3-6.2-2.2-10.4
			c0.6-1.2,0.6-3.4-0.2-4.3c-1.9-2.3-4.1-4.4-6.5-6c-10-6.2-10.2-9.4-0.4-16.2c-1.2-1.5-2.3-3.1-3.6-4.5c-2.9-3-5.8-5.8-4.9-10.7
			c0.2-1.3-1.5-3.1-2.7-4.4c-3.9-4.4-7.6-8.8-7.6-15.4c7.6-2.6,14.1,2.4,21,3.2c0.4-0.4,0.8-0.8,1.2-1.2c-5-7.1-9.6-14.6-15.1-21.3
			c-5.5-6.6-12.4-12.1-17.9-18.7c-5.3-6.3-9.9-13.3-14.5-20.2c-1.1-1.6-1.1-4-0.6-6.7c23,28.6,49.3,53.3,79.2,74.5
			c0.4-0.9,0.6-1.6,1-2c3.9-5.1,4-9.2-1.8-13.6c-3.7-2.8-2.2-7.8,2.3-10.1c2.9-1.5,6.2-2.4,9.3-3.5c2.9-1,3.7-2.4,2.4-5.6
			c-2-5.2-3.3-10.7-4.6-16.1c-1.3-5.2,1-9.1,6.2-11c1.6-0.6,3.1-1.1,4.7-1.6c3.3-1,4.8-3.2,4.9-6.6c0.3-7.3,1.9-8.9,9.2-9
			c2,0,4,0.2,5.9,0.8c4.1,1.3,6.4-0.4,7.6-4.2c0.5-1.7,0.9-3.6,1-5.4c0.9-11.1,5.3-14.7,16.3-13.1c0.8,0.1,1.6,0.1,3,0.3
			c0.2-2.1,1-4.1,0.6-5.9c-1.8-9.4,1.4-16.7,8.2-23.1c4.8-4.6,4.5-11.1,4.3-16.9c-0.6-22.1-1.7-44.2-6-66
			c-1.5-7.8-1.8-15.8-2.2-23.8c-0.2-4,1.5-7.4,6.5-8.8c3.7,14.8,7.5,29.4,11,44c2.4,10,4.6,20.1,6.6,30.2c0.7,3.6,0.9,7.3,0.9,10.9
			c0,2.9,1.1,4.5,4,4.4c3.8,0,5.6,2.1,6.6,5.5c0.3,1.2,1.6,2.6,2.8,2.9c4.2,1.2,5.1,4.3,5.2,8c0.1,3.8,0,7.6,0,12.2
			c1.3-0.8,2.5-1.2,3.3-2c2.6-2.6,5-5.3,7.6-7.9c6-5.9,11.1-5.3,15.1,2.1c2,3.6,3.2,7.6,4.8,11.5c1,2.5,2.3,3.1,5,2
			c8.6-3.3,12.7-0.9,15.1,7.9c0.7,2.7,1.8,5.3,2.8,8.1c1.1-0.2,2-0.1,2.7-0.4c9.9-4.1,12.7-1.7,18.6,6.6c0.3,0.4,0.6,0.8,0.7,1.3
			c2.4,8.4,7,11.9,16.4,9.8c6.8-1.5,11.1,3.4,11.9,10.5c0.2,1.4,1.4,3.5,2.6,3.9c8.7,3.2,10.2,5.3,9.1,14.7
			c-0.2,1.6-0.4,3.2-0.6,5.6c3.4-0.6,6.3-1.1,9.2-1.6c6.6-1.1,9.8,1.6,9.7,8.4c0,2-0.3,4-0.6,5.9c-0.3,1.9-0.8,3.8-1.3,5.8
			c4.1,0.7,8.9,0.3,11.6,2.4c4.7,3.7-0.6,6.7-3.4,10.8c7.7-1.6,13-5,18.3-8.9c4-3,8.6-5.5,13.2-7.6c1.1-0.5,4.6,1,4.9,2.1
			c0.9,3.9,1.9,8.2,1,12c-2,8.9-5.3,17.5-7.5,26.4c-0.9,3.5-0.3,7.4-0.4,11.1c3.5-0.6,7.1-0.7,10.4-1.9c4.5-1.7,10.2-3.9,13-0.3
			c2.3,2.9,1.3,8.8,0.7,13.3c-0.8,5.9-2.9,11.6-3.9,17.5c-1.3,7.4-0.3,8.7,6.4,12.1c7.4,3.8,9.1,7.5,6.1,15.4
			c1.8,0.6,3.6,1.2,5.4,1.8c10,3,11.1,6.3,4.5,14c2.5,0.9,5.1,1.6,7.4,2.8c4,2.1,4.4,5.8,1.2,8.9c-1,0.9-2,1.8-3,2.6
			c-4.2,3-5.8,6-1.9,10.9c1.5,1.9,0.3,6.1-0.2,9.2c-0.2,1.2-1.8,2.4-2.9,3.3c-4.8,3.5-7.3,7-4.2,13.6c2.9,6.2,1,8.3-4.9,11.8
			c-3.1,1.9-5.4,4.9-8.1,7.4c0.2,0.6,0.4,1.1,0.6,1.7c2.7,0.5,5.4,1.5,8,1.3c4.6-0.3,7.7,1.8,9,5.6c2.6,7.1,8.8,8,14.7,9.1
			c7.4,1.4,15.3,0.7,22,5.1c2,1.3,3.7,3.1,5.6,4.6c1.2,0.9,2.5,2.3,3.9,2.5c17.9,2.8,35.8,5.8,54,3.1c1.6-0.2,3.4,0.2,5,0.3
			c0.2,0.5,0.4,1.1,0.6,1.6c-2.2,1.5-4.3,3.2-6.6,4.3c-8.5,4.1-17.6,4.8-26.8,4.6c-6.7-0.1-13.4,0-19.9-0.8c-5.9-0.8-9.4,1.8-12.5,6
			c-2.6,3.5-5.9,4.1-8.8,0.9c-8.5-9.3-19.7-10.5-31.1-11c-8.1-0.4-16.3,0.3-24.5,0.6c-2.7,0.1-4.8,0.6-5.3,3.9
			c-0.8,5.5-1,5.5-5.7,7.6c1.5,7.3-0.3,10.1-7.8,11.8c-1.9,0.4-3.9,1-5.9,1.1c-5.2,0.3-8.2,2.5-9.1,8c-0.3,1.9-2.8,4-4.8,4.8
			c-2.3,0.9-5.2,0.9-7.8,0.7c-6.4-0.4-12.6-0.3-18.5,2.7c-2.1,1.1-4.8,1.5-7.3,1.6c-4.3,0.2-6.1,2-7,6.4c-0.9,4-3.7,7.5-5.5,11.3
			c-2.8,6-6.2,11.9-8.1,18.2c-9.8,32.5-19.3,65.1-28.8,97.6c-0.7,2.2-1.4,4.5-2.1,6.7c-2.1,6.2-1.3,8.2,5.3,8.5
			c8.2,0.4,13.9,3.6,16.8,11.4c0.4,1.1,2.1,2.2,3.4,2.5c3.7,0.8,7.5,1.4,11.3,1.5c8.6,0.2,11.9,2.4,13.6,10.8
			c0.9,4.7,3.3,7.7,8.4,10.2c4.4-8.5,8.7-17,13.3-25.3c1.5-2.7,3.3-5.4,5.5-7.5c10.5-10.2,21.1-20.2,31.8-30.2
			c1.4-1.4,3-2.6,4.7-3.6c15.4-9.2,30.8-18.3,46.3-27.3c4.7-2.7,10.2-4.1,14.8-7c8.7-5.5,17-11.6,25.3-17.6c5.5-4,10.9-6.4,18.3-6.1
			c5.6,0.2,11.7-2.9,17.1-5.6c4.1-2,7.1-6,10.9-8.6c4.3-3,8.9-5.7,13.6-8c1.4-0.7,4.2-0.4,5.5,0.6c2.7,2.2,4.8,1.9,7.6,0.4
			c7.3-4,14.5-7.4,23.3-7.8c5.1-0.3,9.9-4.9,14.9-7.6c4.8-2.6,9.3-5.9,14.3-7.9c6.4-2.6,7.6-1.7,9.7,5.2c1.2-0.4,2.4-0.6,3.6-1.1
			c10.8-4.9,21.6-9.9,32.5-14.8c4.7-2.1,9.4-4.1,14.2-5.8c4.1-1.4,6.1,0.8,5.5,4.9c-0.6,4-1.8,7.9-3.1,13.1c3.3-1.3,6.1-2.1,8.6-3.4
			c5-2.7,9.8-5.7,14.7-8.5c5.9-3.4,11.8-6.4,19-7c5.3-0.4,10.4-3.1,15.5-5.2c16-6.7,32.1-6.3,48.2-0.7c1.4,0.5,2.8,0.8,4.2,1.1
			c1.4,0.3,3.8,0.5,3.9,1c0.2,1.7,0,3.8-0.7,5.4c-0.9,1.9-2.5,3.5-4.6,6.4c3.4,0,5.4,0.4,7.1-0.1c5.6-1.4,11.1-3.6,16.8-4.6
			c5.2-0.9,10.7-1.6,15.7-0.4c2.4,0.6,4.2,5.3,5.6,8.4c0.8,1.8,0.6,4.4,0.1,6.4c-1.2,4.9,1.4,5.9,5.3,5.9c12.8,0,25.6-0.4,38.4,0
			c8.1,0.2,15.4,3.3,21.7,9.4c-3.4,4.2-6.4,8.2-9.7,11.8c-4.6,4.9-4.5,10.4,1.5,13.8c7.2,4.2,14.8,7.5,22.3,11.1
			c7.8,3.8,15.7,3,23.7,0.7c2.5-0.7,5.5-0.1,8.3-0.2c1.3,0,2.7,0.1,3.9-0.3c12.5-3.7,25.2-7.1,37.5-11.4c11.1-3.9,22.1-6.1,34-5.8
			c15.1,0.3,30.2-1.1,45.3-1.7c2.2-0.1,4.4,0.2,6.6,0.4c0.1,0.6,0.3,1.2,0.4,1.8c-2.3,1-4.5,2.1-6.8,2.9c-17.6,5.9-35.8,8-54.1,6
			c-12.4-1.4-22.8,3.9-33.7,7.3c-20.3,6.4-40.2,13.9-60.3,21c-1.5,0.5-3.1,1.3-4.2,2.4c-5.6,5.6-11,11.4-16.7,16.9
			c-2.5,2.4-5.5,4.2-8.1,6.5c-2.4,2.1-4.6,4.5-7.8,7.6c2.7,1,4.1,1.5,5.5,2.1c2.3,0.9,4.8,1.6,6.8,2.9c2.8,1.8,3.8,3.6,2.2,7.7
			c-5.6,13.4-16.1,22.2-26.8,30.9c-1.4,1.2-2.9,2.2-4.3,3.4c-2.8,2.5-2.7,5.1-0.3,7.8c2.3,2.6,4.8,5.1,6.8,7.9c2.4,3.3,4.3,7,7,11.6
			c-7.6,5.3-14.5,10.3-21.6,15c-7,4.7-14.1,9.3-21.1,13.8c2.5,3.4,5.1,6.8,7.5,10.4c0.6,0.9,0.7,2.8,0.2,3.5
			c-6,7.6-13.5,12.1-23.7,10.3c-3.4-0.6-7-0.7-10.4-0.5c-3.2,0.1-4.7,1.5-3.4,5.2c1.8,5,3.1,10.1,4.1,15.3c0.3,1.3-0.8,3.3-1.9,4.3
			c-8.3,8.1-18.2,4.9-27.8,3.4c-1.6-0.2-3.1-1.1-4.7-1.6c-4.4-1.3-7.9-0.6-8.8,4.7c-0.5,3.3-2.3,3.6-5.5,3.8
			c-15.4,0.9-25.9-7.6-35.9-17.6c-0.8-0.8-2.3-2-3-1.8c-4.5,1.5-7.4-1.1-9.9-3.9c-8.2-9.5-18.1-16.6-29.8-21.3
			C810.9,723.2,808,722.3,805.1,721.3z M363.2,849.3c0.8,2.7,1.2,4.3,1.8,6c5.2,14.7,10.5,29.4,15.7,44.1
			c5.5,15.5,10.8,31.1,16.3,46.6c0.8,2.3,1.7,5.5,4.9,4.1c1.4-0.6,2.5-3.5,2.5-5.4c0-8.2-0.4-16.3-0.9-24.5
			c-1.4-23.1-3-46.2-4.7-69.2c-0.1-1.5-2.2-4.1-3-4c-7.6,1-13.2-3.9-19.7-6.3c-2.7-1-5.7-1.4-9.1-2.2c0.4,5.3,5.5,8.6,1.9,13
			C367.2,850.9,365.7,850.3,363.2,849.3z M429.8,526.6c4.2-11.9,9.1-23.1,3.8-35.5c-0.6-1.4-3-2.8-4.8-3c-4.4-0.5-9-0.3-13.4-0.6
			c-8.5-0.5-12,2.4-12.1,11c-0.1,16.4,0.2,32.9,0.4,49.3c0,1.1,0.4,2.2,0.6,3.4c0.5,0.1,1,0.1,1.5,0.2c2.9-13.6,11.5-25,14.1-38.7
			c0.3-1.8,0.7-4.4,3.1-2.4c1.6,1.3,3.5,4.5,2.9,5.9C423.9,520.7,426.1,523.3,429.8,526.6z M56.6,577.6c-0.4,0.4-0.7,0.8-1.1,1.2
			c5.8,9.3,47.6,41.7,56,43.5c0.3-0.4,0.6-0.7,0.9-1.1C93.8,606.7,75.2,592.1,56.6,577.6z"/>
		<path fill="#FFFFFF" d="M363.2,849.3c2.5,1,4,1.6,5.7,2.3c3.5-4.5-1.6-7.8-1.9-13c3.4,0.8,6.4,1.2,9.1,2.2
			c6.4,2.4,12,7.3,19.7,6.3c0.9-0.1,2.9,2.5,3,4c1.7,23.1,3.2,46.1,4.7,69.2c0.5,8.1,0.8,16.3,0.9,24.5c0,1.9-1.1,4.8-2.5,5.4
			c-3.2,1.4-4.1-1.8-4.9-4.1c-5.5-15.5-10.8-31.1-16.3-46.6c-5.2-14.7-10.5-29.4-15.7-44.1C364.4,853.6,364,852,363.2,849.3z"/>
		<path fill="#FFFFFF" d="M429.8,526.6c-3.7-3.3-5.9-5.9-3.9-10.4c0.6-1.3-1.3-4.6-2.9-5.9c-2.4-1.9-2.8,0.6-3.1,2.4
			c-2.6,13.7-11.2,25.1-14.1,38.7c-0.5-0.1-1-0.1-1.5-0.2c-0.2-1.1-0.6-2.2-0.6-3.4c-0.2-16.4-0.5-32.9-0.4-49.3
			c0-8.6,3.6-11.5,12.1-11c4.5,0.3,9,0,13.4,0.6c1.7,0.2,4.1,1.5,4.8,3C438.9,503.4,434,514.7,429.8,526.6z"/>
		<path fill="#FFFFFF" d="M56.6,577.6c18.6,14.5,37.2,29.1,55.8,43.6c-0.3,0.4-0.6,0.7-0.9,1.1c-8.5-1.7-50.3-34.2-56-43.5
			C55.9,578.4,56.2,578,56.6,577.6z"/>
	</g>
</g>
</svg>
