<svg xmlns="http://www.w3.org/2000/svg" width="990" height="1071" viewBox="0 0 990 1071" version="1.1">
	<path d="M 140.871 2.799 C 133.237 6.787, 130.723 10.867, 131.198 18.500 C 131.683 26.306, 134.953 32.989, 141.833 40.237 C 148.973 47.758, 151.590 49.190, 177 59.477 C 188.825 64.264, 202.134 70.146, 206.575 72.547 C 256.681 99.642, 330.451 170.245, 335.334 195.778 C 336.604 202.419, 328.899 218.026, 315.965 235.014 C 306.589 247.327, 301.423 253.196, 283.290 272.137 C 263.942 292.346, 244.497 314.559, 222.378 341.722 C 200.662 368.389, 185.501 383.632, 169.463 394.920 C 139.640 415.911, 115.832 434.210, 85.500 459.454 C 56.531 483.564, 38 500.607, 38 503.140 C 38 505.168, 48.818 497.175, 93 462.504 C 145.280 421.479, 175 400.154, 175 403.667 C 175 404.915, 158.671 422.157, 115.005 467.017 C 90.252 492.446, 70 513.683, 70 514.210 C 70 515.957, 76.074 510.654, 124 467.063 C 138.417 453.950, 149.400 445, 151.074 445 C 152.649 445, 150.017 450.213, 144.291 458.432 C 141.200 462.870, 114.298 498.675, 84.507 538 C 54.717 577.325, 26.658 614.563, 22.154 620.750 C 12.408 634.142, -0 652.821, -0 654.104 C -0 654.606, 2.469 653.624, 5.486 651.921 C 8.504 650.218, 11.434 648.978, 11.996 649.165 C 12.559 649.353, 11.850 651.228, 10.421 653.331 C 8.992 655.435, 8.007 657.340, 8.232 657.565 C 9.347 658.681, 25.182 644.057, 50 618.993 C 76.208 592.525, 82.305 586.972, 83.666 588.332 C 84.862 589.529, 81.637 595.155, 76.369 601.059 C 67.893 610.558, 57.574 634.387, 55.024 650.351 C 53.921 657.254, 51.242 664.256, 42.688 682.595 C 39.634 689.143, 36.992 695.188, 36.818 696.030 C 35.903 700.433, 39.505 697.103, 48.546 685.187 C 54.071 677.905, 60.064 670.496, 61.863 668.723 L 65.135 665.500 64.420 669.445 L 63.704 673.389 67.338 670.394 C 74.632 664.382, 90.113 646.175, 94.458 638.500 C 96.015 635.750, 101.668 626.750, 107.020 618.500 C 123.245 593.493, 133.457 574.752, 143.030 552.417 C 149.966 536.236, 158.984 518.557, 163.037 513.193 C 167.108 507.807, 170 506.570, 170 510.216 C 170 518.294, 148.413 575.603, 121.490 639 C 91.784 708.952, 77.633 749.551, 81.037 755.060 C 83.076 758.359, 91.290 747.084, 106.944 719.501 C 112.545 709.630, 119.426 698.167, 122.234 694.027 C 137.848 671.009, 160.710 647.310, 164.065 650.665 C 164.524 651.124, 164.456 653.476, 163.913 655.890 C 161.731 665.603, 164.699 662.561, 175.512 644 C 187.473 623.469, 192 618.754, 192 626.827 C 192 634.872, 183.841 659.344, 170.270 692 C 163.808 707.549, 159 720.439, 159 722.215 C 159 728.053, 177.770 691.880, 198.807 645.500 C 204.295 633.400, 218.001 602.800, 229.264 577.500 C 249.044 533.070, 261.508 506.588, 264.529 502.573 C 270.925 494.074, 263.558 519.569, 230.068 621.834 C 219.021 655.567, 208.609 688.311, 206.932 694.598 C 203.939 705.812, 203.433 712.996, 205.585 713.701 C 208.327 714.600, 216.887 702.992, 225.540 686.644 C 231.994 674.449, 233.351 672.919, 234.992 675.984 C 236.526 678.851, 235.188 682.799, 227.997 696.633 C 211.871 727.654, 171.833 783.624, 130.258 833.264 C 108.072 859.754, 97.963 876.086, 100.856 880.767 C 101.962 882.556, 107.603 878.592, 125.500 863.448 C 145.141 846.830, 151 842.816, 151 845.977 C 151 848.446, 145.294 861.658, 138.957 873.862 C 129.811 891.475, 119.063 909.118, 110.947 919.842 C 107.343 924.604, 101.830 931.873, 98.697 935.995 C 92.774 943.788, 91.651 947, 94.850 947 C 99.311 947, 109.893 937.623, 157.956 891.079 C 202.291 848.144, 216.706 835.372, 218.642 837.308 C 219.475 838.142, 215.048 845.528, 205.941 858.500 C 182.503 891.885, 141.385 964.578, 143.763 968.426 C 145.236 970.808, 161.525 949.861, 186.956 912.882 C 205.253 886.277, 210.326 879.738, 210.792 882.157 C 210.963 883.044, 207.418 894.960, 202.914 908.635 C 196.179 929.090, 194.641 934.936, 194.246 941.596 C 193.728 950.327, 194.802 954, 197.874 954 C 199.908 954, 206.805 944.771, 218.054 927 C 226.803 913.179, 234.769 902.303, 236.679 901.570 C 240.378 900.150, 239.784 904.225, 230.874 941.363 C 227.593 955.038, 225.070 966.710, 225.267 967.302 C 225.777 968.832, 232.226 957.828, 235.856 949.232 C 237.545 945.235, 240.525 936.163, 242.480 929.073 C 250.439 900.201, 267.657 861.190, 282.455 838.500 C 290.211 826.609, 296 821.064, 296 825.528 C 296 829.499, 292.570 859.068, 289.392 882.500 C 277.701 968.691, 274.609 997.009, 276.662 999.062 C 277.409 999.809, 278.365 998.754, 279.899 995.491 C 287.150 980.065, 295.497 932.389, 301.518 872 C 307.209 814.927, 310.733 801.238, 321.098 795.950 C 330.489 791.159, 330.418 793.081, 318.973 853.500 C 310.673 897.318, 307.865 915.007, 307.289 927.110 C 306.633 940.914, 307.324 942.043, 313.025 936.475 C 318.443 931.185, 322.923 922.204, 325.663 911.143 C 328.081 901.381, 328.550 900.217, 329.627 901.294 C 331.324 902.991, 331.914 913.069, 331.920 940.500 C 331.927 971.272, 331.391 984.678, 328.378 1029 C 326.705 1053.622, 326.901 1061.499, 329.133 1059.267 C 332.483 1055.917, 334.829 1031.069, 340.013 944 C 346.673 832.134, 349.400 798.561, 354.050 771.179 C 357.608 750.230, 359.332 745.672, 361.141 752.433 C 362.995 759.367, 364.080 802.474, 365.030 907 C 366.138 1028.955, 367.015 1053.348, 370.413 1056.746 C 373.654 1059.987, 374.156 1036.178, 373.822 895 C 373.523 768.223, 373.841 746.166, 375.948 747.468 C 376.805 747.998, 378.338 759.423, 380.043 778 C 382.644 806.332, 386.014 814.933, 389.545 802.250 C 393.492 788.070, 395.049 785.319, 396.359 790.209 C 397.475 794.374, 396.969 833.124, 395.500 856 C 392.260 906.468, 394.502 970.307, 400.542 999.550 C 402.502 1009.040, 403.827 1012, 406.115 1012 C 408.079 1012, 408.474 1010.425, 409.500 998.500 C 409.832 994.650, 410.787 990.454, 411.623 989.176 C 413.006 987.062, 413.341 986.980, 415.322 988.277 C 416.520 989.061, 419.412 993.594, 421.749 998.351 C 424.086 1003.108, 426.428 1007, 426.954 1007 C 429.004 1007, 429.265 998.087, 428.398 957.552 C 427.143 898.798, 427.330 847.207, 428.830 838.154 C 430.181 830.006, 432.321 825, 434.453 825 C 439.140 825, 448.398 846.030, 459.985 883 C 462.829 892.075, 470.537 918.175, 477.113 941 C 490.250 986.594, 496.206 1005.367, 510.030 1044.750 C 518.162 1067.916, 521 1074.354, 521 1069.638 C 521 1067.292, 516.235 1044.751, 511.076 1022.686 C 504.708 995.456, 503 986.940, 503 982.420 C 503 979.196, 503.190 978.913, 504.577 980.064 C 506.615 981.755, 514.190 994.742, 526.997 1018.500 C 538.750 1040.303, 541.313 1044.329, 541.806 1041.768 C 541.987 1040.827, 536.499 1023.057, 529.611 1002.279 C 522.722 981.500, 516.166 961.134, 515.043 957.020 C 512.961 949.398, 512.352 942, 513.806 942 C 514.249 942, 516.161 943.148, 518.056 944.551 C 521.357 946.996, 521.513 947.019, 521.812 945.107 C 521.984 944.010, 518.533 933.974, 514.142 922.806 C 505.765 901.493, 502.401 891.266, 503.430 890.236 C 503.769 889.898, 504.736 890.606, 505.580 891.810 C 508.137 895.462, 517.499 893.845, 518.572 889.567 C 518.908 888.229, 516.736 879.953, 513.152 868.917 C 505.207 844.448, 497.805 817.221, 480.010 747 C 463.944 683.603, 459.846 668.363, 454.326 651.500 C 446.337 627.094, 439.136 611.570, 426.845 592.257 C 419.194 580.234, 413.517 568.378, 411.400 560.002 C 409.200 551.300, 410.013 543.695, 414.543 530.578 C 416.537 524.804, 417.879 519.612, 417.525 519.040 C 417.171 518.468, 416.045 518, 415.023 518 C 407.762 518, 408.158 514.225, 416.623 502.725 C 422.002 495.419, 422.145 494, 417.500 494 C 413.208 494, 413.130 492.965, 417.056 488.080 C 421.405 482.668, 422.976 476.419, 423.887 460.909 C 425.064 440.872, 425.621 440.734, 434.060 458.394 C 444.557 480.361, 459.932 520.325, 481.877 582.683 C 497.512 627.107, 507.037 651.961, 519.745 681.490 C 532.466 711.048, 537.653 722, 538.932 722 C 540.419 722, 540.362 721.632, 537.063 709.923 C 528.430 679.290, 502.518 606.346, 479.073 546.678 C 455.134 485.754, 437.949 433.418, 433.280 407.213 C 431.947 399.734, 431.856 397.288, 432.812 394.642 C 434.388 390.284, 434.260 385.078, 432.500 382 C 430.397 378.321, 430.686 376.020, 433.591 373.328 C 436.137 370.969, 436.169 370.767, 435.477 361.530 C 434.847 353.129, 435.021 351.438, 437.122 345.582 L 439.471 339.030 437.526 335.418 C 435.165 331.034, 435.318 327.766, 438.064 323.910 C 439.663 321.664, 440.920 321, 443.568 321 C 458.615 321, 487.423 384.205, 530.164 510.995 C 555.110 584.999, 582.727 654.081, 604.123 696 C 612.598 712.605, 615.073 716.485, 616.805 715.882 C 618.232 715.385, 615.801 708.247, 602.125 672.776 C 589.904 641.080, 578.289 609.410, 555.995 547 C 521.174 449.519, 513.542 431.281, 471.261 344.500 C 451.006 302.925, 441.749 282.487, 442.197 280.325 C 442.656 278.111, 457.755 292.012, 500.500 334 C 540.941 373.725, 561.668 393.490, 585.016 414.589 C 638.164 462.620, 698.588 509.700, 772.500 560.670 C 791.398 573.701, 798.259 577.839, 797.442 575.710 C 796.197 572.465, 769.491 550.052, 709 501.485 C 602.800 416.220, 554.897 374.870, 506.887 327.025 C 462.971 283.260, 455.374 273.528, 454.257 259.609 C 453.757 253.386, 453.865 252.982, 456.791 250.056 C 458.851 247.995, 460.831 247, 462.871 247 C 468.005 247, 481.312 251.763, 493.175 257.848 C 517.500 270.324, 540.388 285.527, 583 317.511 C 648.546 366.709, 694.929 396.936, 737.816 418.400 C 759.203 429.104, 789.556 441.778, 790.807 440.527 C 791.096 440.237, 791.146 439.848, 790.917 439.662 C 788.161 437.427, 777.953 431.295, 761.500 421.993 C 739.861 409.758, 716.707 396.061, 713.500 393.599 C 711.540 392.094, 711.550 392.063, 714.008 392.032 C 717.641 391.986, 746.782 406.698, 774.500 422.574 C 812.734 444.472, 840.503 457.263, 860.641 462.254 C 874.890 465.785, 877.389 463.121, 869.009 453.331 C 866.264 450.124, 864.014 447.163, 864.009 446.750 C 864.004 446.337, 866.138 445.993, 868.750 445.985 C 871.362 445.976, 874.096 445.592, 874.824 445.130 C 878.184 443, 869.687 438.483, 835.500 424.228 C 779.362 400.820, 733.484 376.753, 682 343.706 C 654.683 326.171, 636.822 313.327, 601 285.456 C 566.631 258.717, 534.019 236.930, 508.464 223.637 C 487.429 212.695, 489.386 207.196, 513.928 208.285 C 536.967 209.308, 566.944 215.495, 613.516 228.841 C 715.877 258.174, 793.941 275.203, 850 280.428 C 894.631 284.587, 969.697 288.364, 967.682 286.348 C 967.323 285.990, 964.239 284.753, 960.827 283.598 C 957.415 282.444, 954.435 280.905, 954.204 280.178 C 953.865 279.108, 956.228 278.977, 966.643 279.486 C 979.435 280.112, 988.891 278.885, 989.323 276.544 C 989.619 274.943, 982.795 273.396, 918.500 260.492 C 843.350 245.410, 790.037 235.290, 739.500 226.512 C 699.155 219.505, 678.102 215.247, 653 209.015 C 610.684 198.510, 518.159 181.324, 475.057 175.962 C 465.464 174.769, 456.689 173.432, 455.557 172.992 C 453.715 172.274, 453.918 172, 457.500 170.371 C 460.919 168.816, 464.041 168.570, 479 168.673 C 519.318 168.952, 603.429 179.943, 691.790 196.479 C 704.830 198.919, 723.825 202.040, 734 203.415 C 777.932 209.349, 893.064 221.034, 906.962 220.970 C 915.088 220.932, 913.712 219.934, 900.838 216.531 C 874.115 209.466, 848.119 205.822, 786.500 200.504 C 733.661 195.944, 694.384 190.906, 662.053 184.542 C 543.490 161.205, 463.513 158.235, 381.183 174.113 C 368.412 176.576, 364.349 177.024, 362.491 176.178 C 361.185 175.583, 357.409 171.070, 354.101 166.150 C 350.792 161.230, 346.048 155.535, 343.558 153.494 C 341.068 151.453, 335.015 144.770, 330.108 138.642 C 314.878 119.621, 294.764 102.237, 264.731 82.137 C 254.473 75.272, 247.281 69.022, 244 64.124 C 243.095 62.773, 240.781 61.502, 238.164 60.918 C 233.379 59.851, 225.423 55.083, 217.062 48.273 C 214.064 45.831, 209.111 42.563, 206.055 41.011 C 202.259 39.083, 198.162 35.604, 193.118 30.024 C 187.753 24.090, 184.327 21.235, 180.583 19.579 C 177.064 18.023, 173.528 15.192, 169.430 10.652 C 159.360 -0.506, 151.391 -2.697, 140.871 2.799 M 404 184.581 C 397.857 185.673, 394 187.185, 394 188.502 C 394 192.401, 419.598 195.440, 495 200.492 C 549.007 204.111, 565.596 204.935, 568.546 204.146 C 571.045 203.478, 571.077 203.381, 569.327 201.817 C 563.742 196.827, 528.917 190.695, 482 186.441 C 465.537 184.948, 409.455 183.611, 404 184.581 M 447.603 212.834 C 446.285 214.965, 456.954 220.691, 480.256 230.360 C 497.636 237.571, 510.101 242, 513.017 242 C 521.108 242, 494.761 227.737, 469 218.171 C 454.190 212.671, 448.570 211.269, 447.603 212.834 M 662.234 226.755 C 660.007 227.498, 662.845 230.888, 667.786 233.388 C 683.390 241.283, 721.927 251.019, 767.410 258.555 C 796.819 263.428, 860.901 270.499, 862.368 269.032 C 864.924 266.476, 857.751 264.343, 825 257.917 C 810.975 255.165, 772.275 247.489, 739 240.858 C 674.701 228.045, 664.170 226.110, 662.234 226.755 M 282.401 310.750 C 277.613 315.610, 264.118 332.455, 261.095 337.346 C 257.777 342.715, 259.617 344.153, 264.415 339.940 C 271.968 333.309, 290.058 307, 287.065 307 C 286.532 307, 284.434 308.688, 282.401 310.750 M 360.590 360.750 C 357.949 373.528, 355.615 439.243, 355.554 502.500 C 355.509 550.391, 355.740 560.299, 357 564.500 C 358.784 570.447, 360.989 571.034, 362.636 566 C 363.266 564.075, 364.766 554.625, 365.969 545 C 367.172 535.375, 369.269 521.650, 370.628 514.500 C 371.988 507.350, 373.856 497.450, 374.780 492.500 C 377.214 479.463, 377.170 417.368, 374.713 398.185 C 371.351 371.940, 367.308 358, 363.059 358 C 361.791 358, 360.970 358.914, 360.590 360.750 M 378.516 359.950 C 377.456 363.290, 381.147 385.263, 383.136 387.450 C 384.651 389.116, 384.484 369.826, 382.932 363.866 C 381.690 359.098, 379.424 357.088, 378.516 359.950 M 326.532 368.773 C 320.507 373.336, 316.570 379.484, 314.533 387.508 C 312.345 396.128, 311.033 418.620, 311.005 448 C 310.975 478.407, 309.655 498.895, 306.847 512.500 C 305.712 518, 301.426 534.425, 297.322 549 C 281.337 605.779, 277.427 622.093, 278.668 626.838 C 279.832 631.291, 283.690 629.362, 300.721 615.810 C 323.263 597.874, 329.870 589.135, 331.954 574.500 C 332.502 570.650, 333.408 552.650, 333.967 534.500 C 334.646 512.461, 335.798 494.193, 337.435 479.500 C 341.429 443.673, 342.298 430.727, 342.303 407 C 342.306 389.890, 341.917 382.730, 340.679 377.113 C 337.790 364.006, 334.998 362.361, 326.532 368.773 M 205.004 392.750 C 195.861 402.193, 168.786 439.058, 163.068 449.849 C 161.998 451.868, 162.035 452.079, 163.328 451.349 C 168.232 448.580, 216 389.667, 216 386.387 C 216 383.189, 212.046 385.477, 205.004 392.750 M 221.881 443.250 C 214.761 454.077, 205.387 472.885, 204.442 478.239 C 203.916 481.215, 204.124 482.110, 205.458 482.622 C 207.865 483.546, 208.959 482.005, 209.864 476.416 C 210.413 473.028, 211.606 470.499, 213.703 468.281 C 218.149 463.576, 230 439.432, 230 435.079 C 230 432.223, 227.433 434.806, 221.881 443.250 M 141.303 479.250 C 137.337 483.348, 131 492.541, 131 494.196 C 131 498.180, 141.819 487.195, 146.036 478.929 C 148.764 473.582, 146.650 473.725, 141.303 479.250 M 253.658 482.994 C 249.843 487.528, 225.832 526.326, 219.018 538.967 C 208.235 558.970, 195.127 588.460, 196.436 589.770 C 197.490 590.823, 200.394 587.282, 208.502 575.054 C 219.913 557.847, 229.220 541.383, 241.953 515.885 C 251.907 495.951, 257.897 481.563, 256.727 480.394 C 256.464 480.131, 255.083 481.301, 253.658 482.994 M 191.557 518.205 C 185.028 525.833, 166 567.456, 166 574.111 C 166 576.285, 166.025 576.288, 168.143 574.405 C 175.496 567.868, 195.346 529.602, 197.531 517.750 C 198.485 512.578, 196.226 512.749, 191.557 518.205 M 285.792 535.010 C 280.453 542.857, 248.322 643.003, 244.973 662.233 C 244.244 666.422, 244.162 669.468, 244.752 670.521 C 246.932 674.417, 257.154 658.101, 263.478 640.632 C 274.314 610.696, 288.539 550.527, 287.802 537.742 L 287.500 532.500 285.792 535.010 M 419.074 603.750 C 423.929 617.946, 443.168 653, 446.105 653 C 448.880 653, 442.708 636.482, 434.522 622 C 428.313 611.016, 419.368 598, 418.028 598 C 417.522 598, 417.993 600.587, 419.074 603.750 M 307.942 628.393 C 304.753 630.560, 299 637.580, 299 639.304 C 299 642.085, 306.096 637.231, 310.089 631.719 C 314.605 625.484, 313.878 624.359, 307.942 628.393 M 288.125 687.704 C 281.779 690.838, 273.797 704.671, 263.861 729.754 C 258.106 744.280, 251 764.646, 251 766.611 C 251 770.657, 255.688 766.127, 269.743 748.500 C 290.740 722.168, 301 704.401, 301 694.374 C 301 690.857, 298.166 687, 295.582 687 C 294.802 687, 293.564 686.783, 292.832 686.519 C 292.099 686.254, 289.981 686.788, 288.125 687.704 M 235.750 706.195 C 226.399 717.783, 192.746 767.130, 188.012 776.197 C 184.957 782.048, 186.203 783.669, 190.167 779 C 203.686 763.077, 241.683 704.350, 239.729 702.396 C 239.451 702.118, 237.660 703.828, 235.750 706.195 M 224.793 778.398 C 219.454 784.081, 213.549 789.461, 211.670 790.352 C 209.792 791.244, 205.518 794.898, 202.174 798.474 C 187.867 813.767, 162.064 851.397, 164.329 853.663 C 165.280 854.614, 171.177 850.401, 184.994 838.900 C 216.884 812.353, 235.075 789.362, 236.708 773.537 C 237.157 769.195, 236.980 768.007, 235.890 768.032 C 235.125 768.050, 230.132 772.715, 224.793 778.398 M 445 795.788 C 445 805.034, 469.098 880.364, 474.650 888.473 C 475.994 890.436, 476 890.436, 475.999 888.473 C 475.994 880.702, 455.175 809.124, 449.700 798.051 C 447.017 792.625, 445 791.654, 445 795.788 M 417.591 818.622 C 414.564 826.510, 411.478 870.941, 413.855 872.410 C 415.459 873.402, 416.770 869.471, 418.445 858.645 C 420.429 845.819, 421.334 830.188, 420.506 823.052 C 419.809 817.050, 418.790 815.500, 417.591 818.622 M 247.400 831.852 C 239.794 837.414, 228.656 850.495, 227.466 855.263 C 226.794 857.957, 228.202 861, 230.120 861 C 231.803 861, 238.993 853.754, 243.855 847.157 C 248.102 841.393, 254 831.148, 254 829.533 C 254 828.184, 250.952 829.254, 247.400 831.852" stroke="none" fill="black" fill-rule="evenodd"/>
</svg>