<?xml version="1.0" standalone="no"?>
<!DOCTYPE svg PUBLIC "-//W3C//DTD SVG 20010904//EN"
 "http://www.w3.org/TR/2001/REC-SVG-20010904/DTD/svg10.dtd">
<svg version="1.0" xmlns="http://www.w3.org/2000/svg"
 width="485.000000pt" height="588.000000pt" viewBox="0 0 485.000000 588.000000"
 preserveAspectRatio="xMidYMid meet">
<metadata>
Created by potrace 1.16, written by Peter Selinger 2001-2019
</metadata>
<g transform="translate(0.000000,588.000000) scale(0.100000,-0.100000)"
fill="#000000" stroke="none">
<path d="M2090 5860 c0 -6 -9 -20 -19 -32 -11 -11 -36 -53 -56 -92 -21 -39
-41 -76 -46 -82 -5 -7 -16 -37 -24 -69 -9 -32 -19 -63 -23 -69 -4 -6 -12 -29
-18 -51 -22 -77 -62 -176 -77 -193 -8 -9 -22 -44 -31 -77 -20 -73 -21 -75 -13
-100 5 -15 -4 -31 -38 -65 -25 -25 -53 -58 -62 -75 -35 -64 -93 -134 -114
-137 -14 -2 -31 -19 -47 -48 -26 -47 -88 -110 -109 -110 -7 0 -13 -4 -13 -10
0 -5 -15 -10 -33 -10 -34 0 -60 -19 -81 -62 -10 -19 -21 -27 -66 -48 -13 -6
-44 -52 -72 -107 -6 -13 -21 -23 -32 -23 -25 0 -50 -26 -96 -100 -19 -30 -40
-62 -47 -70 -54 -68 -66 -79 -86 -77 -18 2 -30 -13 -68 -87 -34 -67 -55 -96
-82 -113 -26 -16 -46 -43 -67 -86 -53 -108 -73 -137 -97 -137 -31 0 -66 -51
-95 -135 -19 -56 -28 -71 -46 -73 -30 -4 -58 -52 -67 -111 -4 -25 -13 -57 -20
-71 -7 -14 -21 -42 -30 -62 -10 -24 -23 -38 -34 -38 -29 0 -41 -23 -56 -109
-17 -96 -39 -151 -59 -151 -25 0 -33 -30 -41 -153 -7 -117 -8 -119 -40 -151
l-33 -34 1 -107 c1 -101 0 -109 -21 -123 -27 -17 -28 -50 -6 -116 13 -37 14
-53 5 -72 -9 -20 -6 -40 16 -105 23 -71 25 -85 14 -115 -15 -41 0 -75 66 -149
40 -44 45 -53 40 -87 -7 -49 15 -77 88 -112 74 -35 144 -87 145 -107 1 -37 37
-53 143 -60 109 -9 186 -22 216 -39 11 -5 29 -10 41 -10 12 0 31 -11 42 -25
22 -28 44 -31 108 -11 73 22 157 31 287 31 111 -1 125 -3 153 -23 29 -22 31
-22 86 -6 53 15 59 15 142 -6 48 -12 99 -30 113 -40 21 -15 53 -19 199 -23
113 -4 175 -9 180 -17 5 -8 33 -9 108 0 103 11 190 7 223 -11 21 -11 26 -37
34 -174 12 -200 31 -381 70 -680 8 -60 22 -173 30 -250 20 -183 25 -205 40
-205 10 0 12 10 10 32 -6 47 -33 250 -45 333 -49 358 -68 558 -72 762 -3 157
-2 163 20 185 16 16 36 23 65 25 23 0 78 2 122 4 44 1 85 5 90 9 14 10 180 30
253 30 33 0 64 4 67 10 10 16 135 50 186 50 33 0 51 5 57 16 5 9 42 27 83 41
61 21 96 26 200 28 94 2 132 7 150 18 33 22 128 36 303 46 146 8 150 9 173 36
13 15 59 42 103 61 44 19 91 46 104 59 14 14 57 40 97 60 89 43 99 51 99 82 0
17 20 47 60 90 62 66 68 80 48 112 -10 16 -6 31 20 88 35 76 40 111 17 119
-20 8 -20 103 1 184 18 71 13 110 -15 110 -16 0 -21 10 -26 55 -4 30 -4 80 0
110 8 66 -8 125 -34 125 -22 0 -68 118 -77 197 -8 70 -28 113 -53 113 -30 0
-97 119 -116 205 -9 42 -47 95 -67 95 -45 0 -121 115 -147 225 -14 57 -26 75
-52 75 -22 0 -58 54 -105 156 -35 77 -76 129 -96 121 -18 -6 -116 64 -211 151
-67 61 -84 72 -106 67 -22 -4 -38 6 -99 60 -40 36 -81 65 -92 65 -10 0 -42 26
-72 60 -32 37 -56 56 -62 50 -12 -12 -29 -2 -121 74 -44 37 -87 66 -97 66 -10
0 -34 16 -54 35 -19 19 -38 36 -42 36 -4 1 -17 3 -29 4 -25 3 -93 54 -141 108
-26 28 -42 37 -67 37 -36 0 -109 57 -134 104 -8 14 -23 26 -33 26 -10 0 -50
29 -89 65 -39 36 -76 65 -82 66 -19 0 -85 93 -123 173 -19 41 -46 81 -59 90
-14 9 -25 23 -25 31 0 14 -82 191 -97 210 -14 17 -59 117 -79 173 -16 47 -34
69 -34 42z m24 -256 c13 -83 16 -140 11 -199 -8 -90 7 -210 32 -259 11 -21 13
-45 8 -97 -6 -62 -4 -75 24 -142 25 -62 29 -83 24 -124 -3 -28 -1 -57 3 -66 8
-14 14 -13 51 11 46 30 116 133 149 220 21 57 44 80 44 44 0 -29 -37 -130 -66
-181 -33 -57 -76 -104 -131 -142 -41 -28 -43 -33 -43 -78 0 -27 7 -66 16 -87
9 -22 21 -66 26 -99 5 -33 12 -82 16 -110 5 -27 19 -79 32 -114 l24 -65 84 90
c80 86 165 214 211 318 12 27 31 97 42 155 24 123 39 150 39 71 -1 -98 -30
-190 -108 -346 -43 -86 -67 -118 -157 -212 l-106 -110 -11 -85 c-12 -88 -11
-89 37 -165 1 -1 65 40 143 90 77 51 207 136 288 188 146 95 147 95 175 159
16 35 41 77 54 93 42 50 56 94 45 142 -9 43 -4 86 10 86 5 0 12 -30 16 -67 8
-81 -1 -112 -66 -209 -26 -39 -50 -83 -53 -96 -7 -28 -153 -131 -362 -258
-133 -80 -221 -144 -235 -170 -9 -16 14 -412 25 -442 4 -9 -1 -44 -10 -79 -16
-62 -14 -122 5 -134 6 -4 74 33 152 82 201 125 352 269 538 511 76 100 178
225 226 277 59 65 96 114 109 148 12 29 29 53 38 55 32 6 -37 -134 -96 -197
-86 -92 -139 -159 -237 -300 -167 -241 -348 -417 -568 -555 -89 -56 -142 -95
-142 -105 0 -9 6 -66 14 -126 8 -61 20 -186 27 -278 9 -125 15 -167 24 -163
19 7 320 232 390 290 204 172 314 295 415 466 41 69 84 136 96 150 13 14 37
58 53 97 41 101 121 244 132 238 5 -3 -11 -43 -35 -88 -24 -45 -56 -116 -71
-157 -16 -41 -40 -89 -55 -106 -14 -17 -57 -84 -95 -150 -37 -65 -88 -141
-114 -169 -25 -27 -62 -71 -81 -97 -19 -26 -43 -50 -54 -54 -10 -3 -56 -41
-102 -84 -88 -81 -141 -123 -358 -280 l-128 -94 7 -80 c4 -45 11 -160 14 -258
l6 -176 209 124 c303 180 457 306 667 545 l161 184 101 200 c115 230 141 301
206 555 49 195 56 214 72 204 14 -8 6 -50 -53 -294 -61 -254 -93 -345 -164
-472 -31 -55 -72 -134 -91 -176 -28 -60 -56 -98 -125 -170 -48 -51 -121 -135
-161 -187 -106 -138 -261 -256 -576 -441 l-250 -146 6 -177 c3 -97 8 -202 12
-233 l6 -58 30 28 c41 36 59 47 135 83 36 17 73 34 82 39 9 5 56 25 105 44
158 62 319 145 388 202 17 14 55 44 86 68 154 117 339 298 339 331 0 4 20 35
45 69 25 35 45 68 45 74 0 6 8 17 18 24 43 32 162 197 162 225 0 7 22 45 49
85 61 92 73 114 76 147 8 80 20 129 35 151 24 35 87 173 94 207 25 115 25 215
0 377 -6 39 -4 48 7 44 17 -6 27 -47 38 -161 11 -99 -9 -279 -33 -306 -7 -9
-17 -27 -21 -41 -4 -14 -25 -57 -47 -96 -27 -50 -43 -97 -53 -153 -10 -58 -24
-99 -49 -139 -19 -31 -50 -90 -70 -131 -19 -40 -53 -94 -73 -119 -71 -85 -117
-147 -196 -267 -44 -66 -87 -124 -96 -129 -9 -5 -42 -35 -74 -67 -32 -33 -74
-67 -95 -78 -20 -10 -66 -46 -102 -78 -36 -33 -96 -76 -135 -97 -38 -22 -77
-44 -85 -51 -17 -14 -174 -85 -334 -152 -60 -25 -127 -56 -150 -69 -63 -36
-126 -95 -126 -119 0 -18 -5 -20 -35 -17 -24 3 -35 9 -35 21 0 23 -90 75 -175
102 -38 11 -110 34 -160 50 -49 15 -128 35 -175 45 -47 9 -107 25 -133 35 -26
11 -59 19 -72 19 -13 0 -75 18 -137 40 -62 22 -123 40 -135 40 -13 0 -69 22
-125 49 -57 28 -134 57 -172 65 -54 13 -86 28 -153 76 -46 33 -121 79 -166
101 -165 83 -300 171 -371 241 -39 38 -86 78 -105 88 -20 10 -45 28 -56 40
-11 13 -37 30 -59 39 -34 15 -41 24 -57 76 -19 62 -26 185 -10 185 14 0 21
-28 21 -85 0 -71 30 -140 64 -149 14 -3 30 -15 36 -26 6 -11 42 -36 79 -55 46
-23 76 -45 89 -67 11 -18 33 -45 49 -59 36 -33 205 -132 303 -177 74 -34 132
-72 219 -142 31 -24 62 -39 105 -47 34 -7 103 -33 154 -58 52 -25 103 -45 113
-45 11 0 33 -7 48 -15 16 -8 48 -18 72 -21 24 -4 67 -18 94 -31 28 -12 65 -23
83 -23 18 0 51 -9 72 -20 22 -11 84 -29 138 -40 53 -11 113 -27 132 -35 19 -8
86 -28 148 -45 109 -29 204 -68 217 -90 3 -5 11 -10 17 -10 10 0 5 288 -8 456
l-5 71 -47 23 c-50 24 -432 158 -545 191 -68 19 -189 75 -237 109 -14 10 -72
39 -129 64 -61 27 -129 67 -169 98 -36 29 -87 64 -113 78 -53 28 -223 153
-284 210 -22 20 -65 52 -95 71 -69 43 -208 182 -217 217 -3 15 -23 54 -45 88
-42 67 -50 98 -19 70 28 -25 91 -131 91 -153 0 -27 147 -166 207 -197 29 -14
65 -42 80 -61 15 -20 58 -54 95 -76 36 -22 92 -63 123 -90 31 -27 69 -56 85
-64 16 -8 57 -35 92 -58 35 -24 83 -54 108 -66 25 -13 122 -63 215 -111 137
-71 205 -99 350 -145 235 -74 381 -124 428 -147 22 -11 40 -18 41 -16 2 2 -1
98 -5 213 -7 212 -16 325 -28 342 -16 25 -376 204 -476 237 -28 9 -87 41 -130
72 -44 31 -100 66 -125 79 -68 34 -264 175 -353 252 -158 136 -211 190 -292
296 -71 92 -84 115 -90 159 -4 28 -16 81 -26 117 -11 36 -19 93 -19 127 0 66
25 164 41 164 7 0 8 -7 4 -17 -15 -39 -24 -186 -13 -207 6 -12 19 -65 29 -119
10 -54 26 -110 36 -126 67 -105 204 -252 339 -364 173 -144 541 -386 618 -406
22 -6 134 -57 249 -114 114 -56 207 -98 207 -92 0 47 -52 522 -61 562 l-12 53
-111 67 c-121 73 -263 165 -341 221 -65 47 -453 431 -461 457 -4 11 -26 53
-50 93 -24 40 -44 81 -44 90 0 10 -15 49 -33 87 -40 83 -52 143 -35 182 11 27
12 25 20 -36 5 -36 20 -85 33 -110 13 -26 26 -62 29 -81 4 -19 24 -61 45 -95
21 -33 42 -71 46 -85 4 -13 96 -115 203 -225 176 -180 209 -209 336 -294 185
-124 357 -233 360 -229 2 2 8 30 15 63 10 49 9 85 -3 198 -9 77 -16 174 -16
218 0 78 -26 176 -55 207 -6 7 -68 41 -136 75 -178 90 -317 192 -396 292 -69
87 -153 239 -153 277 1 15 17 -8 48 -67 50 -96 124 -205 163 -242 61 -56 265
-190 363 -239 60 -30 112 -54 116 -54 3 0 12 27 18 60 9 50 8 67 -5 98 -30 71
-83 257 -83 290 0 60 -21 123 -44 131 -163 58 -184 68 -223 104 -70 65 -182
234 -166 251 7 7 33 -13 33 -26 0 -14 115 -180 141 -205 13 -12 70 -39 125
-61 l102 -40 6 40 c12 75 -5 218 -36 303 -27 74 -29 84 -18 137 9 47 8 63 -5
95 -32 75 -46 169 -37 251 8 72 4 171 -13 291 -5 41 -4 51 7 51 11 0 19 -30
32 -116z"/>
</g>
</svg>
