<?xml version="1.0" encoding="UTF-8" standalone="no"?>
<!-- Created with Inkscape (http://www.inkscape.org/) -->

<svg
   xmlns:svg="http://www.w3.org/2000/svg"
   xmlns="http://www.w3.org/2000/svg"
   version="1.1"
   width="100%"
   height="100%"
   viewBox="0 0 700.1 848"
   id="Layer_1"
   xml:space="preserve"><defs
   id="defs7" />
<path
   d="m 202.2,486.8 c 2.7,-5.4 6,-10.8 8.1,-16.6 8.2,-22 16.5,-43.9 23.9,-66.1 11.3,-34.2 21.8,-68.6 32.6,-102.9 7.7,-24.4 15.2,-48.9 23.1,-73.2 6.7,-20.3 13.3,-40.6 21.1,-60.4 10.9,-27.9 22.7,-55.5 34.2,-83.2 1.3,-3 2.7,-6 4.3,-8.9 2.5,-4.5 3.4,-8.6 1.1,-13.9 -2,-4.6 -3.4,-9.9 2.2,-14.7 3.5,-2.9 4.7,-8.4 7,-12.7 1.7,-3.2 3.3,-6.6 5.4,-9.6 4.7,-6.7 9.9,-12.7 18.4,-15.1 2.1,-0.6 4.2,-3.2 5.1,-5.4 1.5,-3.8 3.1,-5.3 6.9,-2.8 0.9,0.6 2.3,0.1 3.4,0.5 1.2,0.4 3.1,1.4 3.1,1.9 -0.8,6.8 5.2,10.9 6.3,17.1 2,11.6 6.8,23 1.3,35 -0.6,1.3 -0.3,2.9 -0.3,4.4 -0.3,6.7 -1.6,13 -5,18.9 -1.2,2.1 -0.8,5.6 -0.1,8.1 9.3,32 18.6,64 28.3,95.9 3.3,10.7 7.9,20.9 11.5,31.5 2.2,6.4 3.3,13.1 5.3,19.5 9.6,30.8 19.2,61.5 29,92.2 7.3,22.9 14.8,45.7 22.2,68.6 4,12.4 8.2,24.7 12,37.1 3.8,12.3 7.4,24.6 10.7,37.1 1,3.9 3.2,5.1 6.6,5.7 12.1,2.3 24.5,3.7 36.2,7.3 16,5 31.5,11.6 47.1,17.7 6.7,2.7 12.3,7 20.7,6.1 9.6,-1 17.8,5.2 24.8,11.6 20.3,18.2 34.9,40.1 39.4,67.3 2.2,13.5 2.5,27.5 2,41.1 -0.5,13.9 -2.9,27.7 -5,41.5 -2.6,17.7 -8.9,34.3 -16.8,50.2 -15.4,31 -34.1,59.6 -61,82 -11.6,9.7 -22.4,20.5 -35,28.6 -31.9,20.8 -66.7,24 -103.2,13.7 -13.6,-3.8 -27.7,-6.6 -38.5,-16.3 -6.9,-6.3 -13,-13.7 -18.7,-21.1 -5.8,-7.6 -11.1,-15.7 -15.9,-24 -8.1,-13.9 -15.5,-28.2 -23.6,-42.1 -10.4,-17.8 -17.8,-36.7 -21.5,-57 -0.1,-0.6 -0.5,-1.2 -1.1,-2.7 -1.6,4.2 -3.1,7.6 -4.3,11.1 -5,14.5 -12.2,27.8 -20.6,40.6 -13.3,20.4 -29,39 -47.2,55.1 -15.3,13.5 -30.4,27.7 -47.6,38.4 -23.3,14.6 -48.7,25.3 -77.4,23.7 -32.3,-1.8 -62.6,-9.9 -88.3,-30.5 C 59.9,805.5 47.7,791.4 37.5,775.7 22.3,752.6 13.3,726.6 6,700.1 -0.8,675.5 -0.7,650 0.9,624.7 c 0.9,-14.4 2.5,-28.9 5.5,-43 5.9,-27.8 15.7,-54.1 34,-76.5 14.9,-18.1 31.5,-33.8 55.2,-39.5 13.4,-3.2 26.9,-3 40.5,-0.5 22.8,4.1 43.8,13.2 66.1,21.6 z M 374.1,78.5 c -2.6,3.2 -4.8,4.9 -5.8,7.1 -10,21.8 -20.4,43.4 -29.5,65.6 -9.8,23.8 -18.8,48 -27.2,72.3 -8.7,25.2 -16.4,50.8 -24.3,76.3 -9.2,29.7 -18,59.6 -27.1,89.4 -6.9,22.5 -14,45 -20.9,67.5 -3.5,11.3 -6.6,22.7 -10,34.2 1.1,0.4 1.8,0.8 2.6,0.9 13,1.7 25.9,3.3 38.9,5 12.9,1.8 25.4,5.6 36.3,12.7 25.8,16.8 40.9,41.8 51.2,70.1 0.7,2 1.6,3.9 3,7.1 0.7,-3.4 1,-5.1 1.5,-6.8 5.6,-21.4 14.6,-41.3 27,-59.5 20.8,-30.3 49.9,-46.1 86.4,-48.5 8.2,-0.5 16.4,-1 26.1,-1.5 C 462.5,338.9 422.1,208.3 374.1,78.5 z"
   id="path3" />
</svg>