<?xml version="1.0" encoding="UTF-8" standalone="no"?>
<!-- Created with Inkscape (http://www.inkscape.org/) -->

<svg
   width="89.338486mm"
   height="148.34152mm"
   viewBox="0 0 89.338488 148.34152"
   version="1.1"
   id="svg1299"
   inkscape:version="1.1.1 (3bf5ae0d25, 2021-09-20)"
   sodipodi:docname="quercus.svg"
   xmlns:inkscape="http://www.inkscape.org/namespaces/inkscape"
   xmlns:sodipodi="http://sodipodi.sourceforge.net/DTD/sodipodi-0.dtd"
   xmlns="http://www.w3.org/2000/svg"
   xmlns:svg="http://www.w3.org/2000/svg">
  <sodipodi:namedview
     id="namedview1301"
     pagecolor="#ffffff"
     bordercolor="#666666"
     borderopacity="1.0"
     inkscape:pageshadow="2"
     inkscape:pageopacity="0.0"
     inkscape:pagecheckerboard="0"
     inkscape:document-units="mm"
     showgrid="false"
     fit-margin-top="0"
     fit-margin-left="0"
     fit-margin-right="0"
     fit-margin-bottom="0"
     inkscape:zoom="0.50898197"
     inkscape:cx="168.96473"
     inkscape:cy="280.95298"
     inkscape:window-width="1920"
     inkscape:window-height="986"
     inkscape:window-x="-11"
     inkscape:window-y="-11"
     inkscape:window-maximized="1"
     inkscape:current-layer="layer1" />
  <defs
     id="defs1296" />
  <g
     inkscape:label="Layer 1"
     inkscape:groupmode="layer"
     id="layer1"
     transform="translate(-69.20535,-81.881701)">
    <path
       style="fill:#000000;stroke-width:1"
       d="m 106.14323,230.17071 c -0.1456,-0.0438 -0.30172,-0.0986 -0.34712,-0.1218 -0.0454,-0.0232 -0.22398,-0.071 -0.39688,-0.1062 -0.53086,-0.1076 -0.76258,-0.40228 -0.87468,-1.1121 -0.1198,-0.75788 -0.145,-1.33498 -0.0684,-1.5526 0.0416,-0.1178 0.0714,-0.35178 0.0664,-0.5198 -0.006,-0.168 0.016,-0.33602 0.0458,-0.37332 0.0302,-0.0372 0.0724,-0.22164 0.0938,-0.40966 0.0214,-0.188 0.057,-0.3785 0.0792,-0.42332 0.1074,-0.21764 0.1554,-0.36574 0.1884,-0.58218 0.02,-0.1298 0.054,-0.27272 0.0762,-0.3175 0.042,-0.0852 0.0844,-0.1888 0.2386,-0.58412 0.0512,-0.131 0.1254,-0.31316 0.165,-0.40488 0.0396,-0.0916 0.0722,-0.1936 0.0722,-0.22658 0,-0.033 0.0834,-0.23162 0.1852,-0.4416 0.1018,-0.20998 0.1852,-0.42354 0.1852,-0.47456 0,-0.051 0.021,-0.0928 0.0464,-0.0928 0.0616,0 0.1506,-0.23744 0.193,-0.51566 0.018,-0.1236 0.056,-0.23806 0.0826,-0.25448 0.0266,-0.016 0.0484,-0.084 0.0484,-0.1502 0,-0.0662 0.016,-0.1358 0.0342,-0.1546 0.0566,-0.0566 0.22676,-0.58342 0.22862,-0.70788 9.6e-4,-0.0638 0.0228,-0.129 0.0484,-0.1448 0.0258,-0.016 0.0638,-0.1662 0.0844,-0.33384 0.0208,-0.1678 0.0564,-0.32878 0.0792,-0.3579 0.0228,-0.029 0.0548,-0.1362 0.071,-0.23812 0.044,-0.27634 0.1798,-0.94636 0.24698,-1.21708 0.0812,-0.32784 0.164,-0.73602 0.1878,-0.92604 0.0372,-0.29662 0.0846,-0.52888 0.1298,-0.635 0.045,-0.1056 0.1006,-0.387 0.1358,-0.68792 0.01,-0.0874 0.045,-0.2659 0.0774,-0.39688 0.1454,-0.58934 0.20362,-1.05224 0.23848,-1.89798 0.012,-0.30176 0.0442,-0.5756 0.0706,-0.60856 0.0264,-0.033 0.0616,-0.1432 0.0782,-0.24512 0.016,-0.1018 0.0678,-0.38762 0.1138,-0.635 0.046,-0.24738 0.1058,-0.62838 0.1326,-0.84666 0.1068,-0.86456 0.1456,-1.09278 0.20408,-1.2021 0.0336,-0.0626 0.061,-0.194 0.061,-0.29198 0,-0.098 0.0276,-0.20566 0.0612,-0.23936 0.0424,-0.0424 0.0446,-0.0822 0.006,-0.1296 -0.03,-0.0376 -0.0578,-0.28114 -0.0618,-0.54116 -0.004,-0.26002 -0.0292,-0.55768 -0.0556,-0.66146 -0.0264,-0.1038 -0.0634,-0.4149 -0.082,-0.6914 -0.018,-0.27648 -0.0536,-0.56224 -0.078,-0.635 -0.0244,-0.0728 -0.0956,-0.30324 -0.1582,-0.51218 -0.0736,-0.24536 -0.188,-0.47294 -0.32302,-0.64258 -0.115,-0.1444 -0.20914,-0.27872 -0.20914,-0.29832 0,-0.1122 -0.6176,-0.82232 -0.71522,-0.82232 -0.0322,0 -0.1272,-0.0714 -0.21082,-0.1588 -0.0836,-0.0874 -0.1742,-0.1588 -0.20114,-0.1588 -0.027,0 -0.193,-0.1248 -0.369,-0.27716 -0.302,-0.26164 -0.43518,-0.3569 -0.62048,-0.44386 -0.0436,-0.0204 -0.1866,-0.13 -0.3175,-0.24352 -0.31742,-0.27494 -0.35838,-0.30546 -0.40986,-0.30546 -0.041,0 -1.7735,-1.74586 -1.89468,-1.90938 -0.0306,-0.0412 -0.0718,-0.1172 -0.0914,-0.1688 -0.02,-0.0516 -0.078,-0.1098 -0.1296,-0.1294 -0.1122,-0.0424 -0.22608,-0.1488 -0.22608,-0.21098 0,-0.0246 -0.1786,-0.22218 -0.39688,-0.439 -0.21828,-0.21684 -0.39688,-0.41598 -0.39688,-0.44256 0,-0.0266 -0.0952,-0.1516 -0.21166,-0.27796 -0.1164,-0.1262 -0.21168,-0.26218 -0.21168,-0.30198 0,-0.0398 -0.0476,-0.1154 -0.1058,-0.1682 -0.0582,-0.0526 -0.1058,-0.126 -0.1058,-0.163 0,-0.0368 -0.0786,-0.1702 -0.1748,-0.29606 -0.0962,-0.126 -0.28774,-0.4531 -0.42588,-0.72706 -0.1382,-0.27396 -0.29338,-0.5597 -0.34498,-0.635 -0.1512,-0.22058 -0.47348,-0.91604 -0.5099,-1.10014 -0.018,-0.0932 -0.0764,-0.22418 -0.1288,-0.29104 -0.1608,-0.20526 -0.79704,-1.57296 -0.79704,-1.7134 0,-0.044 -0.046,-0.1752 -0.1022,-0.29152 -0.0562,-0.1162 -0.1178,-0.28774 -0.1372,-0.38108 -0.02,-0.0934 -0.0794,-0.31258 -0.1334,-0.48722 -0.21648,-0.69768 -0.26224,-0.872 -0.26224,-0.999 0,-0.0728 -0.0238,-0.1472 -0.053,-0.1652 -0.029,-0.018 -0.053,-0.1022 -0.053,-0.1872 0,-0.1698 -0.1374,-0.56092 -0.24096,-0.68586 -0.1028,-0.124 -0.25834,-0.42574 -0.36154,-0.70114 -0.0518,-0.1382 -0.116,-0.25136 -0.1428,-0.25136 -0.0266,0 -0.0486,-0.035 -0.0486,-0.0776 0,-0.1074 -0.1688,-0.45158 -0.22146,-0.45158 -0.0238,0 -0.0432,-0.035 -0.0432,-0.078 0,-0.0428 -0.062,-0.2155 -0.1378,-0.38364 -0.19,-0.42172 -0.2113,-0.47726 -0.30934,-0.80842 -0.1132,-0.38266 -0.45342,-1.12928 -0.55448,-1.2171 -0.0444,-0.0386 -0.1502,-0.27054 -0.193,-0.42332 -0.0952,-0.33978 -0.3081,-0.69104 -0.61428,-1.0136 -0.1838,-0.1936 -0.4057,-0.45022 -0.49302,-0.57012 -0.28128,-0.38622 -0.50068,-0.65922 -0.74728,-0.92982 -0.1326,-0.1456 -0.34018,-0.3978 -0.46128,-0.5606 -0.38862,-0.5225 -0.53502,-0.7054 -0.65674,-0.82056 -0.0654,-0.062 -0.119,-0.136 -0.119,-0.1644 0,-0.0796 -0.6689,-0.70346 -0.75432,-0.70346 -0.0666,0 -0.29898,-0.22798 -0.86646,-0.8503 -0.22818,-0.25024 -0.55094,-0.5023 -0.70638,-0.55162 -0.0714,-0.0226 -0.20758,-0.1214 -0.30266,-0.21922 -0.095,-0.098 -0.1922,-0.178 -0.216,-0.178 -0.0238,0 -0.1362,-0.0952 -0.2498,-0.21166 -0.1136,-0.1164 -0.23674,-0.21166 -0.27348,-0.21166 -0.0368,0 -0.0942,-0.0536 -0.128,-0.119 -0.1004,-0.1956 -0.37986,-0.46422 -0.57758,-0.5553 -0.1862,-0.0858 -0.95698,-0.7847 -1.30542,-1.1837 -0.0242,-0.0276 -0.1392,-0.1404 -0.25562,-0.25044 -0.1164,-0.11 -0.31202,-0.3117 -0.43466,-0.4481 -0.1226,-0.1364 -0.24424,-0.248 -0.27022,-0.248 -0.0636,0 -2.65534,-2.6359 -2.65534,-2.70064 0,-0.028 -0.032,-0.051 -0.0712,-0.051 -0.0392,0 -0.1166,-0.0504 -0.172,-0.1118 -0.0554,-0.0616 -0.1484,-0.134 -0.20664,-0.161 -0.32588,-0.1512 -0.65378,-0.4138 -1.15088,-0.92156 -0.21104,-0.21556 -0.40978,-0.39216 -0.44164,-0.39246 -0.0318,-5.4e-4 -0.101,-0.0482 -0.1538,-0.1064 -0.0526,-0.0582 -0.123,-0.1058 -0.1562,-0.1058 -0.0332,0 -0.1534,-0.0952 -0.26712,-0.21168 -0.1136,-0.1164 -0.22502,-0.21166 -0.24744,-0.21166 -0.0554,0 -0.9209,-0.87202 -1.17162,-1.18036 -0.111,-0.1366 -0.2233,-0.24838 -0.24936,-0.24838 -0.0572,0 -2.16804,-2.10352 -2.16804,-2.16048 0,-0.022 -0.1076,-0.1456 -0.23894,-0.2745 -0.1314,-0.129 -0.28882,-0.33038 -0.34976,-0.44758 -0.061,-0.1172 -0.126,-0.22498 -0.1448,-0.23954 -0.018,-0.014 -0.062,-0.074 -0.0962,-0.1322 -0.29368,-0.49924 -0.51648,-0.85158 -0.5541,-0.87626 -0.0612,-0.04 -0.38916,-0.58626 -0.58614,-0.97582 -0.0882,-0.1746 -0.177,-0.32942 -0.197,-0.34396 -0.0466,-0.0336 -0.44366,-0.8661 -0.53012,-1.11126 -0.036,-0.1018 -0.0874,-0.23282 -0.1144,-0.29104 -0.0862,-0.1862 -0.1644,-0.67392 -0.1868,-1.16416 -0.0286,-0.62898 0.0848,-0.95522 0.38602,-1.11126 0.1124,-0.0582 0.21624,-0.1202 0.2308,-0.1378 0.014,-0.018 0.1158,-0.0484 0.2249,-0.0686 0.1092,-0.02 0.1984,-0.0536 0.1984,-0.0746 0,-0.0408 0.38904,-0.22176 0.4766,-0.22176 0.029,0 0.0526,-0.018 0.0526,-0.04 0,-0.0552 0.25058,-0.1578 0.49006,-0.20086 0.1094,-0.02 0.21208,-0.0568 0.22804,-0.0826 0.016,-0.0258 0.1538,-0.047 0.30632,-0.047 0.1526,0 0.30294,-0.0256 0.33422,-0.0568 0.0768,-0.0768 2.14246,-0.0764 2.2862,5.4e-4 0.058,0.031 0.21558,0.0564 0.35038,0.0564 0.1348,0 0.29632,0.0274 0.35896,0.061 0.0626,0.0336 0.2575,0.079 0.43308,0.101 0.1756,0.022 0.40256,0.065 0.50442,0.0954 0.44844,0.134 0.83396,0.23134 1.00542,0.2539 0.1018,0.014 0.23282,0.045 0.29104,0.0704 0.0582,0.0254 0.28442,0.0698 0.5027,0.0988 0.21828,0.029 0.50404,0.08 0.635,0.113 0.131,0.0332 0.35718,0.0808 0.5027,0.1056 0.48918,0.0838 0.78904,0.1594 0.84186,0.2123 0.0288,0.0288 0.0996,0.0524 0.1572,0.0524 0.0576,0 0.1778,0.0228 0.26722,0.0506 0.48686,0.1514 0.72078,0.21338 0.88234,0.23372 0.1844,0.0232 0.2914,0.0616 0.7765,0.2787 0.1536,0.0688 0.31294,0.125 0.35408,0.125 0.0412,0 0.0896,0.0238 0.1076,0.053 0.018,0.029 0.086,0.053 0.1512,0.053 0.0652,0 0.1412,0.0206 0.1688,0.0458 0.0746,0.0678 0.3852,0.168 0.68526,0.22136 0.5619,0.0998 0.6373,0.1184 0.70924,0.1762 0.0492,0.0394 0.4189,0.0594 1.09648,0.0594 1.23628,0 1.234,10e-4 1.27692,-0.5988 0.0224,-0.3134 0.004,-0.43504 -0.1204,-0.78558 -0.0808,-0.22814 -0.20288,-0.48846 -0.27134,-0.57852 -0.0684,-0.09 -0.1244,-0.1784 -0.1244,-0.1962 0,-0.018 -0.0536,-0.1148 -0.119,-0.21562 -0.0654,-0.1008 -0.1904,-0.30382 -0.27782,-0.45114 -0.0874,-0.1474 -0.1766,-0.2683 -0.1984,-0.26886 -0.0218,-5.2e-4 -0.0396,-0.0344 -0.0396,-0.075 0,-0.06 -0.22112,-0.39276 -0.46052,-0.69328 -0.1618,-0.20306 -0.33322,-0.4481 -0.33322,-0.4762 0,-0.0428 -0.22142,-0.3428 -0.5275,-0.71462 -0.1318,-0.1602 -0.26362,-0.32964 -0.29272,-0.37652 -0.0292,-0.0468 -0.1366,-0.21344 -0.23876,-0.37016 -0.1022,-0.1568 -0.26522,-0.44568 -0.36224,-0.64214 -0.097,-0.1964 -0.198,-0.3705 -0.22426,-0.38678 -0.0264,-0.016 -0.0478,-0.067 -0.0478,-0.1128 0,-0.0458 -0.0834,-0.1992 -0.1852,-0.34096 -0.1018,-0.1418 -0.1852,-0.26852 -0.1852,-0.2816 0,-0.0448 -0.47406,-0.702 -0.55458,-0.76884 -0.0442,-0.0366 -0.0804,-0.0904 -0.0804,-0.1194 0,-0.029 -0.0654,-0.1312 -0.1456,-0.2273 -0.08,-0.096 -0.22196,-0.27886 -0.3154,-0.4063 -0.0934,-0.1274 -0.28394,-0.3536 -0.42334,-0.5026 -0.1394,-0.149 -0.3249,-0.37074 -0.4122,-0.49276 -0.0874,-0.122 -0.33734,-0.41646 -0.55562,-0.6543 -0.21828,-0.23786 -0.46832,-0.52476 -0.55564,-0.6376 -0.2176,-0.2812 -1.73072,-1.82892 -1.78804,-1.82892 -0.0254,0 -0.3677,-0.32148 -0.76062,-0.71438 -0.3929,-0.3929 -0.73096,-0.71438 -0.75126,-0.71438 -0.0202,0 -0.1904,-0.1548 -0.37778,-0.34396 -0.1874,-0.1892 -0.3664,-0.34394 -0.39756,-0.34394 -0.0312,0 -0.1618,-0.1072 -0.29036,-0.23814 -0.1286,-0.131 -0.25512,-0.23812 -0.28132,-0.23812 -0.1772,0 -2.6746,-2.61506 -3.3354,-3.4925 -0.1206,-0.16 -0.34712,-0.41416 -0.50352,-0.56462 -0.1564,-0.1504 -0.31128,-0.31996 -0.34422,-0.37666 -0.1484,-0.25522 -0.29056,-0.43522 -0.63884,-0.80858 -0.20546,-0.22028 -0.5029,-0.61014 -0.66098,-0.86638 -0.158,-0.25624 -0.36644,-0.56048 -0.46302,-0.67608 -0.0966,-0.1156 -0.1756,-0.24148 -0.1756,-0.2797 0,-0.0382 -0.1012,-0.1742 -0.2249,-0.30214 -0.1236,-0.128 -0.2674,-0.31466 -0.31936,-0.41496 -0.1634,-0.31552 -0.34282,-0.6025 -0.43212,-0.69144 -0.0922,-0.0918 -0.1658,-0.22328 -0.80628,-1.44082 -0.51044,-0.9702 -0.57026,-1.07764 -0.66226,-1.18904 -0.0404,-0.049 -0.1506,-0.2467 -0.24472,-0.4395 -0.0942,-0.1928 -0.21484,-0.38994 -0.26808,-0.43812 -0.0532,-0.0482 -0.1394,-0.1822 -0.1916,-0.2977 -0.052,-0.1156 -0.1112,-0.2101 -0.1314,-0.2101 -0.0466,0 -0.4098,-0.61732 -0.60712,-1.03186 -0.0832,-0.1746 -0.171,-0.35886 -0.1954,-0.4094 -0.0244,-0.0506 -0.0444,-0.135 -0.0444,-0.1878 0,-0.0528 -0.0298,-0.1258 -0.0662,-0.1622 -0.0448,-0.0448 -0.0662,-0.252 -0.0662,-0.6428 v -0.57666 l 0.20918,-0.21446 c 0.115,-0.118 0.24748,-0.21446 0.29428,-0.21446 0.0468,0 0.1362,-0.0476 0.1988,-0.1058 0.0624,-0.0582 0.1608,-0.1058 0.21854,-0.1058 0.0578,0 0.1188,-0.0224 0.1358,-0.0498 0.016,-0.0274 0.1434,-0.0662 0.28092,-0.086 0.1376,-0.02 0.27394,-0.0544 0.30304,-0.0768 0.0292,-0.0224 0.16,-0.054 0.29104,-0.0702 0.131,-0.016 0.33016,-0.0456 0.44266,-0.065 0.1374,-0.0238 0.21758,-0.014 0.24426,0.0288 0.031,0.0502 0.0636,0.0494 0.148,-0.004 0.0854,-0.0534 0.1522,-0.0544 0.3175,-0.004 0.115,0.0344 0.33014,0.0626 0.47784,0.0626 0.1476,0 0.28136,0.0208 0.29702,0.046 0.016,0.0254 0.154,0.0616 0.3074,0.0806 0.1534,0.02 0.35036,0.0458 0.43766,0.0596 0.0874,0.014 0.32544,0.0466 0.52918,0.073 0.20372,0.0264 0.46434,0.0726 0.57916,0.1028 0.1148,0.0302 0.22354,0.0456 0.24162,0.0344 0.018,-0.012 0.1266,0.014 0.24104,0.0538 0.1144,0.0408 0.30796,0.0752 0.42994,0.0766 0.122,10e-4 0.2365,0.0262 0.25448,0.0552 0.018,0.029 0.1014,0.0528 0.1852,0.0528 0.0838,0 0.1672,0.0238 0.1852,0.053 0.018,0.0292 0.09,0.053 0.16,0.053 0.1148,0 0.2716,0.0418 0.80454,0.21508 0.094,0.0306 0.29636,0.079 0.4498,0.1078 0.1534,0.0286 0.37422,0.0742 0.49064,0.101 0.1164,0.0268 0.35454,0.0794 0.52916,0.1168 0.1746,0.0374 0.39854,0.1098 0.4976,0.1606 0.099,0.0508 0.2307,0.0926 0.2925,0.0926 0.0618,0 0.1594,0.0324 0.21678,0.072 0.0574,0.0396 0.29488,0.1372 0.5277,0.2168 0.23284,0.0796 0.549,0.20198 0.7026,0.2719 0.1536,0.07 0.31292,0.1272 0.35406,0.1272 0.0412,0 0.0896,0.0238 0.1076,0.053 0.018,0.0292 0.0792,0.053 0.1362,0.053 0.0568,0 0.1448,0.0216 0.1954,0.0478 0.0506,0.0262 0.24666,0.0748 0.43584,0.1078 0.1892,0.033 0.46302,0.082 0.60854,0.109 0.6729,0.1246 0.86388,0.1514 1.09874,0.155 0.1386,0.002 0.29762,0.0322 0.35328,0.067 0.0782,0.0488 0.1326,0.049 0.23886,5.2e-4 0.1062,-0.0484 0.1608,-0.0484 0.23878,5.4e-4 0.0768,0.048 0.1306,0.0484 0.22344,0.002 0.0672,-0.0334 0.1674,-0.068 0.22248,-0.0768 0.0552,-0.008 0.119,-0.0516 0.1422,-0.0954 0.1362,-0.25742 0.20746,-0.45648 0.20746,-0.57962 0,-0.077 0.0286,-0.1686 0.0634,-0.20354 0.0494,-0.0494 0.0494,-0.0776 0,-0.127 -0.035,-0.035 -0.0634,-0.1406 -0.0634,-0.23502 0,-0.0944 -0.0238,-0.1862 -0.053,-0.2042 -0.0292,-0.018 -0.053,-0.0982 -0.053,-0.1782 0,-0.08 -0.035,-0.1918 -0.0776,-0.24822 -0.0428,-0.0566 -0.0784,-0.1466 -0.0794,-0.20038 -9e-4,-0.0538 -0.046,-0.1608 -0.1,-0.23814 -0.0542,-0.0772 -0.1418,-0.2357 -0.195,-0.35212 -0.0532,-0.1164 -0.1756,-0.33714 -0.27202,-0.4905 -0.0964,-0.1534 -0.1754,-0.29928 -0.1754,-0.32426 0,-0.025 -0.0358,-0.075 -0.0794,-0.1112 -0.0436,-0.0362 -0.0794,-0.107 -0.0794,-0.1576 0,-0.0504 -0.0596,-0.1558 -0.1322,-0.23438 -0.0728,-0.0784 -0.1324,-0.1676 -0.1324,-0.198 0,-0.0304 -0.0438,-0.1184 -0.097,-0.1956 -0.0534,-0.0772 -0.20132,-0.35478 -0.3287,-0.61672 -0.1274,-0.26194 -0.28022,-0.54768 -0.3396,-0.635 -0.1842,-0.27076 -0.23068,-0.35314 -0.53736,-0.9525 -0.1638,-0.32014 -0.314,-0.59398 -0.33374,-0.60854 -0.02,-0.014 -0.0776,-0.1098 -0.1286,-0.21166 -0.051,-0.1018 -0.1482,-0.28046 -0.21604,-0.39688 -0.139,-0.2384 -0.33228,-0.62436 -0.66268,-1.32292 -0.47382,-1.0017 -0.57534,-1.22434 -0.66364,-1.4552 -0.05,-0.131 -0.136,-0.32968 -0.191,-0.44156 -0.055,-0.1118 -0.1,-0.22736 -0.1,-0.2566 0,-0.0292 -0.0382,-0.14 -0.0848,-0.24634 -0.1618,-0.36882 -0.1756,-0.40598 -0.22992,-0.61654 -0.03,-0.1164 -0.1468,-0.39338 -0.25972,-0.61546 -0.1128,-0.2221 -0.22056,-0.48578 -0.23936,-0.58598 -0.018,-0.1002 -0.1054,-0.29436 -0.1922,-0.43148 -0.087,-0.1372 -0.1582,-0.26634 -0.1584,-0.28716 0,-0.0208 -0.0562,-0.148 -0.1246,-0.28278 -0.0684,-0.1348 -0.1408,-0.34784 -0.1608,-0.47362 -0.0202,-0.1258 -0.0554,-0.25368 -0.0784,-0.28424 -0.023,-0.0306 -0.083,-0.1984 -0.133,-0.37304 -0.0502,-0.1746 -0.1136,-0.35884 -0.141,-0.40938 -0.0274,-0.0506 -0.05,-0.1338 -0.05,-0.1852 0,-0.0514 -0.0592,-0.26002 -0.1312,-0.46374 -0.072,-0.20374 -0.1314,-0.45832 -0.132,-0.56574 -6.4e-4,-0.1074 -0.025,-0.21002 -0.054,-0.22802 -0.0292,-0.018 -0.054,-0.1206 -0.0552,-0.22802 -10e-4,-0.1074 -0.0366,-0.29056 -0.0786,-0.40698 -0.042,-0.1164 -0.0766,-0.27574 -0.077,-0.35406 -5.2e-4,-0.0784 -0.0246,-0.1572 -0.0538,-0.175 -0.029,-0.018 -0.053,-0.0804 -0.053,-0.1386 0,-0.1038 -0.125,-0.55142 -0.21242,-0.76088 -0.045,-0.1078 -0.0552,-0.1496 -0.1628,-0.66146 -0.0336,-0.16 -0.0802,-0.33868 -0.1036,-0.39688 -0.0234,-0.0582 -0.0546,-0.1654 -0.0692,-0.23812 -0.014,-0.0728 -0.0516,-0.22754 -0.0822,-0.34396 -0.0304,-0.1164 -0.056,-0.28938 -0.0566,-0.38436 -6.8e-4,-0.095 -0.0222,-0.21406 -0.048,-0.2646 -0.174,-0.34208 -0.186,-0.3898 -0.1238,-0.48956 0.0396,-0.0634 0.0434,-0.1118 0.01,-0.1322 -0.0696,-0.043 -0.0686,-1.4909 0.001,-1.5339 0.029,-0.018 0.053,-0.1846 0.053,-0.37042 0,-0.1858 0.0238,-0.35244 0.053,-0.37042 0.029,-0.018 0.053,-0.105 0.053,-0.1936 0,-0.1444 0.08,-0.38124 0.21612,-0.63916 0.0266,-0.0506 0.0484,-0.1186 0.0484,-0.1512 0,-0.1218 0.31518,-0.71232 0.42014,-0.78726 0.06,-0.0428 0.109,-0.1042 0.109,-0.1364 0,-0.0768 0.22696,-0.28858 0.30934,-0.28858 0.0354,0 0.0782,-0.0358 0.0948,-0.0794 0.016,-0.0436 0.0588,-0.0794 0.0934,-0.0794 0.0346,0 0.156,-0.0952 0.26968,-0.21166 0.21148,-0.21658 0.29104,-0.25796 0.29104,-0.1514 0,0.0332 0.0402,0.0898 0.0894,0.1258 0.073,0.0534 0.122,0.047 0.26618,-0.0338 0.1078,-0.0606 0.2807,-0.0992 0.4432,-0.0992 0.1466,0 0.31548,-0.0262 0.37542,-0.0584 0.0812,-0.0434 0.1406,-0.0414 0.23284,0.008 0.0994,0.0532 0.1398,0.053 0.20476,-8.4e-4 0.0484,-0.0402 0.1288,-0.0522 0.20026,-0.0298 0.0656,0.0206 0.29792,0.0578 0.5162,0.0828 0.56928,0.0652 0.9153,0.1278 1.00158,0.181 0.073,0.0452 0.2554,0.0914 0.74468,0.1886 0.48994,0.0974 0.8265,0.1898 1.03188,0.28338 0.1164,0.053 0.35998,0.1654 0.54128,0.2499 0.1812,0.0844 0.38824,0.1536 0.4599,0.1536 0.0716,0 0.145,0.0238 0.163,0.053 0.018,0.029 0.0748,0.053 0.1262,0.053 0.0514,0 0.1494,0.0596 0.21776,0.1322 0.0684,0.0728 0.1538,0.1322 0.19,0.1322 0.0362,0 0.0736,0.02 0.0834,0.0444 0.0294,0.074 0.74516,0.4848 0.8446,0.4848 0.051,0 0.1072,0.0234 0.125,0.052 0.018,0.0286 0.20366,0.1378 0.41324,0.24272 0.20958,0.1048 0.41864,0.22432 0.46458,0.26544 0.046,0.0412 0.1032,0.0748 0.1272,0.0748 0.024,0 0.1218,0.0596 0.2172,0.1322 0.0954,0.0728 0.1868,0.1322 0.20332,0.1322 0.016,0 0.143,0.0794 0.28134,0.1764 0.1384,0.097 0.63248,0.36152 1.09814,0.5878 0.46566,0.22628 0.88802,0.43266 0.93856,0.45862 0.165,0.0848 0.33042,0.05 0.52514,-0.1106 0.1242,-0.1024 0.2017,-0.21838 0.22086,-0.33072 0.016,-0.0952 0.0568,-0.32526 0.0902,-0.51134 0.0448,-0.24962 0.0456,-0.48552 0.002,-0.89958 -0.0732,-0.71484 -0.1134,-0.97128 -0.1628,-1.0375 -0.0216,-0.029 -0.0558,-0.16 -0.0756,-0.29104 -0.02,-0.131 -0.0736,-0.34528 -0.1194,-0.47626 -0.0458,-0.131 -0.1144,-0.3929 -0.1524,-0.58208 -0.118,-0.58632 -0.1366,-0.65516 -0.23544,-0.87538 -0.0528,-0.1176 -0.1132,-0.33196 -0.134,-0.47624 -0.021,-0.1442 -0.0558,-0.28614 -0.0776,-0.31526 -0.0218,-0.029 -0.053,-0.1244 -0.0694,-0.21166 -0.0574,-0.30614 -0.1692,-0.706 -0.20848,-0.74528 -0.0218,-0.0218 -0.0396,-0.0904 -0.0396,-0.1526 0,-0.062 -0.0216,-0.1354 -0.048,-0.1632 -0.0264,-0.0276 -0.075,-0.22886 -0.1078,-0.44714 -0.033,-0.21828 -0.0846,-0.52784 -0.1148,-0.68792 -0.1318,-0.70068 -0.1624,-3.65926 -0.0386,-3.7358 0.0622,-0.0384 0.0558,-0.53638 -0.008,-0.65656 -0.0354,-0.0662 -0.0354,-0.11 0,-0.132 0.0292,-0.018 0.053,-0.0896 0.053,-0.1588 0,-0.0694 0.021,-0.139 0.0466,-0.1548 0.0256,-0.016 0.0632,-0.1838 0.0836,-0.37298 0.0202,-0.1892 0.0588,-0.3577 0.0856,-0.37428 0.0268,-0.016 0.0488,-0.1464 0.0488,-0.28848 0,-0.142 0.0218,-0.27176 0.0484,-0.28818 0.0266,-0.016 0.0644,-0.1248 0.084,-0.24098 0.02,-0.1162 0.0574,-0.22454 0.084,-0.24096 0.0266,-0.016 0.0484,-0.088 0.0484,-0.159 0,-0.071 0.0206,-0.1292 0.0456,-0.1292 0.025,0 0.0594,-0.1172 0.0764,-0.26054 0.0302,-0.25446 0.1018,-0.4294 0.23524,-0.57464 0.0364,-0.0396 0.0662,-0.0938 0.0662,-0.1206 0,-0.0268 0.1134,-0.1738 0.2518,-0.32696 0.1384,-0.153 0.3089,-0.36172 0.3787,-0.46358 0.22634,-0.33028 0.50134,-0.58434 0.78014,-0.72076 0.23874,-0.1168 0.29844,-0.1264 0.47626,-0.0772 0.1118,0.031 0.44598,0.0566 0.74258,0.0568 0.3021,1.6e-4 0.55364,0.0236 0.57196,0.0532 0.018,0.0292 0.0888,0.053 0.1576,0.053 0.0686,0 0.23988,0.0576 0.3805,0.1282 0.1406,0.0704 0.32142,0.1446 0.40174,0.1646 0.0802,0.02 0.159,0.0576 0.175,0.0834 0.016,0.0258 0.0756,0.047 0.1326,0.047 0.0568,0 0.1448,0.021 0.1954,0.0468 0.0506,0.0258 0.25858,0.1256 0.4623,0.2221 0.20374,0.0964 0.48328,0.25396 0.62122,0.3501 0.138,0.0962 0.2729,0.1748 0.29988,0.1748 0.027,0 0.057,0.02 0.0666,0.0438 0.018,0.0426 0.66412,0.48542 0.70918,0.48542 0.012,0 0.111,0.0834 0.21894,0.1852 0.108,0.1018 0.2252,0.1852 0.26044,0.1852 0.0352,0 0.1944,0.119 0.35358,0.26458 0.1592,0.1456 0.31594,0.26458 0.34824,0.26458 0.0322,0 0.0588,0.018 0.0588,0.0396 0,0.0218 0.1192,0.1208 0.26458,0.21996 0.1454,0.0992 0.26448,0.198 0.26448,0.21966 0,0.0364 0.22168,0.1856 0.522,0.35128 0.1584,0.0874 0.44948,0.0888 0.6032,0.002 0.1846,-0.103 0.51522,-0.42414 0.51522,-0.50028 0,-0.0378 0.0234,-0.0686 0.052,-0.0686 0.0286,0 0.0676,-0.0654 0.0866,-0.1456 0.02,-0.08 0.053,-0.1694 0.0754,-0.1984 0.067,-0.0874 0.0998,-0.64864 0.1488,-2.54 0.0402,-1.55462 0.0358,-1.8228 -0.0328,-1.97304 -0.0436,-0.0956 -0.0702,-0.179 -0.0592,-0.1852 0.012,-0.006 0.0642,-0.0354 0.118,-0.065 0.1088,-0.0596 0.23902,-0.38888 0.23812,-0.6019 -5.2e-4,-0.076 0.0268,-0.25734 0.06,-0.40286 0.0334,-0.1456 0.0746,-0.33534 0.0914,-0.42184 0.016,-0.0864 0.0868,-0.26268 0.1554,-0.39152 0.0686,-0.1288 0.1246,-0.25682 0.1246,-0.28436 0,-0.0276 0.0444,-0.1134 0.0988,-0.1906 0.0544,-0.0772 0.1172,-0.2 0.1394,-0.27276 0.0222,-0.0728 0.0582,-0.1442 0.0796,-0.1588 0.0216,-0.014 0.0852,-0.1098 0.1416,-0.21168 0.22948,-0.41474 0.348,-0.58208 0.41222,-0.58208 0.0372,0 0.099,-0.0378 0.1374,-0.084 0.067,-0.0806 0.1656,-0.131 0.77676,-0.39638 0.1528,-0.0664 0.2778,-0.1402 0.2778,-0.1642 0,-0.0892 0.1434,-0.039 0.2547,0.0888 0.1308,0.1504 0.23248,0.1668 0.34396,0.0552 0.0674,-0.0674 0.0888,-0.0642 0.1708,0.0264 0.0516,0.057 0.1232,0.1036 0.1594,0.1036 0.0584,0 0.71778,0.30642 0.92326,0.42912 0.0436,0.026 0.127,0.0684 0.1852,0.0942 0.0582,0.0256 0.1512,0.097 0.20664,0.1586 0.0554,0.0616 0.1274,0.1118 0.16,0.1118 0.0326,0 0.23362,0.1754 0.4467,0.39002 0.26368,0.26546 0.45332,0.40978 0.59368,0.45182 0.1426,0.0428 0.23212,0.1118 0.28996,0.22366 0.046,0.089 0.1694,0.23694 0.27406,0.3287 0.1046,0.0918 0.22024,0.1966 0.25678,0.23298 0.0366,0.0364 0.0878,0.0662 0.114,0.0662 0.0262,0 0.1012,0.0572 0.1668,0.127 0.0656,0.0698 0.25674,0.1886 0.42474,0.26404 0.2975,0.1336 0.31188,0.135 0.55162,0.0532 0.44444,-0.1514 0.9674,-0.82328 1.27252,-1.63484 0.0568,-0.1514 0.24234,-0.47276 0.48928,-0.84806 0.0626,-0.095 0.1312,-0.22892 0.1526,-0.29742 0.0214,-0.0684 0.103,-0.20786 0.1812,-0.30972 0.0782,-0.1018 0.23186,-0.34734 0.34122,-0.5455 0.1094,-0.1982 0.2981,-0.47744 0.41942,-0.62062 0.1212,-0.1432 0.39916,-0.4732 0.61744,-0.73336 0.21828,-0.26018 0.41694,-0.475 0.44146,-0.4774 0.0246,-0.002 0.1888,-0.1472 0.36504,-0.32188 0.1762,-0.1746 0.34068,-0.3175 0.36538,-0.3175 0.0246,0 0.1342,-0.0784 0.24348,-0.1744 0.28322,-0.24872 0.43406,-0.33338 0.67302,-0.37778 0.24446,-0.0454 0.47254,-0.1548 0.67488,-0.32358 0.0936,-0.0782 0.38022,-0.1784 0.8202,-0.28684 0.37198,-0.0918 0.70014,-0.1666 0.72924,-0.1666 0.0292,1e-4 0.3315,0.0626 0.672,0.1392 0.5987,0.1344 0.62914,0.1362 0.92604,0.0552 1.33348,-0.36394 1.51296,-0.39738 1.57696,-0.29382 0.018,0.029 0.1136,0.053 0.21264,0.053 0.1094,0 0.3613,0.0934 0.64268,0.23812 0.25454,0.131 0.48498,0.23812 0.51214,0.23812 0.0848,0 0.68498,0.5399 0.9999,0.89958 0.64724,0.73926 0.7172,0.8255 0.79728,0.98282 0.0456,0.0894 0.1206,0.194 0.167,0.23256 0.1424,0.1182 0.3992,0.52896 0.72894,1.16588 0.52494,1.014 0.97138,1.63476 1.23226,1.71346 0.1412,0.0426 0.42038,-0.0406 0.65564,-0.1956 0.1044,-0.0688 0.2591,-0.1706 0.34378,-0.22612 0.0846,-0.0556 0.2491,-0.1546 0.36538,-0.22008 0.1162,-0.0654 0.24482,-0.1666 0.28562,-0.2249 0.0408,-0.0582 0.0948,-0.1058 0.12,-0.1058 0.0252,0 0.1986,-0.1026 0.38554,-0.22782 0.64212,-0.4306 1.46718,-0.78028 2.09646,-0.88856 0.2589,-0.0446 0.42406,-0.1032 0.48976,-0.1736 0.0768,-0.0824 0.1134,-0.0922 0.1624,-0.0432 0.0348,0.0348 0.1572,0.0632 0.27224,0.0632 0.1932,0 0.77864,0.23346 0.81852,0.32644 0.01,0.0216 0.1074,0.1534 0.218,0.29298 0.30014,0.37862 0.45366,0.7192 0.85198,1.88996 0.30802,0.90536 0.378,1.18122 0.47322,1.86518 0.0614,0.44146 0.1324,0.8749 0.1578,0.96318 0.0254,0.0882 0.0766,0.47238 0.1138,0.85356 0.0558,0.57 0.0552,0.82646 -0.002,1.44452 -0.0912,0.9687 -0.0824,1.4064 0.04,1.97874 0.0776,0.36276 0.3764,0.91116 0.54372,0.9977 0.21492,0.1112 0.2764,0.1 0.75454,-0.1362 0.58176,-0.2874 0.69808,-0.36124 0.92604,-0.58778 0.0772,-0.0766 0.1998,-0.1568 0.2726,-0.1778 0.0728,-0.0212 0.23946,-0.1274 0.37042,-0.23608 0.131,-0.1088 0.3113,-0.2355 0.40072,-0.2817 0.0894,-0.0462 0.1936,-0.1214 0.23138,-0.1668 0.0378,-0.0456 0.1062,-0.0828 0.152,-0.0828 0.0458,0 0.144,-0.0582 0.21842,-0.1294 0.1202,-0.1152 0.69112,-0.42736 1.75362,-0.95898 0.40624,-0.20326 1.29498,-0.39146 1.58302,-0.33522 0.1018,0.02 0.31618,0.0602 0.47626,0.0894 0.16,0.0294 0.42792,0.0932 0.59524,0.1418 0.33648,0.098 0.40752,0.20658 0.30738,0.46996 -0.0446,0.1176 -0.0348,0.1926 0.05,0.37868 0.0582,0.1276 0.1058,0.25492 0.1058,0.28286 0,0.0866 0.46004,0.32544 0.62686,0.32544 0.087,0 0.1968,0.014 0.24418,0.033 0.1978,0.076 0.45726,0.83894 0.58238,1.71326 0.0788,0.55068 0.155,1.49156 0.1412,1.74626 -0.004,0.0728 -0.02,0.3704 -0.0338,0.66144 -0.014,0.29106 -0.041,0.5649 -0.0586,0.60856 -0.03,0.075 -0.0866,0.69716 -0.084,0.92604 6.4e-4,0.0582 0.004,0.28442 0.008,0.5027 0.01,0.59578 -0.114,1.4977 -0.2907,2.11666 -0.0456,0.16 -0.104,0.3982 -0.1298,0.52918 -0.0258,0.131 -0.0966,0.41672 -0.1572,0.635 -0.0608,0.21828 -0.136,0.49212 -0.1674,0.60854 -0.0312,0.1164 -0.099,0.30692 -0.1504,0.42332 -0.0514,0.1164 -0.1098,0.2712 -0.1298,0.34396 -0.1484,0.54142 -0.42824,1.3641 -0.4876,1.43292 -0.0396,0.046 -0.072,0.1088 -0.072,0.1394 0,0.0308 -0.0356,0.1242 -0.079,0.2075 -0.0434,0.0834 -0.0792,0.1918 -0.0794,0.24104 0,0.0492 -0.0242,0.1042 -0.0532,0.1222 -0.0292,0.018 -0.053,0.086 -0.053,0.1512 0,0.0652 -0.02,0.1412 -0.0436,0.1688 -0.024,0.0276 -0.0858,0.1932 -0.1372,0.36776 -0.0514,0.1746 -0.1152,0.39064 -0.1416,0.48002 -0.0264,0.0894 -0.048,0.20962 -0.048,0.26722 0,0.0576 -0.027,0.1318 -0.06,0.1648 -0.0378,0.0378 -0.0624,0.31082 -0.0662,0.73818 -0.006,0.68556 0.0546,0.99238 0.2157,1.09088 0.038,0.0232 0.0692,0.0762 0.0692,0.1178 0,0.1536 0.3032,0.24668 0.70626,0.21662 0.60176,-0.0448 0.95644,-0.0932 1.01354,-0.138 0.029,-0.0228 0.178,-0.0584 0.33068,-0.0788 0.1528,-0.0206 0.29108,-0.059 0.30738,-0.0852 0.016,-0.0266 0.0982,-0.0482 0.1822,-0.0482 0.0838,0 0.1672,-0.0238 0.1852,-0.053 0.018,-0.0292 0.1106,-0.053 0.20598,-0.053 0.0952,0 0.1898,-0.016 0.21008,-0.0368 0.0412,-0.0412 0.1068,-0.0556 0.4703,-0.1036 0.1382,-0.018 0.25136,-0.0536 0.25136,-0.0788 0,-0.025 0.0582,-0.0456 0.1292,-0.0456 0.071,0 0.1426,-0.0218 0.1592,-0.0484 0.016,-0.0266 0.2087,-0.0652 0.4272,-0.0856 0.21852,-0.0204 0.41026,-0.0582 0.4261,-0.0838 0.016,-0.0256 0.157,-0.0466 0.31362,-0.0466 0.1566,0 0.29952,-0.0238 0.3175,-0.053 0.018,-0.029 0.22776,-0.0542 0.46614,-0.0558 0.2384,-0.002 0.6186,-0.0222 0.8449,-0.046 0.56086,-0.0588 2.27184,0.097 2.34384,0.21346 0.016,0.0258 0.0774,0.047 0.1364,0.047 0.059,0 0.25406,0.141 0.43344,0.31344 0.28794,0.27672 0.33792,0.35574 0.4268,0.67468 0.0554,0.1988 0.1226,0.38968 0.1496,0.4244 0.0642,0.083 0.0622,1.80446 -0.002,1.8853 -0.0572,0.072 -0.0988,0.27188 -0.1728,0.82968 -0.029,0.21828 -0.0738,0.4445 -0.0996,0.5027 -0.026,0.0582 -0.0624,0.1772 -0.0808,0.2646 -0.0772,0.36334 -0.1684,0.74598 -0.1952,0.8202 -0.016,0.0436 -0.0696,0.21034 -0.1194,0.37042 -0.0992,0.31842 -0.262,0.73556 -0.37872,0.97002 -0.041,0.0824 -0.0746,0.1942 -0.0746,0.24822 0,0.0542 -0.0218,0.1118 -0.0484,0.1282 -0.0266,0.016 -0.0644,0.1248 -0.084,0.24098 -0.02,0.1162 -0.0574,0.22454 -0.084,0.24096 -0.0266,0.016 -0.0482,0.0774 -0.0482,0.1354 0,0.058 -0.0596,0.1932 -0.1322,0.3002 -0.0728,0.107 -0.1322,0.21892 -0.132,0.24856 0,0.0466 -0.30066,0.6999 -0.42698,0.92698 -0.0242,0.0436 -0.122,0.23416 -0.21734,0.42334 -0.0952,0.1892 -0.22918,0.41332 -0.29758,0.4981 -0.0684,0.0848 -0.24266,0.38246 -0.3872,0.66146 -0.3821,0.73756 -0.57358,1.07822 -0.65926,1.17288 -0.0416,0.046 -0.0756,0.1008 -0.0756,0.1216 0,0.021 -0.09,0.1738 -0.1998,0.3398 -0.1098,0.166 -0.24448,0.39622 -0.29904,0.51176 -0.0546,0.1156 -0.21876,0.33648 -0.36488,0.49098 -0.1462,0.1546 -0.29136,0.3245 -0.32274,0.37778 -0.0314,0.0532 -0.194,0.27754 -0.36132,0.49838 -0.1674,0.22084 -0.30426,0.41752 -0.30426,0.43706 0,0.02 -0.0654,0.1126 -0.1456,0.20692 -0.29054,0.34222 -0.34354,0.4157 -0.41666,0.57752 -0.0756,0.1672 -0.1834,0.35476 -0.23172,0.40276 -0.014,0.014 -0.1218,0.1666 -0.23812,0.33788 -0.1164,0.1712 -0.24724,0.3638 -0.2909,0.42778 -0.0436,0.064 -0.1186,0.1552 -0.1664,0.20268 -0.0478,0.0476 -0.142,0.20028 -0.20922,0.33952 -0.0672,0.1392 -0.1418,0.277 -0.1656,0.3061 -0.1262,0.1538 -0.4642,0.67252 -0.4642,0.71232 0,0.0254 -0.02,0.054 -0.0424,0.0638 -0.0692,0.0288 -0.32804,0.52566 -0.32804,0.62972 0,0.0528 -0.0218,0.1096 -0.0482,0.126 -0.0266,0.016 -0.0644,0.1248 -0.084,0.24096 -0.02,0.1162 -0.0574,0.22456 -0.084,0.24098 -0.082,0.0506 -0.0492,0.61986 0.0468,0.81518 0.1152,0.23414 0.20234,0.25574 1.04258,0.25838 1.64426,0.006 3.79886,-0.25388 4.0295,-0.48452 0.02,-0.02 0.0904,-0.0362 0.1566,-0.0362 0.0662,0 0.1346,-0.0232 0.1522,-0.0514 0.018,-0.0282 0.1504,-0.0672 0.29534,-0.0864 0.145,-0.02 0.27638,-0.0556 0.292,-0.0808 0.016,-0.0252 0.0866,-0.046 0.1576,-0.046 0.071,0 0.1292,-0.0208 0.1292,-0.0462 0,-0.0254 0.31552,-0.0634 0.70116,-0.0846 0.38562,-0.0212 0.72938,-0.0616 0.7639,-0.0898 0.041,-0.0336 0.0996,-0.0318 0.1684,0.006 0.1374,0.0736 0.44578,0.0728 0.51986,-0.001 0.0664,-0.0664 1.98252,-0.0816 2.0879,-0.016 0.0356,0.022 0.30178,0.0584 0.59164,0.0808 0.28986,0.0224 0.55214,0.066 0.58282,0.0966 0.0308,0.0308 0.1092,0.0558 0.1744,0.0558 0.0652,0 0.1312,0.0204 0.1466,0.0454 0.016,0.025 0.1544,0.0584 0.30886,0.0744 0.4196,0.0434 1.26206,0.54172 1.3626,0.80612 0.0278,0.073 0.0692,0.1326 0.0922,0.1326 0.023,0 0.089,0.0988 0.1468,0.2195 0.1674,0.34976 0.20698,0.4155 0.24992,0.4155 0.0222,0 0.0404,0.0548 0.0404,0.1218 0,0.067 0.0254,0.1472 0.0566,0.1782 0.0666,0.0666 0.0368,0.97746 -0.0438,1.34042 -0.0838,0.37704 -0.43202,1.38508 -0.54498,1.5773 -0.0566,0.0962 -0.1028,0.20454 -0.1028,0.24064 0,0.085 -0.35204,0.77282 -0.45224,0.88352 -0.0422,0.0468 -0.077,0.1148 -0.077,0.1512 0,0.0364 -0.0826,0.1908 -0.1838,0.34308 -0.101,0.1522 -0.22092,0.3587 -0.26636,0.45876 -0.1174,0.25834 -0.31832,0.61052 -0.43186,0.75662 -0.32808,0.42212 -0.54678,0.72132 -0.54678,0.748 0,0.016 -0.119,0.1548 -0.26452,0.30654 -0.1454,0.1516 -0.26456,0.30902 -0.26458,0.34966 -4e-5,0.0406 -0.1012,0.1872 -0.22496,0.3257 -0.1236,0.1386 -0.28442,0.329 -0.35718,0.42328 -0.49676,0.64384 -1.92332,2.16466 -2.03468,2.16916 -0.0306,0.001 -0.115,0.0776 -0.1878,0.1696 -0.26998,0.3414 -0.7063,0.78074 -0.77534,0.78074 -0.0392,0 -0.0714,0.018 -0.0714,0.0414 0,0.0228 -0.0766,0.0868 -0.1702,0.142 -0.0936,0.0552 -0.26626,0.1988 -0.38364,0.31888 -0.1174,0.12 -0.24916,0.23502 -0.29282,0.2554 -0.0764,0.0356 -0.178,0.1008 -0.50804,0.3256 -0.0844,0.0574 -0.20104,0.1536 -0.25924,0.21384 -0.0582,0.0602 -0.1772,0.1436 -0.26458,0.1854 -0.0874,0.0418 -0.23244,0.1302 -0.3225,0.1962 -0.09,0.066 -0.1872,0.1202 -0.21568,0.1202 -0.0286,0 -0.1078,0.0596 -0.1762,0.1324 -0.0684,0.0728 -0.1452,0.1322 -0.1706,0.1322 -0.0254,0 -0.1766,0.0834 -0.33576,0.1852 -0.1592,0.1018 -0.30782,0.1852 -0.33018,0.1852 -0.0224,0 -0.158,0.119 -0.30126,0.26458 -0.1434,0.1456 -0.27846,0.26458 -0.30032,0.26458 -0.0522,0 -0.46696,0.4324 -0.46696,0.48692 0,0.0232 -0.0346,0.0422 -0.0768,0.0422 -0.072,0 -0.27284,0.1294 -0.72288,0.46574 -0.44358,0.3315 -0.6115,0.47116 -0.79212,0.65874 -0.105,0.1092 -0.21564,0.1984 -0.2457,0.1984 -0.03,0 -0.0838,0.0352 -0.1194,0.078 -0.0356,0.043 -0.1874,0.1362 -0.3372,0.20742 -0.1498,0.0712 -0.34234,0.20266 -0.42782,0.29232 -0.0854,0.0896 -0.1782,0.163 -0.20618,0.163 -0.028,0 -0.1606,0.1012 -0.29498,0.2249 -0.1342,0.1236 -0.31538,0.27252 -0.40236,0.33074 -0.087,0.0582 -0.5163,0.45706 -0.95404,0.88634 -0.43772,0.4293 -0.81742,0.78052 -0.84376,0.78052 -0.0686,0 -0.34472,0.27346 -0.34472,0.34126 0,0.0312 -0.381,0.4373 -0.84666,0.90228 -0.46568,0.465 -0.84668,0.86308 -0.84668,0.88466 0,0.1086 -1.60902,1.62888 -1.724,1.62888 -0.0208,0 -0.1484,0.1012 -0.2835,0.2249 -0.1352,0.1236 -0.3392,0.29634 -0.4534,0.38366 -0.1142,0.0874 -0.28306,0.22422 -0.37524,0.30426 -0.0922,0.08 -0.1914,0.1456 -0.2203,0.1456 -0.029,0 -0.0854,0.0394 -0.1252,0.0874 -0.04,0.0482 -0.14,0.1158 -0.22232,0.1504 -0.0824,0.0346 -0.54226,0.4512 -1.02202,0.92572 -0.7986,0.78986 -1.1259,1.1847 -1.3383,1.61448 -0.0432,0.0874 -0.0938,0.1706 -0.1124,0.1852 -0.0878,0.0684 -0.1598,0.28782 -0.1904,0.58126 -0.03,0.28786 -0.021,0.33508 0.0878,0.4507 0.21632,0.23026 0.41346,0.25922 1.78314,0.26194 0.95666,0.002 1.29726,-0.014 1.34672,-0.0636 0.0364,-0.0364 0.1552,-0.0662 0.26418,-0.0662 0.1088,0 0.21052,-0.0204 0.22584,-0.045 0.016,-0.0248 0.1878,-0.06 0.38302,-0.0782 0.1954,-0.018 0.37946,-0.0574 0.40916,-0.0872 0.0298,-0.0298 0.1788,-0.054 0.33136,-0.054 0.1526,0 0.29206,-0.0238 0.31004,-0.053 0.018,-0.029 0.1574,-0.053 0.31004,-0.053 0.1526,0 0.303,-0.0256 0.33434,-0.057 0.0792,-0.0792 4.27246,-0.0794 4.47876,0 0.082,0.0314 0.27362,0.0572 0.42598,0.0572 0.1524,0 0.29964,0.0214 0.32728,0.0474 0.0276,0.0262 0.1456,0.0594 0.26194,0.0738 0.1164,0.014 0.36644,0.0654 0.55562,0.113 0.1892,0.0478 0.4035,0.0998 0.47626,0.1156 0.0728,0.016 0.168,0.0432 0.21166,0.0608 0.0726,0.0292 0.42288,0.1138 0.8202,0.1984 0.0874,0.018 0.20638,0.052 0.26458,0.0744 0.0582,0.0224 0.23682,0.0818 0.39688,0.1322 0.35168,0.1106 1.03484,0.4414 1.1175,0.54098 0.0328,0.0396 0.0836,0.0718 0.113,0.0718 0.0294,0 0.1288,0.08 0.22092,0.1776 0.0922,0.0976 0.21996,0.20568 0.28406,0.24 0.0642,0.0342 0.1166,0.0886 0.1166,0.1204 0,0.032 0.0512,0.1026 0.114,0.1568 0.0626,0.0544 0.0988,0.0988 0.0802,0.0988 -0.018,0 0.014,0.084 0.0712,0.1868 0.0576,0.1028 0.105,0.2189 0.105,0.25812 0,0.0392 0.0358,0.101 0.0794,0.1372 0.0488,0.0404 0.0794,0.1566 0.0794,0.301 0,0.1294 0.0252,0.28208 0.0558,0.33948 0.1306,0.24402 0.0306,1.1744 -0.1656,1.5416 -0.027,0.0506 -0.0492,0.122 -0.0494,0.1588 -5.2e-4,0.0848 -0.35458,0.78008 -0.4541,0.89124 -0.0412,0.046 -0.0748,0.099 -0.0748,0.118 0,0.0916 -0.39042,0.62114 -0.63014,0.85476 -0.1482,0.1444 -0.26944,0.28414 -0.26944,0.31046 0,0.0264 -0.30912,0.36058 -0.68694,0.74282 -0.3778,0.38222 -0.9918,1.00452 -1.36446,1.38288 -0.8932,0.90688 -1.36004,1.34938 -1.42368,1.34938 -0.0286,0 -0.1078,0.0596 -0.1762,0.1322 -0.0684,0.0728 -0.1538,0.1322 -0.19,0.1322 -0.0362,0 -0.0736,0.018 -0.0834,0.0408 -0.0318,0.0732 -0.54296,0.4659 -0.70556,0.542 -0.17,0.0796 -0.54262,0.3616 -0.74472,0.5637 -0.068,0.068 -0.1544,0.1238 -0.1922,0.124 -0.0378,0 -0.14,0.0482 -0.2273,0.1066 -0.0874,0.0584 -0.30758,0.1792 -0.48948,0.26864 -0.1818,0.0894 -0.33072,0.1816 -0.33072,0.2048 0,0.0232 -0.0416,0.0564 -0.0926,0.0734 -0.1052,0.0354 -0.1588,0.0692 -0.65856,0.41782 -0.1982,0.1382 -0.38128,0.25136 -0.4067,0.25136 -0.0254,0 -0.0764,0.0364 -0.1134,0.081 -0.0668,0.0804 -0.66984,0.3953 -0.7572,0.3953 -0.0466,0 -0.35726,0.1282 -0.524,0.21612 -0.0506,0.0266 -0.1174,0.0484 -0.1484,0.0484 -0.0638,0 -0.36028,0.1396 -0.79052,0.37236 -0.1594,0.0862 -0.32662,0.1568 -0.37136,0.1568 -0.0448,0 -0.169,0.0596 -0.27606,0.1322 -0.107,0.0728 -0.2191,0.1322 -0.24896,0.1322 -0.05,0 -0.54434,0.20994 -0.756,0.32104 -0.0496,0.026 -0.1926,0.0632 -0.3175,0.0824 -0.125,0.02 -0.29042,0.0792 -0.36768,0.1332 -0.0772,0.054 -0.177,0.0982 -0.22176,0.0982 -0.0448,0 -0.0944,0.0212 -0.1104,0.0472 -0.0368,0.0596 -0.88592,0.48206 -0.96888,0.48206 -0.034,0 -0.1214,0.0596 -0.194,0.1322 -0.0728,0.0728 -0.1914,0.1322 -0.26386,0.1322 -0.0724,0 -0.1446,0.0212 -0.1606,0.047 -0.016,0.0258 -0.0934,0.0632 -0.1718,0.0828 -0.0786,0.02 -0.20744,0.0818 -0.28648,0.1382 -0.079,0.0562 -0.18,0.1024 -0.22458,0.1024 -0.0444,0 -0.3116,0.1186 -0.59354,0.26338 -0.28198,0.1448 -0.59334,0.27854 -0.69192,0.29702 -0.0986,0.018 -0.2339,0.0766 -0.30068,0.1292 -0.0668,0.0526 -0.20972,0.112 -0.31762,0.1324 -0.108,0.0202 -0.20926,0.058 -0.22522,0.0838 -0.016,0.0258 -0.0858,0.047 -0.155,0.047 -0.0694,0 -0.1378,0.02 -0.1522,0.0424 -0.014,0.0234 -0.1476,0.0756 -0.29606,0.116 -0.1484,0.0404 -0.2957,0.1046 -0.32734,0.1428 -0.0316,0.0382 -0.0866,0.0692 -0.1222,0.0692 -0.106,0 -0.3741,0.1498 -0.48258,0.26986 -0.0556,0.0616 -0.1904,0.1476 -0.2996,0.1914 -0.1092,0.0438 -0.1984,0.1006 -0.1984,0.1266 0,0.026 -0.0316,0.0472 -0.0702,0.0472 -0.0386,0 -0.125,0.0584 -0.1918,0.1296 -0.067,0.0712 -0.192,0.145 -0.27774,0.1638 -0.0858,0.018 -0.23166,0.1002 -0.32408,0.1808 -0.0924,0.0806 -0.22296,0.1636 -0.29008,0.1846 -0.1406,0.044 -0.57402,0.45702 -0.72452,0.69056 -0.0562,0.0874 -0.21624,0.382 -0.35548,0.65486 -0.2066,0.40482 -0.25318,0.54694 -0.25318,0.77232 0,0.20038 0.0266,0.30024 0.0968,0.36378 0.1074,0.0972 0.3025,0.1164 0.35304,0.0346 0.018,-0.029 0.103,-0.053 0.189,-0.053 0.086,0 0.1976,-0.0216 0.24824,-0.0482 0.1796,-0.0942 0.8835,-0.1596 1.21418,-0.1128 0.1784,0.0252 0.4116,0.0262 0.51812,0.002 0.1066,-0.024 0.3406,-0.0224 0.52016,0.004 0.1796,0.026 0.47392,0.0478 0.6541,0.0484 0.1802,5.8e-4 0.34234,0.0248 0.36032,0.054 0.018,0.0292 0.098,0.053 0.1778,0.053 0.0798,0 0.1682,0.0232 0.1964,0.0514 0.0282,0.0282 0.2295,0.067 0.44714,0.086 0.34466,0.0302 0.41792,0.0556 0.5677,0.197 0.0946,0.0894 0.172,0.1828 0.172,0.20756 0,0.0248 0.0596,0.1002 0.1324,0.1676 0.0728,0.0674 0.1322,0.1806 0.1322,0.25148 0,0.0708 0.0248,0.1536 0.055,0.1838 0.0318,0.0318 0.055,0.3186 0.055,0.68058 0,0.36198 -0.0232,0.6488 -0.055,0.6806 -0.0302,0.0302 -0.0554,0.1156 -0.0558,0.1898 -9e-4,0.1544 -0.1022,0.4579 -0.26054,0.78062 -0.06,0.1222 -0.1092,0.26036 -0.1092,0.30684 0,0.1024 -0.50058,1.12424 -0.60998,1.24514 -0.0428,0.0474 -0.078,0.1028 -0.078,0.123 0,0.0494 -0.60954,0.84666 -0.71264,0.93224 -0.0446,0.037 -0.0812,0.0964 -0.0812,0.132 0,0.0356 -0.0476,0.1078 -0.1058,0.1604 -0.0582,0.0526 -0.1058,0.1194 -0.1058,0.1482 0,0.095 -0.3571,0.58854 -0.5819,0.80426 -0.1214,0.1164 -0.25494,0.27716 -0.29696,0.35718 -0.042,0.08 -0.1064,0.1456 -0.1432,0.1456 -0.0716,0 -0.5655,0.47856 -0.5655,0.5479 0,0.0498 -0.99554,1.03762 -1.1414,1.13256 -0.0562,0.0366 -0.1378,0.0826 -0.1816,0.1024 -0.136,0.0616 -0.635,0.55964 -0.635,0.63376 0,0.0388 -0.0314,0.0704 -0.0698,0.0704 -0.0766,0 -0.82984,0.75214 -0.82984,0.82864 0,0.0584 -0.6479,0.70594 -0.70636,0.70594 -0.0614,0 -0.1932,0.1418 -0.1932,0.20788 0,0.0312 -0.0318,0.0566 -0.0704,0.0566 -0.0896,0 -1.25248,1.2471 -1.25248,1.3433 0,0.0428 -0.061,0.1134 -0.65764,0.75964 -0.24824,0.26892 -0.46634,0.54872 -0.48468,0.62176 -0.018,0.073 -0.052,0.1328 -0.0746,0.1328 -0.0228,0 -0.0894,0.1012 -0.1484,0.2249 -0.0588,0.1236 -0.20434,0.31902 -0.32332,0.43406 -0.119,0.115 -0.21634,0.23432 -0.21634,0.26506 0,0.0308 -0.20142,0.25136 -0.44758,0.49032 -0.24618,0.23894 -0.48666,0.51258 -0.5344,0.60808 -0.0988,0.1976 -1.86792,1.99924 -1.96316,1.99924 -0.0342,0 -0.0702,0.018 -0.08,0.0408 -0.01,0.0224 -0.1486,0.1474 -0.30868,0.27782 -0.16,0.1304 -0.29898,0.25496 -0.30868,0.2768 -0.01,0.0218 -0.0472,0.0396 -0.0834,0.0396 -0.0362,0 -0.1216,0.0596 -0.19,0.1322 -0.0684,0.0728 -0.1628,0.1322 -0.20986,0.1322 -0.047,0 -0.1684,0.0774 -0.26982,0.172 -0.1014,0.0946 -0.26702,0.21352 -0.3682,0.26426 -0.1012,0.0508 -0.21972,0.1134 -0.26338,0.1394 -0.0436,0.026 -0.1508,0.0792 -0.23812,0.1184 -0.0872,0.0392 -0.23018,0.1194 -0.3175,0.1782 -0.23766,0.1602 -0.36166,0.2359 -0.44978,0.27444 -0.1502,0.0658 -0.7147,0.54494 -0.8996,0.76378 -0.38552,0.45632 -0.61254,0.65688 -0.95214,0.84126 -0.0804,0.0436 -0.28054,0.1686 -0.44472,0.2778 -0.1642,0.1092 -0.31772,0.1984 -0.34118,0.1984 -0.0234,0 -0.0986,0.0596 -0.167,0.1322 -0.0684,0.0728 -0.1736,0.1334 -0.2341,0.1346 -0.1042,0.002 -0.29928,0.1054 -0.64414,0.34064 -0.0844,0.0576 -0.38484,0.33748 -0.66744,0.62186 -0.47244,0.47542 -0.54168,0.5727 -0.8599,1.20848 -0.1904,0.38028 -0.34608,0.74966 -0.34608,0.82084 0,0.0712 -0.0298,0.1798 -0.0662,0.24144 -0.0484,0.0818 -0.05,0.118 -0.006,0.134 0.0414,0.016 0.0298,0.0848 -0.0374,0.22378 -0.0536,0.111 -0.1246,0.354 -0.1576,0.53998 -0.033,0.186 -0.0808,0.4453 -0.1062,0.57628 -0.0254,0.131 -0.0724,0.41672 -0.1046,0.635 -0.0322,0.21828 -0.1032,0.58736 -0.1578,0.8202 -0.0546,0.23284 -0.1344,0.63764 -0.1774,0.89958 -0.0766,0.4676 -0.1012,0.62906 -0.2733,1.79918 -0.0472,0.32014 -0.1062,0.68924 -0.1312,0.8202 -0.025,0.131 -0.0582,0.34528 -0.0738,0.47624 -0.0282,0.23762 -0.1628,1.0835 -0.24404,1.5346 -0.1074,0.59556 -0.21974,1.21074 -0.26094,1.42874 -0.22052,1.16668 -0.27502,1.43068 -0.35784,1.7331 -0.0418,0.1528 -0.0708,0.33144 -0.0644,0.39688 0.006,0.0654 -0.016,0.186 -0.0492,0.26794 -0.0336,0.082 -0.061,0.194 -0.061,0.24886 0,0.055 -0.0216,0.1546 -0.048,0.22146 -0.0468,0.1184 -0.28042,1.09984 -0.3502,1.47092 -0.02,0.1018 -0.079,0.3519 -0.1332,0.55564 -0.32178,1.21138 -0.49036,2.17474 -0.6667,3.81 -0.0592,0.54846 -0.0484,1.25184 0.0288,1.87854 0.1374,1.11598 0.1514,0.97496 -0.1092,1.0956 -0.34358,0.159 -0.46818,0.1732 -0.75874,0.0858 z"
       id="path1176" />
  </g>
</svg>
