<?xml version="1.0" standalone="no"?>
<!DOCTYPE svg PUBLIC "-//W3C//DTD SVG 20010904//EN"
 "http://www.w3.org/TR/2001/REC-SVG-20010904/DTD/svg10.dtd">
<svg version="1.0" xmlns="http://www.w3.org/2000/svg"
 width="905.000000pt" height="1330.000000pt" viewBox="0 0 905.000000 1330.000000"
 preserveAspectRatio="xMidYMid meet">
<metadata>
Created by potrace 1.16, written by Peter Selinger 2001-2019
</metadata>
<g transform="translate(0.000000,1330.000000) scale(0.100000,-0.100000)"
fill="#000000" stroke="none">
<path d="M4735 12983 c-16 -3 -34 -9 -39 -14 -6 -5 -19 -9 -30 -9 -12 0 -34
-7 -50 -15 -15 -8 -36 -15 -45 -15 -9 0 -29 -7 -45 -15 -15 -8 -33 -15 -39
-15 -6 0 -58 -24 -115 -52 -144 -73 -152 -78 -152 -89 0 -5 -4 -9 -9 -9 -11 0
-278 -265 -313 -311 -46 -59 -72 -152 -65 -231 6 -66 5 -69 -21 -86 -15 -9
-32 -21 -39 -27 -6 -5 -26 -21 -44 -35 -18 -14 -66 -59 -106 -100 -72 -73 -74
-74 -58 -35 76 184 88 248 105 550 11 188 8 269 -11 280 -5 4 -9 14 -9 24 0
34 -59 101 -106 122 -60 25 -148 25 -189 0 -61 -36 -137 -224 -154 -376 -12
-105 1 -411 18 -428 6 -6 11 -17 11 -25 0 -23 72 -182 82 -182 5 0 8 -5 8 -11
0 -19 64 -119 76 -119 26 0 20 -30 -12 -61 -19 -18 -34 -37 -34 -41 0 -10 -17
-32 -43 -56 -10 -9 -43 -50 -74 -89 -31 -40 -59 -73 -63 -73 -4 0 -10 26 -13
58 -3 31 -13 89 -22 127 -9 39 -20 93 -24 120 -5 28 -13 68 -19 90 -6 22 -17
72 -26 110 -38 184 -59 265 -67 265 -5 0 -9 6 -9 13 0 26 -142 140 -164 131
-15 -6 -41 -68 -54 -129 -20 -93 -35 -306 -28 -405 6 -105 53 -270 95 -340 11
-19 25 -44 30 -55 16 -35 83 -106 110 -117 14 -6 40 -14 57 -17 l32 -6 -92
-136 c-50 -75 -99 -147 -109 -160 -10 -13 -22 -31 -27 -39 -17 -27 -19 -5 -8
95 14 119 -2 266 -42 389 -5 17 -19 63 -31 101 -12 39 -26 74 -31 80 -4 5 -8
15 -8 23 0 8 -7 30 -16 50 -77 171 -97 196 -182 225 -38 13 -47 13 -85 -1 -23
-9 -46 -23 -52 -32 -38 -58 -58 -284 -35 -397 5 -26 14 -73 20 -103 6 -30 15
-74 20 -98 15 -69 66 -213 94 -267 62 -118 156 -191 237 -183 22 2 39 2 39 0
0 -3 -88 -157 -110 -192 -5 -8 -26 -49 -47 -90 -21 -41 -40 -77 -43 -80 -3 -3
-13 -21 -23 -40 -10 -19 -33 -60 -52 -90 l-35 -55 0 78 c0 46 7 99 16 128 14
43 15 68 6 197 -6 81 -18 181 -26 222 -8 41 -20 101 -26 133 -7 31 -16 57 -21
57 -5 0 -9 7 -9 15 0 14 -13 46 -51 131 -11 23 -19 46 -19 52 0 6 -3 12 -7 14
-5 2 -17 21 -28 42 -41 81 -135 156 -195 156 -32 0 -75 -39 -85 -78 -4 -15
-10 -29 -14 -32 -4 -3 -18 -36 -32 -75 -22 -64 -24 -84 -22 -230 0 -88 6 -181
12 -207 6 -27 16 -69 21 -95 6 -26 15 -52 20 -57 6 -6 10 -17 10 -24 0 -28 72
-167 119 -229 37 -50 59 -69 116 -98 39 -19 74 -35 79 -35 21 0 66 -45 86 -85
l22 -45 -32 -67 c-37 -78 -92 -187 -144 -288 -20 -38 -36 -75 -36 -82 0 -7 -4
-21 -10 -31 -5 -9 -16 -34 -26 -54 l-16 -38 -26 38 c-23 33 -26 45 -23 114 1
42 6 90 10 106 10 35 -4 270 -20 327 -14 50 -38 120 -54 160 -7 17 -17 42 -23
56 -6 15 -29 81 -52 148 -51 153 -81 203 -136 230 -64 33 -169 24 -189 -15 -5
-11 -21 -35 -35 -54 -24 -33 -25 -43 -28 -190 -4 -184 12 -319 52 -435 23 -67
79 -185 89 -185 4 0 7 -6 7 -13 0 -26 83 -95 158 -132 147 -70 154 -76 187
-139 11 -21 25 -41 32 -43 15 -6 17 -66 3 -91 -23 -41 -50 -113 -50 -131 0
-12 -4 -21 -9 -21 -5 0 -12 -16 -15 -35 -4 -19 -13 -47 -21 -62 -8 -15 -15
-38 -15 -50 0 -12 -4 -24 -9 -27 -5 -4 -12 -25 -16 -49 -4 -23 -11 -46 -15
-52 -4 -5 -11 -26 -14 -45 -4 -19 -11 -44 -16 -55 -5 -11 -19 -55 -32 -97 -14
-46 -28 -74 -34 -70 -5 4 -18 29 -28 55 -20 53 -18 90 10 202 10 39 18 88 18
110 0 56 -24 244 -33 264 -5 9 -20 41 -34 71 -36 75 -99 183 -117 200 -3 3
-10 14 -17 25 -71 118 -95 155 -103 155 -6 0 -10 5 -10 10 0 13 -37 50 -50 50
-5 0 -10 4 -10 9 0 19 -116 64 -165 64 -30 0 -92 -18 -108 -31 -41 -36 -77
-162 -70 -243 5 -63 46 -236 63 -267 5 -9 19 -39 31 -67 12 -27 24 -52 28 -55
3 -3 31 -53 61 -112 30 -60 58 -108 62 -108 4 0 8 -5 8 -11 0 -14 54 -85 94
-123 30 -29 105 -66 133 -66 16 0 104 -40 113 -51 3 -3 15 -11 28 -18 12 -6
22 -19 22 -27 0 -9 14 -34 31 -55 l31 -39 -26 -68 c-32 -84 -56 -157 -68 -202
-17 -64 -39 -154 -53 -211 -7 -31 -17 -64 -22 -74 -9 -15 -12 -14 -27 11 -24
35 -27 63 -29 234 -2 132 -5 152 -30 220 -52 140 -80 200 -110 232 -13 14 -34
42 -46 62 -13 20 -27 36 -32 36 -5 0 -9 6 -9 13 0 8 -8 23 -17 35 -10 12 -25
30 -34 41 -29 39 -86 96 -118 121 -18 14 -42 33 -53 43 -12 9 -27 17 -34 17
-7 0 -14 6 -17 13 -5 17 -105 16 -116 -2 -5 -7 -20 -13 -35 -13 -14 0 -27 -6
-27 -12 -1 -6 -2 -15 -3 -21 0 -5 -14 -37 -30 -70 -27 -55 -28 -65 -23 -140 8
-105 28 -164 110 -332 27 -57 60 -114 73 -128 13 -14 24 -28 24 -30 0 -5 164
-168 201 -198 36 -30 150 -87 173 -87 7 0 30 -7 49 -15 20 -8 48 -15 62 -15
14 0 25 -6 25 -12 0 -7 6 -25 14 -40 31 -58 29 -96 -9 -248 -9 -36 -23 -94
-31 -130 -29 -137 -42 -197 -52 -240 -6 -25 -16 -73 -23 -107 -6 -35 -16 -63
-21 -63 -6 0 -8 7 -4 15 3 8 1 15 -5 15 -17 0 -46 83 -53 155 -15 145 -37 301
-48 335 -38 121 -134 300 -184 340 -8 7 -14 19 -14 26 0 8 -4 14 -10 14 -5 0
-10 7 -10 15 0 20 -126 146 -165 167 -131 68 -154 78 -187 78 -20 0 -57 -9
-82 -19 -39 -17 -45 -23 -44 -50 1 -17 -4 -37 -11 -44 -6 -8 -18 -54 -27 -102
-14 -75 -15 -98 -4 -159 25 -146 74 -282 121 -338 39 -46 82 -88 90 -88 5 0 9
-5 9 -11 0 -6 6 -16 13 -24 6 -7 31 -35 54 -61 22 -27 52 -61 65 -75 37 -40
197 -159 213 -159 8 0 15 -4 15 -9 0 -5 13 -12 30 -16 16 -4 32 -11 35 -16 8
-12 82 -12 87 0 8 23 42 15 57 -14 9 -16 26 -41 39 -55 13 -14 20 -31 16 -40
-7 -15 -10 -36 -40 -250 -9 -63 -20 -129 -25 -146 -6 -18 -14 -54 -19 -80 -5
-27 -16 -76 -24 -109 -30 -121 -48 -191 -61 -250 -36 -156 -36 -155 -65 -170
-16 -8 -36 -15 -46 -15 -9 0 -38 -21 -64 -47 -74 -74 -110 -103 -136 -109 -26
-7 -31 5 -12 24 10 9 9 15 -2 27 -33 32 -100 -42 -100 -111 0 -17 -7 -37 -15
-44 -8 -7 -15 -19 -15 -26 0 -8 -4 -14 -9 -14 -5 0 -11 -10 -15 -22 -5 -21
-98 -128 -111 -128 -3 0 -27 -23 -53 -52 -26 -28 -71 -74 -100 -102 -30 -28
-77 -75 -105 -104 -103 -106 -135 -138 -171 -169 -20 -17 -36 -34 -36 -37 0
-13 -131 -133 -164 -150 -46 -24 -103 -112 -88 -136 5 -9 13 -31 17 -50 8 -36
9 -39 45 -111 23 -47 62 -79 97 -79 20 -1 63 -33 63 -48 0 -17 50 -23 78 -10
15 8 30 26 35 43 5 17 13 37 17 45 4 9 11 31 15 50 8 35 37 86 71 127 11 12
30 37 44 55 33 43 121 131 200 198 35 30 99 89 142 130 43 41 121 115 173 164
52 49 95 95 95 102 0 6 7 14 15 18 8 3 15 10 15 16 0 19 43 70 60 70 28 0 40
20 28 46 -10 20 -4 29 53 84 61 59 65 62 103 55 22 -3 46 -11 54 -17 23 -19
178 -15 242 7 30 10 57 21 60 24 5 6 113 63 207 110 55 27 63 40 37 62 -12 10
-22 10 -48 1 -39 -14 -122 -16 -131 -3 -3 6 -26 13 -50 17 -25 3 -45 10 -45
15 0 4 -16 11 -35 15 -62 11 -64 29 -12 82 26 26 47 52 47 58 0 5 26 35 58 65
203 197 522 519 522 528 0 6 21 22 48 35 47 25 342 321 417 420 42 54 70 62
193 52 78 -6 106 -15 147 -48 53 -42 96 -76 115 -88 50 -33 104 -87 129 -127
15 -23 58 -75 96 -115 71 -74 85 -92 107 -138 7 -14 15 -27 18 -30 3 -3 15
-25 28 -50 l23 -45 -19 -60 -19 -60 -57 3 c-49 3 -67 -1 -134 -34 -42 -21 -79
-41 -82 -45 -3 -3 -16 -10 -29 -14 -35 -11 -121 -65 -121 -76 0 -5 -6 -9 -13
-9 -7 0 -61 -48 -120 -106 -97 -96 -135 -137 -252 -269 -76 -87 -116 -200 -95
-275 5 -19 15 -56 22 -83 7 -26 18 -47 24 -47 7 0 14 -5 16 -11 4 -13 72 -27
177 -36 67 -5 72 -7 55 -20 -34 -24 -126 -107 -163 -146 -20 -21 -53 -56 -74
-78 -86 -90 -114 -226 -67 -319 47 -91 116 -135 202 -127 96 10 236 41 293 65
173 75 238 128 370 302 27 36 53 70 57 75 5 6 32 42 60 80 29 39 65 84 80 100
15 17 28 35 28 42 0 6 3 13 8 15 18 8 42 74 42 118 0 32 6 55 19 71 l18 23 8
-68 c10 -100 -5 -724 -19 -751 -15 -29 -42 -55 -56 -55 -6 0 -22 12 -35 26
-30 32 -79 59 -125 68 -39 7 -187 -12 -196 -25 -3 -5 -14 -9 -25 -9 -18 0 -61
-21 -214 -106 -33 -19 -72 -39 -87 -46 -16 -7 -28 -16 -28 -20 0 -4 -5 -8 -12
-8 -11 0 -195 -119 -225 -145 -6 -5 -25 -21 -42 -33 -45 -35 -111 -101 -111
-111 0 -5 -3 -11 -7 -13 -11 -4 -53 -65 -53 -76 0 -6 -7 -23 -15 -38 -17 -33
-21 -154 -5 -154 6 0 10 -7 10 -15 0 -8 9 -24 20 -35 11 -11 20 -22 20 -25 0
-8 54 -54 63 -55 5 0 15 -7 23 -15 31 -31 90 -39 177 -26 45 7 104 19 131 27
74 21 77 16 13 -16 -131 -67 -364 -244 -466 -355 -72 -79 -91 -121 -91 -196 0
-109 43 -163 158 -195 53 -14 72 -15 114 -6 27 7 64 12 81 12 28 0 22 -7 -68
-65 -55 -36 -101 -69 -103 -75 -2 -5 -9 -10 -15 -10 -7 0 -30 -16 -52 -35 -22
-19 -60 -52 -85 -72 -92 -78 -171 -157 -186 -187 -27 -54 -47 -120 -47 -158 0
-76 61 -158 134 -179 42 -13 148 1 196 26 15 8 33 15 40 15 6 0 13 3 15 8 2 4
32 21 68 38 36 18 108 52 160 78 100 48 250 142 250 157 0 5 6 9 13 9 24 1
160 143 204 215 38 61 73 149 73 182 0 66 9 83 42 83 27 0 30 -3 23 -22 -4
-13 -11 -43 -17 -68 -17 -80 -63 -244 -78 -285 -22 -58 -50 -154 -50 -173 0
-11 -4 -23 -9 -26 -5 -3 -12 -23 -15 -43 -13 -72 -30 -103 -68 -128 -38 -25
-58 -31 -58 -17 0 4 -23 23 -51 42 -47 32 -55 34 -132 34 -80 0 -147 -17 -247
-60 -19 -9 -44 -19 -55 -23 -89 -34 -355 -193 -355 -212 0 -5 -5 -9 -12 -9
-10 0 -146 -134 -195 -192 -20 -25 -47 -72 -73 -129 -30 -65 -2 -156 69 -230
31 -32 41 -37 48 -25 4 8 37 20 73 26 36 7 85 18 110 25 25 7 64 16 87 20 24
4 45 11 49 16 3 5 14 9 26 9 11 0 36 7 56 16 73 31 167 78 188 93 12 9 32 23
44 31 12 8 28 20 34 25 6 6 40 33 76 62 67 53 113 99 142 144 9 14 23 33 30
40 24 26 58 78 58 89 0 5 4 10 9 10 5 0 12 13 16 30 4 16 10 30 15 30 5 0 11
13 15 30 4 16 11 30 17 30 6 0 7 11 4 27 -7 24 4 42 25 43 7 0 -9 -72 -67
-302 -23 -92 -43 -185 -55 -253 -33 -189 -42 -229 -52 -240 -7 -7 -19 -22 -27
-34 -20 -29 -28 -27 -67 18 -18 22 -48 47 -66 56 -43 22 -130 30 -192 17 -98
-21 -150 -34 -160 -42 -5 -4 -25 -11 -42 -15 -18 -3 -33 -11 -33 -16 0 -5 -5
-9 -11 -9 -14 0 -133 -71 -137 -82 -2 -4 -10 -8 -17 -8 -17 0 -135 -119 -135
-135 0 -8 -4 -15 -8 -17 -4 -1 -30 -39 -57 -83 -44 -72 -49 -87 -53 -152 -4
-65 -1 -78 27 -135 39 -82 83 -127 125 -130 58 -3 131 4 141 13 5 5 15 9 23 9
16 0 185 99 190 112 2 4 8 8 13 8 11 0 72 42 77 53 2 4 8 7 13 7 11 0 72 42
77 53 2 4 8 7 14 7 26 0 125 89 160 145 14 22 39 54 55 72 47 52 73 114 73
175 0 43 5 59 21 74 l21 19 -7 -190 -7 -190 -63 -60 c-80 -76 -127 -175 -141
-295 -4 -30 -11 -63 -16 -73 -5 -10 -16 -113 -24 -230 -16 -223 -15 -231 26
-357 10 -30 25 -68 34 -85 9 -16 16 -36 16 -42 0 -7 5 -13 10 -13 6 0 10 -6
10 -13 0 -31 110 -107 156 -107 45 0 131 59 164 112 38 61 70 133 70 155 0 11
4 23 9 29 12 12 32 120 41 219 13 137 -10 425 -43 545 -26 94 -59 140 -155
217 l-34 26 5 76 c8 124 30 261 42 261 6 0 21 -9 33 -20 18 -17 22 -32 22 -78
0 -52 16 -116 39 -160 30 -55 88 -151 106 -172 28 -34 124 -131 156 -155 52
-41 89 -65 99 -65 5 0 10 -4 10 -8 0 -18 83 -43 186 -56 168 -21 213 -11 241
53 9 22 25 42 35 44 19 5 25 27 8 27 -7 0 -8 18 -4 49 6 46 4 53 -37 112 -51
76 -96 123 -164 170 -27 18 -52 36 -55 39 -14 14 -70 50 -79 50 -5 0 -11 3
-13 8 -5 11 -66 52 -78 52 -5 0 -10 3 -10 8 0 9 -65 49 -180 108 -78 41 -153
46 -205 14 l-32 -20 -20 23 c-48 53 -53 68 -43 142 14 109 60 333 85 415 17
58 30 107 40 153 7 33 15 34 39 0 15 -21 19 -44 20 -127 1 -98 2 -104 45 -190
24 -49 59 -112 79 -140 65 -94 309 -326 342 -326 6 0 10 -4 10 -9 0 -5 14 -12
30 -16 17 -4 30 -10 30 -15 0 -14 92 -33 160 -33 121 0 186 25 236 90 l27 35
-17 102 c-14 84 -23 109 -53 153 -20 29 -40 53 -45 53 -4 0 -8 5 -8 10 0 6 -8
18 -17 28 -220 230 -323 322 -361 322 -6 0 -12 4 -12 9 0 5 -13 12 -30 16 -17
4 -30 11 -30 15 0 5 -17 12 -37 16 -21 4 -44 11 -51 17 -6 5 -52 12 -100 15
-72 4 -91 2 -104 -11 -19 -20 -68 -33 -68 -19 0 6 -6 17 -13 24 -20 21 -37 67
-37 100 0 43 22 148 31 148 4 0 11 15 15 32 3 18 13 49 22 68 22 52 28 68 52
145 12 39 28 84 36 102 8 17 14 35 14 41 0 5 7 23 15 38 8 16 15 36 15 44 1 8
7 26 14 39 l14 24 8 -24 c4 -13 7 -28 5 -34 -2 -5 -2 -64 -2 -130 2 -125 20
-241 46 -291 8 -16 15 -35 15 -41 0 -7 5 -13 10 -13 6 0 10 -6 10 -13 0 -12 9
-26 50 -74 5 -7 10 -15 10 -18 0 -3 8 -13 18 -23 9 -10 34 -38 54 -62 20 -25
69 -72 109 -105 39 -33 77 -64 83 -70 27 -23 76 -55 85 -55 5 0 11 -3 13 -7 2
-5 26 -18 53 -31 28 -13 59 -28 70 -34 11 -7 57 -14 102 -16 80 -4 83 -4 121
27 22 17 47 48 56 68 10 21 24 51 33 67 12 22 14 43 9 93 -4 35 -11 72 -15 81
-5 9 -20 38 -32 64 -13 27 -27 48 -31 48 -5 0 -8 6 -8 13 0 8 -9 22 -20 32
-11 10 -20 24 -20 31 0 7 -4 14 -8 16 -4 1 -25 26 -45 53 -60 81 -81 108 -98
124 -8 9 -33 38 -55 66 -65 83 -115 125 -189 159 -22 11 -56 28 -75 38 -106
57 -203 78 -269 59 -39 -12 -52 -1 -70 59 -9 34 2 106 21 136 4 6 12 31 18 55
14 55 37 146 55 219 8 30 19 75 25 100 6 25 16 53 21 62 5 10 14 37 19 60 34
136 35 138 48 129 10 -6 14 -45 17 -147 2 -84 9 -163 19 -199 17 -64 74 -185
88 -185 4 0 8 -7 8 -15 0 -7 6 -18 13 -22 8 -4 24 -24 38 -43 13 -19 29 -40
34 -46 6 -6 28 -33 50 -59 65 -78 291 -305 304 -305 6 0 11 -4 11 -9 0 -9 126
-88 194 -122 32 -15 124 -18 134 -3 9 11 82 49 96 49 15 0 20 225 6 239 -5 5
-10 17 -10 25 0 38 -150 301 -172 301 -4 0 -8 4 -8 10 0 5 -21 38 -47 73 -27
36 -55 75 -63 87 -49 71 -161 190 -179 190 -6 0 -11 4 -11 9 0 9 -69 56 -130
89 -13 7 -38 21 -55 31 -75 44 -200 62 -256 37 -12 -5 -25 3 -45 30 -25 32
-28 45 -27 96 0 32 6 64 11 71 9 11 23 81 42 207 4 30 14 150 21 267 l12 211
32 -42 c32 -40 33 -44 37 -166 5 -141 17 -186 86 -325 42 -84 80 -145 127
-204 29 -36 152 -161 158 -161 4 0 20 -12 36 -28 61 -57 256 -182 283 -182 8
0 18 -4 23 -9 16 -13 111 -41 142 -41 57 0 133 38 133 65 0 8 6 15 13 17 9 3
13 44 15 146 4 165 5 161 -89 317 -24 39 -48 75 -53 81 -6 6 -30 33 -52 60
-23 27 -52 60 -64 74 -12 14 -27 32 -34 40 -21 28 -164 150 -175 150 -6 0 -11
4 -11 9 0 12 -136 76 -205 96 -83 23 -148 47 -160 57 -14 12 -109 10 -122 -3
-16 -16 -26 -7 -74 64 l-43 62 -8 390 c-5 215 -6 401 -3 415 6 22 8 23 16 7 6
-9 16 -17 23 -17 31 0 48 -38 50 -112 3 -75 20 -156 37 -172 5 -6 9 -17 9 -26
0 -52 170 -247 315 -360 39 -30 72 -57 75 -60 11 -12 68 -47 105 -65 22 -11
42 -23 45 -27 3 -3 18 -10 33 -13 15 -4 27 -11 27 -15 0 -5 14 -11 30 -15 17
-4 30 -11 30 -15 0 -5 17 -12 38 -16 20 -4 43 -11 50 -17 23 -18 143 -14 186
7 48 23 65 39 97 91 22 37 24 50 24 166 l0 125 -47 71 c-26 38 -73 97 -105
130 -32 34 -63 69 -69 79 -6 10 -19 22 -29 28 -11 6 -24 16 -30 22 -5 6 -32
26 -60 45 -27 19 -53 37 -56 42 -10 14 -262 137 -280 137 -10 0 -20 4 -23 9
-3 5 -23 12 -43 16 -21 4 -42 10 -48 15 -5 4 -39 15 -73 24 -58 14 -69 15
-116 1 -31 -9 -66 -29 -85 -47 -27 -27 -35 -30 -49 -20 -9 7 -29 20 -44 30
-20 12 -28 25 -28 46 0 30 -39 241 -65 351 -8 33 -17 85 -21 115 -3 30 -10 60
-14 65 -4 6 -10 27 -14 47 -4 20 -10 38 -14 40 -4 2 -17 31 -29 66 l-22 63 22
-3 c17 -2 23 -11 25 -35 2 -18 7 -33 13 -33 5 0 9 -6 9 -13 0 -13 90 -107 102
-107 4 0 18 -11 32 -23 27 -25 163 -97 184 -97 6 0 12 -4 12 -10 0 -5 6 -10
13 -10 6 0 25 -7 41 -15 105 -55 340 -69 493 -30 114 29 219 92 259 156 22 36
30 63 50 164 8 41 -21 138 -51 166 -49 49 -62 59 -73 59 -7 0 -12 4 -12 8 0
19 -98 52 -215 72 -64 11 -446 11 -505 0 -125 -23 -166 -32 -174 -41 -6 -5
-18 -9 -28 -9 -30 0 -114 -47 -137 -76 -12 -15 -21 -35 -21 -46 0 -52 -75 -20
-111 46 -13 25 -27 46 -31 46 -5 0 -8 5 -8 10 0 12 -41 73 -52 78 -5 2 -8 8
-8 14 0 23 -184 224 -250 273 -25 19 -136 114 -166 143 -7 6 -16 12 -21 12 -4
0 -24 15 -44 33 -59 53 -73 61 -136 77 l-42 11 22 26 c12 15 51 57 87 94 36
36 99 103 140 149 41 45 98 105 125 134 71 73 210 228 237 261 13 16 34 41 48
56 14 15 52 58 85 95 33 37 68 76 78 86 9 10 17 20 17 23 0 8 10 19 69 85 28
30 51 60 51 67 0 6 3 13 8 15 8 4 52 65 52 73 0 6 3 10 50 65 17 19 51 66 77
103 25 38 53 76 62 85 9 10 36 42 58 72 23 30 59 71 80 91 67 63 77 78 139
214 22 47 34 58 94 88 39 19 59 22 150 20 73 -1 114 -6 135 -17 17 -9 35 -16
41 -16 7 0 25 -7 40 -15 16 -8 37 -15 47 -15 9 0 17 -4 17 -9 0 -5 11 -12 25
-15 54 -14 337 -197 358 -233 4 -7 12 -13 17 -13 16 0 137 -127 199 -208 60
-81 151 -226 151 -242 0 -6 5 -19 12 -29 9 -16 5 -24 -30 -56 -23 -20 -42 -44
-42 -51 0 -8 -4 -14 -9 -14 -16 0 -33 -106 -25 -157 9 -63 60 -160 95 -180 16
-10 31 -29 34 -45 4 -15 11 -30 16 -33 5 -4 9 -15 9 -26 0 -42 49 -128 90
-158 39 -28 40 -29 22 -52 -10 -13 -26 -41 -37 -61 -14 -28 -34 -44 -81 -67
-34 -16 -73 -33 -88 -37 -14 -3 -26 -10 -26 -15 0 -5 -7 -9 -15 -9 -16 0 -153
-68 -171 -85 -21 -20 -44 -74 -44 -103 0 -37 38 -94 71 -106 15 -5 37 -6 51
-3 22 6 40 22 121 108 17 19 43 27 32 10 -13 -22 -24 -162 -15 -187 9 -24 14
-26 48 -19 20 4 39 11 40 16 2 5 10 9 17 9 17 0 75 60 75 78 0 6 4 12 9 12 5
0 12 14 16 30 4 17 11 30 15 30 5 0 12 17 15 38 4 20 11 51 16 67 4 17 13 64
18 105 32 238 35 249 71 250 27 0 63 -100 110 -305 10 -43 4 -95 -14 -130 -23
-45 -173 -197 -216 -220 -25 -13 -72 -49 -105 -80 l-60 -56 -55 6 c-30 2 -82
8 -115 11 -106 11 -288 -38 -301 -80 -4 -12 -12 -24 -18 -28 -7 -5 -12 -54
-15 -128 -2 -95 0 -125 12 -143 15 -22 98 -57 138 -57 10 0 21 -4 24 -10 11
-18 85 -11 115 10 31 22 105 51 113 44 2 -2 0 -30 -5 -61 -8 -50 -7 -58 12
-75 29 -28 82 -34 121 -14 17 9 40 16 50 16 30 0 68 50 79 105 8 39 7 70 -5
140 -17 96 -9 171 21 196 8 6 14 15 14 20 0 9 36 49 45 49 6 0 92 65 113 87
19 19 39 50 48 76 11 29 27 20 19 -10 -16 -58 -10 -107 18 -150 27 -42 27 -45
27 -212 0 -142 -3 -175 -17 -202 -10 -19 -23 -38 -29 -44 -19 -17 -121 -178
-128 -203 l-7 -22 -32 22 c-29 21 -43 23 -138 22 -79 -1 -116 -6 -147 -20 -23
-10 -42 -21 -42 -26 0 -4 -6 -8 -12 -8 -20 -1 -69 -76 -75 -117 -4 -20 -22
-63 -42 -95 -20 -32 -44 -73 -53 -91 -18 -34 -24 -132 -9 -142 5 -3 12 -19 16
-35 4 -17 10 -30 13 -30 4 0 15 -22 25 -50 10 -28 27 -55 40 -61 12 -7 27 -18
34 -25 7 -7 18 -14 25 -16 19 -7 12 -48 -17 -98 -14 -25 -28 -53 -31 -62 -4
-10 -10 -18 -15 -18 -5 0 -15 -16 -24 -36 -13 -32 -13 -38 1 -59 19 -29 88
-43 133 -27 22 8 34 7 48 -3 20 -16 63 -20 63 -6 0 24 32 17 64 -15 42 -42 73
-44 111 -4 36 38 55 91 55 159 0 46 2 52 13 38 22 -28 62 -31 86 -6 11 13 21
27 21 32 0 5 19 28 41 51 23 22 48 51 57 63 8 13 18 23 22 23 4 0 10 -30 14
-67 4 -38 11 -84 16 -104 6 -20 11 -61 12 -90 2 -48 -2 -60 -37 -113 -22 -33
-56 -92 -76 -130 -25 -51 -41 -70 -53 -68 -18 3 -76 -28 -76 -41 0 -10 -21 12
-36 38 -6 10 -19 23 -30 29 -10 6 -22 15 -26 21 -4 5 -51 11 -105 13 l-98 4
-37 40 c-40 44 -91 61 -145 50 -35 -8 -93 -55 -93 -76 0 -8 -5 -16 -12 -18 -6
-2 -13 -31 -16 -65 -4 -64 -15 -71 -50 -36 -29 28 -56 15 -81 -40 -21 -47 -23
-61 -18 -147 8 -149 39 -197 149 -235 31 -10 80 -35 110 -55 l53 -37 6 -76 c4
-44 14 -87 23 -102 9 -13 16 -37 16 -53 0 -37 30 -72 62 -72 31 0 88 28 88 43
0 8 4 7 12 -1 19 -19 28 -14 28 16 0 49 203 292 244 292 15 0 76 62 76 77 0 7
10 15 22 19 27 8 66 44 68 64 6 39 -3 61 -35 96 -31 33 -34 41 -29 78 3 22 9
50 14 61 5 11 19 45 31 75 12 30 28 62 34 70 7 8 14 22 17 30 7 21 17 -104 24
-306 l7 -171 -31 -6 c-37 -7 -103 -71 -126 -119 -9 -21 -14 -56 -13 -94 2 -55
-1 -66 -31 -108 -40 -56 -49 -101 -29 -147 23 -54 47 -143 47 -176 0 -16 6
-30 13 -31 80 -11 87 -14 77 -33 -6 -10 -22 -30 -35 -43 -14 -14 -25 -30 -25
-35 0 -5 -23 -22 -51 -36 -46 -23 -54 -24 -73 -12 -12 8 -37 18 -56 22 -19 4
-39 11 -45 15 -5 4 -26 11 -45 14 -19 4 -57 18 -85 31 -27 13 -71 26 -96 30
-37 5 -55 15 -87 47 -22 22 -45 37 -51 34 -6 -4 -11 -26 -11 -50 0 -23 -5 -67
-11 -98 -17 -83 10 -194 58 -242 37 -36 42 -38 123 -40 l45 -1 0 -65 0 -65 45
-23 c34 -17 61 -22 110 -21 98 2 110 0 110 -15 0 -20 47 -74 70 -81 25 -8 102
29 120 58 28 45 39 199 28 390 -3 55 18 117 39 117 8 0 13 -15 14 -42 1 -86
19 -275 33 -348 53 -282 53 -288 15 -331 -13 -15 -19 -37 -19 -69 0 -33 -5
-51 -17 -61 -59 -48 -167 -71 -286 -62 l-74 6 -17 -33 c-39 -80 -7 -186 77
-257 15 -13 30 -23 35 -23 4 0 21 -7 37 -16 17 -9 57 -18 90 -21 49 -4 70 -1
109 17 50 22 136 102 136 125 0 7 8 31 19 54 l18 42 12 -63 c7 -35 17 -80 22
-100 9 -34 6 -46 -26 -111 -20 -40 -39 -97 -44 -126 -6 -40 -16 -59 -39 -80
-16 -15 -42 -55 -57 -87 -15 -32 -33 -70 -39 -83 -16 -36 -14 -234 3 -254 30
-37 135 -5 186 58 19 23 35 49 35 57 0 7 5 19 10 24 6 6 17 64 25 130 8 65 18
138 21 162 3 23 11 42 17 42 7 -1 23 -24 37 -53 14 -29 27 -54 30 -57 3 -3 15
-25 28 -50 13 -25 32 -60 43 -79 21 -35 17 -64 -17 -129 -8 -15 -14 -37 -14
-49 0 -24 -27 -59 -127 -164 -78 -82 -105 -142 -107 -229 -1 -53 3 -71 22 -98
43 -60 112 -39 205 62 48 52 97 152 97 198 0 20 7 55 15 78 8 23 15 53 15 65
0 12 7 28 15 35 9 8 15 30 15 57 l0 44 40 -23 c21 -13 45 -33 51 -45 13 -25
145 -123 166 -123 7 0 13 -4 13 -8 0 -9 101 -42 129 -42 22 0 59 35 72 67 13
36 11 70 -8 111 -42 91 -128 136 -252 130 -65 -2 -70 -1 -100 30 -34 34 -69
47 -100 39 -25 -6 -32 0 -61 48 -13 22 -26 42 -29 45 -12 10 -64 128 -76 169
l-7 24 27 -21 c15 -12 34 -22 42 -22 14 0 58 -26 80 -46 7 -7 41 -26 77 -43
54 -27 76 -32 139 -33 62 0 82 4 114 23 21 12 40 26 43 30 3 3 31 21 63 39 69
39 74 63 26 131 -73 103 -121 134 -191 126 -56 -7 -132 -24 -155 -35 -10 -5
-33 -16 -51 -25 -44 -22 -48 -22 -85 13 -18 16 -36 30 -40 30 -5 0 -15 7 -23
15 -9 8 -24 15 -34 15 -10 0 -21 4 -24 9 -4 5 -23 12 -44 16 -20 3 -44 12 -53
18 -17 13 -34 70 -50 172 -5 32 -14 64 -19 69 -12 12 -13 58 -2 72 5 5 17 31
26 57 20 52 20 52 -35 110 -19 20 -31 49 -39 93 -14 72 -8 90 17 54 44 -63 74
-88 112 -94 44 -7 70 -34 112 -116 36 -68 88 -115 153 -135 51 -16 63 -17 114
-5 83 20 132 47 132 74 0 22 -61 86 -83 86 -6 0 -7 3 -3 7 3 4 26 6 51 4 83
-4 185 64 185 123 0 9 4 16 10 16 5 0 12 17 16 38 4 20 11 42 16 49 6 7 12 38
15 70 4 48 2 62 -15 81 -20 23 -21 23 -74 7 -74 -23 -117 -33 -162 -40 -21 -4
-46 -10 -55 -15 -9 -5 -56 -19 -105 -30 -48 -11 -98 -27 -110 -35 -25 -16 -40
-9 -50 22 -13 40 -83 43 -126 6 -11 -10 -20 -23 -20 -29 0 -7 -7 -14 -15 -18
-9 -3 -31 14 -62 49 -26 30 -54 55 -64 55 -24 0 -28 24 -40 220 -17 290 -18
391 -5 382 39 -23 106 -77 106 -84 0 -4 5 -8 11 -8 6 0 17 -7 25 -15 29 -29
207 -17 242 15 19 18 20 18 32 -8 31 -68 46 -96 55 -106 6 -6 22 -27 37 -46
58 -77 95 -110 120 -110 37 0 62 34 68 92 l5 51 30 -24 c50 -40 94 -61 115
-54 23 7 35 44 25 75 -6 19 -4 21 14 15 32 -10 75 3 91 28 12 20 21 50 37 130
10 52 -28 111 -118 179 -21 17 -22 19 -6 36 9 10 17 24 17 30 0 7 4 12 8 12 5
0 19 24 31 53 30 67 34 166 9 194 -22 24 -23 57 -3 77 8 8 15 23 15 33 0 10 7
36 15 58 16 46 19 123 6 158 -11 29 -58 80 -88 96 -27 14 -80 14 -88 1 -3 -6
-14 -10 -23 -10 -9 0 -30 -7 -46 -15 -35 -18 -88 -19 -105 -2 -8 8 -45 12
-109 12 l-97 0 -45 43 c-36 33 -50 41 -71 37 -20 -5 -32 2 -62 35 -21 22 -45
40 -53 40 -10 0 -2 17 25 53 22 28 43 65 46 80 l7 28 37 -38 c31 -33 92 -86
150 -130 23 -18 78 -16 85 3 3 9 6 35 6 58 l0 42 53 -1 c50 0 52 1 62 33 5 17
14 32 20 32 24 0 62 25 73 49 7 14 12 46 12 72 0 37 -5 52 -27 73 -26 27 -100
66 -124 66 -6 0 -9 6 -6 14 25 64 30 183 11 248 -10 33 -163 130 -263 166 -27
10 -76 16 -121 16 -63 0 -81 -3 -108 -23 -19 -13 -35 -35 -39 -52 l-5 -29 -52
46 c-28 26 -61 51 -73 57 -13 6 -23 14 -23 19 0 4 -6 8 -14 8 -18 0 -48 46
-44 67 2 13 9 10 34 -14 16 -17 52 -41 79 -53 62 -28 123 -22 203 22 109 60
108 59 169 53 56 -7 59 -9 93 -59 48 -70 50 -72 94 -116 30 -29 48 -39 85 -43
65 -7 81 4 81 58 l0 45 49 0 c59 0 75 15 69 69 l-3 40 52 -2 c44 -2 55 2 75
23 19 21 23 35 22 89 -1 39 -6 67 -12 69 -7 2 -12 10 -12 17 0 28 -148 125
-191 125 -27 0 -24 13 9 32 15 9 49 36 76 59 l48 42 -3 118 c-3 77 -8 122 -16
131 -7 6 -13 19 -13 28 0 18 -36 57 -108 119 -75 64 -98 73 -188 79 l-82 4 13
32 c7 17 16 50 20 73 4 23 16 55 28 70 31 39 30 158 -2 223 -37 76 -67 126
-89 148 -12 12 -22 26 -22 30 0 5 -22 19 -50 31 -27 12 -50 26 -50 31 0 4 -27
18 -59 30 -47 17 -71 21 -110 15 -28 -4 -51 -10 -51 -15 0 -4 -12 -11 -27 -15
-32 -8 -81 -59 -89 -92 -4 -13 -10 -23 -15 -23 -5 0 -9 -5 -9 -11 0 -7 -9 -30
-19 -53 -11 -23 -27 -59 -36 -81 -11 -27 -28 -46 -51 -57 -19 -10 -34 -14 -34
-10 -1 19 -31 149 -39 167 -10 22 -41 152 -41 173 0 14 -18 59 -47 119 -14 29
-14 33 3 56 29 39 51 49 66 32 30 -33 38 -45 38 -54 0 -15 103 -101 122 -101
9 0 20 -4 23 -10 3 -5 25 -10 47 -10 49 0 67 19 68 72 0 35 3 39 48 59 61 27
79 44 87 80 13 59 -28 138 -73 139 -43 1 -50 20 -54 150 -3 115 -5 128 -29
165 -15 22 -30 56 -34 75 -8 37 -50 90 -72 90 -7 0 -13 4 -13 9 0 5 -12 14
-27 20 -16 7 -39 18 -52 26 -29 16 -56 6 -66 -25 -3 -11 -13 -20 -20 -20 -22
0 -67 23 -94 48 -45 42 -135 27 -189 -31 -18 -19 -23 -34 -20 -63 4 -50 -21
-57 -51 -15 -12 16 -21 32 -21 35 0 9 -71 101 -81 104 -5 2 -9 8 -9 13 0 11
-69 103 -81 107 -5 2 -9 8 -9 13 0 5 -8 17 -17 27 -10 10 -36 40 -58 67 -22
27 -56 65 -75 86 -19 20 -45 47 -56 60 -50 56 -187 169 -203 169 -6 0 -11 4
-11 8 0 4 -12 13 -27 20 -16 6 -41 21 -58 32 -16 11 -38 23 -47 26 -10 4 -18
9 -18 13 0 5 -44 30 -110 61 -9 4 -36 11 -60 15 -25 4 -68 13 -96 20 -27 7
-89 16 -137 20 l-87 7 36 66 c20 37 72 103 119 151 45 47 107 113 136 146 175
194 319 318 319 275 0 -5 6 -10 14 -10 8 0 23 -15 35 -32 11 -18 30 -40 42
-48 12 -8 27 -20 33 -25 20 -19 89 -50 151 -69 33 -11 69 -23 80 -27 37 -16
163 -29 227 -23 80 7 191 32 245 55 42 18 42 18 31 51 -14 43 -32 63 -78 87
-21 11 -47 25 -57 30 -40 23 -113 51 -130 51 -11 0 -23 4 -28 9 -10 9 -50 19
-175 42 -32 6 -114 8 -195 5 -77 -3 -133 -2 -125 2 21 10 73 45 87 58 12 12
136 98 171 119 49 30 81 52 121 85 38 31 70 25 126 -25 28 -25 53 -45 57 -45
4 0 13 -6 20 -12 16 -16 101 -58 116 -58 6 0 12 -4 14 -9 2 -5 46 -23 98 -41
128 -43 241 -50 360 -22 47 11 111 26 143 33 35 7 57 17 57 26 0 7 -4 13 -9
13 -5 0 -29 19 -54 43 -60 56 -88 77 -103 77 -7 0 -14 3 -16 8 -1 4 -30 18
-63 30 -33 13 -69 28 -80 33 -26 12 -102 28 -190 41 -38 5 -86 14 -106 20 -20
6 -67 11 -103 12 -36 0 -66 4 -66 9 0 4 3 7 8 7 4 0 23 14 42 30 19 16 40 33
45 37 17 14 102 53 113 53 6 0 12 3 14 8 6 13 187 102 209 102 14 0 57 -36
124 -102 57 -57 109 -108 117 -113 26 -21 99 -55 116 -55 10 0 22 -4 28 -9 5
-5 29 -14 54 -19 25 -6 72 -18 105 -27 101 -28 164 -36 254 -33 l86 3 0 35 c0
27 -5 37 -22 45 -13 5 -23 13 -23 17 0 5 -7 8 -15 8 -7 0 -18 6 -22 13 -4 7
-30 31 -58 52 -27 22 -52 43 -55 46 -11 12 -128 79 -139 79 -6 0 -11 5 -11 10
0 6 -6 10 -12 10 -7 1 -31 9 -53 20 -22 11 -49 19 -60 20 -12 0 -25 4 -30 9
-6 5 -30 14 -55 20 -95 22 -154 39 -138 40 9 1 18 5 20 9 2 5 32 18 68 30 36
12 97 33 135 47 102 37 118 34 178 -27 58 -59 154 -128 178 -128 8 0 19 -4 25
-9 11 -11 128 -45 209 -61 33 -6 81 -18 107 -26 54 -16 151 -18 194 -5 16 5
69 15 117 21 61 9 90 17 94 27 3 8 2 18 -4 22 -5 3 -19 22 -30 41 -20 33 -56
56 -145 94 -20 9 -40 16 -45 16 -10 0 -60 22 -96 41 -10 5 -37 14 -60 19 -23
5 -82 18 -131 29 -50 12 -108 21 -130 21 -23 0 -65 3 -94 7 l-54 6 32 14 c18
7 41 13 51 13 11 0 52 12 92 26 39 14 99 32 132 39 104 23 149 36 161 46 6 5
31 12 57 15 41 6 47 4 69 -21 68 -81 122 -135 134 -135 8 0 14 -4 14 -10 0 -5
17 -12 38 -15 33 -5 74 -20 124 -46 10 -5 34 -13 55 -18 21 -6 70 -19 108 -30
50 -14 117 -21 240 -26 93 -3 175 -11 182 -16 16 -14 64 -7 75 11 7 11 -2 28
-40 68 -27 28 -54 52 -59 52 -17 0 -78 33 -86 47 -4 7 -15 13 -22 13 -8 0 -15
4 -15 8 0 4 -12 13 -27 19 -16 7 -35 17 -43 22 -23 15 -87 41 -99 41 -6 0 -19
5 -29 10 -25 15 -230 80 -252 80 -11 0 -30 5 -44 12 -25 11 -25 12 27 29 85
30 226 19 292 -23 10 -6 103 -26 164 -36 38 -5 150 12 226 35 91 28 170 57
175 64 3 3 16 10 29 14 84 26 291 190 291 230 0 22 -14 26 -137 33 -151 9
-314 6 -378 -8 -27 -5 -75 -15 -105 -21 -30 -6 -59 -14 -65 -19 -5 -4 -27 -10
-47 -14 -21 -4 -38 -11 -38 -16 0 -6 -6 -10 -12 -10 -22 0 -162 -74 -185 -97
-24 -25 -116 -53 -175 -53 -20 0 -57 -6 -80 -14 -24 -8 -65 -17 -93 -21 -27
-4 -57 -10 -65 -15 -8 -4 -33 -10 -55 -13 -37 -6 -39 -5 -20 9 11 9 47 28 80
44 96 46 144 84 290 225 83 81 165 176 165 191 0 3 7 12 15 20 20 20 20 73 0
80 -8 4 -25 0 -38 -9 -12 -8 -46 -18 -75 -22 -28 -4 -52 -11 -52 -16 0 -5 -7
-9 -16 -9 -9 0 -50 -16 -90 -35 -40 -19 -75 -35 -78 -35 -10 0 -111 -64 -114
-72 -2 -4 -8 -8 -13 -8 -11 0 -72 -42 -77 -52 -2 -5 -9 -8 -16 -8 -16 0 -106
-90 -106 -106 0 -7 -3 -14 -7 -16 -11 -4 -45 -56 -68 -103 -11 -22 -24 -43
-29 -47 -5 -3 -11 -26 -12 -50 -1 -33 -6 -44 -20 -46 -11 -2 -26 -6 -34 -9 -8
-4 -37 -12 -65 -19 -27 -6 -77 -19 -110 -28 -147 -41 -250 -54 -205 -26 23 14
51 34 64 45 7 6 19 15 28 20 103 66 168 119 229 187 41 45 82 90 92 100 9 10
17 23 17 28 0 6 4 10 9 10 10 0 66 85 94 144 15 31 17 44 8 62 -12 27 -36 31
-57 9 -9 -8 -24 -15 -33 -15 -25 0 -154 -53 -171 -70 -3 -3 -23 -14 -45 -25
-80 -39 -127 -77 -237 -187 -127 -126 -173 -207 -193 -340 -6 -41 -55 -88 -91
-88 -10 0 -32 -7 -48 -15 -15 -8 -35 -15 -43 -15 -14 0 -90 -30 -125 -50 -10
-6 -23 -10 -30 -10 -7 0 -24 -6 -38 -13 -42 -22 -90 -36 -90 -27 0 5 25 30 56
57 89 76 193 190 194 211 0 6 4 12 8 12 16 0 143 199 182 285 14 30 20 61 18
88 -3 35 -7 43 -27 45 -24 4 -121 -37 -121 -50 0 -5 -7 -8 -15 -8 -23 0 -255
-237 -255 -261 0 -5 -4 -9 -9 -9 -9 0 -81 -107 -81 -121 0 -5 -4 -9 -9 -9 -5
0 -13 -10 -17 -22 -4 -13 -18 -41 -33 -63 -25 -40 -30 -90 -19 -189 3 -31 -1
-35 -67 -61 -62 -25 -168 -77 -185 -90 -20 -16 -50 -26 -50 -17 0 4 25 46 55
92 113 173 157 283 198 492 15 81 -8 131 -45 95 -7 -7 -44 -37 -83 -66 -158
-121 -238 -233 -358 -501 -8 -19 -21 -80 -27 -135 -19 -163 -21 -176 -41 -196
-11 -11 -21 -19 -24 -19 -9 0 -70 -44 -73 -52 -2 -5 -10 -8 -17 -8 -7 0 -15
-3 -17 -8 -1 -4 -28 -28 -58 -52 -30 -25 -61 -51 -68 -57 -19 -18 -32 -16 -25
5 4 9 9 19 13 22 3 3 17 23 30 45 13 22 26 42 29 45 25 22 81 173 81 217 0 13
5 33 10 43 16 30 32 180 25 232 -8 56 -21 60 -84 27 -51 -26 -131 -97 -131
-115 0 -8 -4 -14 -8 -14 -11 0 -76 -132 -97 -200 -10 -30 -22 -64 -27 -75 -8
-19 -18 -64 -38 -165 -14 -72 -12 -164 5 -186 21 -27 18 -51 -6 -65 -62 -33
-399 -374 -399 -403 0 -4 -7 -14 -15 -22 -13 -14 -15 -4 -15 88 0 121 -10 145
-50 125 -25 -12 -100 -146 -100 -178 0 -8 -5 -20 -11 -26 -6 -6 -13 -48 -16
-93 -4 -57 -10 -83 -20 -87 -8 -3 -37 -52 -64 -108 -27 -56 -52 -105 -56 -108
-11 -12 -43 14 -43 34 0 30 -30 89 -45 89 -9 0 -15 -21 -18 -67 -5 -72 -27
-177 -40 -189 -4 -4 -7 -15 -7 -23 0 -34 -37 -85 -155 -217 -16 -18 -35 -39
-40 -46 -11 -15 -51 -63 -104 -127 -20 -24 -65 -76 -101 -114 -36 -38 -76 -82
-89 -98 -12 -15 -75 -81 -139 -146 -94 -97 -168 -180 -235 -268 -4 -5 -16 -21
-27 -34 -11 -13 -20 -27 -20 -30 0 -3 -15 -22 -33 -42 -17 -20 -63 -72 -102
-115 -38 -43 -86 -95 -105 -115 -19 -20 -53 -58 -75 -85 -45 -55 -1224 -1235
-1331 -1332 l-69 -62 -3 58 c-4 83 14 205 48 322 6 19 14 76 20 125 16 149 45
294 71 351 11 22 19 45 19 50 0 6 11 17 25 24 22 12 27 11 45 -5 11 -10 22
-25 25 -34 3 -10 23 -25 45 -35 64 -28 284 -14 358 23 51 26 111 51 121 51 6
0 11 5 11 10 0 6 7 10 15 10 19 0 179 122 231 176 25 26 48 64 58 93 20 61 20
69 1 87 -8 8 -20 23 -27 32 -18 25 -82 62 -106 62 -11 0 -23 4 -26 9 -9 13
-107 20 -156 11 -65 -12 -128 -29 -148 -39 -9 -5 -44 -17 -77 -26 -64 -20
-104 -35 -175 -68 -116 -53 -160 -115 -160 -228 l-1 -74 -34 -16 -35 -16 0 36
c1 43 11 90 39 187 11 39 25 95 30 125 46 248 46 248 93 284 21 17 45 36 53
43 7 6 17 12 20 12 4 0 33 -27 64 -60 64 -68 122 -101 212 -125 59 -15 70 -15
154 1 50 9 94 21 99 25 6 5 17 9 27 9 48 0 379 124 379 142 0 4 5 8 10 8 14 0
67 38 106 75 35 34 74 101 74 127 0 10 5 18 10 18 6 0 10 11 10 25 0 31 -20
75 -35 75 -6 0 -29 13 -51 30 -65 47 -166 63 -359 57 -88 -4 -198 -11 -245
-16 -90 -11 -200 -40 -200 -53 0 -4 -7 -8 -16 -8 -9 0 -28 -6 -42 -14 -15 -7
-47 -23 -72 -35 -139 -65 -173 -106 -169 -197 3 -55 1 -59 -31 -83 l-33 -26 5
25 c3 14 18 88 33 165 15 77 34 154 41 172 8 17 14 39 14 49 0 24 29 132 46
171 8 17 14 34 14 37 0 14 57 68 85 82 29 13 36 13 76 -4 24 -11 67 -41 94
-69 58 -57 114 -93 143 -93 11 0 24 -4 27 -10 3 -5 16 -10 28 -10 12 -1 40 -8
62 -16 72 -27 145 -44 188 -44 76 1 241 35 332 69 11 4 45 16 75 25 77 24 201
86 227 113 12 13 25 23 28 23 6 0 29 24 72 74 56 64 83 181 63 266 -7 28 -16
50 -21 50 -5 0 -9 6 -9 13 0 16 -62 77 -78 77 -7 0 -12 4 -12 9 0 5 -12 12
-27 16 -15 3 -30 10 -33 15 -3 5 -41 17 -85 28 -56 14 -70 21 -47 21 18 1 65
13 105 27 39 14 108 37 152 51 44 15 82 30 83 35 2 4 11 8 19 8 15 0 119 49
188 88 56 32 85 68 85 105 0 53 -42 137 -69 137 -6 0 -11 5 -11 10 0 6 -5 10
-11 10 -10 0 -70 25 -121 51 -18 9 -62 21 -158 44 -66 15 -57 20 80 39 125 17
208 33 235 46 11 5 30 12 43 15 12 4 22 11 22 16 0 5 6 9 14 9 8 0 21 6 28 13
19 19 110 73 136 81 12 4 22 12 22 17 0 5 5 9 11 9 16 0 94 64 142 114 34 36
38 46 34 78 -7 56 -54 118 -112 148 -50 26 -51 27 -26 38 14 7 29 12 34 12 23
0 175 73 211 102 57 46 136 127 136 140 0 8 14 28 31 46 39 40 36 67 -9 68
-18 1 -40 8 -50 18 -10 9 -25 16 -33 16 -8 0 -20 5 -26 11 -7 7 -61 15 -125
18 l-113 6 57 18 c64 21 266 121 331 164 51 35 71 73 63 118 -12 61 -86 94
-251 109 -38 4 -74 11 -80 15 -11 10 -76 26 -183 47 -40 7 -76 15 -80 18 -4 2
-68 11 -142 21 -125 15 -142 15 -220 1 -46 -9 -89 -21 -94 -26 -6 -6 -21 -10
-33 -10 -54 0 -116 -52 -130 -109 -7 -26 -16 -37 -36 -42 -15 -4 -27 -4 -27 1
0 4 20 35 44 67 80 109 116 163 116 173 0 5 4 10 8 10 5 0 14 10 21 23 44 82
72 117 95 117 12 0 31 7 42 15 29 22 40 18 65 -22 50 -82 132 -140 254 -179
69 -22 272 -27 296 -8 8 7 38 15 66 19 29 4 55 11 58 15 3 5 23 11 45 15 22 4
42 11 46 16 3 5 13 9 22 9 9 1 35 9 57 20 22 11 45 19 52 20 6 0 13 3 15 8 2
4 20 16 40 26 21 10 54 35 73 55 32 31 36 40 33 80 -2 36 -8 48 -26 57 -13 6
-40 26 -60 44 -20 18 -48 38 -62 44 -14 6 -27 14 -31 18 -18 25 -251 53 -331
40 -120 -20 -237 -49 -293 -72 -11 -4 -42 -16 -70 -25 -94 -32 -170 -74 -190
-105 -18 -27 -65 -43 -65 -22 0 23 154 180 255 260 l40 32 93 -12 c73 -9 108
-9 160 1 61 12 149 46 162 63 3 3 18 10 33 13 15 4 27 11 27 15 0 4 12 11 27
15 15 3 30 10 33 13 9 13 69 52 79 52 5 0 11 3 13 8 2 4 29 25 61 46 31 22 57
42 57 45 0 3 17 17 38 31 20 14 39 27 42 30 3 3 18 16 34 28 42 32 159 181
175 222 7 19 20 49 27 67 8 18 15 64 15 102 1 75 -21 130 -61 151 -18 10 -86
11 -145 3z m-1360 -1731 c34 -31 76 -68 94 -82 43 -33 171 -99 193 -100 9 0
20 -5 23 -10 5 -8 -43 -10 -152 -9 -169 2 -326 -11 -383 -33 -59 -22 -105 -63
-102 -92 1 -21 -5 -29 -36 -42 -83 -36 -113 -36 -78 -2 7 8 25 39 39 69 15 30
42 72 62 94 19 22 35 43 35 46 0 12 108 150 131 168 34 26 81 50 99 50 8 0 42
-25 75 -57z m-284 -429 c19 -21 50 -49 69 -63 19 -13 40 -28 45 -32 75 -61
210 -138 243 -138 15 0 15 -2 2 -10 -8 -5 -58 -10 -110 -10 -113 0 -279 -17
-294 -29 -6 -5 -33 -12 -61 -16 -82 -11 -153 -52 -231 -131 -48 -48 -82 -74
-104 -79 l-33 -7 23 38 c13 22 29 46 35 54 15 19 45 85 45 98 0 6 6 17 13 24
6 7 21 31 32 53 11 22 22 42 25 45 3 3 23 40 45 83 22 42 44 77 49 77 5 0 23
11 40 24 17 13 46 27 63 30 18 4 35 12 38 17 11 18 32 9 66 -28z m-371 -545
c18 -47 161 -168 198 -168 6 0 12 -4 12 -9 0 -5 14 -12 30 -16 17 -4 30 -10
30 -15 0 -4 12 -11 27 -15 14 -3 35 -12 46 -20 20 -14 9 -18 -127 -46 -27 -6
-72 -21 -101 -34 -29 -12 -67 -26 -84 -30 -17 -4 -31 -11 -31 -16 0 -5 -5 -9
-11 -9 -17 0 -101 -41 -159 -78 -30 -19 -91 -69 -135 -112 -44 -42 -98 -87
-119 -100 l-39 -24 7 34 c3 19 10 36 14 40 5 3 19 34 32 70 13 36 26 70 30 75
4 6 22 37 40 70 70 129 105 192 127 230 12 22 27 50 32 62 13 28 91 103 108
103 7 0 13 4 13 9 0 8 17 16 43 20 4 0 12 -9 17 -21z m-230 -795 c36 -16 90
-37 120 -46 136 -40 164 -47 185 -47 37 0 85 -12 85 -21 0 -5 -18 -9 -41 -9
-61 0 -241 -44 -324 -79 -208 -88 -298 -155 -417 -313 -51 -68 -114 -125 -125
-114 -7 7 27 110 64 195 12 29 23 62 23 72 0 10 4 20 9 24 5 3 13 20 16 37 4
18 20 59 35 92 15 34 35 84 45 111 38 111 77 162 140 189 28 12 33 10 75 -24
25 -21 74 -51 110 -67z m4070 -2431 c0 -39 -40 -59 -82 -41 -40 16 -35 35 12
43 22 3 40 11 40 16 0 6 7 10 15 10 10 0 15 -10 15 -28z m-196 -88 l29 -21
-22 -61 c-11 -34 -21 -70 -21 -80 0 -25 -32 -113 -52 -140 -11 -17 -18 -20
-24 -11 -4 7 -9 90 -12 185 l-5 173 40 -12 c21 -7 52 -21 67 -33z m-2708 -262
c72 -167 134 -399 154 -577 6 -55 13 -117 16 -138 5 -40 -14 -80 -43 -91 -9
-4 -34 4 -57 18 -22 13 -60 27 -82 30 -41 7 -160 -9 -179 -23 -5 -5 -25 -11
-42 -14 -18 -4 -62 -20 -97 -37 -36 -16 -68 -30 -71 -30 -14 0 -2 22 28 52 18
18 57 68 86 111 29 43 61 88 71 100 10 12 28 32 39 45 26 31 95 172 121 250
22 64 22 144 -1 157 -15 10 -10 116 8 156 19 44 27 42 49 -9z m2522 -142 c1
-44 -3 -80 -7 -80 -11 0 -81 29 -81 34 0 34 65 140 80 131 4 -3 8 -41 8 -85z
m178 -489 c-19 -19 -30 -9 -21 19 5 17 9 19 21 9 13 -11 13 -14 0 -28z m91
-988 c30 -28 29 -37 -4 -63 -16 -12 -38 -38 -50 -58 -13 -20 -23 -35 -23 -32
-15 251 -14 259 27 208 15 -18 38 -43 50 -55z m-2632 -230 c-4 -82 -9 -188
-11 -236 -2 -48 -6 -92 -9 -98 -4 -5 -12 -46 -20 -92 -7 -45 -19 -107 -27
-137 -12 -49 -17 -56 -51 -69 -38 -14 -38 -14 -73 22 -37 38 -107 67 -160 67
-43 0 -119 -21 -218 -60 -86 -33 -119 -37 -59 -5 87 45 224 166 328 290 22 26
55 64 72 84 18 20 39 50 48 68 9 18 21 38 28 45 18 20 43 76 65 147 18 60 61
121 84 121 8 0 9 -46 3 -147z m-100 -695 c-7 -42 -26 -97 -65 -198 -23 -57
-30 -86 -50 -185 -15 -79 -80 -281 -92 -289 -2 -1 -20 -7 -41 -13 -36 -11 -40
-10 -82 27 -63 54 -102 59 -260 33 l-40 -6 30 25 c17 14 73 54 125 89 97 65
290 247 290 273 0 8 4 16 8 18 19 7 83 130 91 172 5 26 11 49 14 52 5 5 65 39
75 43 2 0 1 -18 -3 -41z"/>
</g>
</svg>
