<?xml version="1.0" encoding="UTF-8" standalone="no"?>
<!-- Created with Inkscape (http://www.inkscape.org/) -->

<svg
   width="83.715958mm"
   height="172.91888mm"
   viewBox="0 0 83.715956 172.91888"
   version="1.1"
   id="svg1299"
   inkscape:version="1.1.1 (3bf5ae0d25, 2021-09-20)"
   sodipodi:docname="sorbus.svg"
   xmlns:inkscape="http://www.inkscape.org/namespaces/inkscape"
   xmlns:sodipodi="http://sodipodi.sourceforge.net/DTD/sodipodi-0.dtd"
   xmlns="http://www.w3.org/2000/svg"
   xmlns:svg="http://www.w3.org/2000/svg">
  <sodipodi:namedview
     id="namedview1301"
     pagecolor="#ffffff"
     bordercolor="#666666"
     borderopacity="1.0"
     inkscape:pageshadow="2"
     inkscape:pageopacity="0.0"
     inkscape:pagecheckerboard="0"
     inkscape:document-units="mm"
     showgrid="false"
     fit-margin-top="0"
     fit-margin-left="0"
     fit-margin-right="0"
     fit-margin-bottom="0"
     inkscape:zoom="0.50898197"
     inkscape:cx="159.1412"
     inkscape:cy="326.14122"
     inkscape:window-width="1920"
     inkscape:window-height="986"
     inkscape:window-x="-11"
     inkscape:window-y="-11"
     inkscape:window-maximized="1"
     inkscape:current-layer="layer1" />
  <defs
     id="defs1296" />
  <g
     inkscape:label="Layer 1"
     inkscape:groupmode="layer"
     id="layer1"
     transform="translate(-72.20255,-70.04098)">
    <path
       style="fill:#000000;stroke-width:1"
       d="m 121.48711,242.90786 c -0.1888,-0.0604 -0.80186,-0.61246 -0.80186,-0.72208 0,-0.036 -0.0834,-0.23868 -0.1852,-0.45046 -0.1018,-0.2118 -0.1852,-0.39972 -0.1852,-0.41764 0,-0.018 -0.0558,-0.1582 -0.124,-0.31194 -0.2188,-0.49286 -0.24384,-0.58486 -0.34974,-1.2848 -0.0572,-0.37836 -0.1406,-0.87842 -0.1852,-1.11126 -0.0446,-0.23282 -0.108,-0.91148 -0.1408,-1.50812 -0.0484,-0.879 -0.0464,-1.13498 0.01,-1.34938 0.0384,-0.1456 0.0764,-0.5027 0.0842,-0.79374 0.0366,-1.35484 0.0604,-1.76154 0.1146,-1.95792 0.0322,-0.1164 0.0584,-0.31882 0.0582,-0.4498 -5.2e-4,-0.52808 0.0622,-1.7451 0.1104,-2.14312 0.0282,-0.23284 0.0464,-0.78052 0.0408,-1.21708 -0.006,-0.43656 0.018,-1.04996 0.0518,-1.3631 0.0438,-0.4005 0.0472,-0.72862 0.012,-1.10638 -0.0374,-0.39178 -0.0348,-0.5567 0.01,-0.60982 0.0804,-0.097 0.0814,-0.45412 0.002,-1.12192 -0.049,-0.41746 -0.0498,-0.56776 -0.004,-0.6239 0.0444,-0.0536 0.0516,-0.32574 0.0262,-0.98462 -0.02,-0.50086 -0.048,-1.6965 -0.0636,-2.65692 -0.016,-0.96044 -0.0518,-2.2106 -0.0802,-2.77814 -0.0928,-1.85686 -0.1502,-2.75384 -0.179,-2.8004 -0.016,-0.0252 -0.0642,-0.4536 -0.108,-0.95204 -0.0438,-0.49844 -0.1062,-1.007 -0.1386,-1.13014 -0.0324,-0.1232 -0.0874,-0.43818 -0.1224,-0.70012 -0.035,-0.26194 -0.0936,-0.54768 -0.1302,-0.635 -0.0366,-0.0874 -0.0928,-0.27782 -0.1248,-0.42334 -0.032,-0.1456 -0.0912,-0.30386 -0.1318,-0.35186 -0.0876,-0.1038 -0.095,-0.26106 -0.046,-0.9975 0.0516,-0.7773 0.002,-1.03328 -0.23756,-1.22716 -0.1046,-0.0846 -0.31658,-0.1872 -0.47096,-0.228 -0.253,-0.0668 -0.3204,-0.0642 -0.68288,0.026 -0.22118,0.055 -0.52122,0.1378 -0.66674,0.184 -0.1456,0.0462 -0.35514,0.1082 -0.4658,0.138 -0.1108,0.0298 -0.25096,0.104 -0.31174,0.1648 -0.064,0.064 -0.3019,0.1604 -0.56606,0.22912 -0.43462,0.1132 -0.57098,0.1664 -1.48744,0.5812 -0.57714,0.26118 -1.37182,0.48894 -2.0373,0.5839 -0.32014,0.0456 -0.65352,0.1046 -0.74082,0.1308 -0.0874,0.0262 -0.71836,0.085 -1.4023,0.1306 -0.68394,0.0456 -1.5293,0.109 -1.87854,0.1412 -0.79044,0.0728 -0.777,0.073 -1.48166,-0.0302 -0.77482,-0.1136 -1.34312,-0.22246 -1.52884,-0.29306 -0.0836,-0.0318 -0.25898,-0.0818 -0.3898,-0.111 -0.1308,-0.0294 -0.3407,-0.1002 -0.4664,-0.1574 -0.1258,-0.0572 -0.26358,-0.1042 -0.30642,-0.1042 -0.0428,0 -0.1818,-0.0446 -0.30872,-0.099 -0.127,-0.0544 -0.3611,-0.1262 -0.52032,-0.1598 -0.43904,-0.0922 -1.16326,-0.33206 -1.40076,-0.46404 -0.6221,-0.34566 -0.82658,-0.43566 -1.16416,-0.51236 -0.43228,-0.0982 -1.16308,-0.44288 -1.51936,-0.71654 -0.55968,-0.42994 -0.7393,-0.5515 -1.05762,-0.7158 -0.38754,-0.20004 -0.95056,-0.56838 -1.36532,-0.89324 -0.16,-0.1254 -0.4026,-0.28178 -0.53898,-0.34756 -0.27954,-0.1348 -0.411,-0.3214 -0.57752,-0.81946 -0.1304,-0.3898 -0.29878,-0.58138 -0.6634,-0.75448 -0.1494,-0.071 -0.35398,-0.194 -0.45444,-0.27356 -0.1004,-0.0794 -0.25188,-0.1922 -0.3365,-0.25036 -0.1484,-0.102 -0.67916,-0.62662 -0.82456,-0.81482 -0.0388,-0.0502 -0.1712,-0.21248 -0.29402,-0.3604 -0.1556,-0.1872 -0.23412,-0.33896 -0.25872,-0.49936 -0.02,-0.1268 -0.066,-0.29136 -0.1034,-0.36584 -0.0906,-0.18 -0.0414,-0.24098 0.23146,-0.2866 0.45322,-0.0758 0.66458,-0.4518 0.41918,-0.74574 -0.0712,-0.0854 -0.1692,-0.23256 -0.21772,-0.32714 -0.0484,-0.0946 -0.1092,-0.172 -0.1348,-0.172 -0.0256,0 -0.119,-0.1548 -0.20754,-0.34396 -0.0886,-0.1892 -0.186,-0.34396 -0.21666,-0.34396 -0.0306,0 -0.0558,-0.0568 -0.0558,-0.1262 0,-0.0694 -0.0356,-0.1944 -0.079,-0.2778 -0.0434,-0.0834 -0.0792,-0.1918 -0.0794,-0.24106 0,-0.0492 -0.0246,-0.1044 -0.0542,-0.1228 -0.033,-0.0204 -0.01,-0.094 0.0584,-0.1908 0.0994,-0.1394 0.1046,-0.176 0.0452,-0.31936 -0.0656,-0.1584 -0.061,-0.1674 0.21952,-0.42152 0.1576,-0.1428 0.36988,-0.30544 0.47176,-0.36136 0.21226,-0.1166 0.5829,-0.49806 0.5804,-0.59742 -0.002,-0.095 -0.1306,-0.25204 -0.20572,-0.25204 -0.0348,0 -0.0506,-0.0208 -0.0348,-0.0462 0.016,-0.0254 0.2612,-0.0738 0.54552,-0.1074 0.99644,-0.1178 1.62916,-0.22578 1.74008,-0.29686 0.1734,-0.1112 0.24008,-0.46676 0.1552,-0.82844 -0.0388,-0.165 -0.0846,-0.32304 -0.102,-0.3512 -0.018,-0.0282 0.004,-0.0806 0.0472,-0.1166 0.0612,-0.0508 0.1122,-0.0514 0.22874,-0.004 0.1202,0.0498 0.1964,0.046 0.38368,-0.02 0.1286,-0.0448 0.27136,-0.0818 0.3174,-0.0822 0.046,-5.2e-4 0.2399,-0.0498 0.43082,-0.1098 0.33828,-0.1062 0.35844,-0.1066 0.78944,-0.018 0.80172,0.1632 0.97554,0.082 0.96574,-0.45198 l -0.006,-0.31186 0.24386,-0.033 c 0.1342,-0.018 0.48198,0.002 0.77302,0.0452 0.29104,0.043 0.69024,0.0946 0.8871,0.1146 0.1968,0.02 0.3709,0.0576 0.38676,0.0832 0.0568,0.0918 0.2334,0.0442 0.31872,-0.086 0.071,-0.1084 0.0756,-0.1592 0.0256,-0.27782 -0.0756,-0.1794 -0.36054,-0.3151 -1.3272,-0.63212 -0.3929,-0.1288 -0.8611,-0.31448 -1.04042,-0.41252 -0.38018,-0.2078 -0.89584,-0.3761 -1.3886,-0.4532 -0.192,-0.03 -0.50362,-0.108 -0.69246,-0.1734 -0.28846,-0.0998 -0.37456,-0.16 -0.53846,-0.37686 -0.1072,-0.142 -0.23596,-0.281 -0.28592,-0.30896 -0.05,-0.028 -0.4625,-0.1548 -0.91676,-0.28192 -0.89768,-0.25118 -1.06188,-0.30966 -1.61966,-0.57684 -0.20374,-0.0976 -0.5252,-0.24068 -0.71438,-0.31798 -0.1892,-0.0772 -0.39312,-0.186 -0.4532,-0.24132 -0.06,-0.0554 -0.1288,-0.1008 -0.1524,-0.1008 -0.103,0 -0.39772,-0.39002 -0.47846,-0.6331 -0.1062,-0.31968 -0.25142,-0.43328 -0.71502,-0.55924 -0.49448,-0.1344 -1.37508,-0.56608 -1.56104,-0.76534 -0.0874,-0.0936 -0.2984,-0.2656 -0.4691,-0.38232 -0.25978,-0.1776 -0.33512,-0.26684 -0.46232,-0.54734 -0.1876,-0.41382 -0.29892,-0.52338 -0.73544,-0.72408 -0.1892,-0.087 -0.43274,-0.23272 -0.54122,-0.32388 -0.1084,-0.0912 -0.28378,-0.23586 -0.3895,-0.32158 -0.22488,-0.1822 -0.41694,-0.46852 -0.46684,-0.6957 -0.0266,-0.1214 -0.008,-0.1964 0.0784,-0.30544 0.109,-0.1386 0.11,-0.1488 0.0204,-0.24788 -0.0514,-0.0568 -0.1236,-0.1032 -0.1606,-0.1032 -0.0368,0 -0.1378,-0.0596 -0.22432,-0.1322 -0.0864,-0.0728 -0.1802,-0.1322 -0.20828,-0.1322 -0.028,0 -0.1592,-0.0952 -0.29154,-0.21168 -0.1322,-0.1164 -0.25654,-0.21166 -0.2762,-0.21166 -0.0892,0 -0.7153,-0.72282 -0.7153,-0.82584 0,-0.02 -0.0838,-0.1386 -0.1862,-0.26358 -0.2053,-0.25056 -0.50622,-0.81846 -0.46716,-0.88166 0.014,-0.022 0.0822,-0.0258 0.1522,-0.008 0.1574,0.0396 0.4278,-0.1182 0.59844,-0.34894 0.1172,-0.1586 0.1186,-0.171 0.0326,-0.30204 -0.0492,-0.0752 -0.26398,-0.31782 -0.47716,-0.53918 -0.21318,-0.22136 -0.44292,-0.48582 -0.51054,-0.58768 -0.135,-0.20326 -0.46526,-0.90364 -0.46526,-0.98646 0,-0.0286 -0.046,-0.1474 -0.1024,-0.26394 -0.1278,-0.26466 -0.188,-0.49638 -0.1282,-0.49416 0.025,9e-4 0.0904,0.0358 0.1454,0.0774 0.1158,0.0876 0.2616,0.033 0.34926,-0.1308 0.0544,-0.1018 -0.028,-0.33504 -0.32266,-0.91124 -0.055,-0.1076 -0.1,-0.23036 -0.1,-0.27272 0,-0.0424 -0.0698,-0.21626 -0.155,-0.3864 l -0.155,-0.30936 0.1154,-0.0452 c 0.0634,-0.0248 0.152,-0.0636 0.1968,-0.086 0.0448,-0.0224 0.1876,-0.0576 0.3175,-0.078 0.27214,-0.0426 0.97532,-0.22258 1.14534,-0.2931 0.105,-0.0436 0.1098,-0.063 0.053,-0.21546 -0.0344,-0.0922 -0.1312,-0.22542 -0.21498,-0.29616 -0.145,-0.1224 -0.1476,-0.132 -0.0544,-0.20022 0.0538,-0.0394 0.192,-0.0842 0.3069,-0.0996 0.115,-0.016 0.22736,-0.0608 0.2498,-0.101 0.0224,-0.0402 0.2625,-0.1748 0.53342,-0.29924 0.27092,-0.1244 0.52908,-0.2451 0.5737,-0.2681 0.21068,-0.1086 0.4252,-0.104 0.99152,0.0214 0.82158,0.1818 1.0876,0.1076 0.96792,-0.26982 -0.0734,-0.2312 -0.1798,-1.02372 -0.1426,-1.06096 0.018,-0.018 0.0866,-0.008 0.1522,0.021 0.1306,0.0592 2.38308,-0.034 2.45036,-0.1012 0.0204,-0.0204 0.0396,-0.1314 0.0426,-0.24636 l 0.006,-0.20916 0.23424,0.016 c 0.1574,0.01 0.2619,0.0504 0.31852,0.1214 0.0562,0.0706 0.20486,0.1278 0.44652,0.1718 0.2589,0.0472 0.42566,0.1146 0.58468,0.23592 0.1224,0.0934 0.48338,0.30098 0.80228,0.46128 0.48336,0.24296 0.59986,0.28252 0.70018,0.23776 0.1118,-0.0498 0.118,-0.0766 0.088,-0.3756 -0.018,-0.177 -0.0414,-0.35118 -0.0524,-0.38696 -0.012,-0.0358 0.01,-0.1354 0.0456,-0.22154 l 0.0658,-0.1566 0.23638,0.107 c 0.4088,0.1852 0.75644,0.29884 1.02748,0.33614 0.25556,0.0352 1.1657,0.45376 1.4605,0.67172 0.31422,0.2323 0.4494,0.01 0.433,-0.71148 -0.006,-0.22556 0.01,-0.4101 0.0344,-0.4101 0.024,0 0.108,0.0596 0.1864,0.1322 0.1652,0.153 0.28516,0.1694 0.33284,0.045 0.023,-0.06 -0.0404,-0.157 -0.20358,-0.3112 -0.196,-0.1852 -0.28662,-0.23078 -0.52332,-0.26334 -0.1574,-0.0216 -0.3419,-0.0758 -0.40986,-0.1204 -0.068,-0.0446 -0.22332,-0.0858 -0.34524,-0.092 -0.23898,-0.012 -1.27746,-0.21004 -1.5565,-0.29714 -0.1146,-0.0358 -0.209,-0.1216 -0.28754,-0.26128 -0.0644,-0.1144 -0.1364,-0.208 -0.16,-0.208 -0.0238,0 -0.0892,-0.046 -0.1454,-0.1022 -0.2719,-0.2719 -0.7459,-0.42224 -1.85564,-0.58858 -1.1935,-0.1788 -1.81358,-0.36432 -1.89072,-0.56536 -0.018,-0.0476 -0.1158,-0.159 -0.21684,-0.24776 -0.101,-0.0886 -0.21574,-0.23812 -0.25502,-0.33212 -0.0888,-0.21262 -0.1638,-0.25192 -0.6272,-0.32866 -0.3672,-0.0608 -0.91912,-0.20446 -1.42876,-0.37186 -0.33766,-0.111 -0.77996,-0.40604 -0.88636,-0.59144 -0.0454,-0.079 -0.1502,-0.1856 -0.23304,-0.23696 -0.28174,-0.1746 -0.60038,-0.51552 -0.60038,-0.6425 0,-0.082 -0.0438,-0.1392 -0.1322,-0.1728 -0.16,-0.0608 -0.1656,-0.1122 -0.0264,-0.23812 0.1616,-0.1464 0.1348,-0.2764 -0.0662,-0.31974 -0.0946,-0.0204 -0.3982,-0.1264 -0.67468,-0.23562 -0.2765,-0.1092 -0.66858,-0.25412 -0.87132,-0.32206 -0.30718,-0.103 -0.43362,-0.1852 -0.75864,-0.49404 -0.34408,-0.32684 -0.59254,-0.6692 -0.59254,-0.81644 0,-0.027 -0.0952,-0.1916 -0.21168,-0.36598 -0.1164,-0.1744 -0.21166,-0.34374 -0.21166,-0.37644 0,-0.0326 -0.0238,-0.0594 -0.053,-0.0594 -0.029,0 -0.053,-0.025 -0.053,-0.0554 0,-0.0346 0.0694,-0.0422 0.185,-0.0206 0.1598,0.03 0.20486,0.014 0.33074,-0.1216 0.0802,-0.086 0.2027,-0.27062 0.27234,-0.41036 0.1906,-0.38244 0.1422,-0.45396 -0.54992,-0.81478 -0.78516,-0.40928 -1.34982,-0.73796 -1.50018,-0.8732 -0.0684,-0.0616 -0.2085,-0.24284 -0.3114,-0.4029 -0.1028,-0.16 -0.22676,-0.35058 -0.27528,-0.42334 -0.1016,-0.1524 -0.1908,-0.33936 -0.44594,-0.93566 -0.1006,-0.23482 -0.24586,-0.52694 -0.323,-0.64914 -0.1992,-0.31556 -0.1672,-0.38756 0.2052,-0.4612 0.24916,-0.0492 0.35362,-0.1036 0.52094,-0.27092 0.1856,-0.1856 0.20226,-0.22242 0.147,-0.32554 -0.0342,-0.064 -0.1618,-0.20396 -0.28336,-0.31116 -1.0737,-0.94634 -1.3233,-1.42094 -1.70242,-3.23724 -0.0778,-0.3728 -0.0706,-0.42006 0.049,-0.32088 0.0948,0.0786 0.1888,0.0308 0.1888,-0.096 0,-0.051 -0.0858,-0.26698 -0.1908,-0.48008 -0.20518,-0.41648 -0.2171,-0.6625 -0.0448,-0.9254 0.0436,-0.0666 0.0656,-0.1572 0.0486,-0.20112 -0.0448,-0.117 0.1122,-0.1566 0.35788,-0.0904 0.1494,0.0402 0.25368,0.0406 0.35152,0.002 0.1,-0.04 0.24866,-0.0366 0.52946,0.012 0.51942,0.0898 1.16526,0.012 1.22782,-0.149 0.099,-0.25406 -0.0284,-0.86794 -0.182,-0.87648 -0.21332,-0.012 0.25894,-0.0982 0.83918,-0.1534 0.69164,-0.0658 1.05146,-0.0442 1.74626,0.1052 0.34196,0.0734 0.80498,0.0212 0.86632,-0.0978 0.0276,-0.0536 0.01,-0.32444 -0.045,-0.68432 -0.0654,-0.42908 -0.0744,-0.609 -0.0326,-0.64366 0.062,-0.0514 0.99284,0.0552 1.52996,0.175 0.22926,0.0512 0.36164,0.0542 0.51894,0.012 0.1724,-0.046 0.25672,-0.039 0.45954,0.0382 0.1366,0.052 0.31978,0.1152 0.4071,0.1404 0.30072,0.0866 0.6011,0.20876 0.77658,0.31574 0.1826,0.1112 0.39132,0.1372 0.5081,0.0632 0.056,-0.0354 0.128,-0.32898 0.1838,-0.74924 0.006,-0.0436 -0.01,-0.1822 -0.033,-0.30784 -0.024,-0.1256 -0.0308,-0.2412 -0.016,-0.25678 0.016,-0.016 0.1548,0.0314 0.30952,0.1046 0.39738,0.1878 0.62218,0.22024 0.85472,0.123 0.1066,-0.0446 0.1938,-0.1142 0.1938,-0.1548 0,-0.085 -0.1656,-0.24904 -0.25146,-0.24904 -0.0318,0 -0.126,-0.0572 -0.20924,-0.1274 -0.0912,-0.0768 -0.25584,-0.142 -0.41416,-0.164 -0.65216,-0.0912 -1.55266,-0.35902 -2.12002,-0.63058 -0.5498,-0.26312 -0.59466,-0.29642 -0.70416,-0.52264 -0.0892,-0.1842 -0.1544,-0.24984 -0.27468,-0.27626 l -0.1578,-0.0346 0.1834,-0.20288 c 0.184,-0.20358 0.20538,-0.35528 0.0662,-0.4686 -0.0332,-0.027 -0.34618,-0.102 -0.69542,-0.1664 -0.34926,-0.0644 -0.74216,-0.164 -0.87314,-0.2213 -0.131,-0.0572 -0.45244,-0.1764 -0.71436,-0.26458 -0.26194,-0.0882 -0.5681,-0.21142 -0.68036,-0.2736 -0.1122,-0.0622 -0.31464,-0.1726 -0.44978,-0.24538 -0.30318,-0.1632 -0.84014,-0.51482 -0.99896,-0.65408 -0.065,-0.057 -0.1334,-0.1848 -0.152,-0.284 -0.0294,-0.1564 -0.0722,-0.1972 -0.32218,-0.30784 -0.27578,-0.122 -0.33504,-0.23576 -0.1228,-0.23576 0.1178,0 0.42428,-0.24602 0.42428,-0.34046 0,-0.1588 -0.27616,-0.29694 -1.24354,-0.6222 -0.62684,-0.21076 -1.77778,-0.77094 -2.14256,-1.04284 -0.2464,-0.1836 -0.4697,-0.42836 -0.51082,-0.55982 -0.018,-0.0588 -0.0768,-0.1624 -0.1298,-0.23038 -0.0642,-0.0824 -0.0866,-0.1726 -0.0668,-0.27132 0.038,-0.1902 -0.1512,-0.529 -0.90708,-1.62494 -0.0532,-0.0772 -0.0208,-0.1162 0.21546,-0.25844 0.1794,-0.1082 0.0538,-0.29954 -0.38816,-0.59108 -0.46376,-0.30596 -1.30466,-1.1484 -1.46772,-1.47046 -0.0582,-0.115 -0.1832,-0.325 -0.27782,-0.46676 -0.0946,-0.1418 -0.172,-0.27322 -0.1718,-0.29212 6e-5,-0.018 0.1304,-0.1024 0.2895,-0.1856 0.51238,-0.26772 0.65692,-0.47702 0.45098,-0.65306 -0.3416,-0.2921 -0.95226,-0.96588 -0.95226,-1.05074 0,-0.0208 -0.0536,-0.0882 -0.119,-0.1498 -0.142,-0.1334 -0.32078,-0.39338 -0.53642,-0.77968 -0.055,-0.0984 -0.1646,-0.26224 -0.2437,-0.3641 -0.0792,-0.1018 -0.1736,-0.24206 -0.21016,-0.31154 -0.0634,-0.1208 -0.0598,-0.125 0.0814,-0.098 0.31916,0.061 0.72236,-0.36502 0.55912,-0.59076 -0.0336,-0.0464 -0.077,-0.1184 -0.0964,-0.1598 -0.02,-0.0414 -0.1562,-0.1976 -0.30394,-0.34708 -0.45702,-0.46224 -0.80106,-1.03692 -0.71598,-1.19592 0.0762,-0.1422 0.0632,-0.1912 -0.0874,-0.33072 l -0.1378,-0.1278 0.25692,-0.0564 c 0.1414,-0.031 0.3462,-0.0708 0.45534,-0.0884 0.1236,-0.02 0.1984,-0.061 0.1984,-0.109 0,-0.0424 -0.0238,-0.077 -0.053,-0.077 -0.029,0 -0.053,-0.02 -0.053,-0.0424 0,-0.0944 1.6636,-0.40694 2.1222,-0.39882 0.166,0.002 0.35242,0.0408 0.42334,0.0858 0.085,0.054 0.1642,0.066 0.2404,0.0364 0.1644,-0.0638 0.1888,-0.1304 0.13,-0.35466 -0.0288,-0.1098 -0.0798,-0.30988 -0.1134,-0.44474 -0.0432,-0.173 -0.0986,-0.26226 -0.1884,-0.30314 -0.07,-0.0318 -0.1272,-0.0768 -0.1272,-0.1 0,-0.0572 0.5492,-0.1812 0.64296,-0.1452 0.0666,0.0256 0.27326,-0.008 1.15328,-0.1904 0.32174,-0.0664 0.37362,-0.1712 0.24116,-0.4872 -0.0334,-0.0798 -0.02,-0.0906 0.0858,-0.066 0.0692,0.016 0.4437,0.0654 0.8323,0.1096 0.46118,0.0524 0.78276,0.1174 0.92604,0.187 0.34116,0.1658 0.65144,0.34562 0.80654,0.46762 0.0778,0.0612 0.1866,0.1114 0.2416,0.1114 0.1386,0 0.2206,-0.234 0.1556,-0.4442 -0.028,-0.0904 -0.0668,-0.35886 -0.086,-0.5966 l -0.0352,-0.43222 0.21914,0.0556 c 0.1712,0.0434 0.29522,0.0368 0.56678,-0.0302 0.1912,-0.0472 0.36958,-0.0722 0.39636,-0.0558 0.0268,0.016 0.20288,0.052 0.39132,0.0786 0.1884,0.0266 0.38408,0.07 0.43474,0.0962 0.1646,0.0852 0.50486,0.20904 1.04462,0.38048 0.29106,0.0924 0.5518,0.1888 0.57944,0.21408 0.0276,0.0254 0.1004,0.046 0.1616,0.046 0.0614,0 0.1934,0.0616 0.2937,0.1368 0.54136,0.4065 0.73344,0.20478 0.5221,-0.54836 -0.1332,-0.47434 -0.1038,-0.53112 0.2257,-0.43856 0.23802,0.0668 0.79664,0.1802 1.33946,0.27192 0.1746,0.0296 0.36512,0.0742 0.42332,0.0994 0.0582,0.0252 0.2249,0.0758 0.37042,0.1128 0.48084,0.122 1.16526,0.56048 1.63792,1.04928 0.115,0.119 0.24104,0.21632 0.27996,0.21632 0.039,0 0.1386,0.05 0.22134,0.1114 0.20904,0.1546 0.35126,0.0948 0.49504,-0.20802 0.0824,-0.1734 0.1174,-0.34596 0.1174,-0.578 0,-0.1818 0.018,-0.33072 0.0416,-0.33072 0.0408,0 0.30356,0.1558 0.35532,0.21086 0.014,0.016 0.21696,0.1096 0.4498,0.20924 0.49748,0.21288 0.9634,0.46404 1.10898,0.59782 0.057,0.0524 0.1992,0.121 0.31614,0.1524 0.26544,0.0714 0.6061,0.31292 0.82392,0.58396 0.20208,0.25146 0.54686,0.47838 0.66056,0.43476 0.1174,-0.045 0.1902,-0.20192 0.2397,-0.5157 0.0234,-0.149 0.0582,-0.31956 0.0772,-0.37886 0.0426,-0.1334 -0.1392,-0.3802 -0.33618,-0.45642 -0.1834,-0.071 -0.8586,-0.26554 -1.51442,-0.4364 -0.29104,-0.0758 -0.57678,-0.1604 -0.635,-0.188 -0.0582,-0.0276 -0.197,-0.0866 -0.30852,-0.131 -0.1398,-0.0558 -0.2215,-0.1306 -0.2634,-0.24172 -0.0454,-0.1204 -0.1102,-0.1742 -0.2575,-0.21386 -0.1082,-0.0292 -0.24462,-0.1138 -0.30312,-0.1882 -0.0632,-0.0804 -0.20934,-0.1632 -0.36002,-0.20444 -0.1396,-0.038 -0.36084,-0.119 -0.4918,-0.1798 -0.131,-0.0608 -0.2684,-0.1112 -0.30538,-0.1118 -0.0956,-0.002 -0.72926,-0.3115 -1.05192,-0.51426 -0.32992,-0.20736 -0.58916,-0.50968 -0.63176,-0.7368 -0.0224,-0.119 -0.0996,-0.21672 -0.26476,-0.3354 -0.1284,-0.0922 -0.23326,-0.20006 -0.23326,-0.23982 0,-0.1378 -0.155,-0.22594 -0.51322,-0.29138 -0.32902,-0.0602 -0.67162,-0.1838 -1.35084,-0.48736 -0.32904,-0.147 -1.70004,-1.49768 -1.78662,-1.76004 -0.0446,-0.1348 -0.1182,-0.2088 -0.29162,-0.29276 -0.167,-0.0808 -0.24804,-0.1596 -0.289,-0.28108 -0.0464,-0.1376 -0.1274,-0.2028 -0.43958,-0.35356 -0.21048,-0.1016 -0.3955,-0.20208 -0.41116,-0.22314 -0.016,-0.021 -0.1942,-0.1134 -0.39688,-0.20526 -0.2026,-0.0918 -0.44796,-0.22954 -0.54522,-0.30602 -0.37228,-0.2928 -1.1328,-1.04568 -1.20952,-1.1974 -0.0442,-0.0874 -0.1312,-0.20218 -0.1936,-0.25526 -0.0868,-0.0738 -0.0962,-0.1034 -0.0406,-0.1256 0.25904,-0.1038 0.35346,-0.408 0.1522,-0.4901 -0.70698,-0.28832 -1.1822,-0.52176 -1.46844,-0.7213 -0.1892,-0.1318 -0.42134,-0.2883 -0.51594,-0.3476 -0.0946,-0.0594 -0.172,-0.1266 -0.172,-0.1498 0,-0.023 -0.1026,-0.1576 -0.228,-0.29904 -0.1254,-0.1414 -0.28216,-0.34638 -0.3483,-0.45554 -0.0662,-0.1092 -0.17,-0.23326 -0.23062,-0.27578 -0.1096,-0.0768 -0.1092,-0.0776 0.0342,-0.1322 0.0796,-0.0302 0.164,-0.055 0.1876,-0.055 0.0236,0 0.153,-0.1338 0.2876,-0.29712 0.33378,-0.40542 0.32612,-0.51472 -0.0464,-0.66338 -0.1164,-0.0464 -0.39026,-0.159 -0.60854,-0.25002 -0.21828,-0.091 -0.4231,-0.1656 -0.45516,-0.1654 -0.1258,2.6e-4 -1.18104,-1.06472 -1.29998,-1.31202 -0.0658,-0.1368 -0.1638,-0.31448 -0.2179,-0.39462 -0.054,-0.0802 -0.1184,-0.21606 -0.143,-0.30202 -0.0422,-0.1474 -0.0288,-0.167 0.24134,-0.3462 0.2563,-0.1702 0.39308,-0.31882 0.39308,-0.42732 0,-0.0206 -0.23556,-0.27824 -0.52348,-0.57234 -0.4808,-0.49114 -0.74652,-0.88384 -0.74652,-1.10332 0,-0.0394 -0.0204,-0.0944 -0.0452,-0.122 -0.025,-0.0276 -0.0864,-0.18 -0.1368,-0.3387 -0.1048,-0.33022 -0.109,-0.32328 0.34084,-0.5593 0.26184,-0.1374 0.635,-0.46298 0.635,-0.55414 0,-0.0318 -0.1072,-0.1724 -0.23812,-0.31244 -0.131,-0.14 -0.23812,-0.28188 -0.23812,-0.31524 0,-0.0334 -0.018,-0.0606 -0.0412,-0.0606 -0.086,0 -0.32574,-0.67922 -0.38278,-1.0848 -0.0328,-0.23282 -0.087,-0.50202 -0.1206,-0.5982 -0.0714,-0.20484 -0.0324,-0.2453 0.28548,-0.29614 0.3116,-0.0498 0.34638,-0.173 0.1618,-0.57326 -0.0842,-0.1824 -0.1958,-0.47444 -0.24806,-0.64906 -0.0524,-0.1746 -0.127,-0.3551 -0.166,-0.40104 -0.1014,-0.1196 -0.0938,-0.131 0.1372,-0.20018 0.151,-0.0452 0.21274,-0.0948 0.2249,-0.1804 0.014,-0.1022 0.045,-0.1162 0.22844,-0.105 0.1164,0.008 0.24738,0.0296 0.29104,0.05 0.106,0.0494 1.21948,0.1608 1.33282,0.1334 0.049,-0.012 0.1148,-0.0948 0.1458,-0.184 0.0468,-0.1344 0.0372,-0.20256 -0.0562,-0.39554 -0.0836,-0.1728 -0.0974,-0.24852 -0.0532,-0.29264 0.0442,-0.0442 0.076,-0.043 0.123,0.004 0.035,0.035 0.1124,0.0636 0.172,0.0638 0.0596,1.6e-4 0.1768,0.036 0.26006,0.0794 0.0834,0.0434 0.1786,0.079 0.21166,0.079 0.0864,-2.2e-4 1.0861,0.30922 1.29224,0.39994 0.1532,0.0674 0.1886,0.0668 0.29834,-0.006 0.101,-0.0662 0.1314,-0.1458 0.161,-0.42162 0.02,-0.187 0.02,-0.47554 -0.001,-0.6412 -0.034,-0.27146 -0.0286,-0.29774 0.0534,-0.26626 0.1956,0.075 0.65918,0.0976 0.90842,0.044 0.32214,-0.069 0.61168,-0.014 1.0597,0.2043 0.1788,0.0868 0.35736,0.1448 0.39686,0.1286 0.1494,-0.0608 0.2829,-0.31568 0.2832,-0.54066 0,-0.1236 0.002,-0.2249 0.006,-0.2249 0.002,0 0.078,0.0364 0.1672,0.0808 0.1458,0.0728 0.183,0.0726 0.3695,-0.002 0.1578,-0.0632 0.242,-0.0698 0.35218,-0.028 0.0796,0.0302 0.2027,0.055 0.27348,0.055 0.0724,0 0.21728,0.08 0.3315,0.1832 0.1116,0.1008 0.30808,0.22838 0.43672,0.28358 0.3031,0.13 0.6035,0.33554 0.82738,0.56606 0.0984,0.1014 0.1906,0.1842 0.20496,0.1842 0.014,0 0.0946,0.0506 0.1784,0.1126 0.30544,0.22584 0.53786,-0.014 0.44824,-0.46162 -0.028,-0.1398 -0.012,-0.1662 0.1574,-0.24648 0.1576,-0.075 0.1942,-0.1252 0.22284,-0.30396 0.034,-0.21294 0.0352,-0.21384 0.22572,-0.1788 0.31304,0.0574 1.02686,0.34482 1.18776,0.4781 0.0822,0.0682 0.178,0.124 0.21282,0.124 0.0348,0 0.18,0.1072 0.3226,0.23812 0.1426,0.131 0.26812,0.23814 0.2788,0.23814 0.01,0 0.0918,0.0536 0.1804,0.119 0.1584,0.117 0.1622,0.1174 0.23598,0.016 0.0412,-0.0564 0.075,-0.1584 0.075,-0.22652 0,-0.0682 0.0348,-0.20704 0.0772,-0.30868 0.0424,-0.1016 0.0638,-0.21994 0.0472,-0.26288 -0.0352,-0.0918 0.0908,-0.1062 0.177,-0.0202 0.0318,0.0318 0.20928,0.111 0.39422,0.1756 0.55654,0.1948 0.8833,0.38482 1.281,0.74534 0.208,0.1886 0.40274,0.34306 0.43274,0.3434 0.0772,8.2e-4 0.63104,0.5776 0.73722,0.76786 0.0488,0.0874 0.1456,0.254 0.2153,0.37042 0.0696,0.1164 0.1748,0.29936 0.23372,0.40652 0.0588,0.1072 0.1322,0.21042 0.163,0.22944 0.1012,0.0626 0.2044,-0.0848 0.23546,-0.33602 0.016,-0.1358 0.0676,-0.35912 0.113,-0.49614 0.0454,-0.137 0.067,-0.27392 0.0484,-0.30426 -0.0772,-0.1248 0.0526,-0.0576 0.60716,0.31482 0.0728,0.0488 0.20144,0.106 0.28594,0.127 0.164,0.0408 0.51594,0.26426 0.83574,0.53062 0.3611,0.30078 0.50852,0.40108 0.58942,0.40108 0.0756,0 0.26034,-0.1928 0.31934,-0.33338 0.02,-0.0458 0.046,-0.0406 0.0962,0.018 0.0382,0.045 0.1528,0.1142 0.25468,0.1538 0.1018,0.0396 0.25776,0.1398 0.34646,0.22244 0.0888,0.0828 0.192,0.1504 0.22948,0.1504 0.1024,0 0.72398,0.61642 0.93002,0.92232 0.28144,0.41782 0.73336,0.87684 0.86332,0.87684 0.1336,0 0.38238,-0.33308 0.38238,-0.51186 0,-0.22092 0.12,-0.20304 0.27506,0.041 0.048,0.0756 0.1678,0.1758 0.26616,0.22242 0.0982,0.0466 0.2251,0.1362 0.28178,0.1992 0.0566,0.063 0.1558,0.1346 0.22014,0.1592 0.0644,0.0246 0.1762,0.135 0.24846,0.24528 0.0722,0.1102 0.3137,0.391 0.53656,0.62382 0.22288,0.23284 0.47196,0.5543 0.55352,0.71438 0.1924,0.3774 0.42732,0.60462 0.57636,0.5573 0.165,-0.0524 0.26988,-0.1784 0.26988,-0.32462 0,-0.2311 0.1358,-0.2 0.40464,0.0928 0.1412,0.1538 0.40348,0.4353 0.58276,0.62534 0.1792,0.19 0.44018,0.48842 0.57982,0.66304 0.1396,0.1746 0.26968,0.3294 0.28902,0.34396 0.02,0.014 0.0988,0.1488 0.1768,0.29856 0.179,0.34366 0.5528,0.7427 0.73988,0.78966 0.1098,0.0276 0.1746,0.006 0.2772,-0.0896 l 0.1338,-0.1256 0.1024,0.1324 c 0.0564,0.0728 0.1496,0.1878 0.20716,0.25584 0.0576,0.068 0.1048,0.1414 0.1048,0.163 0,0.0218 0.054,0.0684 0.1198,0.1036 0.066,0.0352 0.21476,0.1746 0.33074,0.30936 0.69734,0.81086 1.11138,1.20698 1.32966,1.27214 0.136,0.0406 0.2715,0.13 0.34608,0.22838 0.0674,0.089 0.20768,0.2613 0.31166,0.38308 0.104,0.1218 0.25794,0.31666 0.34218,0.43308 0.0842,0.1164 0.22538,0.29702 0.31366,0.40136 0.0884,0.1044 0.20188,0.2591 0.2524,0.34396 0.0504,0.0848 0.187,0.29714 0.30312,0.47176 0.1162,0.1746 0.2818,0.45086 0.36796,0.61388 0.0862,0.163 0.2143,0.36542 0.28474,0.4498 0.0704,0.0844 0.1666,0.22854 0.21364,0.32036 0.047,0.0918 0.121,0.20242 0.1644,0.24572 0.0432,0.0434 0.1374,0.2063 0.20898,0.3622 0.0716,0.1558 0.21534,0.36552 0.31936,0.46582 0.104,0.1004 0.1892,0.20856 0.1892,0.2406 0,0.032 0.1072,0.2214 0.23814,0.4208 0.131,0.1994 0.23812,0.3724 0.23812,0.38444 0,0.0338 0.24202,0.55944 0.57966,1.25888 0.43944,0.91034 0.46586,1.06942 0.52606,3.16784 0.0482,1.68106 0.058,1.799 0.1574,1.905 0.0582,0.0622 0.173,0.21232 0.25488,0.33372 0.082,0.1214 0.20844,0.26676 0.2812,0.32302 0.145,0.1122 0.52028,0.25008 0.56334,0.20702 0.014,-0.014 0,-0.3685 -0.0334,-0.7858 -0.0924,-1.16072 -0.1294,-6.32744 -0.0578,-8.08768 0.1358,-3.3434 0.1298,-4.87356 -0.0304,-7.58104 l -0.0336,-0.56958 -0.27024,-0.0758 c -0.1486,-0.0416 -0.71856,-0.1376 -1.2665,-0.21308 -1.40766,-0.194 -1.92978,-0.32518 -2.64906,-0.6654 -0.24242,-0.1146 -0.4632,-0.20848 -0.49064,-0.20848 -0.052,0 -0.79564,-0.47582 -1.52612,-0.97638 -0.5981,-0.40986 -0.62884,-0.43396 -1.11684,-0.8757 -0.24114,-0.21828 -0.59094,-0.52784 -0.77732,-0.68792 -0.1864,-0.16 -0.51512,-0.48858 -0.7305,-0.73004 -0.21536,-0.24144 -0.5285,-0.58876 -0.69586,-0.77178 -0.1674,-0.183 -0.30426,-0.34996 -0.30426,-0.37096 0,-0.021 -0.0666,-0.1024 -0.148,-0.1808 -0.1472,-0.1416 -0.43398,-0.5098 -0.43398,-0.55702 0,-0.043 -0.35566,-0.5551 -0.55204,-0.79478 -0.104,-0.127 -0.24518,-0.33538 -0.31372,-0.46326 -0.39224,-0.73178 -0.4763,-0.87734 -0.56196,-0.97332 -0.052,-0.0582 -0.1332,-0.1772 -0.1808,-0.26458 -0.1692,-0.3115 -0.53684,-0.83886 -0.73762,-1.05812 -0.0534,-0.0584 -0.1344,-0.1774 -0.1802,-0.2648 -0.0456,-0.0874 -0.1494,-0.24208 -0.23032,-0.34396 -0.081,-0.1018 -0.2091,-0.3093 -0.28464,-0.46098 -0.0756,-0.1516 -0.1602,-0.28994 -0.1882,-0.30726 -0.0596,-0.0368 -0.39744,-0.74998 -0.50098,-1.05738 -0.0392,-0.1164 -0.111,-0.37276 -0.1594,-0.56966 -0.089,-0.36158 -0.27684,-0.77046 -0.44324,-0.96492 -0.1162,-0.1356 -0.33444,-0.58066 -0.531,-1.08218 l -0.1546,-0.39426 0.128,-0.1522 c 0.0704,-0.0838 0.128,-0.192 0.1278,-0.24074 -5.4e-4,-0.1324 -0.188,-0.41464 -0.3434,-0.51652 -0.0754,-0.0494 -0.1958,-0.19 -0.26758,-0.3126 -0.0718,-0.1226 -0.1806,-0.268 -0.2416,-0.32322 -0.061,-0.0552 -0.1566,-0.1838 -0.21212,-0.28558 -0.0556,-0.1018 -0.1822,-0.29236 -0.2811,-0.42334 -0.1068,-0.1414 -0.1954,-0.3327 -0.21792,-0.4708 -0.0208,-0.128 -0.0702,-0.29466 -0.1098,-0.37042 -0.1058,-0.20276 -0.0898,-0.2976 0.079,-0.46644 0.25888,-0.25888 0.25658,-0.34978 -0.016,-0.64136 -0.1328,-0.142 -0.24132,-0.28274 -0.24132,-0.31298 0,-0.0302 -0.0318,-0.0672 -0.0706,-0.082 -0.0388,-0.014 -0.139,-0.1662 -0.22268,-0.3364 -0.0838,-0.1702 -0.1914,-0.36886 -0.2395,-0.44162 -0.133,-0.20142 -0.29952,-0.68556 -0.36582,-1.06334 -0.0328,-0.1864 -0.0708,-0.3776 -0.0846,-0.42484 -0.018,-0.0638 0.0514,-0.117 0.27114,-0.20614 0.163,-0.0662 0.33328,-0.1766 0.37848,-0.24566 0.077,-0.1176 0.0728,-0.1392 -0.0688,-0.3495 -0.0832,-0.1232 -0.2355,-0.32252 -0.33864,-0.44284 -0.1532,-0.1788 -0.21354,-0.324 -0.32962,-0.79374 -0.0782,-0.31624 -0.1798,-0.7774 -0.22586,-1.02478 -0.1274,-0.6839 -0.187,-0.90092 -0.3302,-1.20322 -0.0722,-0.1524 -0.118,-0.31196 -0.1016,-0.35444 0.016,-0.0424 0.1798,-0.1228 0.36308,-0.1786 0.51274,-0.156 0.58004,-0.4265 0.20652,-0.83012 -0.21824,-0.23584 -0.31426,-0.56376 -0.36914,-1.26062 -0.0402,-0.5091 -0.0354,-0.652 0.0256,-0.7673 0.0412,-0.078 0.0712,-0.23692 0.0668,-0.35334 -0.004,-0.1164 0.0204,-0.31416 0.055,-0.43942 0.0364,-0.1312 0.0482,-0.32728 0.028,-0.46242 -0.0432,-0.2884 0.012,-0.32086 0.3653,-0.21452 0.1848,0.0556 0.29506,0.062 0.40554,0.0236 0.1354,-0.0472 0.156,-0.0854 0.191,-0.35314 0.043,-0.32912 0.049,-0.5464 0.0256,-0.9088 -0.014,-0.21252 0.018,-0.35512 0.1576,-0.71436 0.1466,-0.37636 0.21016,-0.67298 0.1794,-0.83704 -0.0428,-0.22856 0.001,-0.25626 0.26428,-0.1658 0.29962,0.103 0.70514,0.1406 0.98,0.0908 0.23578,-0.0428 0.23756,-0.0448 0.30154,-0.33272 0.0402,-0.1812 0.048,-0.36254 0.0208,-0.48412 -0.0248,-0.11 -0.023,-0.21498 0.004,-0.24188 0.0262,-0.0262 0.0926,-0.1648 0.1476,-0.30832 0.1864,-0.48516 0.40076,-1.00132 0.44354,-1.06796 0.0314,-0.0488 0.07,-0.0516 0.1472,-0.01 0.0576,0.0308 0.1532,0.0406 0.2124,0.0218 0.1118,-0.0354 0.31156,-0.42878 0.31156,-0.61314 0,-0.1258 0.1962,-0.52268 0.25844,-0.52268 0.1366,0 0.63724,0.118 0.7737,0.1822 0.152,0.0716 0.83576,0.75946 1.15802,1.16488 0.084,0.1058 0.22172,0.22792 0.30588,0.27144 0.1514,0.0784 0.1562,0.076 0.45966,-0.21332 l 0.30662,-0.29248 0.168,0.1642 c 0.0924,0.0904 0.168,0.1944 0.168,0.23108 0,0.0954 0.34446,0.34532 0.55666,0.40392 0.0988,0.0272 0.24626,0.1142 0.3275,0.1932 0.0812,0.079 0.2163,0.179 0.30012,0.22242 0.0838,0.0434 0.1778,0.1346 0.20886,0.20268 0.031,0.0682 0.1414,0.1672 0.2453,0.22024 0.1736,0.0886 0.20164,0.0896 0.34676,0.014 0.0868,-0.0452 0.25194,-0.1622 0.36686,-0.26018 0.23998,-0.20446 0.25844,-0.1962 0.47468,0.21486 0.075,0.1424 0.23986,0.3697 0.36652,0.50508 0.1266,0.1354 0.23982,0.26892 0.25152,0.29672 0.012,0.0278 0.107,0.1146 0.21194,0.1928 0.1048,0.0782 0.21944,0.22114 0.25458,0.3175 0.0352,0.0964 0.0982,0.24262 0.14,0.32502 0.0418,0.0824 0.0762,0.2057 0.0762,0.27402 0,0.126 0.1234,0.29054 0.21806,0.29054 0.0766,0 0.37354,-0.1608 0.46406,-0.25124 0.0434,-0.0434 0.1456,-0.1022 0.22748,-0.1306 0.0818,-0.0286 0.1488,-0.0734 0.1488,-0.0996 0,-0.1252 0.1548,-0.0278 0.1866,0.1176 0.02,0.0908 0.0796,0.23974 0.1326,0.33074 0.053,0.091 0.1382,0.2726 0.1894,0.40356 0.0512,0.131 0.1336,0.29766 0.183,0.37042 0.53804,0.79014 0.58416,0.91132 0.70696,1.85792 0.0466,0.35958 0.1142,0.68226 0.15,0.7171 0.0508,0.0494 0.1816,0.0236 0.5917,-0.1164 0.28958,-0.0988 0.53924,-0.167 0.5548,-0.1514 0.016,0.016 0.0808,0.21122 0.145,0.4348 0.1786,0.6219 0.30656,0.96426 0.48724,1.30286 0.1458,0.2732 0.1656,0.36218 0.1708,0.76474 0.004,0.25056 0.021,0.59844 0.0396,0.77308 0.0312,0.29166 0.045,0.31878 0.1708,0.3334 0.0752,0.008 0.26152,-0.0332 0.41396,-0.0934 0.1524,-0.06 0.29612,-0.0976 0.31928,-0.0832 0.0232,0.014 0.0582,0.1264 0.0778,0.24904 0.038,0.2374 0.1108,0.48742 0.35162,1.20808 0.1308,0.39148 0.158,0.58358 0.20886,1.48166 0.0322,0.56754 0.078,1.05148 0.1018,1.07542 0.0238,0.024 0.139,0.018 0.25602,-0.014 0.2589,-0.0698 0.38282,-0.0298 0.38282,0.123 0,0.0634 0.0356,0.2453 0.079,0.40444 0.0434,0.1592 0.1066,0.71798 0.14,1.24184 0.0336,0.52388 0.086,0.98428 0.1164,1.02314 0.038,0.0484 0.1228,0.061 0.27004,0.0398 0.28032,-0.0402 0.3679,0.018 0.3245,0.21546 -0.018,0.0846 5.4e-4,0.31978 0.0422,0.52254 0.0418,0.20278 0.104,0.6306 0.1382,0.95076 0.0958,0.89746 0.12,0.96294 0.3722,1.00554 0.1938,0.0328 0.21086,0.0492 0.21122,0.20296 0.002,0.74576 0.1746,3.1934 0.26216,3.71274 0.2391,1.41708 0.2647,2.58902 0.078,3.57292 -0.065,0.34246 -0.34332,1.06808 -0.55128,1.43712 -0.0276,0.0488 -0.1352,0.30652 -0.23912,0.57266 -0.104,0.26616 -0.20866,0.52386 -0.2326,0.57268 -0.024,0.0488 -0.1956,0.408 -0.3817,0.79814 -0.186,0.39014 -0.41558,0.83952 -0.51018,0.9986 -0.0946,0.159 -0.172,0.3143 -0.172,0.34492 0,0.0306 -0.0938,0.24802 -0.2086,0.48308 -0.31498,0.6453 -0.47932,1.03798 -0.47932,1.14534 0,0.0532 0.1132,0.247 0.25136,0.43078 0.1382,0.1838 0.29238,0.39338 0.34252,0.46582 0.0892,0.129 0.0928,0.1296 0.172,0.029 0.0444,-0.0564 0.0808,-0.18 0.0808,-0.2747 0,-0.0946 0.0224,-0.1858 0.0498,-0.20278 0.0274,-0.016 0.0662,-0.1404 0.0864,-0.27442 0.0202,-0.134 0.083,-0.3656 0.1398,-0.5147 0.0568,-0.149 0.116,-0.31278 0.1314,-0.3637 0.016,-0.051 0.0492,-0.0926 0.075,-0.0926 0.0258,0 0.0468,-0.0278 0.0468,-0.062 0,-0.034 0.073,-0.21864 0.1624,-0.41012 0.95834,-2.0541 0.94882,-2.03268 0.94882,-2.13674 0,-0.0436 0.0776,-0.1948 0.1724,-0.33598 0.0948,-0.1412 0.28894,-0.53016 0.43148,-0.86442 0.28188,-0.66106 0.3841,-0.84382 0.96298,-1.72176 0.21152,-0.32078 0.41114,-0.64226 0.4436,-0.71436 0.1134,-0.25194 0.3493,-0.66278 0.56138,-0.97778 0.23652,-0.35128 0.4165,-0.76782 0.4973,-1.15094 0.0292,-0.1382 0.0784,-0.36448 0.1094,-0.50272 0.0592,-0.26324 0.077,-0.39982 0.1254,-0.96572 0.1124,-1.30962 0.1382,-1.82246 0.1308,-2.59292 -0.01,-0.98682 0.0296,-1.71896 0.11,-2.0513 0.03,-0.1242 0.0512,-0.32654 0.047,-0.4498 -0.004,-0.1232 0.0224,-0.43842 0.0588,-0.70036 0.0364,-0.26194 0.0728,-0.61912 0.081,-0.79376 0.008,-0.1746 0.0404,-0.38276 0.0716,-0.46256 0.0312,-0.0798 0.043,-0.1812 0.026,-0.22556 -0.016,-0.0442 -0.008,-0.11 0.018,-0.146 0.0812,-0.1074 0.1772,-0.498 0.1438,-0.58524 -0.018,-0.0446 0.018,-0.193 0.079,-0.32978 0.0606,-0.1368 0.11,-0.27314 0.11,-0.30302 0,-0.0298 0.0574,-0.1756 0.1276,-0.324 0.0702,-0.1484 0.1518,-0.38874 0.1814,-0.53426 0.0296,-0.1456 0.105,-0.44318 0.1674,-0.66146 0.0624,-0.21828 0.15,-0.53976 0.1944,-0.71438 0.0444,-0.1746 0.1044,-0.37704 0.1334,-0.4498 0.029,-0.0728 0.0728,-0.23944 0.0976,-0.3704 0.0246,-0.131 0.0844,-0.3691 0.1326,-0.52918 0.0482,-0.16 0.1178,-0.44582 0.1548,-0.635 0.0368,-0.1892 0.0848,-0.39158 0.1066,-0.44978 0.2031,-0.54184 0.32028,-0.80996 0.53234,-1.21806 0.1358,-0.2614 0.29186,-0.58878 0.34674,-0.72752 0.0548,-0.1388 0.20678,-0.4672 0.33756,-0.72996 0.1308,-0.26276 0.27646,-0.6136 0.32378,-0.77964 0.0474,-0.166 0.1516,-0.4686 0.23188,-0.67232 0.148,-0.3759 0.44902,-1.25274 0.64484,-1.87854 0.0592,-0.1892 0.1646,-0.46724 0.23444,-0.61792 0.0698,-0.1506 0.135,-0.32802 0.1452,-0.39408 0.0266,-0.1738 0.093,-0.1736 0.35198,2.6e-4 0.1268,0.0852 0.25988,0.1434 0.29586,0.1296 0.0612,-0.0236 0.28684,-0.48448 0.28684,-0.58614 0,-0.1152 0.39214,-0.8258 0.53824,-0.97524 0.0894,-0.0914 0.22036,-0.28148 0.29114,-0.42242 0.144,-0.2869 0.20358,-0.30954 0.36032,-0.1372 0.103,0.1134 0.2398,0.21424 0.38458,0.28382 0.116,0.0558 0.21698,-0.021 0.33484,-0.25478 0.1296,-0.25712 0.1872,-0.31828 0.53122,-0.56366 0.30382,-0.21678 0.43164,-0.38844 0.52382,-0.70342 l 0.072,-0.24588 0.0962,0.1222 c 0.0528,0.0672 0.2044,0.1746 0.33676,0.2387 0.1324,0.064 0.27626,0.1708 0.31976,0.2372 0.156,0.23814 0.27436,0.20654 0.6213,-0.166 0.1766,-0.1894 0.36072,-0.40836 0.40936,-0.48642 0.0946,-0.1518 0.3382,-0.3889 0.4784,-0.46558 0.047,-0.0258 0.35608,-0.30276 0.68678,-0.61562 0.3307,-0.31288 0.62864,-0.56886 0.66212,-0.56886 0.0334,0 0.0908,0.0724 0.1274,0.1608 0.0366,0.0884 0.11,0.184 0.1632,0.21246 0.0532,0.0284 0.17,0.1584 0.25986,0.28902 0.24044,0.34948 0.35698,0.31522 0.75014,-0.22056 0.37818,-0.5153 0.4438,-0.5966 0.48316,-0.59844 0.0238,-0.001 0.119,-0.0586 0.21166,-0.1278 0.0926,-0.0692 0.2637,-0.1554 0.38012,-0.1916 0.26102,-0.0812 0.54502,-0.24914 0.69642,-0.41174 0.1258,-0.1352 0.1464,-0.121 0.20206,0.138 0.0208,0.0968 0.1384,0.34692 0.26154,0.55562 0.27502,0.4665 0.38168,0.49958 0.72402,0.22462 0.61604,-0.49484 0.80748,-0.6193 1.29492,-0.84186 0.28886,-0.132 0.58894,-0.25544 0.66684,-0.27454 0.0778,-0.02 0.1828,-0.0802 0.2331,-0.1358 0.0502,-0.0556 0.11,-0.101 0.1324,-0.101 0.0226,0 0.0798,0.137 0.1272,0.30428 0.0474,0.1674 0.0988,0.3474 0.1142,0.4001 0.016,0.0528 0.0826,0.1208 0.1494,0.1512 0.1512,0.0688 0.63168,-0.06 0.93304,-0.25026 0.1124,-0.071 0.24786,-0.129 0.30108,-0.129 0.0532,0 0.143,-0.035 0.1994,-0.0776 0.0566,-0.0428 0.1506,-0.0784 0.20898,-0.0794 0.0584,-9.2e-4 0.22264,-0.0636 0.36492,-0.1394 0.21572,-0.1148 0.25278,-0.1224 0.22326,-0.0454 -0.02,0.0514 9e-4,0.1476 0.0464,0.21708 0.0904,0.138 0.28852,0.1634 0.53686,0.069 0.1728,-0.0656 0.36554,-0.029 0.4063,0.0772 0.0256,0.0666 -0.0682,0.72076 -0.1502,1.048 -0.0524,0.20872 0.0894,0.333 0.37962,0.333 0.24154,0 0.25622,0.008 0.28286,0.1588 0.0314,0.1774 -0.012,0.47282 -0.1682,1.1377 -0.1526,0.65062 -0.1514,0.7533 0.01,0.79872 0.0728,0.0206 0.24386,0.0398 0.3802,0.0426 0.55324,0.012 0.60912,0.125 0.48572,0.98424 -0.0874,0.60862 -0.0848,0.59692 -0.27304,1.18282 l -0.142,0.44198 0.1552,0.1238 c 0.1078,0.0858 0.2575,0.1348 0.4897,0.1596 0.184,0.02 0.34534,0.0534 0.35858,0.0748 0.014,0.0214 -0.0204,0.2984 -0.075,0.61554 -0.0802,0.46742 -0.146,0.66862 -0.34752,1.0627 -0.23158,0.45294 -0.24438,0.49868 -0.1878,0.67044 0.0752,0.22792 0.1172,0.26164 0.4691,0.37646 0.22344,0.073 0.27408,0.1098 0.24586,0.179 -0.02,0.048 -0.054,0.1484 -0.0766,0.22308 -0.0226,0.0748 -0.0656,0.1818 -0.0956,0.23812 -0.03,0.0562 -0.0962,0.22128 -0.1472,0.3668 -0.1436,0.41042 -0.69502,1.348 -0.95894,1.63024 -0.1954,0.20896 -0.2318,0.27862 -0.20384,0.39002 0.0444,0.1766 0.1944,0.31056 0.49184,0.43918 0.0654,0.0284 0.119,0.0726 0.119,0.0984 0,0.1746 -1.00548,1.80778 -1.113,1.80778 -0.0722,0 -0.42158,0.56916 -0.42158,0.68688 0,0.1022 0.189,0.31854 0.27844,0.31854 0.0602,0 -0.2129,0.4787 -0.61888,1.0848 -0.29028,0.43336 -0.49736,0.66222 -1.26344,1.39648 -0.32166,0.30828 -0.37368,0.3994 -0.3032,0.53108 0.0408,0.0764 0.0288,0.1622 -0.0484,0.34216 -0.0892,0.20802 -0.0958,0.28454 -0.0498,0.57094 0.0292,0.1818 0.0778,0.36036 0.108,0.39662 0.159,0.1916 0.45672,0.0964 0.79914,-0.25534 0.1092,-0.112 0.21068,-0.20382 0.2257,-0.20382 0.016,0 0.1948,-0.1218 0.39958,-0.27076 0.20474,-0.149 0.44846,-0.29068 0.5416,-0.31504 0.0932,-0.0244 0.45006,-0.1198 0.7932,-0.2122 0.34312,-0.0924 0.63484,-0.157 0.64826,-0.1436 0.014,0.014 0.0498,0.28432 0.081,0.60202 0.101,1.0327 0.1254,1.06344 0.64606,0.8174 0.1958,-0.0924 0.38558,-0.1962 0.42192,-0.2304 0.2061,-0.1942 1.54938,-0.56082 1.71522,-0.46802 0.0496,0.0278 0.1394,0.0326 0.1996,0.01 0.32832,-0.1202 0.47934,-0.1554 0.51448,-0.1204 0.0216,0.0216 0.016,0.1454 -0.014,0.2753 -0.0292,0.1298 -0.0382,0.32402 -0.02,0.43158 l 0.033,0.1956 0.61796,0.0328 c 0.33988,0.018 0.79204,0.056 1.0048,0.0846 0.2565,0.0342 0.42026,0.0338 0.486,-0.001 0.1432,-0.0766 0.1704,-0.0662 0.1332,0.0508 -0.018,0.0572 -0.01,0.147 0.018,0.1998 0.0302,0.0566 0.0322,0.13 0.004,0.179 -0.0704,0.126 0.0398,0.45784 0.1654,0.49768 0.0586,0.018 0.2782,0.002 0.48782,-0.0354 0.42596,-0.0774 0.48208,-0.0754 0.8574,0.0304 0.35312,0.0996 0.90606,0.22812 1.15094,0.2676 0.1662,0.0268 0.1984,0.053 0.1984,0.1606 0,0.0752 0.0496,0.161 0.119,0.2065 0.1054,0.0688 0.1488,0.068 0.37738,-0.008 0.29634,-0.0978 0.36578,-0.0724 0.5516,0.20046 l 0.122,0.1792 -0.1602,0.1334 c -0.0882,0.0734 -0.2104,0.24812 -0.27164,0.38842 -0.0612,0.1402 -0.17,0.34136 -0.2415,0.44682 -0.0986,0.1454 -0.1216,0.23014 -0.0952,0.35046 0.0374,0.1704 0.1366,0.29702 0.23246,0.29702 0.152,0 0.37158,0.1672 0.37158,0.283 0,0.129 -0.4362,1.0676 -0.51128,1.1001 -0.046,0.02 -0.1416,0.176 -0.34412,0.56146 l -0.118,0.2248 0.1824,0.1902 c 0.1004,0.1046 0.28368,0.23822 0.40736,0.29698 0.1236,0.0588 0.2249,0.1142 0.2249,0.1232 0,0.01 -0.086,0.1856 -0.191,0.39256 -0.1472,0.28968 -0.33636,0.52344 -0.82286,1.01676 -0.59588,0.60424 -0.62974,0.64996 -0.59644,0.80546 0.0488,0.22776 0.0516,0.23066 0.33036,0.35636 0.39056,0.176 0.40088,0.1934 0.2348,0.39266 -0.08,0.096 -0.25256,0.31432 -0.38352,0.48518 -0.34372,0.44842 -0.98522,0.96242 -1.37104,1.09854 -0.3044,0.1074 -0.58548,0.30652 -0.58622,0.41528 -9e-4,0.133 0.0896,0.2927 0.2979,0.52572 l 0.1774,0.1984 -0.189,0.26322 c -0.3143,0.43746 -0.6398,0.6652 -1.4057,0.98338 -0.77716,0.32288 -0.9136,0.57882 -0.76082,1.42726 0.0932,0.5172 0.20234,0.71274 0.39812,0.71274 0.0474,0 0.32266,-0.1194 0.6118,-0.26542 0.67014,-0.33834 0.92092,-0.40774 1.63696,-0.45292 0.32016,-0.0202 0.67438,-0.0692 0.78718,-0.109 0.28612,-0.1008 0.29564,-0.096 0.23624,0.1192 -0.0662,0.23984 -0.02,0.44382 0.102,0.443 0.0504,-3.2e-4 0.32972,-0.0634 0.62076,-0.14 0.52702,-0.1388 0.79106,-0.1708 0.85798,-0.1038 0.02,0.02 -0.004,0.1478 -0.05,0.28534 -0.0468,0.1376 -0.1624,0.51208 -0.25676,0.83224 -0.0944,0.32014 -0.25436,0.7329 -0.35552,0.91726 -0.1834,0.33446 -0.1836,0.33542 -0.0788,0.44034 0.118,0.118 0.41246,0.1998 0.72966,0.20298 0.31488,0.002 0.3624,0.0518 0.31678,0.32464 -0.071,0.42492 -0.61338,1.36744 -0.99932,1.73672 -0.1048,0.1004 -0.1906,0.22502 -0.1906,0.27714 0,0.1712 0.35922,0.34226 0.80706,0.38422 0.22512,0.021 0.41882,0.0542 0.43042,0.0736 0.0322,0.054 -0.311,1.1194 -0.436,1.3531 -0.0608,0.1136 -0.1558,0.25652 -0.21126,0.3175 -0.0554,0.061 -0.1272,0.1624 -0.1598,0.22548 -0.0746,0.1448 -0.6349,0.53808 -1.20824,0.84808 -0.56094,0.3033 -0.6046,0.37644 -0.35536,0.59528 0.1732,0.152 0.40658,0.31806 0.75792,0.5391 0.0754,0.0474 0.1312,0.1128 0.124,0.1452 -0.016,0.0736 -0.35476,0.55622 -0.5531,0.78894 -0.0814,0.0956 -0.1482,0.20012 -0.1482,0.23226 0,0.0456 -0.38722,0.48778 -0.8363,0.95516 -0.0896,0.0934 -0.63744,0.5058 -0.82162,0.61866 -0.37224,0.22812 -0.35266,0.54156 0.0462,0.7408 0.1296,0.0648 0.2358,0.141 0.2358,0.1696 0,0.0972 -0.1746,0.39008 -0.37474,0.62866 -0.1098,0.131 -0.26224,0.36314 -0.33862,0.51594 -0.0764,0.1528 -0.1614,0.27782 -0.1888,0.27782 -0.0276,0 -0.1394,0.0806 -0.24858,0.1792 -0.2,0.1804 -0.61492,0.45484 -0.86004,0.56878 -0.0728,0.0338 -0.31644,0.1448 -0.5415,0.24678 -0.22744,0.103 -0.44612,0.24162 -0.4923,0.3121 -0.0772,0.1178 -0.0744,0.1444 0.0388,0.37404 0.067,0.136 0.198,0.29834 0.29104,0.3608 l 0.1692,0.1136 -0.1426,0.1334 c -0.0784,0.0734 -0.21414,0.17 -0.30144,0.2145 -0.0874,0.0446 -0.25288,0.1782 -0.36792,0.29708 -0.115,0.1188 -0.23188,0.21602 -0.2596,0.21602 -0.0278,0 -0.124,0.055 -0.21416,0.1222 -0.2449,0.1828 -0.5921,0.34958 -0.89718,0.43102 -0.1496,0.04 -0.47438,0.155 -0.72176,0.2555 -0.2474,0.1006 -0.56974,0.20848 -0.71634,0.23972 -0.39556,0.0844 -0.54094,0.151 -0.57694,0.26444 -0.0488,0.1538 0.0576,0.376 0.20754,0.433 0.0732,0.0278 0.1332,0.0762 0.1332,0.1072 0,0.0312 -0.21838,0.28232 -0.48526,0.5582 -0.47568,0.49168 -0.8654,0.77086 -1.18162,0.8464 -0.32814,0.0784 -0.43824,0.1686 -0.47556,0.38938 -0.0418,0.24746 -0.31602,0.49946 -0.80504,0.73982 -0.30642,0.1506 -0.90076,0.32262 -1.11466,0.32262 -0.3148,0 -0.6492,0.1184 -0.75532,0.26746 -0.1198,0.1682 -0.0942,0.27388 0.1244,0.51376 0.0766,0.084 0.0924,0.1364 0.0532,0.1756 -0.0872,0.0872 -1.0796,0.40254 -1.71944,0.5464 -0.49616,0.1116 -0.60838,0.157 -0.7875,0.31884 -0.115,0.1038 -0.2404,0.1888 -0.2789,0.1888 -0.0384,0 -0.35394,0.1424 -0.701,0.31642 -0.34704,0.174 -0.67424,0.31692 -0.72708,0.3175 -0.0528,6e-4 -0.1464,0.028 -0.2079,0.061 -0.0616,0.033 -0.35162,0.103 -0.64474,0.1556 -0.86006,0.1546 -1.46338,0.2941 -1.80294,0.41666 -0.1746,0.063 -0.6747,0.16 -1.11126,0.2157 -1.1103,0.1414 -2.20738,0.31592 -2.3039,0.36644 -0.0448,0.0234 -0.1876,0.0594 -0.3175,0.0798 -0.1298,0.0204 -0.35516,0.0798 -0.50068,0.132 -0.93162,0.33398 -3.23206,0.55362 -4.52438,0.43196 -2.48998,-0.23438 -3.47296,-0.40982 -4.205,-0.75048 -0.1174,-0.0546 -0.3123,-0.1338 -0.433,-0.1758 -0.1208,-0.042 -0.32074,-0.1498 -0.4445,-0.23952 -0.1238,-0.0896 -0.25124,-0.1636 -0.28324,-0.1642 -0.032,-6.4e-4 -0.1178,-0.0492 -0.1904,-0.108 -0.23286,-0.1882 -0.76324,-0.53686 -0.88982,-0.585 -0.0746,-0.0284 -0.1612,-0.026 -0.22106,0.006 -0.135,0.0722 -0.188,0.53798 -0.113,0.99346 0.1254,0.76256 0.2116,1.22144 0.3151,1.67902 0.0592,0.26194 0.1592,0.79772 0.22214,1.19064 0.063,0.3929 0.21692,1.23824 0.34224,1.87854 0.1254,0.64028 0.24364,1.29512 0.26296,1.4552 0.0662,0.54866 0.199,1.2966 0.2957,1.66688 0.1772,0.6777 0.32132,1.21054 0.50826,1.87854 0.201,0.71816 0.24232,0.87136 0.49252,1.82562 0.1796,0.68474 0.39114,1.61302 0.51264,2.24896 0.1536,0.8037 0.34654,1.89016 0.40884,2.30188 l 0.064,0.42332 0.168,-0.014 c 0.1848,-0.014 0.52822,-0.1736 0.78964,-0.36568 0.0926,-0.0682 0.2008,-0.1238 0.24034,-0.1238 0.0396,0 0.1702,-0.1012 0.2902,-0.2249 0.198,-0.2039 0.22396,-0.26292 0.2788,-0.63222 0.06,-0.4043 0.0218,-0.93552 -0.102,-1.41664 -0.181,-0.70354 -0.28634,-2.6555 -0.1658,-3.07082 0.24864,-0.85618 0.66248,-1.75122 0.92928,-2.00982 0.1024,-0.0992 0.1862,-0.2029 0.1862,-0.23022 0,-0.0274 0.0558,-0.1014 0.1242,-0.1648 0.0684,-0.0632 0.1924,-0.2327 0.27584,-0.37648 0.0834,-0.1438 0.1824,-0.28522 0.21984,-0.31432 0.0376,-0.0292 0.1456,-0.1714 0.2401,-0.31618 0.1206,-0.1846 0.26858,-0.3194 0.49562,-0.45138 0.178,-0.1034 0.4045,-0.24974 0.50324,-0.32506 0.0988,-0.0754 0.2583,-0.1542 0.35456,-0.1754 0.28,-0.0614 0.414,-0.1516 0.77944,-0.52436 0.1892,-0.193 0.36482,-0.35078 0.39036,-0.35078 0.0256,0 0.1496,-0.0862 0.2759,-0.1918 0.1262,-0.1054 0.38448,-0.29336 0.57386,-0.41754 0.1894,-0.1242 0.4021,-0.28794 0.47266,-0.36388 0.172,-0.185 0.24852,-0.174 0.32126,0.0464 0.0334,0.1014 0.0824,0.1978 0.1088,0.21402 0.1156,0.0714 0.49192,-0.0992 0.7396,-0.33506 0.42016,-0.4003 0.4025,-0.39072 0.4869,-0.26364 0.0918,0.1382 0.18,0.092 0.22622,-0.118 0.0436,-0.1988 0.33118,-0.4976 0.4157,-0.432 0.0332,0.0258 0.1676,0.0736 0.29852,0.1062 0.2055,0.0512 0.24724,0.0472 0.30468,-0.0294 0.0366,-0.0488 0.1438,-0.1136 0.23814,-0.1442 0.1266,-0.041 0.1848,-0.1004 0.22202,-0.22688 0.0374,-0.1268 0.0958,-0.1864 0.22474,-0.22894 0.0958,-0.0316 0.20456,-0.1008 0.24162,-0.1536 0.0738,-0.1054 0.69166,-0.53072 0.77096,-0.53072 0.0272,0 0.092,-0.0648 0.1438,-0.1442 0.1728,-0.2638 0.27304,-0.34402 0.38518,-0.30842 0.0612,0.02 0.1294,0.004 0.161,-0.0346 0.30064,-0.3764 0.59484,-0.66912 0.61558,-0.61246 0.014,0.0374 0.057,0.163 0.0966,0.2795 0.0414,0.1218 0.1288,0.24404 0.20628,0.28794 0.1268,0.0718 0.1548,0.063 0.48568,-0.1524 0.38956,-0.2538 0.63358,-0.50924 0.59142,-0.6191 -0.016,-0.0396 -0.006,-0.072 0.0218,-0.072 0.0272,0 0.1752,-0.1062 0.32906,-0.23614 0.1538,-0.1298 0.36588,-0.30854 0.47134,-0.397 0.1054,-0.0884 0.45076,-0.29046 0.7673,-0.44888 0.31654,-0.1584 0.66832,-0.37314 0.78174,-0.47718 0.1134,-0.104 0.21684,-0.1786 0.22982,-0.1656 0.012,0.012 0.056,0.24004 0.0954,0.50458 0.0396,0.26454 0.0864,0.50442 0.104,0.53306 0.0424,0.0686 0.1446,0.0658 0.32676,-0.01 0.082,-0.0338 0.1812,-0.056 0.22082,-0.0492 0.0802,0.014 0.48808,-0.36872 0.45334,-0.42492 -0.0304,-0.0492 0.3348,-0.36398 0.42234,-0.36398 0.0388,0 0.1274,-0.085 0.1966,-0.1888 0.081,-0.1212 0.23938,-0.24458 0.4434,-0.34496 0.1746,-0.086 0.43656,-0.22734 0.58208,-0.31424 0.1456,-0.087 0.3003,-0.1716 0.34396,-0.1884 0.36092,-0.138 0.6112,-0.27948 0.7176,-0.40594 l 0.126,-0.1496 0.0324,0.1478 c 0.018,0.0812 0.065,0.21916 0.105,0.30648 0.0398,0.0874 0.0862,0.24566 0.1028,0.35188 0.0396,0.25204 0.1396,0.33832 0.29536,0.25492 0.22994,-0.123 0.6073,-0.43704 0.7011,-0.58334 0.0526,-0.0822 0.1956,-0.20812 0.3175,-0.27986 0.122,-0.0718 0.27942,-0.1922 0.34998,-0.26772 0.0706,-0.0756 0.158,-0.1374 0.1944,-0.1374 0.0364,0 0.1334,-0.0536 0.21566,-0.119 0.0822,-0.0654 0.23292,-0.16 0.3348,-0.20986 0.34554,-0.1694 1.8789,-0.6284 2.35478,-0.70488 0.1164,-0.018 0.24244,-0.0594 0.28006,-0.0906 0.0488,-0.0404 0.0858,-0.0392 0.1292,0.004 0.0458,0.0458 0.0446,0.1244 -0.006,0.31818 -0.0726,0.28354 -0.039,0.51422 0.0852,0.58374 0.124,0.0694 0.57452,-0.0978 0.79668,-0.29556 0.2109,-0.1878 0.22382,-0.1914 1.0953,-0.3019 0.3934,-0.05 0.65516,-0.113 0.80748,-0.1948 0.1762,-0.0946 0.23936,-0.107 0.28934,-0.057 0.05,0.05 0.0456,0.1012 -0.02,0.23498 -0.195,0.39712 -0.20618,0.45876 -0.1492,0.82276 0.0514,0.3279 0.1422,0.48598 0.2791,0.48598 0.073,0 0.94286,-0.20856 1.09514,-0.26258 0.0728,-0.0258 0.22158,-0.0616 0.33072,-0.0798 0.1172,-0.02 0.1984,-0.0626 0.1984,-0.1056 0,-0.0768 0.1692,-0.1002 1.18802,-0.165 0.33492,-0.0212 0.57182,-0.0632 0.65094,-0.115 0.175,-0.1146 0.25136,-0.023 0.1472,0.1766 -0.0444,0.085 -0.0808,0.1744 -0.081,0.1984 0,0.0242 -0.062,0.1978 -0.1372,0.38598 -0.1272,0.3181 -0.131,0.35096 -0.054,0.46866 0.11,0.1678 0.46108,0.22164 0.83712,0.1282 0.1538,-0.0382 0.3035,-0.0612 0.3326,-0.051 0.0292,0.01 0.1952,0.0392 0.36914,0.0646 0.174,0.0254 0.38824,0.069 0.47626,0.0968 0.088,0.0278 0.27026,0.0642 0.40498,0.0808 0.23656,0.0292 0.24608,0.0372 0.27772,0.23512 0.0382,0.23852 0.0918,0.26742 0.3667,0.1976 0.135,-0.0342 0.31774,-0.0322 0.55088,0.006 0.40174,0.0666 0.4938,0.1274 0.39708,0.26246 -0.0358,0.0502 -0.1032,0.1744 -0.1496,0.27636 -0.24412,0.53644 -0.32394,0.68552 -0.50614,0.94538 -0.1926,0.2746 -0.1964,0.289 -0.1186,0.43938 0.1198,0.23154 0.27026,0.3615 0.4187,0.3615 0.095,0 0.1322,0.0286 0.1322,0.1012 0,0.1302 -0.198,0.6556 -0.3545,0.94092 -0.067,0.122 -0.1218,0.26108 -0.1218,0.309 0,0.048 -0.1092,0.1982 -0.24278,0.33378 -0.1336,0.1356 -0.3538,0.361 -0.48948,0.50076 -0.1356,0.1398 -0.3105,0.28836 -0.38848,0.33016 -0.168,0.09 -0.2293,0.24514 -0.153,0.3875 0.1188,0.22188 0.5892,0.51784 1.05792,0.66554 0.20938,0.066 0.27412,0.183 0.123,0.22248 -0.0572,0.014 -0.26016,0.23414 -0.45104,0.4871 -0.191,0.25296 -0.39664,0.50478 -0.45722,0.5596 -0.1596,0.1444 -0.138,0.2136 0.12,0.38446 0.2873,0.1904 0.32374,0.1132 -0.52114,1.1042 -0.43644,0.51198 -0.8391,0.86512 -1.07554,0.9433 -0.0778,0.0258 -0.1682,0.0678 -0.20088,0.0934 -0.0326,0.0256 -0.1868,0.0844 -0.34248,0.1308 -0.33046,0.0982 -0.7359,0.36034 -0.7359,0.47592 0,0.20162 0.28102,0.52514 0.50496,0.58134 0.0716,0.018 0.13,0.0454 0.13,0.0612 0,0.016 -0.0782,0.1262 -0.1738,0.24562 -0.0956,0.1194 -0.21858,0.28768 -0.27318,0.3739 -0.1348,0.21296 -1.03572,1.13956 -1.10852,1.1402 -0.032,5.2e-4 -0.1612,0.0822 -0.28684,0.1822 -0.27308,0.21708 -0.53248,0.3076 -1.3057,0.4556 -0.31992,0.0612 -0.59752,0.137 -0.61688,0.1682 -0.091,0.1472 0.146,0.4266 0.4657,0.54866 0.1266,0.0484 0.23014,0.1166 0.23014,0.1514 0,0.035 -0.1728,0.2401 -0.3839,0.45584 -0.21114,0.21574 -0.44806,0.47004 -0.5265,0.56514 -0.1452,0.176 -1.16816,0.74544 -1.52376,0.84816 -0.1018,0.0294 -0.5424,0.1068 -0.97896,0.1722 -0.43656,0.0652 -0.82352,0.142 -0.8599,0.1704 -0.0968,0.0756 -0.081,0.21728 0.0414,0.37282 0.1232,0.1568 0.1066,0.174 -0.29272,0.30198 -0.1164,0.0374 -0.30936,0.1476 -0.42878,0.24508 -0.1194,0.0974 -0.23618,0.1772 -0.25946,0.1772 -0.0232,0 -0.198,0.0736 -0.38848,0.1636 -0.4608,0.21772 -0.96598,0.34164 -1.72196,0.42242 -0.38654,0.0412 -0.6529,0.095 -0.69892,0.141 -0.0826,0.0826 -0.0514,0.30614 0.061,0.43712 0.0374,0.0436 0.0834,0.14 0.1018,0.21426 0.0314,0.1262 0.014,0.141 -0.27368,0.22934 -0.169,0.052 -0.4026,0.1386 -0.51902,0.1926 -0.35498,0.1646 -1.04048,0.42906 -1.37582,0.53074 -0.52902,0.1604 -1.42414,0.47868 -1.48254,0.52714 -0.0868,0.072 -0.84906,0.31288 -1.42788,0.45118 -1.0784,0.25766 -1.4893,0.39258 -1.93844,0.63644 -0.20466,0.1112 -1.05422,0.266 -2.13614,0.38948 -2.0663,0.2358 -2.34588,0.27608 -2.83106,0.40788 -0.7366,0.20012 -1.55872,0.34518 -2.01082,0.3548 -0.72392,0.016 -2.4123,-0.1946 -3.70418,-0.46088 -0.64146,-0.1322 -1.6557,-0.42852 -1.88976,-0.55214 -0.0934,-0.0494 -0.46256,-0.2443 -0.8202,-0.43316 -0.55436,-0.29276 -0.72698,-0.41748 -1.1706,-0.84572 l -0.52034,-0.50232 0.0332,0.39592 c 0.018,0.21776 0.056,0.58642 0.084,0.81926 0.028,0.23282 0.0752,0.7448 0.105,1.1377 0.0624,0.82094 0.182,2.359 0.26146,3.36022 0.03,0.37834 0.0776,0.91412 0.1058,1.19062 0.0282,0.27648 0.0758,0.74084 0.1056,1.03188 0.1074,1.04522 0.2642,3.27458 0.37028,5.2652 0.0286,0.53842 0.0652,1.12184 0.0812,1.29646 0.0438,0.4786 0.1842,3.38496 0.1846,3.82322 5.4e-4,0.3158 0.016,0.38366 0.0848,0.38366 0.104,0 0.37324,-0.1452 0.55056,-0.29666 0.0728,-0.0622 0.20156,-0.1294 0.28622,-0.1494 0.25768,-0.061 0.47796,-0.33376 0.60114,-0.74454 0.1172,-0.39106 0.23186,-1.1621 0.25166,-1.69332 0.006,-0.1746 0.042,-0.38894 0.0788,-0.47626 0.0368,-0.0874 0.0726,-0.41226 0.0796,-0.72214 0.006,-0.30986 0.0302,-0.5919 0.0518,-0.62678 0.0216,-0.0348 0.0462,-0.1862 0.0548,-0.33618 0.0388,-0.67982 0.25458,-1.46154 0.54284,-1.96614 0.0332,-0.0582 0.1114,-0.22316 0.1738,-0.36656 0.0622,-0.1434 0.146,-0.2934 0.1858,-0.33334 0.04,-0.04 0.091,-0.1018 0.1134,-0.1374 0.0224,-0.0356 0.20106,-0.191 0.3969,-0.34502 0.1958,-0.154 0.38646,-0.34358 0.42362,-0.42114 0.0372,-0.0776 0.1686,-0.1968 0.29218,-0.26488 0.133,-0.0734 0.23726,-0.1744 0.25564,-0.24768 0.0212,-0.0848 0.1124,-0.1588 0.28966,-0.23504 0.1422,-0.0612 0.28388,-0.1584 0.31478,-0.2162 0.0308,-0.0578 0.0902,-0.105 0.1316,-0.105 0.0416,0 0.1196,-0.0474 0.1738,-0.1054 0.054,-0.058 0.2126,-0.1398 0.35236,-0.182 0.1398,-0.042 0.30482,-0.1224 0.36682,-0.1786 0.1514,-0.1372 0.37878,-0.1854 0.50426,-0.1072 0.1456,0.091 0.41988,-0.002 0.95106,-0.32548 0.24048,-0.146 0.44884,-0.26554 0.46304,-0.26554 0.075,0 0.48842,-0.21786 0.54668,-0.28806 0.0372,-0.0448 0.1602,-0.1066 0.27324,-0.137 0.113,-0.0304 0.2055,-0.0762 0.2055,-0.1016 0,-0.0254 0.2234,-0.1668 0.49646,-0.31394 0.27306,-0.1472 0.51066,-0.30462 0.528,-0.34982 0.0218,-0.0566 0.071,-0.0722 0.1584,-0.0504 0.0946,0.0238 0.1644,-0.006 0.27454,-0.1158 0.14,-0.14 0.1496,-0.1424 0.188,-0.0438 0.0222,0.057 0.0546,0.17 0.072,0.2511 0.0496,0.23056 0.22868,0.28168 0.5207,0.1486 0.1336,-0.061 0.25882,-0.1108 0.27804,-0.1108 0.02,0 0.1056,-0.0596 0.1922,-0.1324 0.0864,-0.0728 0.1882,-0.1322 0.22606,-0.1322 0.0378,0 0.096,-0.0326 0.129,-0.0726 0.0662,-0.0798 0.56102,-0.26808 0.85228,-0.32424 0.1018,-0.02 0.34784,-0.117 0.54662,-0.2163 0.1988,-0.0994 0.39414,-0.1806 0.43416,-0.1806 0.0412,0 0.0878,0.0804 0.1076,0.1858 0.02,0.1022 0.0576,0.1998 0.0854,0.21698 0.0278,0.018 0.2096,0.001 0.4041,-0.0348 0.29966,-0.056 0.37786,-0.0946 0.51238,-0.25288 0.0874,-0.1028 0.28972,-0.3248 0.44978,-0.4935 0.27062,-0.28518 0.3139,-0.31026 0.6164,-0.35718 0.33088,-0.0514 0.48664,-0.116 0.68506,-0.28444 0.1564,-0.1328 0.26374,-0.0688 0.33964,0.2023 0.036,0.1286 0.096,0.2592 0.1336,0.2903 0.1256,0.1042 0.40874,-0.0784 0.8061,-0.51972 0.36174,-0.40178 0.40292,-0.4311 0.68792,-0.48954 0.1668,-0.0342 0.3287,-0.0828 0.35992,-0.108 0.0312,-0.0252 0.20982,-0.085 0.39688,-0.1328 0.187,-0.0478 0.45244,-0.1436 0.58972,-0.21298 0.1372,-0.0694 0.28014,-0.1264 0.3175,-0.1266 0.0374,-5.2e-4 0.1922,-0.0584 0.3441,-0.1292 l 0.2762,-0.1286 0.0542,0.1952 c 0.0298,0.1074 0.0544,0.25904 0.0546,0.337 5.2e-4,0.1312 0.1192,0.31078 0.2025,0.306 0.1468,-0.008 0.87,-0.25862 0.94626,-0.32734 0.0524,-0.0472 0.1606,-0.102 0.2406,-0.122 0.08,-0.02 0.1456,-0.0532 0.1456,-0.0738 0,-0.0206 0.137,-0.0802 0.30426,-0.1322 0.1674,-0.052 0.34228,-0.1282 0.3887,-0.1692 0.0464,-0.041 0.356,-0.1318 0.68792,-0.20202 0.5868,-0.124 0.9107,-0.24956 1.11056,-0.43042 0.0536,-0.0486 0.1308,-0.0756 0.1714,-0.06 0.0738,0.0284 0.1946,0.4108 0.1946,0.61644 0,0.0598 0.0478,0.1568 0.1064,0.2152 0.0998,0.0998 0.118,0.1014 0.29928,0.0258 0.1748,-0.073 0.20184,-0.0726 0.2877,0.006 0.0878,0.0794 0.1066,0.0772 0.25634,-0.0294 0.0888,-0.0632 0.1616,-0.1346 0.1616,-0.1586 0,-0.0238 0.0808,-0.0586 0.1794,-0.077 0.0986,-0.018 0.31892,-0.1024 0.48948,-0.1862 0.9727,-0.47854 1.03162,-0.49844 1.19316,-0.403 0.1564,0.0924 0.23524,0.0726 0.3509,-0.0876 0.0928,-0.1286 0.1538,-0.0814 0.22188,0.1718 0.033,0.1228 0.0884,0.20942 0.1338,0.20942 0.0426,0 0.0774,-0.0238 0.0774,-0.053 0,-0.0892 0.1722,-0.0588 0.28924,0.0512 0.1014,0.0954 0.1414,0.0994 0.4734,0.0478 0.37976,-0.0592 0.9307,-0.021 0.9307,0.0644 0,0.0678 -0.108,0.25548 -0.24926,0.4334 -0.1446,0.182 -0.1982,0.44442 -0.1282,0.62824 0.0508,0.1336 0.0736,0.1404 0.59628,0.178 0.2989,0.0214 0.62712,0.0678 0.72942,0.1032 0.1584,0.0548 0.23356,0.049 0.50808,-0.0404 0.29846,-0.097 0.3355,-0.0986 0.50448,-0.0222 0.1004,0.0454 0.34328,0.0982 0.53996,0.1176 0.27026,0.0264 0.3704,0.0588 0.40996,0.1328 0.035,0.0654 0.1094,0.097 0.22448,0.0954 0.196,-0.002 0.67484,0.1082 0.67484,0.1564 0,0.018 -0.053,0.0884 -0.1178,0.1574 -0.1498,0.1594 -0.1638,0.51954 -0.024,0.62168 0.214,0.1564 0.98254,0.1328 1.1866,-0.0366 0.066,-0.0548 0.0712,0.0356 0.0382,0.67484 -0.021,0.40594 -0.0676,0.7976 -0.1038,0.87036 -0.0394,0.079 -0.0488,0.175 -0.0236,0.23814 0.0232,0.0582 0.0292,0.37966 0.014,0.71436 -0.0406,0.86054 -0.1254,1.01118 -0.91778,1.6272 -0.1216,0.0946 -0.24594,0.172 -0.27618,0.172 -0.0866,0 -0.51566,0.37006 -0.51566,0.44482 0,0.074 0.33892,0.40184 0.41544,0.40184 0.0264,0 0.075,0.0326 0.1082,0.0726 0.0332,0.04 0.20276,0.1126 0.37688,0.1614 0.1742,0.0488 0.3166,0.1146 0.3166,0.146 0,0.0314 -0.1208,0.1762 -0.26846,0.3215 -0.1476,0.1454 -0.29024,0.3216 -0.31688,0.39166 -0.0266,0.07 -0.1778,0.32376 -0.33578,0.56374 -0.24576,0.37316 -0.34732,0.47512 -0.70176,0.70444 -0.3736,0.24174 -1.42538,0.76052 -1.54188,0.76052 -0.0258,0 -0.0856,0.043 -0.1332,0.0956 -0.0802,0.0886 -0.0786,0.1106 0.0232,0.30426 0.0604,0.1148 0.22978,0.3319 0.37654,0.48238 0.30104,0.30866 0.30312,0.38314 0.016,0.55286 -0.1026,0.0606 -0.1864,0.1342 -0.1864,0.1638 0,0.0296 -0.1846,0.2441 -0.4101,0.47674 -0.40996,0.42282 -1.0975,0.9184 -1.5473,1.11528 -0.1312,0.0574 -0.29818,0.1458 -0.37094,0.1964 -0.0728,0.0506 -0.21564,0.1096 -0.3175,0.1312 -0.1018,0.0216 -0.20902,0.058 -0.23812,0.081 -0.0292,0.023 -0.172,0.0594 -0.3175,0.081 -0.1456,0.0216 -0.36744,0.0832 -0.49314,0.137 -0.1856,0.0794 -0.2229,0.1178 -0.1984,0.20386 0.016,0.0584 0.0444,0.1562 0.0618,0.21722 0.0402,0.1406 0.1678,0.26776 0.35164,0.35034 0.1862,0.0836 0.1408,0.21272 -0.0896,0.25596 -0.156,0.0292 -0.39324,0.20436 -1.06384,0.78486 -0.23036,0.1994 -0.90248,0.48458 -1.2598,0.53448 -0.1204,0.016 -0.5881,0.0648 -1.0392,0.1066 -0.7143,0.0662 -0.83186,0.0902 -0.91038,0.1864 -0.1002,0.1228 -0.057,0.29532 0.1268,0.50492 0.1338,0.1526 0.1196,0.2278 -0.0498,0.2626 -0.08,0.016 -0.37592,0.1478 -0.65752,0.29204 -0.2816,0.1442 -0.54388,0.26216 -0.58286,0.26216 -0.039,0 -0.1544,0.0448 -0.25668,0.0996 -0.22462,0.1204 -0.80324,0.2478 -1.46916,0.32354 -0.39836,0.0452 -0.61044,0.0396 -1.11068,-0.0296 -0.34006,-0.047 -0.63638,-0.0966 -0.65846,-0.1104 -0.022,-0.014 -0.1116,0.018 -0.199,0.069 -0.196,0.1158 -0.20554,0.2733 -0.0266,0.44142 0.0728,0.0684 0.1322,0.153 0.1322,0.188 0,0.0636 -0.0552,0.0896 -0.55564,0.26224 -0.1456,0.0502 -0.38364,0.1564 -0.52916,0.23602 -0.28044,0.1534 -0.78222,0.29596 -0.86402,0.2454 -0.0434,-0.027 -0.52476,0.054 -1.88764,0.31702 -0.23284,0.045 -0.97102,0.1152 -1.64042,0.1562 -0.6694,0.041 -1.52666,0.114 -1.905,0.1626 -0.47618,0.061 -1.00554,0.0846 -1.7198,0.0766 -1.11992,-0.012 -1.44578,-0.014 -1.5478,-0.008 -0.23724,0.014 -2.90436,-0.34504 -3.26762,-0.43868 -0.16,-0.0412 -0.4582,-0.1006 -0.66252,-0.1316 -0.36778,-0.056 -1.49186,-0.37326 -1.7981,-0.50734 -0.0874,-0.0382 -0.21828,-0.0862 -0.29104,-0.1068 -0.1446,-0.0408 -1.46254,-0.68846 -1.86546,-0.91674 -0.1384,-0.0784 -0.32714,-0.20958 -0.41958,-0.29156 -0.2139,-0.1898 -0.45428,-0.31462 -0.52332,-0.27194 -0.0924,0.0572 -0.006,2.13924 0.1134,2.72288 0.0564,0.27648 0.1268,0.76464 0.1562,1.08478 0.1136,1.23352 0.28304,6.29854 0.39548,11.82556 0.018,0.88696 0.0422,1.62204 0.0538,1.63354 0.0418,0.0418 0.37378,-0.0474 0.52856,-0.1422 0.34298,-0.2098 0.72136,-1.28776 0.7401,-2.10852 0.006,-0.23232 0.0368,-0.41428 0.0812,-0.4676 0.0428,-0.0516 0.0786,-0.24498 0.0874,-0.47296 0.008,-0.2121 0.0412,-0.45412 0.0732,-0.53782 0.032,-0.0836 0.0676,-0.34938 0.079,-0.59046 0.012,-0.24108 0.0464,-0.53316 0.0776,-0.64906 0.0396,-0.147 0.0402,-0.2704 0.002,-0.40834 -0.0758,-0.27288 -0.075,-0.27572 0.101,-0.33708 0.0862,-0.03 0.1722,-0.1062 0.1912,-0.1692 0.0536,-0.1782 0.172,-0.45086 0.37606,-0.86644 0.1324,-0.2697 0.27472,-0.45952 0.48584,-0.6482 0.1642,-0.1468 0.35756,-0.3204 0.42968,-0.3859 0.61394,-0.55756 1.00894,-0.87616 1.16532,-0.9399 0.1018,-0.0416 0.28046,-0.1618 0.39688,-0.26714 0.21122,-0.1912 0.51556,-0.36728 0.63492,-0.36728 0.0346,0 0.1048,-0.046 0.1558,-0.1024 0.051,-0.0564 0.20348,-0.1538 0.33894,-0.2167 0.1354,-0.0628 0.30578,-0.1702 0.37854,-0.23874 0.1118,-0.1052 0.59666,-0.39466 0.661,-0.39466 0.012,0 0.0986,0.0714 0.1942,0.1588 0.25786,0.23554 0.45056,0.21588 0.79668,-0.0812 0.36776,-0.3157 0.40162,-0.34206 0.43962,-0.34206 0.018,0 0.108,-0.0566 0.20068,-0.126 0.23718,-0.1772 0.97118,-0.6149 1.0314,-0.6149 0.0276,0 0.0786,-0.0342 0.1132,-0.076 0.0346,-0.0418 0.1388,-0.0922 0.23138,-0.112 0.0926,-0.02 0.2,-0.0614 0.2385,-0.0926 0.078,-0.063 0.1656,0.0304 0.1672,0.178 8.4e-4,0.0854 0.1876,0.31524 0.25422,0.31296 0.1884,-0.006 0.5392,-0.1348 0.64616,-0.23614 0.0728,-0.069 0.1992,-0.142 0.28086,-0.1622 0.0816,-0.0202 0.183,-0.0894 0.22532,-0.154 0.1072,-0.1636 0.52506,-0.42054 0.86362,-0.53098 0.2697,-0.088 0.70772,-0.34394 0.77508,-0.45294 0.0764,-0.1236 0.1194,-0.0204 0.1532,0.3674 0.0478,0.5487 0.0976,0.61658 0.39354,0.5369 0.26896,-0.0724 0.8473,-0.45636 1.35074,-0.89672 0.20062,-0.1754 0.4447,-0.34542 0.5424,-0.37766 0.0978,-0.0322 0.1776,-0.078 0.1776,-0.1016 0,-0.0238 0.0554,-0.057 0.1232,-0.074 0.0678,-0.016 0.188,-0.091 0.2673,-0.1644 0.0792,-0.0734 0.1638,-0.1336 0.1878,-0.1336 0.024,0 0.0708,-0.0328 0.1042,-0.0728 0.0332,-0.04 0.1576,-0.0884 0.2764,-0.1074 0.1532,-0.0246 0.22396,-0.065 0.2433,-0.139 0.0554,-0.21216 0.1108,-0.093 0.147,0.3171 0.0286,0.32362 0.0576,0.4279 0.1248,0.4492 0.1108,0.0352 0.66062,-0.1862 0.83148,-0.33466 0.0712,-0.062 0.1414,-0.1126 0.1556,-0.1126 0.014,0 0.0716,-0.0456 0.1274,-0.1014 0.0558,-0.0558 0.2641,-0.1496 0.46302,-0.20856 0.36976,-0.1096 0.8802,-0.22112 0.90388,-0.1974 0.008,0.008 0.0282,0.1576 0.0468,0.3343 0.0284,0.27226 0.0532,0.33008 0.1624,0.37982 0.21246,0.0968 0.65404,-0.064 1.02636,-0.37392 0.27136,-0.22582 0.35678,-0.26734 0.5926,-0.28796 0.1516,-0.014 0.47796,-0.0614 0.72534,-0.1072 0.72396,-0.1336 0.65202,-0.1764 0.72234,0.4299 0.0338,0.29104 0.0636,0.5324 0.0664,0.53636 0.002,0.004 0.089,0.0472 0.1918,0.0958 0.1742,0.0826 0.20738,0.0828 0.48948,0.001 0.1664,-0.048 0.33832,-0.1192 0.38198,-0.1582 0.21714,-0.1938 0.55296,-0.27682 1.06026,-0.2621 0.79354,0.023 0.9041,0.0796 0.68928,0.3527 -0.0564,0.0718 -0.1192,0.2 -0.1394,0.28494 -0.0202,0.085 -0.0722,0.1952 -0.1154,0.24506 -0.1394,0.1606 -0.0442,0.34692 0.21234,0.4155 0.1234,0.033 0.24818,0.0784 0.27728,0.101 0.029,0.0226 0.25242,0.0578 0.49628,0.0784 0.24384,0.0206 0.49386,0.0576 0.55562,0.0824 0.0618,0.0248 0.176,0.0586 0.25402,0.0752 l 0.1418,0.0302 -0.1324,0.23698 c -0.073,0.1306 -0.119,0.27904 -0.1024,0.33066 0.016,0.0516 0.1434,0.1374 0.28172,0.1906 0.41738,0.1608 1.02658,0.48056 1.05728,0.55502 0.016,0.0384 -0.0636,0.1664 -0.1768,0.28444 -0.113,0.118 -0.1792,0.22434 -0.1468,0.2363 0.28816,0.1068 0.28736,0.27536 -0.002,0.44616 -0.1012,0.0598 -0.1978,0.1518 -0.21454,0.20446 -0.031,0.0976 -0.44622,0.50052 -0.77068,0.7477 -0.176,0.1342 -0.178,0.1394 -0.0914,0.27148 0.1216,0.1856 0.68088,0.54982 0.9104,0.59288 0.21104,0.0396 0.23286,0.0918 0.0964,0.23098 -0.051,0.052 -0.23014,0.26576 -0.39826,0.47512 -0.168,0.20936 -0.3586,0.4084 -0.42332,0.44232 -0.0648,0.034 -0.20306,0.1356 -0.3074,0.22604 -0.22176,0.1922 -0.46736,0.33852 -0.76234,0.45442 -0.1162,0.0456 -0.21854,0.1212 -0.22752,0.1678 -0.0276,0.1432 0.7214,0.6269 0.97092,0.6269 0.0382,0 0.1364,0.0256 0.21842,0.057 l 0.149,0.0568 -0.1244,0.0668 c -0.1304,0.07 -0.52334,0.51978 -0.74878,0.85684 -0.2377,0.35542 -0.97312,1.0862 -1.2376,1.22978 -0.6139,0.3333 -0.70124,0.37246 -0.83742,0.37542 -0.079,0.002 -0.26438,0.0508 -0.41206,0.109 -0.1476,0.0582 -0.3107,0.1058 -0.36226,0.1058 -0.0516,0 -0.1382,0.0326 -0.1926,0.0724 -0.0928,0.0678 -0.0774,0.0944 0.24706,0.42698 0.3921,0.40186 0.39414,0.39288 -0.1338,0.58826 -0.1478,0.0548 -0.30482,0.1606 -0.37042,0.24968 -0.0626,0.0852 -0.20984,0.21116 -0.32716,0.2801 -0.1174,0.069 -0.28252,0.1976 -0.3671,0.28588 -0.0846,0.0882 -0.1804,0.1606 -0.21296,0.1606 -0.0326,0 -0.14,0.0596 -0.23852,0.1322 -0.0986,0.0728 -0.21634,0.132 -0.26162,0.1316 -0.1454,-0.001 -1.7492,0.5179 -1.7492,0.56634 0,0.014 0.0238,0.0678 0.0528,0.122 0.0828,0.1546 0.008,0.25884 -0.23014,0.32164 -0.1206,0.0318 -0.36234,0.136 -0.53696,0.23174 -0.1746,0.0956 -0.55562,0.25118 -0.84666,0.34564 -0.29106,0.0944 -0.62442,0.22534 -0.74084,0.29086 -0.1164,0.0656 -0.30464,0.136 -0.4183,0.1566 -0.1136,0.0206 -0.43512,0.1412 -0.71438,0.26776 -0.27926,0.1266 -0.73396,0.29182 -1.01044,0.3671 -0.70642,0.1924 -1.37222,0.3967 -1.57338,0.483 -0.22344,0.0958 -1.15094,0.27268 -1.65454,0.31542 -0.21828,0.018 -0.59198,0.0798 -0.83042,0.136 -0.23846,0.0562 -0.75042,0.1502 -1.13772,0.20898 -0.38728,0.0586 -0.7756,0.1294 -0.8629,0.1572 -0.1662,0.0528 -2.22724,0.1604 -3.22792,0.1684 -0.91792,0.008 -2.1308,-0.0624 -2.59292,-0.149 -0.43676,-0.0818 -1.16954,-0.3006 -1.4023,-0.41852 -0.0728,-0.0368 -0.3585,-0.1774 -0.635,-0.31226 -0.74114,-0.36158 -1.14114,-0.5753 -1.2514,-0.6686 -0.0962,-0.0814 -0.76694,-0.41982 -0.83206,-0.41982 -0.018,0 -0.0342,0.88702 -0.0354,1.97114 -0.001,1.08414 -0.0244,2.70934 -0.0514,3.61156 -0.1062,3.53374 -0.1204,5.09384 -0.0594,6.56168 0.0698,1.68294 0.1584,2.9097 0.22206,3.07748 0.0604,0.159 0.28768,0.1944 0.66032,0.1028 0.1734,-0.0426 0.4702,-0.0938 0.65938,-0.1138 0.59282,-0.0626 0.83506,-0.1866 1.2746,-0.65226 0.21576,-0.22858 0.60658,-0.67268 0.86852,-0.98686 0.26194,-0.3142 0.5953,-0.68662 0.74084,-0.82764 0.74548,-0.72238 0.9749,-0.95856 1.21708,-1.25298 0.1456,-0.1768 0.293,-0.32258 0.32772,-0.3237 0.0348,-0.001 0.0992,-0.0536 0.1434,-0.1166 0.1156,-0.165 0.531,-0.30272 1.51324,-0.50182 0.2183,-0.0442 0.50404,-0.1156 0.635,-0.1584 0.22194,-0.0726 1.52222,-0.24098 1.87856,-0.2431 0.0874,-5.2e-4 0.38496,0.0376 0.66144,0.0844 0.2765,0.047 0.68132,0.112 0.8996,0.1446 0.25736,0.0384 0.45268,0.101 0.55562,0.1782 0.1638,0.1226 0.78254,0.25906 1.4552,0.3207 0.51824,0.0476 0.56714,0.0644 0.60346,0.20912 0.0524,0.20836 0.29634,0.2936 1.05448,0.36826 0.38328,0.0378 0.91118,0.1296 1.1731,0.20412 0.26194,0.0746 0.54186,0.1496 0.62204,0.167 l 0.1458,0.0314 -0.0822,0.1966 c -0.0452,0.1082 -0.1294,0.24684 -0.187,0.3082 -0.1308,0.1392 -0.0856,0.27816 0.1024,0.31516 0.0768,0.016 0.25874,0.062 0.40426,0.1042 0.1456,0.0422 0.45508,0.0918 0.68792,0.11 0.32776,0.0258 0.50098,0.072 0.7673,0.20516 0.58432,0.29206 0.7056,0.34156 0.97896,0.3995 0.47322,0.1004 0.45992,0.0908 0.36998,0.26466 -0.0866,0.1674 -0.101,0.35882 -0.0348,0.46302 0.0558,0.088 0.39904,0.26132 0.60852,0.30734 0.1498,0.0328 0.39016,0.1566 0.45862,0.23604 0.014,0.016 0.101,0.0608 0.192,0.0976 0.091,0.0368 0.22202,0.1544 0.29104,0.26156 0.081,0.1256 0.22392,0.2416 0.40312,0.32698 0.30784,0.1466 0.33418,0.1868 0.159,0.24212 -0.1388,0.0438 -0.46284,0.31112 -0.62126,0.51252 -0.0942,0.1198 -0.1004,0.156 -0.0426,0.2486 0.0372,0.0596 0.1632,0.1542 0.27976,0.21012 0.1736,0.0832 1.13806,0.96406 1.13806,1.03942 0,0.012 -0.0892,0.0638 -0.1984,0.115 -0.27174,0.1276 -0.27996,0.27934 -0.0392,0.72512 0.22568,0.41798 0.2039,0.4784 -0.192,0.53286 -0.32668,0.045 -0.38692,0.151 -0.1846,0.32504 0.1788,0.1538 0.1492,0.20776 -0.139,0.25244 -0.30442,0.0472 -0.76046,0.20728 -0.8739,0.30674 -0.0508,0.0446 -0.1682,0.1194 -0.2607,0.1662 -0.28832,0.146 -0.29372,0.4525 -0.014,0.80428 0.0848,0.1068 0.1428,0.213 0.1286,0.2359 -0.014,0.023 -0.1436,0.0578 -0.28762,0.0776 -0.144,0.02 -0.28978,0.0696 -0.32392,0.1108 -0.0342,0.0412 -0.0898,0.0748 -0.1238,0.0748 -0.034,0 -0.1442,0.0704 -0.24488,0.1566 -0.1008,0.0862 -0.201,0.1576 -0.22276,0.1588 -0.0672,0.004 -0.7466,0.33078 -0.88648,0.42682 -0.1378,0.0946 -0.47294,0.1734 -1.19064,0.27982 -0.23282,0.0346 -0.48286,0.1026 -0.55562,0.1512 -0.0728,0.0486 -0.27516,0.1052 -0.44978,0.126 -0.1746,0.0206 -0.4723,0.0914 -0.66146,0.1574 -0.29504,0.1026 -0.54338,0.1298 -1.74626,0.1902 -1.6986,0.0854 -2.3382,0.0792 -2.76862,-0.027 -0.1798,-0.0444 -0.63656,-0.1054 -1.01492,-0.1358 -0.37836,-0.0304 -0.99748,-0.0948 -1.37584,-0.1432 l -0.6879,-0.088 -0.99692,-0.49416 c -0.54828,-0.27178 -1.03794,-0.49416 -1.08812,-0.49416 -0.0502,0 -0.1596,-0.0714 -0.2433,-0.1588 -0.0836,-0.0874 -0.1746,-0.1588 -0.20228,-0.1588 -0.0276,0 -0.1034,-0.0576 -0.1686,-0.1278 -0.0652,-0.0704 -0.22266,-0.1802 -0.35002,-0.2441 -0.1274,-0.064 -0.2792,-0.1594 -0.33742,-0.21218 -0.0582,-0.0528 -0.22616,-0.1562 -0.37322,-0.22972 -0.147,-0.0736 -0.3115,-0.1826 -0.3654,-0.24208 -0.0538,-0.0596 -0.119,-0.1082 -0.1448,-0.1082 -0.0258,0 -0.1352,-0.09 -0.24316,-0.1998 -0.108,-0.11 -0.30346,-0.27046 -0.43444,-0.35674 -0.4008,-0.264 -1.37584,-1.16384 -1.37584,-1.26972 0,-0.0342 -0.119,-0.1982 -0.26458,-0.36456 -0.1456,-0.1664 -0.26458,-0.32516 -0.26458,-0.35304 0,-0.0278 -0.0832,-0.0904 -0.185,-0.139 -0.1018,-0.0486 -0.2148,-0.1554 -0.25112,-0.23746 -0.0404,-0.091 -0.1316,-0.1708 -0.23392,-0.2046 -0.0924,-0.0304 -0.2061,-0.1138 -0.2528,-0.185 -0.1078,-0.1644 -0.1742,-0.1614 -0.38324,0.018 -0.1408,0.1204 -0.1764,0.199 -0.21692,0.47858 -0.0518,0.35734 -0.004,1.96422 0.0916,3.07864 0.1872,2.18182 0.31254,3.8183 0.37086,4.84188 0.0518,0.90806 0.104,1.57738 0.21452,2.75166 0.0274,0.29104 0.0744,1.18402 0.1046,1.98438 0.0302,0.80036 0.08,1.73862 0.111,2.085 0.0548,0.61458 0.0428,0.89338 -0.0616,1.43484 -0.0376,0.1954 -0.0326,0.32804 0.02,0.5027 0.048,0.1616 0.0556,0.29634 0.0238,0.42246 -0.0662,0.2625 -0.0626,1.98508 0.004,2.30188 0.043,0.20184 0.0384,0.37124 -0.02,0.71438 -0.0498,0.29624 -0.0946,1.25358 -0.131,2.80458 -0.0304,1.29512 -0.0862,2.7596 -0.1242,3.25436 -0.0564,0.7359 -0.0564,1.0681 -8e-4,1.82564 0.0908,1.23488 0.25746,2.4079 0.38724,2.7252 0.119,0.29094 0.21222,0.5423 0.24534,0.66146 0.0442,0.1588 0.29276,0.53518 0.53102,0.80382 0.26044,0.29366 0.27184,0.47056 0.064,0.995 -0.1664,0.42008 -0.1916,0.45326 -0.46696,0.61698 -0.16,0.0952 -0.33212,0.174 -0.38236,0.175 -0.0502,10e-4 -0.1692,0.0496 -0.26458,0.1078 -0.1928,0.1176 -0.20582,0.1186 -0.4562,0.0386 z m -2.60102,-36.39214 c 0.0582,-0.0582 0.1058,-0.1416 0.1058,-0.1852 0,-0.1102 -0.004,-0.0922 0.1056,-0.4753 0.0808,-0.28262 0.0998,-0.54344 0.1048,-1.44296 0.008,-1.41566 -0.1366,-5.07732 -0.26146,-6.62778 -0.0294,-0.3638 -0.0912,-1.18532 -0.1376,-1.82562 -0.0794,-1.09678 -0.161,-1.6777 -0.27972,-1.99 -0.0284,-0.0746 -0.104,-0.46334 -0.168,-0.86406 -0.0924,-0.57818 -0.104,-0.75622 -0.0556,-0.86236 0.0494,-0.1086 0.0452,-0.1512 -0.0226,-0.22616 -0.046,-0.0508 -0.098,-0.181 -0.1156,-0.28914 -0.0224,-0.1378 -0.109,-0.27704 -0.28878,-0.46462 -0.1412,-0.1474 -0.25686,-0.28706 -0.25686,-0.3105 0,-0.0234 -0.0966,-0.0686 -0.21478,-0.1004 -0.1796,-0.0484 -0.24666,-0.0422 -0.4101,0.0376 -0.1074,0.0524 -0.1954,0.1288 -0.1954,0.1696 0,0.0408 -0.0834,0.1032 -0.1852,0.1388 -0.22126,0.0774 -0.58752,0.28672 -0.66146,0.37816 -0.0292,0.036 -0.172,0.1048 -0.3175,0.1526 -0.1456,0.048 -0.3122,0.1308 -0.3704,0.1842 -0.0916,0.084 -0.2941,0.1848 -1.11126,0.55376 -0.0874,0.0394 -0.33536,0.158 -0.55124,0.26372 -0.21586,0.1056 -0.51352,0.2237 -0.66146,0.26238 -0.148,0.0386 -0.4598,0.144 -0.69304,0.23418 -0.23324,0.0902 -0.63114,0.2 -0.8842,0.24408 -0.25306,0.0442 -0.56228,0.1144 -0.68716,0.1562 -0.25148,0.0842 -0.82464,0.1642 -1.54998,0.21614 -0.26194,0.018 -0.56378,0.053 -0.67076,0.0762 -0.1078,0.0234 -0.32016,0.018 -0.47624,-0.01 -0.191,-0.0354 -0.44366,-0.0336 -0.78446,0.006 -0.2765,0.0318 -1.01,0.0802 -1.63002,0.1074 -0.86042,0.038 -1.1567,0.069 -1.25148,0.131 -0.1134,0.0744 -0.1428,0.0724 -0.34174,-0.0238 -0.1784,-0.0862 -0.23892,-0.0938 -0.33602,-0.0428 -0.1844,0.097 -0.1992,0.161 -0.075,0.3204 0.0634,0.0812 0.1706,0.21956 0.2383,0.30734 0.0676,0.0878 0.1592,0.1596 0.20332,0.1596 0.0442,0 0.1408,0.0476 0.21478,0.1058 0.162,0.1274 0.34652,0.1364 0.44194,0.0214 0.0586,-0.0706 0.0546,-0.128 -0.0248,-0.35114 -0.078,-0.21934 -0.0822,-0.27474 -0.0238,-0.31168 0.039,-0.0246 0.0828,-0.0444 0.0974,-0.0438 0.07,0.002 0.27768,0.1502 0.48502,0.3442 0.1262,0.118 0.39604,0.29176 0.59976,0.38608 0.20374,0.0944 0.44186,0.20942 0.52918,0.25576 0.0874,0.0464 0.2778,0.1458 0.42332,0.2211 0.1456,0.0752 0.37248,0.21134 0.50434,0.3024 0.26994,0.1864 0.38814,0.1754 0.56754,-0.0526 0.1328,-0.1688 0.25222,-0.1724 0.49012,-0.014 0.1952,0.1296 0.55394,0.27158 0.8218,0.3253 0.0888,0.018 0.2246,0.091 0.30196,0.1628 0.0774,0.0718 0.1626,0.1304 0.1894,0.1304 0.0268,0 0.1766,0.056 0.33306,0.1246 0.1564,0.0684 0.38664,0.1404 0.5116,0.1598 0.125,0.02 0.26784,0.057 0.3175,0.0838 0.1996,0.1072 0.45382,0.21408 0.50946,0.21408 0.0324,0 0.1418,0.0558 0.24324,0.124 0.1014,0.0682 0.25124,0.1404 0.33312,0.1606 0.0818,0.0202 0.31144,0.1548 0.5101,0.29926 0.1986,0.1444 0.39666,0.26274 0.43996,0.26274 0.0434,0 0.1084,0.0358 0.1446,0.0794 0.0362,0.0436 0.1068,0.0794 0.157,0.0794 0.0502,0 0.1604,0.0596 0.24488,0.1322 0.0846,0.0728 0.17,0.1322 0.1898,0.1322 0.02,4e-5 0.0506,0.0456 0.0682,0.101 0.018,0.0556 0.1396,0.1514 0.27104,0.21328 0.23346,0.1098 1.50192,1.34076 1.50282,1.45848 0,0.0292 0.1194,0.23874 0.265,0.46584 0.1456,0.22712 0.26456,0.43776 0.26456,0.46808 0,0.0304 0.033,0.1184 0.0732,0.1956 0.21098,0.40486 0.5089,1.108 0.5089,1.2011 0,0.0586 0.0322,0.1534 0.0714,0.21082 0.0392,0.0574 0.087,0.22104 0.1058,0.36362 0.018,0.1426 0.0548,0.28546 0.0798,0.3175 0.025,0.032 0.111,0.39164 0.1912,0.7991 0.0802,0.40746 0.1768,0.82416 0.21462,0.92604 0.0378,0.1018 0.1116,0.32762 0.1638,0.50168 0.1712,0.57114 0.56072,1.0288 0.881,1.03528 0.0648,0.001 0.1892,0.035 0.27652,0.075 0.21958,0.1006 0.27524,0.0972 0.39688,-0.0246 z m -0.58566,-17.60004 c 0.016,-0.016 0.0318,-0.1874 0.036,-0.38194 0.004,-0.1946 0.0312,-0.44888 0.06,-0.5653 0.0288,-0.1164 0.058,-0.39026 0.065,-0.60854 0.008,-0.21828 0.028,-0.77788 0.0466,-1.24354 0.018,-0.46568 0.016,-1.29912 -0.008,-1.8521 -0.0366,-0.875 -0.0306,-1.03992 0.0466,-1.27154 0.082,-0.24584 0.0824,-0.2942 0.004,-0.63458 -0.073,-0.32014 -0.0742,-0.38352 -0.008,-0.4833 0.0588,-0.0896 0.0644,-0.177 0.0256,-0.39728 -0.0274,-0.1554 -0.0738,-1.54452 -0.1034,-3.08704 -0.051,-2.6688 -0.1462,-4.35472 -0.27014,-4.78896 -0.0292,-0.1018 -0.0876,-0.48922 -0.1302,-0.8608 -0.058,-0.50702 -0.1102,-0.74096 -0.20992,-0.93752 -0.073,-0.144 -0.1328,-0.28872 -0.1328,-0.32148 0,-0.1128 -0.2205,-0.34096 -0.38388,-0.39712 -0.125,-0.043 -0.24946,-0.0362 -0.52536,0.0286 -0.31108,0.0732 -0.40032,0.1228 -0.63898,0.35524 -0.1526,0.1486 -0.37266,0.31618 -0.48908,0.37232 -0.1164,0.0562 -0.39026,0.198 -0.60854,0.31534 -0.21828,0.1174 -0.4564,0.23172 -0.52916,0.25422 -0.0728,0.0224 -0.26352,0.1324 -0.4239,0.2444 -0.1604,0.112 -0.37434,0.22002 -0.47542,0.24024 -0.1012,0.0202 -0.30324,0.0828 -0.44922,0.1392 -0.94008,0.36272 -1.94184,0.66904 -2.38208,0.72842 -1.88938,0.2548 -2.21092,0.2833 -3.175,0.28134 -0.5904,-0.001 -1.13148,-0.029 -1.31082,-0.0674 -0.25768,-0.0552 -0.36356,-0.0522 -0.67762,0.02 -0.20474,0.0466 -0.39334,0.0716 -0.4191,0.0558 -0.052,-0.032 -0.89702,-0.1494 -1.89074,-0.26264 -0.35586,-0.0406 -0.6723,-0.0892 -0.7032,-0.1084 -0.0308,-0.02 -0.163,-0.042 -0.29362,-0.0508 -0.1902,-0.012 -0.24828,0.004 -0.29192,0.0858 -0.083,0.1552 0.0538,0.4682 0.20474,0.4682 0.0844,0 0.8264,0.35694 0.9646,0.46406 0.0722,0.056 0.197,0.1178 0.27694,0.1374 0.08,0.02 0.1456,0.0588 0.1456,0.0874 0,0.0286 0.0454,0.0518 0.1008,0.0518 0.0944,0 0.42468,0.23174 0.66824,0.469 0.20882,0.20338 0.7873,0.6043 1.04262,0.7226 0.39916,0.185 0.59512,0.0692 0.56062,-0.331 -0.01,-0.1174 0.008,-0.199 0.0492,-0.21254 0.036,-0.012 0.0658,-0.002 0.0658,0.0222 5.2e-4,0.088 0.46832,0.5578 0.52226,0.52446 0.0516,-0.032 0.38176,0.125 0.8798,0.41832 0.1164,0.0686 0.24738,0.1266 0.29104,0.1292 0.0436,0.002 0.1508,0.07 0.23812,0.1502 0.0874,0.0802 0.31324,0.22566 0.50208,0.32344 0.1888,0.0978 0.46736,0.29118 0.61898,0.42976 0.325,0.29702 0.49076,0.35298 0.71472,0.24124 0.1542,-0.077 0.1658,-0.0746 0.2646,0.051 0.0642,0.0816 0.1572,0.1314 0.24546,0.1314 0.1336,0 0.63908,0.23192 0.69688,0.31974 0.025,0.038 0.22936,0.182 0.90152,0.63528 0.1612,0.1086 0.3248,0.2359 0.36368,0.28274 0.0388,0.0468 0.1146,0.0852 0.1682,0.0852 0.0536,0 0.165,0.0654 0.24766,0.1456 0.0826,0.08 0.29174,0.25268 0.46484,0.38364 0.173,0.131 0.32414,0.26194 0.33564,0.29104 0.0326,0.0826 0.49444,0.51478 0.70682,0.66146 0.1054,0.0728 0.21716,0.1876 0.24848,0.25526 0.0314,0.0676 0.1282,0.21164 0.2153,0.32002 0.44234,0.55044 0.87024,1.54948 0.9775,2.28222 0.02,0.131 0.0796,0.48816 0.1344,0.79376 0.1038,0.57908 0.1832,1.41506 0.24128,2.54 0.0208,0.40318 0.067,0.7441 0.1182,0.87312 0.1102,0.27758 0.30006,0.55442 0.4471,0.65178 0.0648,0.043 0.1418,0.1044 0.1708,0.1366 0.0782,0.0864 0.38122,0.22368 0.74082,0.33554 0.2771,0.0862 0.34074,0.0898 0.5,0.0282 0.1004,-0.0388 0.1952,-0.0834 0.21082,-0.099 z m -0.6327,-20.04862 c 0.0356,-0.0428 0.1158,-0.0726 0.1784,-0.0662 0.1126,0.012 0.1144,-0.004 0.1608,-1.25832 0.0476,-1.28448 0.008,-2.71404 -0.1498,-5.50332 -0.1126,-1.98398 -0.23662,-3.89774 -0.26574,-4.10106 -0.014,-0.1018 -0.0516,-0.66144 -0.0824,-1.24354 -0.0308,-0.58208 -0.0892,-1.27264 -0.1302,-1.53458 -0.0408,-0.26194 -0.0886,-0.64294 -0.106,-0.84666 -0.0874,-1.0231 -0.22486,-2.01418 -0.4309,-3.10576 -0.014,-0.0784 -0.001,-0.1902 0.03,-0.24872 0.0482,-0.09 0.02,-0.1524 -0.1882,-0.40724 -0.1348,-0.1656 -0.26116,-0.36098 -0.2808,-0.4344 -0.02,-0.0734 -0.0864,-0.1672 -0.1482,-0.20826 -0.1058,-0.0702 -0.1438,-0.0456 -0.63248,0.41276 -0.7278,0.68248 -1.2069,0.97416 -2.21322,1.3474 -0.20372,0.0756 -0.51328,0.1954 -0.6879,0.26624 -0.1746,0.0708 -0.43658,0.1628 -0.5821,0.20404 -0.1456,0.0414 -0.37174,0.1108 -0.5027,0.1544 -0.131,0.0436 -0.60722,0.1668 -1.05834,0.27392 -0.4511,0.107 -0.90354,0.22954 -1.00542,0.27218 -0.42492,0.1778 -1.31078,0.29758 -2.9104,0.3934 -1.28648,0.077 -1.79756,0.1522 -1.87322,0.27514 -0.0492,0.08 -0.016,0.1352 0.21678,0.35382 0.1512,0.1426 0.3345,0.35334 0.40718,0.46848 0.0726,0.1152 0.2049,0.26114 0.29382,0.32446 0.089,0.0634 0.1624,0.1432 0.1632,0.1776 7.8e-4,0.0344 0.0694,0.1292 0.1526,0.21064 0.1168,0.1146 0.1818,0.1404 0.28686,0.114 0.114,-0.0286 0.1466,-0.082 0.2032,-0.33332 0.037,-0.1646 0.0648,-0.32896 0.0616,-0.36534 -0.01,-0.1124 0.0876,-0.0738 0.26812,0.1058 0.26988,0.2686 0.4393,0.4101 0.49104,0.4101 0.0262,0 0.1324,0.1016 0.23616,0.22572 0.1038,0.1242 0.32908,0.33084 0.50068,0.45932 0.1716,0.1284 0.5319,0.45554 0.80066,0.72678 0.50702,0.51172 0.62326,0.56936 0.83114,0.41212 0.0784,-0.0594 0.1018,-0.1392 0.0988,-0.33824 -0.004,-0.20114 0.012,-0.25416 0.0692,-0.23246 0.0402,0.016 0.0732,0.0488 0.0732,0.0742 0,0.0254 0.1666,0.156 0.37042,0.29016 0.20374,0.1342 0.37058,0.25974 0.37078,0.27894 0,0.02 0.0896,0.0936 0.1984,0.1654 0.3382,0.2227 0.62046,0.46756 1.00866,0.87498 0.1704,0.1788 0.38196,0.34396 0.44072,0.34396 0.0216,0 0.0752,-0.0514 0.1192,-0.1142 l 0.08,-0.1142 0.2273,0.20536 c 0.125,0.113 0.2703,0.24172 0.32286,0.28616 0.0526,0.0444 0.1944,0.21174 0.31508,0.3718 0.1208,0.16 0.3896,0.46964 0.59744,0.68792 0.42892,0.45044 0.58568,0.6804 1.06412,1.56104 0.24746,0.4555 0.68422,2.24856 0.72826,2.9898 0.012,0.1892 0.05,0.4154 0.0862,0.5027 0.0362,0.0874 0.0968,0.57548 0.1348,1.0848 0.0826,1.10746 0.1946,1.92594 0.29304,2.14312 0.0944,0.2083 0.44772,0.56846 0.68076,0.694 0.1018,0.0548 0.26344,0.1652 0.35904,0.24528 0.1994,0.167 0.23848,0.175 0.3276,0.0676 z M 116.48405,147.822 c 0.0848,-0.1374 0.1186,-0.5111 0.073,-0.81106 -0.0266,-0.1746 -0.0846,-0.57944 -0.1292,-0.8996 -0.22688,-1.629 -0.31304,-2.02152 -1.03388,-4.70958 -1.1789,-4.39614 -1.512,-5.84834 -1.85102,-8.06978 -0.1094,-0.71748 -0.31908,-2.87648 -0.31898,-3.28586 0,-0.35186 -0.1242,-0.52166 -0.30954,-0.42254 -0.0588,0.0314 -0.1424,0.0572 -0.1862,0.0572 -0.1046,0 -0.27662,0.077 -0.5361,0.23984 -0.1164,0.073 -0.295,0.1716 -0.39688,0.21904 -0.1018,0.0474 -0.35516,0.1654 -0.56288,0.26212 -0.26804,0.1248 -0.5906,0.21354 -1.11124,0.30546 -0.40348,0.0712 -1.00742,0.1824 -1.34212,0.24714 -0.55742,0.1078 -0.76858,0.1178 -2.51354,0.12 -1.53618,0.002 -2.00746,-0.014 -2.43418,-0.0856 -0.29104,-0.0484 -0.92206,-0.1244 -1.40228,-0.1688 -0.48022,-0.0446 -0.99218,-0.1074 -1.13772,-0.1396 -0.29138,-0.0646 -1.44228,-0.3882 -1.69332,-0.4761 -0.309,-0.1082 -1.46618,-0.47058 -1.50012,-0.46978 -0.018,5.4e-4 -0.0692,0.0228 -0.1118,0.0496 -0.0662,0.0418 -0.063,0.0646 0.0214,0.158 0.0542,0.06 0.1254,0.109 0.158,0.109 0.0326,0 0.1204,0.0654 0.195,0.1456 0.0746,0.08 0.25672,0.25856 0.40472,0.39672 0.1572,0.1466 0.32366,0.37048 0.40032,0.53792 0.15,0.3277 0.34088,0.48218 0.53538,0.43338 0.1004,-0.0252 0.138,-0.0782 0.1638,-0.23074 0.0694,-0.4114 0.0552,-0.40836 0.42768,-0.0924 0.1888,0.1602 0.37354,0.29126 0.41048,0.29126 0.037,0 0.1192,0.0554 0.183,0.1232 0.0638,0.0678 0.2274,0.179 0.36376,0.24712 0.23182,0.1158 1.01836,0.8481 1.36802,1.27372 0.1712,0.2083 0.30656,0.27874 0.44898,0.23354 0.1396,-0.0444 0.28336,-0.29504 0.27258,-0.47538 l -0.01,-0.1588 0.0962,0.1138 c 0.053,0.0626 0.22532,0.1798 0.38304,0.26036 0.44134,0.22544 0.73236,0.47702 0.69908,0.6043 -0.016,0.0636 -0.002,0.1062 0.0368,0.1062 0.0356,0 0.132,0.0568 0.21444,0.126 0.1026,0.0862 0.21846,0.127 0.36784,0.129 0.1836,0.002 0.25112,0.037 0.42668,0.21796 0.1148,0.1182 0.23056,0.21494 0.25738,0.21494 0.0268,0 0.156,0.1072 0.28694,0.23812 0.131,0.131 0.25286,0.23812 0.2709,0.23812 0.018,0 0.1006,0.05 0.1834,0.1114 0.184,0.136 0.34382,0.0992 0.43956,-0.1012 0.0814,-0.1702 0.32286,-0.23558 0.2973,-0.0804 -0.0316,0.1916 0.0454,0.22794 0.29992,0.1412 0.23196,-0.079 0.24276,-0.0776 0.48538,0.0646 0.2118,0.1242 0.65452,0.48858 1.0482,0.86292 0.0582,0.0554 0.1852,0.20958 0.28236,0.34276 0.2845,0.39024 0.48672,0.38324 0.64532,-0.0224 l 0.089,-0.2278 0.28538,0.26362 c 0.157,0.145 0.36872,0.3251 0.47058,0.40024 0.1018,0.0752 0.24474,0.196 0.3175,0.26856 0.0728,0.0726 0.1816,0.1474 0.24182,0.166 0.0602,0.018 0.1492,0.1172 0.1976,0.2188 0.0484,0.1016 0.1156,0.1846 0.1492,0.1846 0.0336,0 0.159,0.0898 0.27868,0.1996 0.1196,0.1098 0.33178,0.27052 0.47136,0.3572 0.22228,0.138 0.28304,0.2187 0.48948,0.65022 0.1296,0.27096 0.2357,0.51732 0.2357,0.54746 0,0.0302 0.032,0.118 0.0714,0.1952 0.0998,0.1966 0.21534,0.46194 0.34904,0.8019 0.063,0.16 0.134,0.33868 0.158,0.39688 0.024,0.0582 0.0726,0.1772 0.108,0.26458 0.0356,0.0874 0.1084,0.41336 0.1618,0.72454 0.0534,0.31116 0.1194,0.60882 0.1466,0.66144 0.0272,0.0526 0.0656,0.22278 0.0854,0.37812 0.02,0.1554 0.0576,0.32202 0.0838,0.37042 0.0264,0.0484 0.0708,0.38564 0.0988,0.74944 0.0746,0.96816 0.26874,2.54126 0.32712,2.65036 0.0278,0.0518 0.0506,0.1388 0.0506,0.1932 0,0.0544 0.0756,0.20478 0.168,0.3342 0.31092,0.43574 0.40886,0.51572 0.67676,0.55256 0.138,0.018 0.3198,0.0786 0.40418,0.1326 0.1822,0.1164 0.2658,0.128 0.31784,0.0438 z m -1.47244,-20.30736 c 0.1664,-0.0562 0.55264,-0.22892 0.85824,-0.38364 0.47912,-0.2426 0.56936,-0.30946 0.6554,-0.48566 0.1294,-0.265 0.20658,-0.9928 0.1692,-1.59482 -0.0202,-0.32458 -0.006,-0.56372 0.0436,-0.75088 0.0402,-0.151 0.06,-0.28784 0.0438,-0.304 -0.0328,-0.0326 0.072,-0.70798 0.1486,-0.95724 0.027,-0.088 0.0722,-0.30232 0.1004,-0.47624 0.0996,-0.61362 0.1694,-0.9524 0.21744,-1.05706 0.0434,-0.0946 0.1038,-0.3171 0.1936,-0.71438 0.016,-0.0728 0.0548,-0.1638 0.0854,-0.20232 0.0682,-0.0862 0.30918,-0.53556 0.4588,-0.85602 0.0612,-0.131 0.1336,-0.27384 0.1612,-0.3175 0.0274,-0.0436 0.0984,-0.1626 0.1578,-0.26458 0.25428,-0.43706 0.33664,-0.56126 0.623,-0.9393 0.1662,-0.21944 0.33634,-0.4491 0.378,-0.51036 0.0416,-0.0612 0.1656,-0.20662 0.27528,-0.32304 0.1098,-0.1164 0.24894,-0.32372 0.30932,-0.46068 0.1178,-0.26688 0.1456,-0.30092 0.44758,-0.54474 0.1082,-0.0874 0.3018,-0.25098 0.43044,-0.3637 0.22068,-0.1934 0.24284,-0.20124 0.39354,-0.1388 0.1448,0.06 0.1794,0.0526 0.37066,-0.08 0.116,-0.0804 0.21096,-0.1644 0.21096,-0.1866 0,-0.1684 1.16036,-1.5327 1.30356,-1.5327 0.0358,0 0.0814,0.0514 0.1014,0.1142 0.0694,0.21842 0.44716,0.4774 0.44716,0.30648 0,-0.0306 0.068,-0.0794 0.1512,-0.1084 0.0832,-0.029 0.175,-0.1052 0.20394,-0.1692 0.153,-0.33778 0.28656,-0.60286 0.3455,-0.68538 0.1146,-0.1606 -0.012,-0.27256 -0.36232,-0.32042 -0.34186,-0.0466 -0.4066,-0.0422 -1.79348,0.1268 -0.70472,0.0858 -1.24846,0.1162 -2.09022,0.1168 -1.26432,8.6e-4 -1.4791,-0.038 -2.59692,-0.46894 -0.27428,-0.1058 -0.64006,-0.23956 -0.81282,-0.29732 -0.1728,-0.0578 -0.57124,-0.23398 -0.88548,-0.39158 -0.31424,-0.1576 -0.59118,-0.28654 -0.61544,-0.28654 -0.112,0 -0.38416,1.99254 -0.4879,3.57188 -0.1356,2.06592 -0.1676,3.93752 -0.1332,7.79788 0.0318,3.56868 0.0574,4.24066 0.161,4.24066 0.016,0 0.1656,-0.046 0.33204,-0.1024 z"
       id="path1076" />
  </g>
</svg>
