<svg xmlns="http://www.w3.org/2000/svg" width="645" height="639" viewBox="0 0 645 639" version="1.1">
	<path d="M 304.500 12.222 C 299.602 13.958, 296.169 16.855, 293.390 21.597 C 291.244 25.259, 290.711 27.589, 290.430 34.532 L 290.088 43 295.819 47.750 C 298.971 50.363, 302.569 53.175, 303.813 54 C 305.833 55.340, 306.494 58.006, 309.997 78.930 C 312.155 91.817, 314.210 103.678, 314.563 105.288 L 315.206 108.216 310.132 107.518 C 300.012 106.126, 289.933 112.261, 286.543 121.876 C 284.583 127.435, 284.598 130.982, 286.613 137.934 C 288.014 142.769, 289.098 144.238, 294.863 149.119 L 301.500 154.738 300.791 172.619 C 299.914 194.717, 298.137 220.479, 297.348 222.535 C 296.575 224.550, 296.823 224.713, 268.820 203.745 L 246.140 186.762 243.520 175.496 C 241.566 167.093, 241.070 162.951, 241.568 159.196 C 242.153 154.788, 241.841 153.372, 239.066 147.830 C 236.929 143.564, 234.584 135.594, 231.875 123.388 L 227.855 105.275 233.212 99.888 C 239.179 93.886, 241.005 89.423, 240.991 80.884 C 240.967 67.377, 228.151 56.927, 215.187 59.845 C 202.506 62.699, 195.475 75.228, 199.105 88.500 C 200.636 94.093, 208.177 101.230, 214.398 102.971 C 220.131 104.577, 220.208 104.733, 223.002 120.500 C 224.171 127.100, 225.355 133.287, 225.632 134.250 C 226.064 135.754, 225.417 136, 221.035 136 C 215.771 136, 209.838 137.931, 206.882 140.607 C 205.358 141.986, 204.810 141.944, 201.345 140.181 C 199.230 139.105, 193.450 136.793, 188.500 135.044 C 181.240 132.478, 178.633 131.992, 175.014 132.528 C 162.261 134.419, 137.151 147.099, 131.819 154.340 C 127.313 160.461, 125.047 165.947, 125.022 170.800 C 124.989 177.205, 127.206 180.688, 132.256 182.163 C 134.590 182.845, 138.075 184.607, 140 186.078 C 149.396 193.259, 159.902 192.509, 168.088 184.071 C 177.449 174.424, 176.930 161.273, 166.817 151.861 L 162.907 148.222 168.204 146.897 C 177.350 144.610, 185.642 145.129, 192.500 148.417 L 198.500 151.295 194.184 152.106 C 183.647 154.088, 175.989 163.269, 176.006 173.899 C 176.016 180.916, 177.966 185.140, 183.847 190.886 C 189.493 196.402, 189.500 196.416, 189.388 202.263 C 189.326 205.483, 188.687 209.216, 187.969 210.559 C 186.771 212.797, 186.073 212.999, 179.581 212.985 L 172.500 212.971 164.148 205.422 C 159.554 201.270, 154.687 197.451, 153.333 196.936 C 147.126 194.576, 138.528 196.543, 134.112 201.332 C 132.373 203.219, 131.280 203.685, 130.089 203.048 C 126.172 200.951, 87.943 187.722, 82.515 186.585 C 76.620 185.350, 76.518 185.270, 75.735 181.310 C 74.727 176.215, 68.899 169.313, 63.556 166.886 C 47.633 159.654, 30.310 173.671, 33.853 190.922 C 35.327 198.100, 38.968 203.120, 45.130 206.475 C 55.325 212.023, 68.580 208.135, 73.500 198.152 C 74.600 195.920, 75.903 194.072, 76.395 194.047 C 77.755 193.976, 106.158 206.175, 105.700 206.633 C 105.480 206.853, 99.820 208.596, 93.122 210.505 C 80.841 214.007, 75.917 216, 72.799 218.731 C 71.864 219.550, 67.870 220.575, 63.925 221.008 C 58.473 221.607, 55.775 222.482, 52.680 224.657 C 39.274 234.079, 41.466 256.144, 56.500 263.104 C 65.500 267.271, 77.683 263.724, 82.962 255.400 C 84.854 252.416, 86.013 251.413, 86.734 252.134 C 88.680 254.080, 88.850 251.451, 87.605 238.609 C 86.162 223.719, 86.183 223.667, 94.251 222.162 C 110.603 219.112, 116.355 218.743, 122.500 220.350 C 125.800 221.213, 128.950 222.681, 129.500 223.614 C 131.878 227.645, 136.712 232.399, 139.702 233.649 C 143.265 235.138, 149.391 235.320, 152.500 234.029 C 154.025 233.397, 157.947 234.986, 169 240.715 C 197.208 255.336, 212.669 264.045, 215.229 266.756 C 219.084 270.838, 242 299.349, 242 300.063 C 242 300.402, 237.614 299.835, 232.254 298.804 C 216.690 295.808, 203.472 294, 197.144 294 C 185.708 294, 156.408 301.016, 150.698 305.122 C 147.371 307.514, 143.178 306.979, 140.354 303.802 C 137.842 300.977, 129.189 297.022, 125.493 297.010 C 117.956 296.985, 109.708 301.599, 106.268 307.764 C 103.180 313.299, 102.364 322.047, 104.432 327.462 C 108.144 337.180, 119.030 343.129, 129.002 340.888 C 136.045 339.306, 139.588 336.439, 145.958 327.167 L 151.913 318.500 173.420 312.117 L 194.926 305.734 218.713 309.444 C 231.796 311.484, 243.233 313.457, 244.129 313.827 C 245.024 314.197, 254.413 322.897, 264.993 333.160 L 284.228 351.820 295.611 398.660 L 306.994 445.500 310.431 479.500 C 316.650 541.034, 316.471 534.966, 313.580 586.320 C 312.161 611.521, 311 633.683, 311 635.570 L 311 639 331.500 639 C 351.774 639, 352 638.976, 352 636.862 C 352 635.686, 349.525 610.712, 346.500 581.365 C 343.475 552.018, 341.002 524.292, 341.005 519.753 C 341.011 510.014, 343.506 480.541, 345.123 471.112 C 345.747 467.475, 347.068 462.893, 348.058 460.929 C 349.048 458.964, 353.967 447.489, 358.988 435.429 C 370.310 408.235, 379.609 389.265, 385.304 381.745 C 387.701 378.580, 392.326 373.898, 395.581 371.341 C 406.941 362.416, 461.212 327.802, 487.649 312.621 C 495.510 308.107, 511.378 301.998, 515.500 301.898 C 521.639 301.751, 541.361 304.055, 542.574 305.062 C 543.679 305.978, 544 309.261, 544 319.622 C 544 331.696, 544.171 333, 545.750 333 C 546.712 333, 548.758 334.576, 550.295 336.502 C 558.565 346.867, 576.261 346.524, 583.995 335.849 C 590.838 326.402, 590.109 315.196, 582.116 306.958 C 577.148 301.837, 572.688 300.015, 565.100 300.006 C 562.447 300.002, 558.673 299.009, 555.596 297.503 C 550.664 295.090, 530.840 290.028, 526.250 290.009 C 525.013 290.004, 524.010 289.663, 524.023 289.250 C 524.036 288.837, 530.437 285.185, 538.248 281.133 C 551.203 274.413, 552.540 273.923, 553.475 275.554 C 558.252 283.885, 566.487 288.592, 574.876 287.786 C 592.455 286.097, 601.090 265.235, 589.845 251.621 C 578.332 237.681, 555.075 244.034, 552.064 261.942 C 551.516 265.201, 551.079 265.527, 543.877 268.052 C 539.692 269.519, 527.862 274.440, 517.588 278.988 C 501.184 286.248, 496.018 289.169, 475.204 302.948 C 462.167 311.579, 441.541 325.631, 429.370 334.174 C 397.954 356.225, 386.187 362.256, 384.278 357.282 C 382.462 352.551, 389.803 316.555, 397.037 294.718 C 407.935 261.821, 420.321 242.956, 435.769 235.727 C 441.782 232.914, 442.712 232.765, 451.439 233.221 C 462.829 233.817, 463.915 234.359, 460.117 237.555 C 453.722 242.936, 451.145 254.623, 454.553 262.782 C 460.491 276.998, 479.583 280.676, 489.924 269.597 C 491.258 268.169, 492.968 267, 493.724 267 C 496.376 267, 500.622 264.125, 501.805 261.528 C 504.476 255.667, 502.118 247.511, 495.375 239.283 C 489.149 231.685, 464.890 221.176, 451.434 220.248 C 444.958 219.801, 443.689 220.060, 436.215 223.346 C 418.103 231.309, 407.626 240.460, 400.136 254.855 C 395.855 263.084, 394.885 264.438, 395.555 261.250 C 395.757 260.288, 397.092 248.925, 398.521 236 C 399.950 223.075, 401.461 211.633, 401.878 210.573 C 402.488 209.025, 405.872 207.901, 419.069 204.862 L 435.500 201.079 455 205.537 C 465.725 207.989, 475.499 210.226, 476.719 210.509 C 477.940 210.791, 481.911 214.730, 485.544 219.261 C 490.316 225.212, 493.448 228.121, 496.825 229.737 C 511.462 236.741, 528 226.271, 528 210 C 528 197.745, 518.323 188, 506.152 188 C 499.683 188, 495.605 189.677, 490.681 194.363 C 486.020 198.797, 482.990 199.695, 479.780 197.591 C 476.035 195.138, 463.881 192.401, 447.975 190.430 C 432.620 188.527, 431.085 188.652, 409 193.588 C 407.491 193.926, 408.085 193.374, 410.500 192.196 C 418.529 188.279, 424 179.695, 424 171.015 C 424 168.866, 422.743 164.790, 421.039 161.411 L 418.077 155.540 421.728 149.903 C 424.277 145.965, 426.396 143.897, 428.755 143.044 C 436.231 140.340, 441.564 133.205, 442.856 124.177 C 443.475 119.849, 443.742 119.518, 447.301 118.676 C 453.114 117.301, 461.374 118.690, 464.475 121.564 C 469.175 125.921, 472.854 127.251, 478.976 126.808 C 485.845 126.311, 490.148 123.549, 493.220 117.666 C 499.389 105.849, 492.202 90.367, 479.597 88.322 C 472.345 87.145, 469.506 88.548, 460.097 97.957 L 451.239 106.815 444.613 107.525 C 436.519 108.392, 435.497 107.709, 433.985 100.430 C 432.586 93.690, 433.216 91.539, 438.060 86.500 C 442.898 81.467, 445 76.470, 445 70 C 445 58.175, 435.781 48, 425.066 48 C 421.672 48, 420.825 47.563, 419.590 45.175 C 418.787 43.621, 416.326 40.720, 414.121 38.729 C 402.538 28.263, 385.004 33.399, 379.551 48.854 C 378.173 52.762, 378.248 54.039, 380.579 66.285 L 383.094 79.500 377.797 84.270 C 368.170 92.939, 329.992 125.494, 329.099 125.796 C 327.353 126.387, 324.840 111.380, 320.953 77.148 L 318.756 57.797 325.289 51.148 C 331.089 45.245, 331.953 43.848, 332.995 38.686 C 334.570 30.882, 333.048 24.585, 328.227 18.952 C 322.205 11.917, 312.847 9.262, 304.500 12.222 M 398.138 84.593 L 392.804 88.185 395.652 91.186 C 397.218 92.837, 400.667 96.012, 403.316 98.242 L 408.131 102.296 415.066 100.988 C 422.273 99.628, 422.694 99.187, 421.396 94.351 C 421.028 92.979, 419.250 91.603, 416.473 90.543 C 414.083 89.630, 410.525 87.109, 408.566 84.942 C 406.608 82.774, 404.661 81, 404.239 81 C 403.818 81, 401.073 82.617, 398.138 84.593 M 358.750 116.684 L 335 137.240 335 143.970 C 335 154.832, 338.024 240.357, 338.422 240.756 C 338.728 241.061, 373.750 196.245, 380.971 186.308 C 382.932 183.610, 383.126 182.681, 382.227 180.308 C 380.258 175.112, 379.972 172.086, 381.013 167.443 C 383.181 157.769, 390.595 150.947, 399.767 150.186 C 404.338 149.807, 405.441 149.288, 407.546 146.528 C 408.896 144.759, 410 142.879, 410 142.352 C 410 141.824, 408.431 139.871, 406.512 138.012 C 401.439 133.095, 399.586 127.477, 400.285 119.137 L 400.857 112.314 392.658 104.157 C 388.148 99.671, 384.018 96.029, 383.479 96.065 C 382.941 96.100, 371.813 105.379, 358.750 116.684 M 317.492 149.250 L 314.013 152.500 311.969 173.500 C 307.604 218.345, 304.994 241.142, 304.018 242.967 C 302.212 246.340, 302.975 259.084, 306.024 276.500 C 307.661 285.850, 310.156 300.475, 311.569 309 C 312.981 317.525, 314.394 325.625, 314.707 327 C 315.149 328.937, 316.164 326.809, 319.213 317.555 C 324.328 302.028, 327.136 288.462, 327.298 278.500 C 327.435 270.077, 326.573 267.394, 322.355 263.116 C 321.063 261.805, 319.449 258.880, 318.769 256.616 C 316.736 249.844, 317.460 225.090, 320.426 200 C 324.467 165.820, 325.023 146, 321.940 146 C 321.407 146, 319.405 147.463, 317.492 149.250 M 214.500 187.317 C 212.850 189.538, 209.475 192.418, 207 193.719 C 202.797 195.928, 201.349 198.001, 201.100 202.165 C 201.018 203.521, 202.392 203.960, 208.516 204.534 L 216.032 205.238 221.972 198.869 C 225.239 195.366, 227.931 191.960, 227.956 191.301 C 228 190.089, 223.181 186.079, 219.500 184.266 C 217.807 183.431, 217.040 183.899, 214.500 187.317 M 389.652 195.673 C 387.390 198.688, 388.001 199.500, 391.625 198.292 C 395.013 197.162, 395.714 195.450, 393.311 194.173 C 391.894 193.419, 391.097 193.746, 389.652 195.673 M 227.678 209.673 C 224.291 213.542, 223.068 215.676, 223.567 216.841 C 224.962 220.096, 225.210 229.834, 223.992 233.525 C 223.314 235.580, 221.191 238.997, 219.275 241.118 L 215.791 244.974 221.049 252.066 C 225.820 258.502, 227.061 259.507, 234.446 262.919 C 248.976 269.632, 250.651 269.348, 249.665 260.347 C 249.312 257.131, 247.885 250, 246.494 244.500 C 243.509 232.706, 233.993 203.964, 233.112 204.082 C 232.775 204.127, 230.330 206.643, 227.678 209.673 M 251 206.792 C 251 208.688, 260.093 244.266, 264.343 259 C 270.743 281.185, 272.394 285.168, 276.049 287.237 C 279.553 289.221, 284.680 299.326, 290.101 314.933 C 291.904 320.121, 293.578 323.766, 293.822 323.034 C 294.302 321.593, 292.338 256.646, 291.414 243.423 L 290.849 235.346 272.282 221.423 C 251.775 206.045, 251 205.512, 251 206.792 M 388.313 211.850 C 386.038 212.526, 351.522 249.987, 349.937 253.500 C 349.441 254.600, 345.187 278.225, 340.483 306 C 332.071 355.678, 331.856 356.677, 327.269 367.398 L 322.607 378.297 326.302 408.808 C 329.635 436.336, 330.255 439.759, 332.639 443.827 C 335.007 447.868, 335.412 448.158, 336.537 446.618 C 337.228 445.673, 339.654 438.060, 341.929 429.700 C 344.203 421.340, 348.141 407.975, 350.679 400 C 354.746 387.222, 355.761 385.050, 359.228 381.713 C 362.222 378.831, 363.626 376.321, 365.100 371.213 C 369.539 355.838, 379.149 303.728, 386.993 252.500 C 388.678 241.500, 390.718 228.483, 391.528 223.574 C 393.730 210.219, 393.735 210.237, 388.313 211.850 M 170 224.644 C 170 225.153, 171.463 226.404, 173.250 227.424 C 175.037 228.444, 177.938 230.137, 179.695 231.187 L 182.890 233.095 182.303 229.297 C 181.981 227.209, 181.603 225.360, 181.464 225.189 C 180.780 224.348, 170 223.836, 170 224.644" stroke="none" fill="black" fill-rule="evenodd"/>
</svg>