<?xml version="1.0" encoding="UTF-8" standalone="no"?>
<!-- Created with Inkscape (http://www.inkscape.org/) -->

<svg
   width="132.11357mm"
   height="158.80254mm"
   viewBox="0 0 132.11357 158.80253"
   version="1.1"
   id="svg1299"
   inkscape:version="1.1.1 (3bf5ae0d25, 2021-09-20)"
   sodipodi:docname="tilia.svg"
   xmlns:inkscape="http://www.inkscape.org/namespaces/inkscape"
   xmlns:sodipodi="http://sodipodi.sourceforge.net/DTD/sodipodi-0.dtd"
   xmlns="http://www.w3.org/2000/svg"
   xmlns:svg="http://www.w3.org/2000/svg">
  <sodipodi:namedview
     id="namedview1301"
     pagecolor="#ffffff"
     bordercolor="#666666"
     borderopacity="1.0"
     inkscape:pageshadow="2"
     inkscape:pageopacity="0.0"
     inkscape:pagecheckerboard="0"
     inkscape:document-units="mm"
     showgrid="false"
     fit-margin-top="0"
     fit-margin-left="0"
     fit-margin-right="0"
     fit-margin-bottom="0"
     inkscape:zoom="0.50898197"
     inkscape:cx="392.94123"
     inkscape:cy="328.10593"
     inkscape:window-width="1920"
     inkscape:window-height="986"
     inkscape:window-x="-11"
     inkscape:window-y="-11"
     inkscape:window-maximized="1"
     inkscape:current-layer="layer1" />
  <defs
     id="defs1296" />
  <g
     inkscape:label="Layer 1"
     inkscape:groupmode="layer"
     id="layer1"
     transform="translate(-9.9423507,-69.703028)">
    <path
       style="fill:#000000;stroke-width:1"
       d="m 58.61928,228.43453 c -0.1374,-0.0468 -0.21694,-0.1246 -0.30812,-0.30128 -0.162,-0.31372 -0.135,-0.62596 0.1232,-1.42874 0.1076,-0.3347 0.22308,-0.69428 0.25646,-0.79908 0.0926,-0.29042 1.91494,-2.20666 3.15632,-3.3188 0.6941,-0.62184 1.71306,-1.65592 2.40806,-2.4438 0.68708,-0.7789 4.94954,-5.0553 6.00896,-6.02864 0.362,-0.33258 1.02728,-0.95288 1.4784,-1.37844 0.4511,-0.42556 0.90354,-0.84688 1.0054,-0.93624 0.1018,-0.0894 0.43524,-0.3833 0.74084,-0.6532 0.3056,-0.26988 0.66278,-0.55952 0.79376,-0.64366 0.131,-0.0842 0.38314,-0.301 0.5604,-0.48192 0.1772,-0.181 0.42728,-0.40898 0.55562,-0.50682 0.1284,-0.0978 0.55482,-0.48718 0.94772,-0.8652 0.3929,-0.37802 0.7883,-0.7266 0.87864,-0.7746 0.30418,-0.1616 0.78564,-0.5608 1.18512,-0.98242 0.21828,-0.23038 0.64838,-0.67092 0.9558,-0.97896 0.3074,-0.30806 0.66018,-0.70988 0.78392,-0.89294 0.21264,-0.31458 0.22164,-0.343 0.164,-0.51786 -0.0948,-0.28724 -0.31552,-0.41904 -0.70446,-0.42066 -0.1794,-7.4e-4 -0.64132,-0.0466 -1.0266,-0.1018 -0.58018,-0.0832 -0.72224,-0.0888 -0.82684,-0.033 -0.1026,0.055 -0.1498,0.0548 -0.25196,-8.4e-4 -0.0866,-0.0472 -0.30886,-0.064 -0.7136,-0.0544 -0.67718,0.016 -1.45542,-0.0792 -1.51814,-0.1862 -0.0492,-0.084 -0.22748,-0.0964 -0.27518,-0.02 -0.018,0.029 -0.1528,0.053 -0.29976,0.053 -0.2017,0 -0.30256,-0.0298 -0.41214,-0.122 -0.1164,-0.098 -0.1988,-0.1196 -0.4167,-0.1096 -0.1494,0.006 -0.30186,0.032 -0.3388,0.056 -0.037,0.0238 -0.6387,0.0482 -1.3372,0.054 -0.6985,0.006 -1.50812,0.0244 -1.79916,0.0414 -0.29104,0.016 -0.79866,0.0412 -1.12804,0.054 -0.59398,0.023 -0.88622,0.049 -2.41738,0.2162 -0.9513,0.1038 -2.75812,0.1196 -3.65124,0.032 -1.64714,-0.1618 -3.52608,-0.26314 -5.63562,-0.30412 -0.77448,-0.016 -2.6633,-0.1384 -3.26328,-0.21292 -0.1214,-0.016 -0.24884,-0.0614 -0.28338,-0.103 -0.0454,-0.0546 -0.0898,-0.0612 -0.1596,-0.0238 -0.1244,0.0666 -0.76664,0.0648 -1.2387,-0.004 -0.25154,-0.0364 -0.39924,-0.087 -0.4676,-0.1604 -0.0602,-0.0646 -0.1244,-0.0902 -0.1616,-0.0642 -0.109,0.0762 -0.66176,0.0392 -0.76236,-0.051 -0.069,-0.0618 -0.159,-0.0758 -0.34792,-0.0542 -0.1556,0.018 -0.3721,-0.002 -0.55562,-0.0528 -0.66706,-0.182 -1.87422,-0.39532 -2.49672,-0.44116 -0.21828,-0.016 -0.71834,-0.0744 -1.11124,-0.1296 -0.3929,-0.0552 -1.00012,-0.125 -1.34938,-0.155 -0.34924,-0.03 -0.78978,-0.0892 -0.97896,-0.1316 -0.1892,-0.0424 -0.48682,-0.1034 -0.66146,-0.1356 -0.1746,-0.0322 -0.47228,-0.0926 -0.66146,-0.1342 -0.1892,-0.0416 -0.40644,-0.0756 -0.48282,-0.0756 -0.0764,0 -0.2401,-0.0356 -0.36384,-0.0792 -0.1238,-0.0436 -0.29498,-0.0794 -0.38056,-0.0794 -0.0856,0 -0.20128,-0.0244 -0.25716,-0.0544 -0.0558,-0.03 -0.21504,-0.0784 -0.35372,-0.1078 -0.48408,-0.1026 -1.04778,-0.21648 -1.29706,-0.26188 -0.1382,-0.0252 -0.28018,-0.0636 -0.31556,-0.0856 -0.0354,-0.0218 -0.1604,-0.0578 -0.27796,-0.0798 -0.42364,-0.0792 -0.5346,-0.11 -0.75192,-0.20764 -0.1214,-0.0546 -0.23616,-0.1476 -0.25492,-0.20684 -0.029,-0.0912 -0.0642,-0.1028 -0.23234,-0.0758 -0.162,0.026 -0.28218,-0.008 -0.6568,-0.1852 -0.25222,-0.1192 -0.47214,-0.21684 -0.48868,-0.21684 -0.0658,0 -1.04542,-0.48014 -1.35862,-0.66588 -0.29854,-0.177 -0.38008,-0.20012 -0.78304,-0.22138 -0.39994,-0.021 -0.50146,-0.0494 -0.9162,-0.25514 -0.5315,-0.26374 -2.04354,-1.23822 -2.0457,-1.3184 -7.8e-4,-0.0292 0.0672,-0.118 0.1512,-0.1972 0.084,-0.0792 0.1686,-0.20786 0.1882,-0.28578 0.0454,-0.181 -0.0504,-0.41338 -0.199,-0.48242 -0.0636,-0.0296 -0.26178,-0.128 -0.44048,-0.21874 -0.1788,-0.0908 -0.34924,-0.165 -0.37898,-0.165 -0.0978,0 -1.40406,-0.63474 -1.8194,-0.88404 l -0.4066,-0.24406 0.0288,-0.24332 c 0.0268,-0.22562 0.014,-0.26234 -0.1874,-0.50494 -0.22932,-0.27752 -0.39312,-0.39412 -0.5579,-0.39718 -0.0998,-0.002 -1.68112,-1.0191 -1.89732,-1.22052 -0.0616,-0.0574 -0.1286,-0.1042 -0.1492,-0.1042 -0.0964,0 -0.089,-0.18 0.014,-0.31818 0.0974,-0.1318 0.1034,-0.166 0.0416,-0.24028 -0.0544,-0.0656 -0.1224,-0.0786 -0.2788,-0.0536 -0.1234,0.02 -0.23556,0.01 -0.27784,-0.0258 -0.039,-0.0324 -0.1256,-0.0678 -0.1926,-0.0784 -0.4759,-0.0768 -0.66852,-0.20728 -1.28576,-0.8712 -0.7936,-0.85364 -1.65772,-1.7853 -1.90076,-2.04934 -0.25006,-0.27166 -0.29244,-0.43776 -0.1118,-0.43776 0.0528,0 0.0816,-0.0508 0.0828,-0.1456 0.002,-0.1726 0.1094,-0.33072 0.2246,-0.33072 0.0452,0 0.1836,-0.0944 0.30746,-0.20992 0.1238,-0.1154 0.2997,-0.2453 0.39086,-0.28858 0.23856,-0.1132 0.34716,-0.25066 0.31006,-0.39252 -0.0334,-0.1278 -0.52034,-0.54046 -1.63154,-1.38276 -0.78682,-0.5964 -1.78266,-1.42944 -1.81,-1.51406 -0.018,-0.053 0.1996,-0.1386 0.51354,-0.20266 0.21408,-0.0436 0.635,-0.33634 0.635,-0.44154 0,-0.1326 -0.3023,-0.41618 -0.9525,-0.8933 -1.19422,-0.8763 -2.07864,-1.73008 -2.68702,-2.59388 -0.1524,-0.2165 -0.1488,-0.25986 0.0412,-0.47616 0.199,-0.2267 0.2132,-0.47796 0.0362,-0.64416 -0.0674,-0.0632 -0.1398,-0.115 -0.161,-0.115 -0.0212,0 -0.30544,-0.1454 -0.63158,-0.3231 -0.49326,-0.26874 -0.91556,-0.56608 -1.23126,-0.86692 -0.1202,-0.1146 -0.6053,-0.73842 -0.6053,-0.77846 0,-0.0232 0.0552,-0.0424 0.1228,-0.0424 0.231,0 0.6008,-0.16 0.67046,-0.29022 0.123,-0.22986 0.0304,-0.43724 -0.35202,-0.78758 -0.23252,-0.21308 -0.39228,-0.41298 -0.4701,-0.5882 -0.0648,-0.146 -0.22926,-0.41644 -0.36544,-0.60098 -0.40012,-0.5422 -0.82284,-1.23938 -0.82284,-1.35706 0,-0.012 0.113,-0.035 0.25134,-0.0526 0.38004,-0.0482 0.64908,-0.1418 0.7044,-0.24524 0.0922,-0.1722 0.0528,-0.34166 -0.1162,-0.49996 -0.23282,-0.21806 -0.6813,-0.92296 -1.06942,-1.68092 -0.35892,-0.70092 -0.58614,-1.19864 -0.55628,-1.21856 0.0824,-0.055 0.3334,-0.14 0.4136,-0.14 0.1554,0 0.38756,-0.31038 0.3534,-0.47266 -0.0252,-0.1194 -0.54512,-1.13512 -1.15316,-2.25256 -0.55394,-1.01798 -1.07056,-2.1956 -0.99616,-2.2707 0.0262,-0.0266 0.104,-0.0542 0.173,-0.0616 0.22022,-0.0234 0.6179,-0.24164 0.73164,-0.40138 0.144,-0.2021 0.1178,-0.29124 -0.26446,-0.8993 -0.4717,-0.75048 -0.95864,-1.72728 -0.95864,-1.923 0,-0.0438 0.1604,-0.159 0.36386,-0.26158 0.2001,-0.1008 0.4524,-0.26676 0.56064,-0.36884 0.1852,-0.1748 0.1946,-0.1988 0.1588,-0.40998 -0.0208,-0.1234 -0.30702,-0.77328 -0.63594,-1.44422 -0.32894,-0.67092 -0.70586,-1.4577 -0.83762,-1.74842 -0.2338,-0.5159 -0.23722,-0.53114 -0.1426,-0.635 0.0534,-0.0586 0.1362,-0.1838 0.184,-0.27842 0.0712,-0.141 0.118,-0.172 0.259,-0.172 0.2108,0 0.38094,-0.113 0.49128,-0.3264 0.1148,-0.22204 0.068,-0.36034 -0.29204,-0.86078 -0.44592,-0.62 -0.75886,-1.12718 -0.89904,-1.45712 -0.1152,-0.27132 -0.1172,-0.29294 -0.0308,-0.34396 0.35554,-0.21004 0.3872,-0.41126 0.146,-0.92756 -0.33634,-0.71976 -0.48558,-1.1288 -0.62016,-1.6997 -0.0994,-0.42186 -0.0998,-0.46988 -0.004,-0.46988 0.0426,0 0.1628,-0.0748 0.26692,-0.1662 0.1058,-0.093 0.28754,-0.1864 0.41194,-0.2117 0.60306,-0.123 1.14652,-0.21134 1.3706,-0.22274 0.25846,-0.014 0.46592,-0.1418 0.46592,-0.28902 0,-0.0438 -0.1396,-0.29606 -0.31032,-0.56064 -0.29266,-0.45372 -0.74802,-1.23244 -0.74802,-1.27924 0,-0.012 -0.108,-0.2617 -0.24,-0.5554 -0.132,-0.2937 -0.28944,-0.72844 -0.34988,-0.96606 -0.1314,-0.5166 -0.3024,-1.51756 -0.30666,-1.79466 -0.004,-0.25428 0.1108,-0.264 0.20006,-0.016 0.049,0.1356 0.1058,0.1902 0.22448,0.21636 0.0924,0.0202 0.189,0.01 0.23078,-0.0248 0.0864,-0.0716 0.45202,-0.0906 0.74394,-0.0382 0.1562,0.028 0.23926,0.016 0.31684,-0.0444 0.1046,-0.0818 0.1046,-0.0838 -0.016,-0.41118 -0.0668,-0.1808 -0.1464,-0.41228 -0.1772,-0.51414 -0.1238,-0.41028 -0.31088,-1.8204 -0.34308,-2.58564 l -0.0342,-0.81292 0.2327,0.0284 c 0.38492,0.0468 0.849,0.1428 0.94836,0.196 0.1426,0.0764 0.23776,-0.0622 0.1524,-0.22184 -0.036,-0.0672 -0.0714,-0.30084 -0.0788,-0.51932 -0.008,-0.21848 -0.0606,-0.56394 -0.1186,-0.76766 -0.0578,-0.20372 -0.1324,-0.5133 -0.1658,-0.68792 -0.0334,-0.1746 -0.093,-0.46038 -0.1326,-0.635 -0.0396,-0.1746 -0.1016,-0.58184 -0.138,-0.90494 -0.0622,-0.55282 -0.0602,-0.59578 0.0348,-0.72878 0.082,-0.1148 0.1306,-0.136 0.2583,-0.1126 0.0866,0.016 0.23052,0.0996 0.32002,0.1864 0.1876,0.1818 0.34078,0.2004 0.47034,0.0572 0.1042,-0.1152 0.1122,-0.2897 0.0604,-1.30224 -0.0232,-0.45206 -0.014,-0.76994 0.0244,-0.92604 0.0328,-0.1308 0.0808,-0.35228 0.1062,-0.49234 0.0462,-0.25328 0.175,-0.70298 0.38934,-1.35932 0.1324,-0.40576 0.2525,-0.46222 0.51428,-0.24196 0.089,0.0748 0.2135,0.1388 0.27676,0.142 0.48714,0.025 0.54436,0.018 0.6574,-0.08 0.0654,-0.0568 0.119,-0.1354 0.119,-0.175 0,-0.0396 0.034,-0.0848 0.0756,-0.1008 0.1166,-0.0448 0.1888,-0.31766 0.1888,-0.71324 0,-0.1976 0.0238,-0.37412 0.053,-0.3921 0.029,-0.018 0.053,-0.0848 0.0532,-0.1486 1.6e-4,-0.0638 0.0308,-0.1754 0.0678,-0.24822 0.06,-0.1174 0.1018,-0.24592 0.24088,-0.74032 0.0204,-0.0724 0.0742,-0.139 0.1196,-0.1476 0.0454,-0.008 0.25622,0.1398 0.4685,0.33022 0.4617,0.414 0.64436,0.45244 0.87082,0.1834 0.0754,-0.0896 0.1366,-0.1788 0.136,-0.1984 -0.004,-0.1002 -0.1568,-0.85378 -0.207,-1.01458 -0.0318,-0.1018 -0.0702,-0.44714 -0.0852,-0.7673 -0.014,-0.32014 -0.0316,-0.6178 -0.0372,-0.66146 -0.006,-0.0436 0.01,-0.31208 0.0342,-0.5965 0.0342,-0.4007 0.059,-0.50492 0.1096,-0.46292 0.0938,0.0778 0.61898,-0.03 0.70588,-0.145 0.0654,-0.0864 0.0752,-0.085 0.1628,0.0216 0.1102,0.1342 0.45708,0.2993 0.94692,0.4506 0.1944,0.06 0.4829,0.2018 0.6409,0.31494 0.3315,0.23738 0.37958,0.24478 0.621,0.0956 0.1286,-0.0794 0.1782,-0.1486 0.1782,-0.24794 0,-0.0758 0.0518,-0.1928 0.115,-0.2601 l 0.115,-0.1222 -0.0894,-0.70132 c -0.0584,-0.45816 -0.0796,-0.88476 -0.0614,-1.23048 0.0282,-0.52978 0.055,-0.71422 0.2126,-1.4552 0.0464,-0.21828 0.1084,-0.55166 0.138,-0.74084 0.0294,-0.1892 0.074,-0.39158 0.0988,-0.44978 0.025,-0.0582 0.0586,-0.27084 0.0748,-0.4725 0.016,-0.20166 0.0478,-0.38418 0.0702,-0.40558 0.0448,-0.0428 0.62162,0.02 0.91392,0.0984 0.1018,0.0276 0.39952,0.1796 0.66146,0.33768 0.65844,0.39754 0.71346,0.41794 0.90708,0.33654 0.1814,-0.0762 0.38938,-0.4553 0.38938,-0.70976 0,-0.1692 0.2701,-1.4449 0.40444,-1.91008 0.30636,-1.06074 0.68198,-1.95442 0.82238,-1.95656 0.049,-7.4e-4 0.28712,0.1614 0.52916,0.36012 0.48764,0.40058 0.9804,0.74978 1.05802,0.74978 0.0928,0 0.28078,-0.1214 0.361,-0.2333 0.0464,-0.0646 0.1052,-0.35264 0.1418,-0.69274 0.0344,-0.32014 0.09,-0.7393 0.1238,-0.93144 l 0.0614,-0.34936 0.24174,-0.075 c 0.42628,-0.1324 0.47354,-0.28554 0.4144,-1.34288 -0.0234,-0.41712 0.0324,-0.94772 0.1348,-1.28206 0.0288,-0.094 0.0736,-0.28446 0.0996,-0.42334 0.026,-0.1388 0.0594,-0.31204 0.074,-0.3848 0.014,-0.0728 0.0408,-0.22158 0.058,-0.33072 0.0234,-0.1486 0.0564,-0.1984 0.1316,-0.1984 0.0552,0 0.115,0.0238 0.133,0.0528 0.0482,0.078 0.361,0.0644 0.47728,-0.0206 0.088,-0.0644 0.0922,-0.0918 0.0346,-0.21852 -0.0584,-0.1284 -0.0536,-0.1536 0.0426,-0.22108 0.0598,-0.0418 0.095,-0.0984 0.0782,-0.1254 -0.043,-0.0696 0.1718,-0.0612 0.30998,0.012 0.0636,0.0338 0.37064,0.31792 0.68236,0.63152 0.31174,0.31362 0.65702,0.61124 0.7673,0.66142 0.1102,0.0502 0.30766,0.179 0.43864,0.28638 0.51828,0.42482 0.71254,0.43816 1.08664,0.0746 0.1762,-0.1714 0.23626,-0.26996 0.23626,-0.3885 0,-0.0874 0.0334,-0.26092 0.0744,-0.38564 0.0408,-0.1248 0.091,-0.4403 0.1116,-0.70134 0.0512,-0.65456 0.0864,-0.73396 0.30382,-0.68814 0.0944,0.02 0.1944,0.0576 0.222,0.0836 0.0276,0.026 0.1614,0.0474 0.29704,0.0474 0.196,0 0.27546,-0.0286 0.3863,-0.1394 0.0768,-0.0768 0.1396,-0.1762 0.1396,-0.22114 0,-0.0448 0.0268,-0.1666 0.0596,-0.2706 0.1334,-0.42266 0.1944,-0.62376 0.25866,-0.85042 0.085,-0.30032 0.1794,-0.5884 0.30334,-0.92604 0.0916,-0.24928 0.109,-0.26556 0.30244,-0.28154 0.30312,-0.025 0.97416,0.23506 1.4109,0.5469 0.35634,0.25444 0.95844,0.55484 1.11208,0.55484 0.24696,0 0.38236,-0.23938 0.6285,-1.11124 0.1152,-0.40784 0.21598,-0.70954 0.25602,-0.766 0.0212,-0.0298 0.0692,-0.1494 0.1068,-0.26588 0.0376,-0.1164 0.1108,-0.30692 0.1626,-0.42332 0.1678,-0.37676 0.31098,-0.8401 0.3474,-1.12448 0.0258,-0.20182 0.0582,-0.27782 0.1186,-0.27782 0.0456,0 0.25962,0.133 0.4756,0.29554 0.21596,0.1626 0.47864,0.33146 0.58372,0.37538 0.1714,0.0716 0.20902,0.0712 0.36612,-0.004 0.1492,-0.0712 0.175,-0.111 0.175,-0.26954 0,-0.1024 0.02,-0.186 0.0432,-0.186 0.0814,0 0.26966,-0.40302 0.32276,-0.69098 0.0292,-0.1584 0.0762,-0.4114 0.1044,-0.56226 0.0282,-0.1508 0.0768,-0.32194 0.108,-0.38018 0.0312,-0.0582 0.0566,-0.20128 0.0566,-0.31788 0,-0.1166 0.0238,-0.22676 0.053,-0.24474 0.029,-0.018 0.053,-0.09 0.053,-0.16 0,-0.07 0.0328,-0.20558 0.073,-0.30114 0.0402,-0.0956 0.1012,-0.26904 0.1358,-0.38544 0.0346,-0.1164 0.0824,-0.2593 0.1064,-0.3175 0.024,-0.0582 0.1058,-0.25624 0.1818,-0.44006 0.0758,-0.1838 0.138,-0.36362 0.138,-0.39956 0,-0.036 0.0298,-0.1294 0.0662,-0.20776 0.0536,-0.1154 0.1014,-0.1422 0.25136,-0.1412 0.1018,7e-4 0.23144,0.0362 0.28792,0.079 0.0566,0.0428 0.1416,0.0776 0.189,0.0776 0.1448,0 0.69812,0.29154 0.97822,0.51546 0.1456,0.1164 0.45244,0.38388 0.68202,0.59458 0.38602,0.35426 0.43118,0.38086 0.60004,0.35346 0.301,-0.0488 0.33148,-0.0914 0.65146,-0.90788 0.189,-0.4824 0.27086,-0.66358 0.76458,-1.69332 0.1954,-0.40746 0.41464,-0.86486 0.48732,-1.01642 0.21636,-0.45132 0.20456,-0.45292 0.84084,0.1148 0.31254,0.27886 0.62642,0.52162 0.69752,0.53946 0.0744,0.018 0.20474,-0.004 0.30696,-0.0524 0.29954,-0.1428 0.46454,-0.4656 0.81616,-1.59642 0.1292,-0.41528 0.44772,-1.03208 0.90682,-1.75558 0.34262,-0.53994 0.70182,-1.23502 0.75522,-1.46136 0.0412,-0.1746 0.1658,-0.23704 0.30256,-0.1516 0.054,0.0338 0.1362,0.0612 0.1828,0.0612 0.22488,0 0.80618,0.36042 1.16036,0.71944 0.20374,0.2065 0.4454,0.41424 0.53704,0.4616 0.158,0.0816 0.1738,0.0806 0.30428,-0.0222 0.0756,-0.0596 0.1376,-0.1542 0.1376,-0.21026 0,-0.0562 0.018,-0.105 0.0396,-0.1088 0.0218,-0.004 0.0942,-0.012 0.161,-0.02 0.1622,-0.016 0.33972,-0.1912 0.47226,-0.46416 0.1378,-0.28372 0.47126,-1.08566 0.51678,-1.24276 0.0522,-0.18 0.2323,-0.148 0.52358,0.0926 0.3268,0.27006 0.53526,0.2833 0.76972,0.0488 0.134,-0.134 0.1628,-0.20536 0.1628,-0.403 0,-0.20792 0.0672,-0.48768 0.21388,-0.88938 0.0212,-0.0582 0.068,-0.213 0.104,-0.34396 0.036,-0.131 0.097,-0.34528 0.1354,-0.47626 0.0384,-0.131 0.0772,-0.29766 0.0862,-0.37042 l 0.016,-0.1322 0.58208,0.008 c 0.32016,0.004 0.67734,0.036 0.79376,0.0716 0.1164,0.0356 0.31882,0.084 0.4498,0.1078 0.131,0.0236 0.33336,0.0682 0.44978,0.0992 0.35558,0.0942 0.73472,0.073 0.89084,-0.0498 0.1876,-0.1476 0.64008,-0.8964 1.00562,-1.6643 0.4469,-0.93878 0.42244,-0.90068 0.5721,-0.89084 0.1688,0.012 0.56392,0.1948 0.97102,0.4515 0.37438,0.23608 0.54222,0.2502 0.76324,0.0642 0.1406,-0.1184 0.1628,-0.172 0.1628,-0.39374 0,-0.1412 0.0216,-0.2701 0.048,-0.2864 0.0264,-0.016 0.0644,-0.1486 0.0844,-0.29412 0.02,-0.1454 0.058,-0.2778 0.0844,-0.2941 0.0264,-0.016 0.048,-0.0818 0.048,-0.1456 0,-0.23236 0.78218,-1.62858 1.02496,-1.83006 0.0712,-0.059 0.1148,-0.0448 0.29098,0.0948 0.26856,0.21268 0.43516,0.20956 0.67768,-0.012 l 0.193,-0.1768 -0.0598,-0.39198 c -0.0328,-0.2156 -0.0742,-0.54578 -0.092,-0.73376 -0.018,-0.188 -0.0534,-0.38118 -0.0792,-0.42936 -0.076,-0.142 0.023,-1.34602 0.1154,-1.40312 0.025,-0.016 0.045,-0.0684 0.0444,-0.1176 -5.2e-4,-0.0492 0.0412,-0.22816 0.0926,-0.39764 l 0.0936,-0.30816 0.32316,0.0338 c 0.31472,0.0328 0.32684,0.0294 0.46302,-0.1324 0.1574,-0.1872 0.165,-0.2747 0.0848,-0.97562 -0.0712,-0.6214 0.0308,-1.05242 0.47682,-2.01352 0.0946,-0.20372 0.193,-0.42398 0.21904,-0.48948 0.026,-0.0654 0.071,-0.1786 0.1002,-0.25134 0.21894,-0.54736 0.30086,-0.77774 0.42334,-1.19064 0.0648,-0.21828 0.151,-0.48022 0.1916,-0.58208 0.093,-0.23308 0.1766,-2.71412 0.1212,-3.59832 -0.076,-1.21034 0.1468,-2.75318 0.39716,-2.75122 0.0832,6.4e-4 0.98326,0.8909 0.98326,0.97252 0,0.038 0.0476,0.112 0.1058,0.1648 0.0582,0.0526 0.1058,0.135 0.1058,0.183 0,0.048 0.068,0.1812 0.1508,0.29606 0.083,0.1148 0.24072,0.37556 0.35054,0.57928 0.1098,0.20374 0.21886,0.3947 0.24236,0.4244 0.0698,0.0882 0.22184,0.9323 0.21428,1.18956 -0.004,0.131 0.02,0.5429 0.051,0.9154 0.0516,0.60292 0.0484,0.6919 -0.0292,0.81052 -0.0684,0.1044 -0.0738,0.1496 -0.0244,0.20904 0.0486,0.0588 0.0478,0.1124 -0.004,0.23806 -0.057,0.1374 -0.0548,0.1748 0.014,0.24392 0.0736,0.0736 0.0658,0.0958 -0.0792,0.22544 -0.1306,0.1168 -0.1506,0.1622 -0.1064,0.24116 0.0392,0.0702 0.0322,0.163 -0.0256,0.33222 -0.0528,0.1548 -0.0706,0.33934 -0.0522,0.54172 0.018,0.1924 0.006,0.32904 -0.0316,0.36624 -0.0438,0.0438 -0.0436,0.0846 10e-4,0.156 0.0332,0.0532 0.0774,0.21058 0.0984,0.3497 0.0208,0.1392 0.0764,0.29146 0.1234,0.33852 0.047,0.047 0.0882,0.145 0.0914,0.21782 0.012,0.2551 0.21748,0.8758 0.38278,1.15326 0.0918,0.154 0.167,0.3028 0.167,0.33046 0,0.0774 0.44046,0.2666 0.58328,0.25044 0.1142,-0.014 0.1424,0.0284 0.28008,0.40896 0.0842,0.23284 0.1728,0.46208 0.1968,0.50942 0.024,0.0474 0.06,0.1726 0.0798,0.2784 0.02,0.1058 0.0572,0.20536 0.083,0.2213 0.0258,0.016 0.047,0.067 0.047,0.1134 0,0.0464 0.0558,0.1582 0.124,0.24824 0.1016,0.1342 0.1304,0.2547 0.1592,0.66646 0.0456,0.6544 0.1018,0.84168 0.31446,1.04776 l 0.1754,0.17 0.254,-0.0866 c 0.20246,-0.069 0.28548,-0.1362 0.40908,-0.33104 0.0852,-0.1344 0.1802,-0.2445 0.21098,-0.2445 0.0308,0 0.22746,0.29766 0.43712,0.66146 0.20964,0.3638 0.54962,0.9147 0.75552,1.22424 0.2698,0.40556 0.38448,0.63016 0.41054,0.80394 0.0294,0.1954 0.0908,0.29842 0.32436,0.54348 0.26498,0.278 0.29564,0.29584 0.38086,0.22142 0.051,-0.0446 0.1824,-0.097 0.29224,-0.1168 0.22448,-0.0402 0.50812,-0.2656 0.67584,-0.53696 0.0616,-0.0998 0.1444,-0.1816 0.1838,-0.1816 0.1228,0 0.44494,0.38198 0.60992,0.72344 0.0868,0.1796 0.1754,0.33438 0.1968,0.34394 0.083,0.037 0.3734,0.50306 0.39094,0.62732 0.012,0.0848 0.0792,0.1612 0.191,0.21712 0.164,0.0818 0.38306,0.3074 0.38306,0.39424 0,0.0222 -0.036,0.08 -0.0798,0.1286 -0.0716,0.079 -0.0692,0.0978 0.0214,0.1798 0.0822,0.0744 0.1202,0.0798 0.20214,0.0286 0.1512,-0.0944 0.41472,0.0566 0.4556,0.26104 0.0356,0.1782 0.25512,0.40368 0.4638,0.47642 0.20638,0.072 0.39644,-0.0376 0.37748,-0.21756 -0.01,-0.0994 0.014,-0.148 0.0902,-0.1718 0.1382,-0.0438 0.34876,-0.2986 0.51024,-0.61726 0.0716,-0.1414 0.155,-0.25704 0.1852,-0.25704 0.1428,0 0.71958,0.47094 1.20848,0.98686 0.29752,0.31394 0.61676,0.60278 0.70944,0.64186 0.22622,0.0954 0.49324,0.0406 0.73424,-0.1508 0.1074,-0.0852 0.21696,-0.155 0.24342,-0.155 0.0264,0 0.1528,0.076 0.28092,0.1688 0.128,0.0928 0.45904,0.30922 0.73554,0.48082 0.6237,0.38706 0.8658,0.61518 1.062,1.00056 0.27012,0.53064 0.67894,0.70532 1.13942,0.48682 0.24564,-0.1166 0.84376,-0.67904 1.32398,-1.24504 0.21868,-0.25776 0.4311,-0.46866 0.47204,-0.46866 0.041,0 0.1104,0.0698 0.1546,0.155 0.126,0.2438 0.66134,1.88788 0.74204,2.27918 0.021,0.1018 0.1066,0.33048 0.1904,0.50802 0.1308,0.27738 0.1876,0.33978 0.4046,0.4435 0.1388,0.0664 0.3405,0.1652 0.44812,0.21958 0.1076,0.0544 0.29814,0.0984 0.42334,0.0978 0.29538,-0.001 0.86118,-0.20298 1.32698,-0.47264 0.20344,-0.1178 0.39986,-0.21416 0.4365,-0.21416 0.0892,0 0.208,0.3152 0.28896,0.7673 0.1198,0.66844 0.24648,0.91252 0.55632,1.0711 0.0874,0.0448 0.21842,0.1404 0.29118,0.21248 0.44714,0.4433 0.88826,0.25434 1.45634,-0.62388 0.1912,-0.2957 0.37732,-0.5274 0.42348,-0.5274 0.0452,0 0.1778,-0.0488 0.29464,-0.1084 0.157,-0.08 0.20468,-0.1324 0.183,-0.20068 -0.0234,-0.0736 0.0208,-0.1058 0.21768,-0.1584 0.2001,-0.0536 0.2552,-0.0532 0.2903,0.002 0.0614,0.097 0.055,0.22226 -0.014,0.29234 -0.0448,0.0448 -0.02,0.098 0.0972,0.20902 0.0864,0.082 0.1874,0.22562 0.22446,0.31924 0.037,0.0936 0.1004,0.1978 0.141,0.23138 0.1138,0.0944 0.0892,0.28082 -0.0448,0.33992 -0.1394,0.0616 -0.178,0.30396 -0.0634,0.39904 0.059,0.049 0.094,0.048 0.157,-0.004 0.067,-0.0556 0.0942,-0.0498 0.157,0.0332 0.0908,0.12 0.1014,0.2955 0.0224,0.37448 -0.1056,0.1056 -0.0318,0.35342 0.1382,0.46438 0.1514,0.0988 0.5477,0.70846 0.62936,0.96816 0.0462,0.1472 0.2227,0.1572 0.2678,0.016 0.018,-0.0572 0.008,-0.1524 -0.0248,-0.21166 -0.047,-0.0876 -0.0418,-0.1078 0.027,-0.1078 0.0466,0 0.132,0.0252 0.1896,0.0562 0.1366,0.0732 0.41324,-0.016 0.56978,-0.1818 0.0634,-0.0674 0.194,-0.27384 0.2904,-0.45868 0.0964,-0.1848 0.20012,-0.34438 0.23058,-0.35452 0.0518,-0.018 0.52204,0.55054 0.98964,1.19508 0.25096,0.3459 0.61682,1.17828 0.63596,1.44684 0.028,0.39406 0.36644,0.67308 0.7329,0.60432 0.3367,-0.0632 0.59164,-0.44194 0.84596,-1.25682 0.035,-0.1122 0.0908,-0.20388 0.124,-0.20388 0.107,0 0.33862,0.39194 0.84438,1.42874 1.011,2.07266 1.20338,2.4114 1.48082,2.60754 0.173,0.1222 0.25046,0.1436 0.4599,0.1268 0.1386,-0.012 0.29518,-0.0594 0.34812,-0.1074 0.053,-0.0478 0.1824,-0.087 0.2879,-0.087 0.57546,0 1.29984,-0.31928 1.96848,-0.86768 0.23224,-0.1904 0.44246,-0.32606 0.4672,-0.30134 0.1096,0.1096 0.6838,1.59512 0.7569,1.9581 0.0444,0.22086 0.1028,0.4849 0.1296,0.58676 0.0268,0.1018 0.0606,0.36382 0.0748,0.5821 0.0392,0.5994 0.1162,1.00428 0.21058,1.10864 0.0466,0.0516 0.1762,0.135 0.28772,0.1852 0.1964,0.0886 0.20992,0.0878 0.421,-0.02 0.23994,-0.1224 0.32464,-0.22956 0.4634,-0.58618 0.051,-0.131 0.1274,-0.29248 0.1698,-0.35894 0.0772,-0.1208 0.0774,-0.1206 0.2469,0.1322 0.43726,0.65212 1.50846,2.66098 1.5089,2.8297 0,0.0492 0.0208,0.1022 0.0458,0.1176 0.025,0.016 0.0606,0.138 0.079,0.27208 0.0442,0.32302 0.1666,0.51834 0.41022,0.6553 0.25582,0.1438 0.38458,0.1124 0.86636,-0.2105 0.2044,-0.137 0.55024,-0.34146 0.76852,-0.45426 0.21828,-0.1128 0.41406,-0.22894 0.43506,-0.25804 0.0612,-0.0848 0.21584,0.042 0.2627,0.21572 0.0622,0.23054 0.20088,1.1678 0.2264,1.53052 0.0206,0.29394 0.012,0.32602 -0.1202,0.43224 l -0.1426,0.1148 0.144,0.1512 c 0.1216,0.1276 0.1568,0.23744 0.22696,0.70548 0.0456,0.3049 0.103,0.59104 0.1274,0.63584 0.0244,0.0448 0.0614,0.20488 0.082,0.3557 0.0324,0.23594 0.0604,0.28548 0.1998,0.35506 0.32648,0.1628 0.57918,0.0946 1.03224,-0.27874 0.2369,-0.1952 0.57878,-0.38068 0.84664,-0.45924 0.079,-0.0232 0.119,-0.076 0.119,-0.1572 0,-0.1024 0.098,-0.1724 0.6072,-0.433 0.49966,-0.25576 0.62386,-0.30014 0.70116,-0.25056 0.0516,0.0332 0.087,0.1046 0.0784,0.1588 -0.008,0.0542 -0.0372,0.2414 -0.0638,0.41602 -0.0842,0.55434 -0.1088,0.68322 -0.1688,0.88464 -0.0444,0.149 -0.0432,0.2154 0.006,0.27372 0.0352,0.0424 0.0716,0.2351 0.081,0.42836 0.018,0.35036 0.016,0.35134 -0.1222,0.34244 -0.32608,-0.021 -0.37066,0.0832 -0.114,0.26602 l 0.1576,0.1122 -0.016,0.5273 c -0.014,0.44334 -0.0322,0.5389 -0.1158,0.60006 -0.0846,0.0618 -0.0888,0.0856 -0.0288,0.1578 0.0722,0.087 0.42808,0.1212 0.42808,0.0412 0,-0.0242 0.0588,-0.0754 0.1304,-0.1138 0.1088,-0.0582 0.145,-0.0578 0.21764,0.002 0.1492,0.1238 0.59002,0.075 1.11562,-0.1236 0.26664,-0.1006 0.5098,-0.1676 0.54036,-0.1486 0.0306,0.018 0.0896,0.1804 0.1314,0.35912 0.0416,0.1786 0.0896,0.34716 0.1064,0.37452 0.018,0.0274 0.043,0.178 0.0582,0.33482 0.014,0.1568 0.0506,0.45176 0.079,0.6555 0.0284,0.20372 0.0524,0.51572 0.0534,0.69332 0.002,0.42972 0.1502,0.66266 0.46296,0.7289 0.1974,0.0418 0.25248,0.0276 0.55886,-0.1436 l 0.33986,-0.19 0.0552,0.1172 c 0.1016,0.21552 0.22178,0.59022 0.3006,0.93742 0.043,0.1892 0.1174,0.49874 0.1654,0.68792 0.092,0.36238 0.1112,0.8967 0.0732,2.04112 -0.0226,0.6809 -0.0208,0.69514 0.12,0.90788 0.175,0.26448 0.43034,0.3692 0.69044,0.28312 0.0946,-0.0314 0.32604,-0.1518 0.51434,-0.26762 0.1992,-0.1226 0.36198,-0.1912 0.38932,-0.1638 0.0474,0.0474 0.1276,0.431 0.27142,1.30032 0.063,0.3809 0.0686,0.61928 0.028,1.19062 -0.0724,1.017 -0.1196,1.3241 -0.36912,2.4077 -0.0738,0.3209 -0.0626,0.70182 0.026,0.87302 0.0436,0.0844 0.163,0.21724 0.26534,0.29528 0.232,0.177 0.47274,0.1574 0.94454,-0.0764 0.2125,-0.1054 0.33436,-0.1402 0.35766,-0.1026 0.02,0.0314 0.0746,0.28606 0.1224,0.56578 0.048,0.27972 0.1104,0.61574 0.1386,0.7467 0.1472,0.6813 0.1486,1.6864 0.002,2.16958 -0.0308,0.1018 -0.0624,0.51046 -0.0706,0.90798 -0.014,0.66202 -0.006,0.73542 0.0956,0.87314 0.131,0.1788 0.53024,0.38862 0.81062,0.42624 0.2206,0.0296 0.84438,-0.1936 1.60472,-0.57398 0.22492,-0.1126 0.43156,-0.20462 0.45922,-0.20462 0.0612,0 0.1054,0.36332 0.1388,1.1377 0.014,0.32016 0.0386,0.87592 0.0552,1.23504 0.0304,0.65788 0.014,0.75802 -0.1918,1.13226 -0.0782,0.1428 -0.0596,0.40054 0.04,0.5525 0.1264,0.1928 0.4699,0.34024 0.64126,0.2751 0.0852,-0.0324 0.1508,-0.0316 0.1846,0.002 0.0746,0.0746 0.1132,1.9358 0.0448,2.16992 -0.0304,0.1042 -0.0936,0.31696 -0.1408,0.47292 -0.1048,0.34732 -0.0686,0.53942 0.1404,0.7485 0.31032,0.31032 0.76808,0.1742 1.3124,-0.39046 0.1298,-0.1346 0.26482,-0.2447 0.30016,-0.2447 0.0354,0 0.0902,0.0784 0.1216,0.174 0.0874,0.26502 0.2141,1.57958 0.2152,2.2337 0.002,0.91302 0.0724,1.37438 0.28052,1.82706 0.36336,0.79018 0.37206,0.86928 0.25686,2.33476 -0.0762,0.96888 -0.0538,1.09768 0.22112,1.27786 0.2523,0.1654 0.94732,0.0996 1.5286,-0.1448 0.36542,-0.1536 0.34196,-0.27086 0.35142,1.75618 0.004,1.01138 -0.014,2.06508 -0.0426,2.34156 -0.0282,0.2765 -0.0796,0.90758 -0.1146,1.40242 -0.0738,1.04748 -0.0468,1.15668 0.33764,1.36184 0.1846,0.0986 0.30722,0.1194 0.70006,0.1196 h 0.47626 l -0.008,0.1852 c -0.004,0.1018 -0.0472,0.87984 -0.0962,1.72882 -0.0968,1.681 -0.0996,1.65016 0.1902,2.02216 0.1634,0.20964 0.1092,0.65418 -0.196,1.6054 -0.0908,0.28312 -0.0914,0.31468 -0.01,0.48422 0.1626,0.34114 0.36174,0.435 1.0699,0.5045 0.348,0.0342 0.64018,0.0696 0.64928,0.0786 0.0516,0.0516 -0.73808,1.6002 -0.98836,1.93842 -0.32692,0.44178 -0.52916,0.82906 -0.664,1.2715 -0.0806,0.26416 -0.0816,0.31292 -0.01,0.4825 0.0876,0.20982 0.3886,0.46716 0.5463,0.46716 0.0588,0 0.22218,0.1362 0.38424,0.32032 0.32026,0.36384 0.32104,0.37232 0.0892,0.97614 -0.0782,0.20374 -0.1792,0.48948 -0.22422,0.635 -0.045,0.1456 -0.1008,0.31222 -0.1238,0.37042 -0.023,0.0582 -0.1536,0.39158 -0.29028,0.74084 -0.1366,0.34924 -0.27,0.67634 -0.29634,0.72688 -0.0264,0.0506 -0.048,0.1234 -0.048,0.162 0,0.0386 -0.0506,0.1748 -0.1124,0.30264 -0.1526,0.31606 -0.1818,0.5823 -0.0842,0.7711 0.112,0.21642 0.21358,0.29628 0.7256,0.57006 0.41892,0.224 0.44926,0.2515 0.44208,0.40084 -0.01,0.22258 -1.22128,2.33856 -1.58568,2.77164 -0.33846,0.40222 -0.47876,1.0622 -0.31934,1.50208 l 0.0806,0.22228 -0.35392,0.47872 c -0.59578,0.80586 -1.21184,1.71492 -1.33758,1.9737 -0.1146,0.23586 -0.116,0.25462 -0.0342,0.46302 0.0852,0.21674 0.085,0.21778 -0.0922,0.5188 -0.0976,0.1658 -0.4059,0.55164 -0.68514,0.85724 -0.5331,0.58344 -0.71848,0.87938 -0.71848,1.14704 0,0.1632 0.1686,0.45896 0.40466,0.71044 l 0.1294,0.1376 -0.21154,0.4807 c -0.2005,0.45562 -0.81706,1.67042 -0.90542,1.7839 -0.0226,0.0292 -0.1498,0.26724 -0.28244,0.52918 -0.5988,1.1821 -0.6952,1.54982 -0.50152,1.91312 0.159,0.29812 0.1278,0.55518 -0.1276,1.04976 -0.4934,0.95594 -0.93962,1.89948 -0.93962,1.98686 0,0.0288 -0.0212,0.0936 -0.047,0.1442 -0.0258,0.0506 -0.089,0.1872 -0.14,0.30356 -0.0512,0.1164 -0.1134,0.25302 -0.1382,0.30354 -0.0248,0.0506 -0.0452,0.1282 -0.0452,0.1726 0,0.0444 -0.021,0.1222 -0.0468,0.1728 -0.0258,0.0506 -0.071,0.1514 -0.1004,0.22418 -0.0296,0.0728 -0.0888,0.21564 -0.132,0.3175 -0.0982,0.23272 -0.48286,1.27894 -0.57384,1.56104 -0.0376,0.1164 -0.0872,0.2343 -0.1104,0.26194 -0.0232,0.0276 -0.0422,0.1002 -0.0422,0.1614 0,0.0612 -0.022,0.1338 -0.049,0.1614 -0.027,0.0276 -0.124,0.24076 -0.21584,0.4736 -0.28128,0.7136 -1.9757,4.0528 -2.29724,4.52718 -0.1666,0.24584 -0.43508,0.55788 -0.59654,0.6934 -0.6086,0.51084 -0.6384,0.7287 -0.1884,1.37708 0.0946,0.1362 0.172,0.2835 0.172,0.3273 0,0.0932 -0.56016,0.6008 -0.90148,0.81694 -0.45032,0.28518 -1.28788,0.65898 -1.62656,0.72594 -0.21024,0.0416 -0.47802,0.25742 -0.55072,0.44392 -0.0294,0.0754 -0.061,0.25606 -0.07,0.40158 -0.0434,0.6901 -0.0672,0.71646 -0.74056,0.82226 -0.20372,0.032 -0.42994,0.08 -0.5027,0.1066 -0.0728,0.0266 -0.27518,0.0588 -0.4498,0.0714 -0.36718,0.0266 -1.56548,0.22372 -1.79916,0.29608 -0.64798,0.20064 -2.00468,0.56652 -2.77812,0.7492 -0.2474,0.0584 -0.48552,0.1154 -0.52918,0.1264 -0.0436,0.012 -0.29368,0.068 -0.55562,0.1262 -0.26194,0.0584 -0.59532,0.1442 -0.74084,0.1906 -0.1456,0.0466 -0.4563,0.141 -0.69064,0.2101 -0.42592,0.1254 -1.33322,0.48224 -1.98164,0.77924 -0.1892,0.0866 -0.49874,0.21898 -0.68792,0.29408 -0.51774,0.20556 -1.20196,0.56226 -1.5875,0.8276 -0.1892,0.1302 -0.52786,0.3331 -0.75264,0.4509 -0.44294,0.2321 -0.57028,0.3902 -0.57028,0.708 0,0.22368 -0.0574,0.27202 -0.41202,0.34674 -0.27908,0.0588 -1.26036,0.40618 -1.36068,0.48166 -0.053,0.0398 -0.1362,0.0866 -1.32292,0.74192 -0.34926,0.1928 -0.73026,0.4065 -0.84668,0.4747 -0.88986,0.52134 -1.53028,0.73736 -3.5454,1.19594 -1.19946,0.27294 -1.81914,0.38076 -2.59292,0.45118 -0.29104,0.0264 -0.6006,0.058 -0.68792,0.07 -0.0874,0.012 -0.4065,0.0368 -0.70932,0.0552 -0.3028,0.018 -0.59636,0.0578 -0.65236,0.0878 -0.056,0.03 -0.1368,0.041 -0.1796,0.0246 -0.0428,-0.016 -0.29694,-0.008 -0.56472,0.0204 -1.31436,0.1356 -1.64412,0.1492 -2.55062,0.1064 -1.04428,-0.0494 -1.73724,-0.1224 -2.06376,-0.21742 -0.68354,-0.1988 -0.67022,-0.1938 -1.29646,-0.48556 -0.30618,-0.1426 -0.4967,-0.28388 -0.83376,-0.61808 -0.72786,-0.72174 -1.03212,-1.15968 -1.67344,-2.40872 -0.22414,-0.43656 -0.5753,-1.01996 -0.78034,-1.29646 -0.20506,-0.27648 -0.56338,-0.82342 -0.7963,-1.2154 -0.48588,-0.8177 -0.59074,-0.95964 -1.20144,-1.62624 -0.52528,-0.57334 -1.12452,-1.01984 -1.56742,-1.16788 -0.62676,-0.2095 -1.07518,-0.29162 -1.44704,-0.26502 -0.58338,0.0418 -0.75306,0.2171 -0.7671,0.79276 -0.008,0.34092 -0.01,0.34594 -0.3142,0.6738 -0.41822,0.45172 -0.85468,1.1035 -1.34746,2.01222 -0.56428,1.0406 -1.02984,1.67314 -1.67358,2.27384 -0.1424,0.133 -0.3809,0.36118 -0.52984,0.50718 -0.149,0.146 -0.37794,0.33844 -0.50892,0.42764 -0.131,0.0892 -0.35718,0.24286 -0.5027,0.34148 -0.1456,0.0986 -0.2884,0.1988 -0.3175,0.22242 -0.0292,0.0238 -0.2315,0.1574 -0.4498,0.29708 -0.21828,0.1396 -0.50164,0.32342 -0.62968,0.40828 -0.128,0.0848 -0.27092,0.178 -0.3175,0.2071 -0.0466,0.029 -0.1676,0.1124 -0.26894,0.1852 -0.1014,0.0728 -0.27168,0.192 -0.37854,0.26472 -0.3581,0.24384 -0.80912,0.59652 -1.31574,1.02886 -0.2765,0.23594 -0.6456,0.54692 -0.82022,0.69106 -0.1746,0.1442 -0.3294,0.27628 -0.34396,0.29364 -0.0422,0.0504 -1.28412,1.08864 -1.95376,1.63342 -1.58096,1.2862 -2.97124,2.6243 -4.34396,4.18088 -0.42166,0.47814 -1.062,1.20442 -1.42298,1.61396 -0.36096,0.40956 -0.76578,0.86456 -0.89958,1.01116 -0.31008,0.33972 -0.39046,0.43192 -1.40538,1.61202 -2.26656,2.63548 -3.83592,4.2353 -4.67938,4.7702 -0.26438,0.1676 -0.61816,0.198 -0.95828,0.082 z"
       id="path980" />
  </g>
</svg>
